<svg width="44" height="26" viewBox="0 0 44 26" fill="none" xmlns="http://www.w3.org/2000/svg">
<g opacity="0.19" clip-path="url(#clip0_284_4415)">
<path d="M0.453613 12.6322C2.95054 16.8966 5.44746 21.161 7.81528 25.5683C10.8475 23.775 14.2638 22.5927 17.7872 22.1155C19.793 21.8449 21.9467 21.8267 23.7131 22.7841C24.409 23.161 25.0607 23.693 25.8574 23.7507C27.0066 23.8358 27.9387 22.9118 28.7636 22.0091C33.4489 20.4468 38.4837 20.2218 43.3705 19.9787C41.9535 18.4072 39.8628 17.4954 38.5057 15.93C39.4503 15.924 40.3949 16.0182 41.2986 16.1215C40.376 14.6534 39.1764 13.3495 37.791 12.3373C38.131 12.1914 38.4994 12.1003 38.8458 12.0486C37.1675 10.5957 35.5869 9.03643 34.1322 7.33734C32.4287 5.48323 30.8386 3.53187 29.28 1.44372C28.6786 1.34038 28.0394 1.46804 27.5199 1.79327C27.0602 1.28263 26.6697 0.717278 26.3139 0.109375C24.2326 0.933083 22.3529 2.22184 20.8383 3.86621C19.8874 5.06682 19.0593 6.36165 18.3949 7.74767C17.8502 8.83886 17.5007 10.0182 17.2897 11.1975C14.8936 9.62001 12.0849 8.63825 9.19442 8.35254C6.814 8.31302 4.32652 8.41029 2.22319 9.54706C2.34284 9.79327 2.44674 10.0486 2.57269 10.2613C2.29246 10.3161 2.04371 10.4832 1.85164 10.6899C1.65957 10.8966 1.52102 11.1428 1.39193 11.389C1.50528 11.6595 1.66272 11.9088 1.85794 12.1307C1.39822 12.2826 0.954257 12.465 0.453613 12.6322Z" fill="white"/>
<path d="M26.6571 22.5136C28.1842 21.0728 29.3713 19.1883 31.207 18.2157C33.5213 17.006 36.0402 16.0151 38.7292 15.9391C39.9667 17.5348 41.8622 18.5227 43.3326 19.9239C38.8268 20.0424 34.3368 20.626 29.9601 21.6655C29.2013 21.8449 28.4015 22.0637 27.8725 22.62C27.8977 22.5196 28.0016 22.4406 28.1087 22.4406C27.4065 23.1397 26.4021 23.544 25.3945 23.5348C25.1804 23.5318 24.9631 23.5105 24.771 23.4224C24.5852 23.3342 24.4373 23.1853 24.2767 23.0576C23.8296 22.6929 23.2691 22.4619 22.7621 22.24C20.1897 21.7385 17.5038 21.9543 14.9723 22.623C12.4407 23.2917 10.0571 24.4041 7.65781 25.5196C7.66096 24.8935 7.32405 24.319 6.99973 23.781C4.79564 20.1215 2.59155 16.4619 0.510254 12.8449C0.81253 12.3829 1.3604 12.0789 1.92087 12.0029C3.04811 13.5896 3.95179 15.3069 4.85547 17.0212C5.92288 19.0485 6.99029 21.0759 8.03251 23.0759C10.5609 21.7355 13.3192 20.6868 16.1971 20.5196C16.8709 20.4801 17.5447 20.4893 18.2186 20.5288C20.5108 20.6595 22.8661 21.1579 24.6955 22.5014C24.7868 22.5683 24.8812 22.6412 24.9914 22.6777C25.1079 22.7172 25.2339 22.7142 25.3567 22.7051C25.8888 22.6686 26.4776 22.6838 26.6571 22.5136Z" fill="white"/>
<path d="M7.84671 25.9999C7.81522 25.9999 7.78688 25.9969 7.75539 25.9908C7.65149 25.9665 7.56647 25.8996 7.51609 25.8115L3.13939 18.0333C2.19793 16.3616 1.22498 14.6321 0.0694062 13.0637C-0.0502446 12.8996 -0.0124602 12.6716 0.15757 12.5561C0.3276 12.4406 0.563753 12.4801 0.683404 12.6412C1.86102 14.2461 2.84656 15.9938 3.80062 17.6868L7.9821 25.1154C10.9167 23.2887 14.0843 22.1367 17.4062 21.6868C20.3785 21.2856 22.7621 21.6412 24.4939 22.7507C25.2276 23.237 26.2414 23.2917 27.0192 22.8874C27.2868 22.7507 27.5293 22.5622 27.7875 22.3646C27.9449 22.2431 28.1055 22.1184 28.2787 22.0029C29.3272 21.2947 30.6055 20.9969 31.7233 20.775C35.0137 20.1215 38.5371 19.7628 42.4636 19.6899C41.0592 18.699 39.7021 17.6382 38.4112 16.5197C38.2569 16.3859 38.2443 16.1549 38.3828 16.006C38.5214 15.857 38.7607 15.8449 38.915 15.9786C40.4673 17.3221 42.1235 18.5896 43.8364 19.7415C43.9718 19.8327 44.0285 19.9969 43.9812 20.1488C43.934 20.3008 43.786 20.4042 43.6223 20.4042C39.2771 20.4254 35.4357 20.778 31.8745 21.4893C30.8323 21.6959 29.642 21.9695 28.71 22.6017C28.5589 22.7051 28.4109 22.8175 28.2566 22.9361C27.9827 23.1458 27.7024 23.3616 27.375 23.5318C26.3548 24.0607 25.026 23.9908 24.072 23.3555C22.5039 22.3525 20.2935 22.0333 17.5101 22.4102C14.1693 22.8631 10.9891 24.0485 8.05452 25.9422C7.9947 25.9786 7.92228 25.9999 7.84671 25.9999Z" fill="black"/>
<path d="M0.37786 13.1369C0.289697 13.1369 0.201533 13.1065 0.129113 13.0457C-0.0283226 12.912 -0.0440661 12.684 0.0944769 12.5321C0.239317 12.374 0.318035 12.3102 0.535296 12.219C0.843869 12.0913 1.15874 11.9728 1.47676 11.8695C1.67513 11.8056 1.88924 11.909 1.95536 12.1005C2.02148 12.2919 1.91443 12.4986 1.71606 12.5625C1.42008 12.6567 1.1241 12.7661 0.834423 12.8877C0.736813 12.9272 0.736813 12.9272 0.661244 13.0123C0.585675 13.0944 0.481768 13.1369 0.37786 13.1369Z" fill="black"/>
<path d="M25.895 22.6142C25.8573 22.6142 25.8226 22.5929 25.8069 22.5564C25.259 21.2677 25.2873 19.678 25.8919 18.0792C26.6067 16.1887 27.9826 14.4379 29.875 13.0154C31.4021 11.8665 33.2756 10.9181 35.5962 10.1096C34.661 9.29504 28.4612 3.84215 26.2792 0.200815C21.8112 1.86343 18.272 6.292 17.466 11.2464C17.4597 11.2768 17.4408 11.3042 17.4124 11.3163C17.3841 11.3285 17.3495 11.3254 17.3243 11.3102C14.9029 9.81176 12.3808 8.88167 9.8335 8.54124C7.15395 8.18562 4.49645 8.57468 2.33958 9.63547C2.67335 10.3224 3.00396 11.0063 3.33772 11.6902C4.81761 14.7358 6.35103 17.8847 7.74906 21.0184C11.2945 19.2251 15.6838 18.8391 20.791 19.8756C23.0675 20.3376 24.6356 21.1856 25.5896 22.4744C25.6211 22.5139 25.6085 22.5716 25.5676 22.602C25.5266 22.6324 25.4668 22.6203 25.4353 22.5808C24.5128 21.3315 22.9793 20.5078 20.7532 20.0549C15.646 19.0184 11.2693 19.4136 7.74591 21.2251C7.72387 21.2373 7.69553 21.2403 7.67034 21.2312C7.64515 21.2221 7.62626 21.2039 7.61366 21.1826C6.20619 18.0245 4.66018 14.8452 3.16454 11.7692C2.81819 11.061 2.47498 10.3498 2.12862 9.63547C2.10658 9.58987 2.12547 9.5382 2.16955 9.51692C4.37365 8.4075 7.10357 7.99717 9.85869 8.36191C12.3934 8.6993 14.8966 9.61419 17.3054 11.0823C18.1681 6.09139 21.7639 1.6537 26.2886 0.00628611C26.3327 -0.00891146 26.3799 0.00628611 26.4051 0.0457998C28.6974 3.94246 35.7694 10.0184 35.8418 10.0792C35.867 10.1005 35.8796 10.1339 35.8733 10.1643C35.867 10.1947 35.845 10.2221 35.8135 10.2312C33.4425 11.0428 31.5407 12.0002 29.9947 13.1613C28.1306 14.5595 26.7767 16.2829 26.0745 18.1431C25.4889 19.6993 25.4574 21.2434 25.9864 22.4896C26.0052 22.5352 25.9832 22.5899 25.936 22.6081C25.9202 22.6112 25.9076 22.6142 25.895 22.6142Z" fill="black"/>
<path d="M26.2698 22.6232H26.2666C26.2162 22.6201 26.1753 22.5776 26.1753 22.5289C26.1753 22.4955 26.3485 19.152 29.2736 16.3283C30.7567 14.8967 32.6648 13.7721 34.9476 12.9818C36.2071 12.5472 37.5138 12.2463 38.6599 11.997C35.2184 8.86025 32.0665 5.33746 29.2862 1.52895C28.7006 1.456 28.0992 1.5715 27.5891 1.85721C27.5418 1.88153 27.4852 1.86633 27.46 1.82378C27.4348 1.78123 27.4505 1.72348 27.4946 1.69916C28.0551 1.38609 28.7163 1.26451 29.3555 1.35569C29.3807 1.35873 29.4027 1.37393 29.4185 1.39217C32.2303 5.25235 35.4293 8.8177 38.9213 11.9849C38.9464 12.0092 38.9559 12.0426 38.9464 12.0761C38.937 12.1095 38.9087 12.1338 38.8772 12.1399C37.6964 12.3922 36.3267 12.7022 35.0137 13.1551C32.7561 13.9362 30.87 15.0457 29.409 16.459C26.5405 19.228 26.3674 22.5046 26.3674 22.5381C26.3611 22.5837 26.3201 22.6232 26.2698 22.6232Z" fill="black"/>
<path d="M26.7232 22.6142C26.7043 22.6142 26.6823 22.6081 26.6665 22.596C26.6256 22.5656 26.6193 22.5078 26.6508 22.4683C26.7232 22.3771 28.4644 20.2343 29.3429 19.4774C31.9941 17.1948 36.8022 15.1887 41.1883 16.0853C40.2626 14.6446 39.1291 13.441 37.7342 12.4106C37.6933 12.3802 37.6838 12.3224 37.7153 12.2829C37.7468 12.2434 37.8066 12.2343 37.8476 12.2647C39.3212 13.3528 40.5051 14.6294 41.4623 16.1705C41.4812 16.2008 41.4812 16.2404 41.456 16.2708C41.4339 16.3011 41.3962 16.3133 41.3584 16.3042C36.9817 15.3072 32.1264 17.3194 29.4657 19.6081C28.5998 20.3528 26.8145 22.5534 26.7956 22.5777C26.7767 22.6021 26.7515 22.6142 26.7232 22.6142Z" fill="black"/>
<path d="M25.744 22.6203C25.7125 22.6203 25.681 22.6051 25.6621 22.5747C24.7332 21.0063 23.5997 19.526 22.504 18.0975L17.2551 11.2312C17.2236 11.1917 17.233 11.1339 17.274 11.1035C17.3149 11.0731 17.3747 11.0823 17.4062 11.1218L22.6582 17.985C23.7571 19.4197 24.8907 20.9029 25.8258 22.4804C25.851 22.523 25.8353 22.5807 25.7912 22.6051C25.7786 22.6142 25.7629 22.6203 25.744 22.6203Z" fill="black"/>
<path d="M24.1443 16.4619C24.1349 16.4619 24.1254 16.4619 24.1128 16.4558C24.0624 16.4406 24.0373 16.389 24.053 16.3403C25.1645 13.1823 27.7527 10.5896 30.9801 9.40111C31.0274 9.38287 31.0841 9.40719 31.1029 9.45278C31.1218 9.49837 31.0967 9.55309 31.0494 9.57132C27.8755 10.7385 25.3251 13.2917 24.2325 16.3981C24.2199 16.4376 24.1821 16.4619 24.1443 16.4619Z" fill="black"/>
<path d="M22.8156 14.6049C22.803 14.6049 22.7904 14.6019 22.7778 14.5989C22.7306 14.5776 22.7086 14.5259 22.7275 14.4803C22.8062 14.3071 22.8817 14.1338 22.9542 13.9636C23.7665 12.1125 24.4718 10.5107 26.2131 9.30403C26.254 9.27364 26.3138 9.28275 26.3453 9.32531C26.3768 9.36482 26.3674 9.42257 26.3233 9.45297C24.623 10.6293 23.9303 12.2098 23.1273 14.0366C23.0518 14.2068 22.9762 14.38 22.9006 14.5533C22.8849 14.5837 22.8502 14.6049 22.8156 14.6049Z" fill="black"/>
<path d="M27.6709 8.39821C27.6426 8.39821 27.6142 8.38606 27.5954 8.36174C27.5639 8.32223 27.5702 8.26448 27.6111 8.23408C28.1212 7.85414 28.6376 7.6201 29.0532 7.43165L29.0815 7.41949C29.1288 7.39821 29.1854 7.41645 29.2075 7.46204C29.2295 7.50764 29.2106 7.56235 29.1634 7.58362L29.1351 7.59578C28.7257 7.78119 28.2188 8.0122 27.7276 8.37998C27.7087 8.39213 27.6898 8.39821 27.6709 8.39821Z" fill="black"/>
<path d="M21.0743 12.9421C21.0648 12.9421 21.0523 12.939 21.0428 12.936C20.9956 12.9177 20.9704 12.8661 20.9861 12.8205C22.3558 9.25817 24.3773 7.09707 27.5449 5.82048C27.5921 5.80224 27.6488 5.82352 27.6677 5.86911C27.6866 5.9147 27.6645 5.96941 27.6173 5.98765C24.5032 7.24601 22.5133 9.37063 21.1625 12.8843C21.1467 12.9208 21.1121 12.9421 21.0743 12.9421Z" fill="black"/>
<path d="M19.5442 11.6231C19.5347 11.6231 19.5253 11.6231 19.519 11.6201C19.4686 11.6049 19.4403 11.5562 19.456 11.5076C19.519 11.2979 19.5788 11.0882 19.6355 10.8845C19.9346 9.82068 20.218 8.81765 21.0052 7.95442C21.0398 7.91795 21.0996 7.91187 21.1374 7.9453C21.1752 7.97874 21.1815 8.03649 21.1469 8.07296C20.388 8.90579 20.1109 9.88755 19.8181 10.9301C19.7614 11.1368 19.7016 11.3465 19.6386 11.5562C19.6229 11.5958 19.5851 11.6231 19.5442 11.6231Z" fill="black"/>
<path d="M22.0002 7.05782C21.9781 7.05782 21.9592 7.05174 21.9404 7.03654C21.8994 7.00615 21.8931 6.9484 21.9278 6.90888C22.3654 6.38913 22.9133 5.73867 23.5808 5.36481C23.6249 5.3405 23.6847 5.35265 23.7099 5.39825C23.7351 5.4408 23.7194 5.49855 23.6753 5.52287C23.0361 5.88153 22.504 6.51679 22.0726 7.02439C22.0537 7.04566 22.0285 7.05782 22.0002 7.05782Z" fill="black"/>
<path d="M24.4782 4.9729C24.453 4.9729 24.4278 4.96378 24.4089 4.94555C24.3743 4.90907 24.3743 4.85132 24.412 4.81789C24.7301 4.52609 25.3535 4.1036 25.7754 3.94251C25.8227 3.92427 25.8793 3.94555 25.8982 3.99418C25.9171 4.03977 25.8951 4.09448 25.8447 4.11272C25.448 4.26469 24.8403 4.67807 24.5411 4.95162C24.5254 4.96682 24.5034 4.9729 24.4782 4.9729Z" fill="black"/>
<path d="M25.3315 22.7781C24.7584 22.7781 24.2231 22.6991 23.7256 22.5411C23.6752 22.5259 23.65 22.4742 23.6658 22.4256C23.6815 22.3769 23.7351 22.3526 23.7854 22.3678C24.6324 22.6383 25.6022 22.6687 26.6697 22.459C27.6709 22.2614 28.6313 21.8815 29.4531 21.538C29.5003 21.5167 29.557 21.538 29.5759 21.5867C29.598 21.6322 29.5759 21.687 29.5255 21.7052C28.6943 22.0517 27.7213 22.4377 26.7043 22.6383C26.2288 22.7325 25.7691 22.7781 25.3315 22.7781Z" fill="black"/>
<path d="M8.14272 23.2034C8.13642 23.2034 8.12698 23.2034 8.12068 23.2004C8.09549 23.1943 8.07345 23.1791 8.06085 23.1579C7.25794 21.7962 6.52114 20.3676 5.80953 18.9876C4.49652 16.4375 3.13628 13.8022 1.30688 11.474C1.28484 11.4466 1.28169 11.4101 1.29744 11.3797C1.55248 10.8721 1.97756 10.4496 2.4908 10.1852C2.53803 10.1609 2.5947 10.1791 2.61989 10.2217C2.64508 10.2673 2.62619 10.322 2.58211 10.3433C2.11925 10.5803 1.73511 10.9572 1.49581 11.4071C3.31891 13.7384 4.67285 16.3645 5.98271 18.9056C6.67857 20.2582 7.39963 21.6533 8.18051 22.9846C11.7795 20.8113 16.1499 19.9512 20.1865 20.6259C22.1639 20.9572 23.754 21.6138 24.9096 22.5743C24.9505 22.6077 24.9537 22.6655 24.919 22.7019C24.8844 22.7414 24.8246 22.7445 24.7868 22.711C23.6564 21.7688 22.0978 21.1275 20.155 20.8022C16.131 20.1305 11.7732 20.9998 8.19625 23.1852C8.17736 23.1974 8.16161 23.2034 8.14272 23.2034Z" fill="black"/>
<path d="M9.04325 17.9269C9.00861 17.9269 8.97712 17.9087 8.96138 17.8813C8.93619 17.8388 8.95193 17.781 8.99916 17.7567C10.5483 16.93 12.447 16.5166 14.4842 16.5591C16.1688 16.5956 17.9824 16.936 20.0291 17.5986C20.0795 17.6138 20.1046 17.6655 20.0889 17.7142C20.0732 17.7628 20.0196 17.7871 19.9693 17.7719C17.9383 17.1154 16.1436 16.778 14.4779 16.7415C12.469 16.6959 10.6082 17.1032 9.08418 17.9148C9.07158 17.9239 9.05584 17.9269 9.04325 17.9269Z" fill="black"/>
<path d="M17.9382 15.3252C17.9257 15.3252 17.9162 15.3222 17.9036 15.3192C16.8897 14.9362 15.8223 14.7143 14.7329 14.6596C14.6825 14.6565 14.6416 14.614 14.6447 14.5623C14.6479 14.5137 14.6856 14.4742 14.7455 14.4772C15.8538 14.535 16.9401 14.7629 17.9729 15.1489C18.0201 15.1672 18.0453 15.2189 18.0264 15.2675C18.0107 15.304 17.976 15.3252 17.9382 15.3252Z" fill="black"/>
<path d="M8.13 15.7932C8.10166 15.7932 8.07332 15.7811 8.05443 15.7567C8.02294 15.7172 8.03239 15.6595 8.07647 15.6291C9.37374 14.7233 11.0709 14.5197 12.5634 14.3981C12.6106 14.392 12.661 14.4315 12.6641 14.4801C12.6673 14.5288 12.6295 14.5744 12.5791 14.5774C11.115 14.696 9.44616 14.8935 8.18982 15.7719C8.17093 15.7902 8.15204 15.7932 8.13 15.7932Z" fill="black"/>
<path d="M6.75099 13.526C6.71636 13.526 6.68487 13.5078 6.66598 13.4774C6.64079 13.4318 6.65968 13.3771 6.70691 13.3558C10.0382 11.6719 14.5661 11.8938 16.7009 13.1582C16.745 13.1856 16.7607 13.2403 16.7324 13.2828C16.704 13.3254 16.6474 13.3376 16.6033 13.3132C14.5094 12.0762 10.0697 11.8634 6.79508 13.5169C6.78248 13.5199 6.76674 13.526 6.75099 13.526Z" fill="black"/>
<path d="M15.6523 11.6229C15.6397 11.6229 15.624 11.6199 15.6114 11.6138L15.4634 11.5469C14.7045 11.2035 14.0465 10.9056 13.2278 10.6959C13.1774 10.6837 13.1491 10.632 13.1617 10.5834C13.1743 10.5348 13.2278 10.5044 13.2782 10.5196C14.1126 10.7354 14.777 11.0332 15.5421 11.3828L15.6901 11.4497C15.7373 11.4709 15.7562 11.5256 15.7342 11.5712C15.7216 11.6047 15.6901 11.6229 15.6523 11.6229Z" fill="black"/>
<path d="M5.49457 11.3767C5.45993 11.3767 5.4253 11.3585 5.40955 11.3251C5.38751 11.2795 5.40641 11.2248 5.45364 11.2035C7.41213 10.2673 9.69809 10.2947 11.7164 10.319C11.7668 10.319 11.8109 10.3615 11.8109 10.4102C11.8109 10.4588 11.7668 10.5014 11.7164 10.5014C9.72013 10.477 7.45936 10.4497 5.5418 11.3646C5.52291 11.3737 5.50716 11.3767 5.49457 11.3767Z" fill="black"/>
<path d="M16.0679 6.4074C16.0207 6.4074 15.9829 6.37397 15.9735 6.32837C15.8066 5.22199 15.9924 4.0609 16.4993 3.05482C16.5213 3.00922 16.578 2.99099 16.6253 3.01226C16.6725 3.03354 16.6914 3.08825 16.6693 3.13384C16.1813 4.10649 16.0018 5.23111 16.1624 6.30102C16.1687 6.34965 16.1341 6.39828 16.0837 6.40436C16.0774 6.4074 16.0742 6.4074 16.0679 6.4074Z" fill="black"/>
<path d="M14.7959 6.04583C14.7549 6.04583 14.7171 6.02152 14.7045 5.982C14.4999 5.30723 14.2606 4.62942 13.9992 3.96985C13.9803 3.92425 14.0055 3.86954 14.0528 3.85131C14.1031 3.83307 14.1567 3.85738 14.1756 3.90298C14.44 4.56559 14.6793 5.24644 14.8872 5.92729C14.9029 5.97592 14.8746 6.02456 14.8242 6.03976C14.8116 6.04279 14.8053 6.04583 14.7959 6.04583Z" fill="black"/>
<path d="M12.9287 6.47729C12.9067 6.47729 12.8878 6.47121 12.8689 6.45602C12.0849 5.84507 11.0962 5.49857 10.0917 5.47729C10.0382 5.47729 9.99727 5.43474 10.0004 5.38307C10.0004 5.3314 10.0413 5.29492 10.098 5.29492C11.1465 5.3162 12.173 5.6779 12.9917 6.31316C13.0326 6.34355 13.0389 6.40131 13.0074 6.44082C12.9854 6.46817 12.957 6.47729 12.9287 6.47729Z" fill="black"/>
</g>
<defs>
<clipPath id="clip0_284_4415">
<rect width="44" height="26" fill="white"/>
</clipPath>
</defs>
</svg>
