<svg width="28" height="28" viewBox="0 0 28 28" fill="none" xmlns="http://www.w3.org/2000/svg">
<path d="M27.1967 22.3786C27.1967 22.8551 27.0908 23.3449 26.8657 23.8214C26.6407 24.2979 26.3495 24.7479 25.9657 25.1715C25.3171 25.8863 24.6023 26.4025 23.7949 26.7334C23.0007 27.0643 22.1404 27.2364 21.2138 27.2364C19.8637 27.2364 18.4209 26.9187 16.8988 26.2701C15.3766 25.6215 13.8544 24.7479 12.3455 23.6493C10.8233 22.5375 9.38051 21.3065 8.00393 19.9431C6.64058 18.5665 5.4096 17.1238 4.31098 15.6148C3.2256 14.1059 2.352 12.5969 1.71665 11.1012C1.08131 9.59229 0.763636 8.14953 0.763636 6.77295C0.763636 5.87287 0.922473 5.01251 1.24015 4.21833C1.55782 3.41091 2.0608 2.66967 2.76233 2.00785C3.60945 1.17396 4.536 0.763636 5.51549 0.763636C5.88611 0.763636 6.25673 0.843055 6.58764 1.00189C6.93178 1.16073 7.23622 1.39898 7.47447 1.74313L10.5453 6.07142C10.7836 6.40233 10.9556 6.70676 11.0748 6.99796C11.1939 7.27593 11.2601 7.55389 11.2601 7.80538C11.2601 8.12305 11.1674 8.44073 10.9821 8.74516C10.81 9.0496 10.5585 9.36727 10.2409 9.68494L9.23491 10.7306C9.08931 10.8762 9.02313 11.0483 9.02313 11.2601C9.02313 11.366 9.03636 11.4586 9.06284 11.5645C9.10255 11.6704 9.14225 11.7498 9.16873 11.8292C9.40698 12.266 9.81731 12.8352 10.3997 13.5235C10.9953 14.2118 11.6307 14.9133 12.319 15.6148C13.0337 16.3164 13.722 16.9649 14.4236 17.5606C15.1119 18.143 15.681 18.5401 16.1311 18.7783C16.1972 18.8048 16.2767 18.8445 16.3693 18.8842C16.4752 18.9239 16.5811 18.9372 16.7002 18.9372C16.9252 18.9372 17.0973 18.8577 17.2429 18.7121L18.2489 17.7194C18.5798 17.3885 18.8975 17.137 19.2019 16.9782C19.5063 16.7929 19.8108 16.7002 20.1417 16.7002C20.3932 16.7002 20.6579 16.7532 20.9491 16.8723C21.2403 16.9914 21.5447 17.1635 21.8756 17.3885L26.2569 20.4991C26.601 20.7373 26.8393 21.0153 26.9849 21.3462C27.1172 21.6771 27.1967 22.008 27.1967 22.3786Z" stroke="white" stroke-width="1.5" stroke-miterlimit="10"/>
<path d="M22.6035 10.0289C22.6035 9.23471 21.9814 8.01696 21.0549 7.02424C20.2078 6.11093 19.0827 5.39616 17.9708 5.39616" stroke="white" stroke-width="1.5" stroke-linecap="round" stroke-linejoin="round"/>
<path d="M27.2363 10.0291C27.2363 4.90662 23.0933 0.763636 17.9708 0.763636" stroke="white" stroke-width="1.5" stroke-linecap="round" stroke-linejoin="round"/>
</svg>
