<svg width="20" height="12" viewBox="0 0 20 12" fill="none" xmlns="http://www.w3.org/2000/svg">
<g opacity="0.19" clip-path="url(#clip0_284_4469)">
<path d="M0.206299 5.83005C1.34126 7.79825 2.47623 9.76645 3.55251 11.8006C4.93079 10.9729 6.48367 10.4272 8.08522 10.2069C8.99691 10.0821 9.97587 10.0737 10.7788 10.5156C11.0951 10.6895 11.3914 10.935 11.7535 10.9617C12.2759 11.001 12.6995 10.5745 13.0745 10.1578C15.2042 9.43678 17.4927 9.33297 19.714 9.22074C19.0699 8.49547 18.1196 8.07461 17.5027 7.35214C17.9321 7.34933 18.3614 7.39282 18.7722 7.44052C18.3529 6.76294 17.8076 6.16112 17.1778 5.69397C17.3324 5.62663 17.4998 5.58455 17.6573 5.5607C16.8944 4.89013 16.176 4.17047 15.5147 3.38628C14.7404 2.53054 14.0177 1.6299 13.3092 0.666145C13.0358 0.618448 12.7453 0.677368 12.5091 0.827473C12.3002 0.591794 12.1227 0.330863 11.961 0.050293C11.0149 0.430466 10.1605 1.02528 9.47208 1.78422C9.03985 2.33835 8.66343 2.93596 8.36144 3.57566C8.11384 4.07929 7.95497 4.62359 7.85908 5.1679C6.76992 4.43982 5.49326 3.9867 4.17939 3.85483C3.09738 3.83659 1.96671 3.88148 1.01065 4.40615C1.06504 4.51978 1.11227 4.63762 1.16952 4.73582C1.04214 4.76107 0.92907 4.83823 0.841765 4.93362C0.75446 5.02902 0.691486 5.14265 0.632805 5.25628C0.684329 5.38113 0.755891 5.49617 0.844627 5.59857C0.635668 5.66872 0.433864 5.75289 0.206299 5.83005Z" fill="white"/>
<path d="M12.1169 10.3906C12.811 9.72566 13.3506 8.85589 14.185 8.40698C15.2369 7.84865 16.3819 7.39132 17.6042 7.35624C18.1667 8.09274 19.0283 8.54867 19.6967 9.19538C17.6486 9.2501 15.6076 9.51944 13.6182 9.99922C13.2733 10.082 12.9098 10.183 12.6693 10.4397C12.6808 10.3934 12.728 10.3569 12.7767 10.3569C12.4575 10.6796 12.0009 10.8662 11.5429 10.862C11.4456 10.8606 11.3469 10.8507 11.2596 10.8101C11.1751 10.7694 11.1078 10.7006 11.0349 10.6417C10.8316 10.4734 10.5769 10.3668 10.3464 10.2644C9.17712 10.0329 7.95628 10.1325 6.80557 10.4411C5.65486 10.7497 4.57142 11.2632 3.48082 11.778C3.48226 11.489 3.32911 11.2239 3.1817 10.9756C2.17984 9.28657 1.17798 7.59753 0.231934 5.92814C0.369332 5.71491 0.618366 5.57462 0.873124 5.53955C1.3855 6.27184 1.79627 7.06445 2.20703 7.85566C2.69222 8.79136 3.1774 9.72707 3.65114 10.6501C4.80042 10.0315 6.05417 9.5475 7.36232 9.47034C7.6686 9.45211 7.97488 9.45632 8.28117 9.47455C9.3231 9.53487 10.3937 9.76494 11.2252 10.385C11.2667 10.4159 11.3096 10.4495 11.3597 10.4664C11.4127 10.4846 11.4699 10.4832 11.5258 10.479C11.7676 10.4622 12.0353 10.4692 12.1169 10.3906Z" fill="white"/>
<path d="M3.5668 11.9996C3.55248 11.9996 3.5396 11.9982 3.52529 11.9954C3.47806 11.9842 3.43942 11.9533 3.41652 11.9126L1.42711 8.32274C0.99917 7.55117 0.55692 6.75295 0.0316592 6.02908C-0.0227275 5.95332 -0.00555273 5.84811 0.0717336 5.7948C0.14902 5.74149 0.256362 5.75973 0.310749 5.83408C0.846029 6.57479 1.294 7.38143 1.72767 8.16281L3.62834 11.5914C4.96224 10.7483 6.40206 10.2166 7.91201 10.009C9.26309 9.82379 10.3465 9.98793 11.1337 10.5C11.4672 10.7244 11.928 10.7497 12.2816 10.5631C12.4032 10.5 12.5134 10.413 12.6308 10.3218C12.7023 10.2657 12.7753 10.2082 12.854 10.1549C13.3306 9.828 13.9117 9.69052 14.4198 9.58811C15.9154 9.2865 17.517 9.12096 19.3017 9.08729C18.6634 8.62996 18.0465 8.14037 17.4597 7.62412C17.3896 7.56239 17.3839 7.45578 17.4469 7.38704C17.5098 7.3183 17.6186 7.31269 17.6887 7.37441C18.3943 7.99447 19.1472 8.57946 19.9257 9.11114C19.9873 9.15323 20.0131 9.22898 19.9916 9.29913C19.9701 9.36927 19.9028 9.41696 19.8284 9.41696C17.8533 9.42678 16.1072 9.58952 14.4885 9.91778C14.0148 10.0132 13.4738 10.1394 13.0501 10.4312C12.9814 10.4789 12.9142 10.5308 12.844 10.5855C12.7195 10.6823 12.5921 10.7819 12.4433 10.8605C11.9796 11.1046 11.3756 11.0723 10.9419 10.7791C10.2292 10.3162 9.22444 10.1689 7.95924 10.3428C6.4407 10.5519 4.99516 11.099 3.66126 11.973C3.63406 11.9898 3.60115 11.9996 3.5668 11.9996Z" fill="black"/>
<path d="M0.171755 6.06294C0.13168 6.06294 0.0916058 6.04891 0.0586876 6.02085C-0.0128739 5.95913 -0.02003 5.85391 0.0429441 5.78377C0.108781 5.71082 0.144561 5.68136 0.243316 5.63928C0.383577 5.58036 0.5267 5.52564 0.671254 5.47795C0.761421 5.44849 0.858745 5.49618 0.888801 5.58456C0.918856 5.67294 0.870195 5.76834 0.780027 5.7978C0.645492 5.84129 0.510956 5.89179 0.379283 5.9479C0.334915 5.96614 0.334915 5.96614 0.300565 6.00542C0.266216 6.0433 0.218985 6.06294 0.171755 6.06294Z" fill="black"/>
<path d="M11.7705 10.4371C11.7533 10.4371 11.7376 10.4273 11.7304 10.4104C11.4814 9.81563 11.4943 9.08194 11.7691 8.34404C12.094 7.47146 12.7194 6.66342 13.5796 6.00688C14.2737 5.47661 15.1253 5.03892 16.1801 4.66576C15.755 4.28979 12.9369 1.77308 11.9451 0.0924585C9.91419 0.859819 8.30549 2.90377 7.9391 5.19042C7.93623 5.20445 7.92765 5.21708 7.91476 5.22269C7.90188 5.2283 7.88614 5.2269 7.87469 5.21988C6.77407 4.52828 5.62766 4.09901 4.46979 3.94189C3.25182 3.77775 2.04386 3.95732 1.06347 4.44691C1.21518 4.76396 1.36546 5.0796 1.51717 5.39524C2.18985 6.8009 2.88686 8.25426 3.52232 9.7006C5.13389 8.87291 7.12902 8.69475 9.45047 9.17312C10.4853 9.38636 11.198 9.77775 11.6317 10.3726C11.646 10.3908 11.6403 10.4175 11.6216 10.4315C11.603 10.4455 11.5758 10.4399 11.5615 10.4217C11.1422 9.84509 10.4452 9.46492 9.4333 9.25589C7.11185 8.77752 5.12244 8.95989 3.52089 9.79599C3.51087 9.8016 3.49799 9.803 3.48654 9.7988C3.47509 9.79459 3.4665 9.78617 3.46078 9.77635C2.82102 8.31879 2.11829 6.8514 1.43845 5.43172C1.28102 5.10485 1.12501 4.77658 0.967577 4.44691C0.957558 4.42587 0.966145 4.40202 0.986183 4.3922C1.98804 3.88016 3.22892 3.69078 4.48124 3.85912C5.63338 4.01483 6.77121 4.43709 7.8661 5.11467C8.25826 2.81119 9.89272 0.763022 11.9494 0.00267592C11.9694 -0.00433834 11.9909 0.00267592 12.0024 0.020913C13.0443 1.81937 16.2588 4.62367 16.2918 4.65173C16.3032 4.66155 16.3089 4.67698 16.3061 4.69101C16.3032 4.70504 16.2932 4.71766 16.2789 4.72187C15.2012 5.09643 14.3367 5.53833 13.634 6.07422C12.7867 6.71953 12.1712 7.51495 11.8521 8.3735C11.5859 9.09176 11.5716 9.80441 11.812 10.3796C11.8206 10.4006 11.8106 10.4259 11.7891 10.4343C11.7819 10.4357 11.7762 10.4371 11.7705 10.4371Z" fill="black"/>
<path d="M11.9409 10.4412H11.9395C11.9166 10.4398 11.8979 10.4202 11.8979 10.3977C11.8979 10.3823 11.9767 8.83914 13.3063 7.53589C13.9804 6.87515 14.8477 6.35609 15.8854 5.99135C16.4578 5.79074 17.0518 5.65186 17.5728 5.53683C16.0084 4.08908 14.5758 2.46318 13.312 0.705405C13.0458 0.671736 12.7724 0.725045 12.5406 0.856913C12.5191 0.868136 12.4933 0.861121 12.4819 0.841481C12.4704 0.821841 12.4776 0.795187 12.4976 0.783964C12.7524 0.639471 13.053 0.583357 13.3435 0.625442C13.3549 0.626845 13.365 0.633859 13.3721 0.642276C14.6502 2.4239 16.1043 4.06944 17.6916 5.53122C17.703 5.54244 17.7073 5.55787 17.703 5.5733C17.6987 5.58873 17.6858 5.59996 17.6715 5.60276C17.1348 5.7192 16.5122 5.86229 15.9154 6.07131C14.8892 6.43185 14.0319 6.94389 13.3678 7.59622C12.064 8.87421 11.9853 10.3865 11.9853 10.4019C11.9824 10.423 11.9638 10.4412 11.9409 10.4412Z" fill="black"/>
<path d="M12.147 10.4369C12.1384 10.4369 12.1283 10.4341 12.1212 10.4285C12.1026 10.4145 12.0997 10.3878 12.114 10.3696C12.147 10.3275 12.9384 9.33849 13.3377 8.98918C14.5428 7.93563 16.7283 7.00975 18.722 7.42359C18.3012 6.75864 17.786 6.20311 17.152 5.72754C17.1334 5.71351 17.1291 5.68686 17.1434 5.66862C17.1577 5.65039 17.1849 5.64618 17.2035 5.66021C17.8733 6.16243 18.4114 6.75163 18.8465 7.46287C18.8551 7.4769 18.8551 7.49514 18.8437 7.50917C18.8337 7.52319 18.8165 7.52881 18.7993 7.5246C16.8099 7.06446 14.6029 7.99315 13.3936 9.0495C13 9.3932 12.1885 10.4089 12.1799 10.4201C12.1713 10.4313 12.1598 10.4369 12.147 10.4369Z" fill="black"/>
<path d="M11.7018 10.44C11.6875 10.44 11.6732 10.433 11.6646 10.4189C11.2424 9.69505 10.7272 9.01187 10.2291 8.35252L7.84324 5.18348C7.82892 5.16524 7.83322 5.13859 7.85182 5.12456C7.87043 5.11053 7.89762 5.11474 7.91193 5.13298L10.2992 8.30062C10.7987 8.96277 11.314 9.64736 11.739 10.3754C11.7505 10.3951 11.7433 10.4217 11.7233 10.433C11.7176 10.4372 11.7104 10.44 11.7018 10.44Z" fill="black"/>
<path d="M10.9748 7.59757C10.9705 7.59757 10.9662 7.59757 10.9605 7.59477C10.9376 7.58775 10.9261 7.56391 10.9333 7.54146C11.4385 6.0839 12.615 4.88726 14.082 4.33875C14.1034 4.33033 14.1292 4.34155 14.1378 4.3626C14.1464 4.38364 14.1349 4.40889 14.1135 4.41731C12.6708 4.956 11.5115 6.1344 11.0149 7.56811C11.0091 7.58635 10.992 7.59757 10.9748 7.59757Z" fill="black"/>
<path d="M10.3708 6.74048C10.3651 6.74048 10.3593 6.73908 10.3536 6.73767C10.3321 6.72785 10.3221 6.70401 10.3307 6.68296C10.3665 6.603 10.4008 6.52304 10.4338 6.44448C10.803 5.59014 11.1236 4.85084 11.9151 4.29391C11.9337 4.27988 11.9609 4.28409 11.9752 4.30373C11.9895 4.32196 11.9852 4.34862 11.9652 4.36264C11.1923 4.90555 10.8774 5.63503 10.5125 6.47815C10.4781 6.55671 10.4438 6.63667 10.4094 6.71663C10.4023 6.73066 10.3865 6.74048 10.3708 6.74048Z" fill="black"/>
<path d="M12.5778 3.87572C12.5649 3.87572 12.5521 3.87011 12.5435 3.85889C12.5292 3.84065 12.532 3.814 12.5506 3.79997C12.7825 3.62461 13.0172 3.51659 13.2061 3.42962L13.219 3.424C13.2405 3.41418 13.2662 3.4226 13.2763 3.44364C13.2863 3.46469 13.2777 3.48994 13.2562 3.49976L13.2433 3.50537C13.0573 3.59094 12.8269 3.69756 12.6036 3.86731C12.595 3.87292 12.5864 3.87572 12.5778 3.87572Z" fill="black"/>
<path d="M9.57931 5.973C9.57502 5.973 9.5693 5.97159 9.565 5.97019C9.54353 5.96177 9.53208 5.93792 9.53924 5.91688C10.1618 4.27274 11.0807 3.27531 12.5205 2.68611C12.542 2.67769 12.5677 2.68751 12.5763 2.70856C12.5849 2.7296 12.5749 2.75485 12.5534 2.76327C11.1379 3.34405 10.2334 4.32464 9.61939 5.94634C9.61223 5.96318 9.59649 5.973 9.57931 5.973Z" fill="black"/>
<path d="M8.88361 5.36433C8.87931 5.36433 8.87502 5.36433 8.87216 5.36292C8.84926 5.35591 8.83637 5.33346 8.84353 5.31102C8.87216 5.21422 8.89935 5.11743 8.92511 5.02343C9.06108 4.53244 9.18989 4.06949 9.5477 3.67108C9.56344 3.65425 9.59063 3.65144 9.60781 3.66688C9.62498 3.68231 9.62784 3.70896 9.6121 3.7258C9.26718 4.11018 9.14123 4.5633 9.00812 5.04448C8.98236 5.13987 8.95517 5.23667 8.92654 5.33346C8.91939 5.3517 8.90221 5.36433 8.88361 5.36433Z" fill="black"/>
<path d="M10.0002 3.25727C9.99015 3.25727 9.98156 3.25446 9.97298 3.24745C9.95437 3.23342 9.95151 3.20677 9.96725 3.18853C10.1662 2.94864 10.4152 2.64843 10.7186 2.47588C10.7387 2.46466 10.7659 2.47027 10.7773 2.49131C10.7888 2.51095 10.7816 2.5376 10.7616 2.54883C10.471 2.71436 10.2292 3.00756 10.0331 3.24184C10.0245 3.25166 10.0131 3.25727 10.0002 3.25727Z" fill="black"/>
<path d="M11.1264 2.29496C11.1149 2.29496 11.1035 2.29075 11.0949 2.28233C11.0791 2.2655 11.0791 2.23885 11.0963 2.22341C11.2409 2.08874 11.5243 1.89374 11.716 1.81939C11.7375 1.81098 11.7633 1.8208 11.7719 1.84324C11.7804 1.86428 11.7704 1.88954 11.7475 1.89795C11.5672 1.9681 11.291 2.15888 11.155 2.28514C11.1478 2.29215 11.1378 2.29496 11.1264 2.29496Z" fill="black"/>
<path d="M11.5144 10.5127C11.2539 10.5127 11.0106 10.4762 10.7844 10.4033C10.7615 10.3963 10.7501 10.3724 10.7572 10.35C10.7644 10.3275 10.7887 10.3163 10.8116 10.3233C11.1966 10.4482 11.6375 10.4622 12.1226 10.3654C12.5778 10.2742 13.0143 10.0988 13.3878 9.94032C13.4093 9.9305 13.4351 9.94032 13.4437 9.96277C13.4537 9.98381 13.4437 10.0091 13.4208 10.0175C13.0429 10.1774 12.6007 10.3556 12.1384 10.4482C11.9223 10.4916 11.7133 10.5127 11.5144 10.5127Z" fill="black"/>
<path d="M3.70117 10.7092C3.69831 10.7092 3.69401 10.7092 3.69115 10.7078C3.6797 10.705 3.66968 10.698 3.66396 10.6882C3.29899 10.0597 2.96409 9.40038 2.64063 8.76349C2.04381 7.5865 1.42552 6.37022 0.593971 5.29564C0.583953 5.28301 0.582522 5.26618 0.589678 5.25215C0.705607 5.01787 0.898823 4.82288 1.13211 4.70083C1.15358 4.6896 1.17934 4.69802 1.19079 4.71766C1.20224 4.7387 1.19366 4.76396 1.17362 4.77378C0.963229 4.8832 0.788619 5.05715 0.679845 5.26477C1.50853 6.34076 2.12396 7.55283 2.71935 8.72561C3.03565 9.34988 3.3634 9.99379 3.71834 10.6082C5.35424 9.6052 7.34079 9.20819 9.17562 9.51963C10.0744 9.67254 10.7972 9.97555 11.3225 10.4189C11.3411 10.4343 11.3425 10.4609 11.3268 10.4778C11.311 10.496 11.2838 10.4974 11.2666 10.482C10.7528 10.0471 10.0444 9.7511 9.16131 9.60099C7.3322 9.29096 5.35138 9.69218 3.7255 10.7008C3.71691 10.7064 3.70976 10.7092 3.70117 10.7092Z" fill="black"/>
<path d="M4.1105 8.27377C4.09476 8.27377 4.08044 8.26536 4.07329 8.25273C4.06184 8.23309 4.06899 8.20644 4.09046 8.19521C4.79463 7.81364 5.65766 7.62285 6.58366 7.64249C7.34937 7.65932 8.17376 7.81644 9.10406 8.12227C9.12696 8.12928 9.13841 8.15313 9.13125 8.17557C9.1241 8.19802 9.09977 8.20924 9.07687 8.20223C8.15372 7.89921 7.33792 7.7435 6.5808 7.72666C5.66768 7.70562 4.82182 7.8936 4.12911 8.26816C4.12338 8.27237 4.11622 8.27377 4.1105 8.27377Z" fill="black"/>
<path d="M8.15388 7.07311C8.14816 7.07311 8.14386 7.07171 8.13814 7.07031C7.67728 6.89355 7.1921 6.79114 6.69689 6.76589C6.67399 6.76448 6.65538 6.74484 6.65682 6.721C6.65825 6.69855 6.67542 6.68031 6.70262 6.68172C7.20641 6.70837 7.70018 6.81358 8.16963 6.99175C8.19109 7.00016 8.20254 7.02401 8.19396 7.04646C8.1868 7.06329 8.17106 7.07311 8.15388 7.07311Z" fill="black"/>
<path d="M3.69561 7.28921C3.68273 7.28921 3.66985 7.2836 3.66126 7.27238C3.64695 7.25414 3.65124 7.22749 3.67128 7.21346C4.26094 6.79541 5.03238 6.70142 5.71078 6.64531C5.73225 6.6425 5.75515 6.66074 5.75658 6.68318C5.75801 6.70563 5.74084 6.72667 5.71794 6.72807C5.05241 6.78278 4.29386 6.87397 3.7228 7.27939C3.71422 7.28781 3.70563 7.28921 3.69561 7.28921Z" fill="black"/>
<path d="M3.06863 6.24236C3.05289 6.24236 3.03858 6.23394 3.02999 6.21991C3.01854 6.19887 3.02713 6.17362 3.0486 6.1638C4.56284 5.38662 6.62095 5.48903 7.59132 6.07261C7.61136 6.08524 7.61851 6.11049 7.60563 6.13013C7.59275 6.14977 7.56699 6.15538 7.54695 6.14416C6.59518 5.5732 4.57715 5.475 3.08867 6.23815C3.08295 6.23955 3.07579 6.24236 3.06863 6.24236Z" fill="black"/>
<path d="M7.11466 5.36408C7.10893 5.36408 7.10178 5.36268 7.09605 5.35987L7.02878 5.32901C6.68386 5.17049 6.38473 5.03301 6.01261 4.93621C5.98971 4.9306 5.97683 4.90675 5.98256 4.8843C5.98828 4.86186 6.01261 4.84783 6.03551 4.85484C6.41479 4.95445 6.71678 5.09193 7.06457 5.25325L7.13183 5.28412C7.1533 5.29394 7.16189 5.31919 7.15187 5.34023C7.14615 5.35566 7.13183 5.36408 7.11466 5.36408Z" fill="black"/>
<path d="M2.49764 5.25065C2.4819 5.25065 2.46616 5.24223 2.459 5.2268C2.44898 5.20576 2.45757 5.18051 2.47904 5.17069C3.36926 4.73861 4.40833 4.75123 5.32575 4.76246C5.34865 4.76246 5.36869 4.7821 5.36869 4.80454C5.36869 4.82699 5.34865 4.84663 5.32575 4.84663C4.41835 4.83541 3.39073 4.82278 2.51911 5.24504C2.51052 5.24925 2.50337 5.25065 2.49764 5.25065Z" fill="black"/>
<path d="M7.30369 2.95681C7.28223 2.95681 7.26505 2.94138 7.26076 2.92034C7.1849 2.4097 7.26934 1.87381 7.49977 1.40946C7.50979 1.38842 7.53555 1.38 7.55702 1.38982C7.57849 1.39964 7.58708 1.4249 7.57706 1.44594C7.35522 1.89485 7.27364 2.41391 7.34663 2.90771C7.34949 2.93016 7.33375 2.9526 7.31085 2.95541C7.30799 2.95681 7.30656 2.95681 7.30369 2.95681Z" fill="black"/>
<path d="M6.72532 2.79008C6.70671 2.79008 6.68954 2.77886 6.68381 2.76062C6.59078 2.44919 6.48201 2.13636 6.36322 1.83194C6.35463 1.81089 6.36608 1.78564 6.38755 1.77722C6.41045 1.76881 6.43478 1.78003 6.44337 1.80107C6.56359 2.1069 6.67236 2.42113 6.76683 2.73537C6.77398 2.75782 6.7611 2.78026 6.7382 2.78728C6.73248 2.78868 6.72961 2.79008 6.72532 2.79008Z" fill="black"/>
<path d="M5.87678 2.98907C5.86676 2.98907 5.85817 2.98626 5.84958 2.97925C5.49321 2.69728 5.0438 2.53735 4.58724 2.52753C4.56291 2.52753 4.5443 2.50789 4.54573 2.48404C4.54573 2.46019 4.56434 2.44336 4.5901 2.44336C5.0667 2.45318 5.53328 2.62012 5.9054 2.91332C5.92401 2.92734 5.92687 2.954 5.91256 2.97223C5.90254 2.98486 5.88966 2.98907 5.87678 2.98907Z" fill="black"/>
</g>
<defs>
<clipPath id="clip0_284_4469">
<rect width="20" height="12" fill="white"/>
</clipPath>
</defs>
</svg>
