<svg width="30" height="21" viewBox="0 0 30 21" fill="none" xmlns="http://www.w3.org/2000/svg">
<path d="M10.1951 21C9.93496 21 9.69106 20.9604 9.46342 20.8813C9.23577 20.8035 9.02439 20.6704 8.82927 20.4821L0.536586 12.4776C0.178862 12.1323 0 11.6771 0 11.1121C0 10.5471 0.178862 10.0919 0.536586 9.74664C0.894309 9.40135 1.34959 9.2287 1.90244 9.2287C2.45529 9.2287 2.91057 9.40135 3.26829 9.74664L10.1951 16.4327L26.6829 0.517937C27.0406 0.172645 27.5044 0 28.0741 0C28.6426 0 29.1057 0.172645 29.4634 0.517937C29.8211 0.863228 30 1.31022 30 1.85892C30 2.40888 29.8211 2.8565 29.4634 3.20179L11.561 20.4821C11.3659 20.6704 11.1545 20.8035 10.9268 20.8813C10.6992 20.9604 10.4553 21 10.1951 21Z" fill="#FFFAFA"/>
</svg>
