<svg width="81" height="115" viewBox="0 0 81 115" fill="none" xmlns="http://www.w3.org/2000/svg">
<path d="M71.096 27.675C72.3149 27.751 73.4392 28.0901 74.4688 28.6922C75.4984 29.2973 76.4303 30.0105 77.2705 30.8377C78.2617 31.8169 78.9274 32.9277 79.2705 34.17C79.6137 35.4122 79.7469 36.713 79.67 38.0663C79.593 39.5746 79.5546 41.08 79.5546 42.5853C79.5546 44.0907 79.5161 45.5989 79.4392 47.1043V57.8931C79.4392 61.4709 79.3623 65.0662 79.2114 68.6819C79.2114 70.4153 79.1907 72.1281 79.1552 73.8235C79.1167 75.5188 78.8297 77.2317 78.2972 78.9651C77.0782 82.9579 75.3031 86.6292 72.9806 89.9789C70.6551 93.3316 67.8534 96.3628 64.5753 99.0724C63.0486 100.353 61.448 101.539 59.7735 102.63C58.096 103.723 56.38 104.72 54.6285 105.623C54.2468 105.775 53.9244 105.868 53.6551 105.906C53.3859 105.944 53.1019 105.851 52.7971 105.623C52.5693 105.474 52.3386 105.415 52.1107 105.453C51.8829 105.491 51.6522 105.623 51.4244 105.848C49.6699 107.581 47.8238 109.18 45.877 110.65C43.9332 112.118 41.8918 113.492 39.7587 114.775C39.4539 114.924 39.1876 115 38.9569 115C38.7261 115 38.4598 114.924 38.1551 114.775C35.1817 112.968 32.4569 110.972 29.9776 108.789C27.4983 106.605 25.2705 104.232 23.2882 101.671C21.306 99.1104 19.6285 96.3599 18.2557 93.4252C16.8829 90.4905 15.7764 87.3249 14.9391 83.9342C14.7113 82.879 14.5397 81.8062 14.4243 80.7159C14.3089 79.6257 14.2527 78.512 14.2527 77.3837C14.1758 75.7264 14.1551 74.0515 14.1965 72.3561C14.235 70.6608 14.2527 68.9479 14.2527 67.2146C14.3267 64.502 14.3681 61.7924 14.3681 59.0798C14.3681 56.3673 14.4066 53.6577 14.4835 50.9451C14.4835 48.3846 14.5012 45.862 14.5397 43.3745C14.5781 40.89 14.6344 38.4025 14.7113 35.9179V34.1115C14.7853 33.8104 14.729 33.6029 14.5397 33.4889C14.3474 33.3749 14.0634 33.3194 13.6817 33.3194C12.7675 33.3954 11.871 33.4334 10.9953 33.4334C10.1196 33.4334 9.26157 33.3954 8.42134 33.3194C7.80891 33.2463 7.4095 33.2814 7.22015 33.4334C7.02784 33.5854 6.93317 33.8864 6.93317 34.3366C7.00713 36.8971 7.02784 39.4606 6.98938 42.0182C6.95092 44.5788 6.93317 47.1423 6.93317 49.6999V59.4715C6.93317 62.7482 6.85625 66.0074 6.70536 69.2431C6.62843 72.0317 6.97163 74.6858 7.73495 77.2083C8.4953 79.7338 9.52489 82.2359 10.8237 84.7205C11.5101 86.0767 12.3089 87.3746 13.2261 88.6168C14.1403 89.8591 15.1314 91.0458 16.1995 92.1771C16.2734 92.253 16.3711 92.367 16.4864 92.5161C16.6018 92.6681 16.6965 92.8172 16.7734 92.9692C17.7645 95.2287 18.945 97.3742 20.3178 99.4086C21.6906 101.443 23.1758 103.363 24.7764 105.17C24.8504 105.246 24.9273 105.339 25.0042 105.453C25.0782 105.567 25.1935 105.699 25.3474 105.848C25.1196 105.775 24.9273 105.716 24.7764 105.678C24.6225 105.64 24.5072 105.585 24.4332 105.509C20.164 103.325 16.3148 100.727 12.8829 97.7132C9.45092 94.7025 6.59293 91.1248 4.30595 86.9799C3.16097 85.0215 2.22902 82.9871 1.50417 80.8796C0.779314 78.7721 0.302982 76.6267 0.0751714 74.4402C0.00120677 73.613 -0.0195033 72.7829 0.0189583 71.9557C0.0574199 71.1285 0.0751714 70.3013 0.0751714 69.4711C0.0751714 64.426 0.0929229 59.3604 0.131384 54.2744C0.169846 49.1913 0.187598 44.1257 0.187598 39.0806C0.187598 38.3294 0.205349 37.5753 0.243811 36.8211C0.282272 36.0699 0.338485 35.3158 0.415409 34.5616C0.489373 33.5064 0.814817 32.5682 1.38878 31.738C1.95979 30.9108 2.62843 30.1567 3.38879 29.4785C4.30299 28.6513 5.27636 28.0287 6.30595 27.6137C7.33554 27.2015 8.4953 27.032 9.79412 27.1051C11.5456 27.181 13.3208 27.219 15.1107 27.219H20.4273C20.8089 27.219 21.0929 27.295 21.2853 27.4441C21.4746 27.5961 21.5722 27.8972 21.5722 28.3473C21.4953 31.89 21.4391 35.4473 21.4006 39.0251C21.3622 42.6028 21.3444 46.1981 21.3444 49.8139C21.2675 52.7515 21.2113 55.7271 21.1728 58.7378C21.1344 61.7515 21.1166 64.7242 21.1166 67.6618C21.1166 68.793 21.0959 69.9213 21.0604 71.0496C21.0219 72.1808 20.9628 73.309 20.8888 74.4402C20.8119 77.0008 21.0397 79.4678 21.5752 81.8413C22.1077 84.2148 22.8711 86.5678 23.8622 88.9033C24.3947 90.1076 24.9864 91.2943 25.6344 92.4606C26.2823 93.6298 26.9095 94.7756 27.522 95.9068C27.5959 96.0588 27.6728 96.1728 27.7498 96.2459C27.8237 96.3219 27.9007 96.4359 27.9776 96.5849V96.6989C28.1285 96.924 28.3001 97.1345 28.4924 97.3215C28.6817 97.5115 28.8533 97.7162 29.0072 97.9412C29.158 98.1663 29.3504 98.3943 29.5782 98.6194C29.806 98.8444 29.9953 99.1104 30.1492 99.4115C30.5308 99.7886 30.874 100.183 31.1788 100.598C31.4835 101.013 31.8267 101.373 32.2083 101.671V101.785C32.3592 101.937 32.4953 102.086 32.6078 102.238C32.7231 102.39 32.8947 102.539 33.1226 102.691C33.9598 103.445 34.8385 104.161 35.7527 104.837C36.6669 105.515 37.5427 106.231 38.3829 106.982C38.6877 107.207 38.9539 107.321 39.1847 107.321C39.4155 107.321 39.6788 107.207 39.9865 106.982C43.7202 104.574 46.8652 101.729 49.4214 98.4527C51.9747 95.1761 54.0131 91.5048 55.5397 87.4389C56.0723 86.0095 56.5131 84.5568 56.8534 83.0894C57.1936 81.6221 57.5575 80.1723 57.9392 78.74V77.9478C58.0131 74.183 58.0723 70.4182 58.1108 66.6504C58.1492 62.8856 58.167 59.1208 58.167 55.353C58.2409 51.8892 58.2824 48.4255 58.2824 44.9588C58.2824 41.4921 58.3208 37.9933 58.3977 34.4535C58.3977 33.4743 58.4155 32.4775 58.4539 31.4603C58.4924 30.4431 58.5102 29.4084 58.5102 28.3532C58.5102 28.0521 58.5664 27.865 58.6818 27.789C58.7971 27.716 59.0042 27.675 59.309 27.675C61.2912 27.675 63.2528 27.6575 65.1995 27.6195C67.1433 27.5815 69.1048 27.602 71.0901 27.675H71.096ZM80.0161 20.4435C80.0161 20.8206 79.9599 21.0661 79.8445 21.1772C79.7291 21.2912 79.4806 21.3467 79.1019 21.3467C79.025 21.2737 78.9096 21.2327 78.7587 21.2327C78.6078 21.2327 78.4895 21.2707 78.4155 21.3467C78.0339 21.3467 77.7853 21.2737 77.6729 21.1217C77.5575 20.9726 77.4629 20.7095 77.3859 20.3295C77.1581 19.0492 76.9096 17.7865 76.6433 16.5442C76.3741 15.3019 75.9007 14.1152 75.2143 12.9869C73.9185 10.7274 72.2587 9.01456 70.2409 7.84535C68.2202 6.67907 65.877 6.05647 63.2084 5.98047C60.6167 5.8314 58.0042 5.7554 55.3741 5.7554H47.5397C47.1581 5.7554 46.8918 5.8314 46.738 5.98047C46.5841 6.12955 46.5101 6.39554 46.5101 6.77261V26.4328C46.5101 26.8858 46.5841 27.1869 46.738 27.336C46.8888 27.488 47.1551 27.526 47.5397 27.45H49.9421C50.3238 27.3769 50.5693 27.412 50.6847 27.564C50.8001 27.716 50.8563 27.979 50.8563 28.3561C50.8563 30.3145 50.8356 32.2729 50.8001 34.2313C50.7616 36.1898 50.7439 38.1482 50.7439 40.1066V44.8506C50.667 48.5424 50.6107 52.1932 50.5723 55.809C50.5338 59.4248 50.5161 63.0785 50.5161 66.7673V70.6082C50.5161 71.8885 50.4391 73.1687 50.2883 74.449C50.2113 76.1824 49.9066 77.8368 49.3741 79.421C48.8386 81.0024 48.1906 82.5487 47.4303 84.054C46.9717 85.0332 46.4569 86.0124 45.8859 86.9916C45.3149 87.9708 44.7232 88.9121 44.1137 89.8153C43.8859 90.1163 43.7882 90.3999 43.8267 90.6629C43.8652 90.9289 43.9983 91.2095 44.2261 91.5106C45.0634 92.2647 45.8829 93.0364 46.6847 93.8256C47.4865 94.6178 48.303 95.4625 49.1433 96.3687C48.5309 97.0468 47.9036 97.7629 47.2557 98.5141C46.6078 99.2683 45.9391 100.057 45.2557 100.888C44.1877 99.9844 43.1788 99.1192 42.2261 98.2891C41.2705 97.4619 40.3385 96.5937 39.4243 95.6905C38.3563 96.5937 37.3089 97.4794 36.2794 98.3446C35.2498 99.2098 34.2024 100.095 33.1344 100.999C32.7527 100.622 32.4095 100.247 32.1048 99.8675C31.8001 99.4904 31.4924 99.0754 31.1906 98.6252C30.9628 98.4001 30.7705 98.1926 30.6196 98.0026C30.4657 97.8155 30.2764 97.608 30.0486 97.3829C29.8947 97.2339 29.7438 97.0439 29.59 96.8188C29.4362 96.5937 29.2853 96.4066 29.1314 96.2546C29.664 95.8776 30.1788 95.483 30.6758 95.0679C31.1699 94.6558 31.6492 94.2582 32.1048 93.8812C35.1521 91.0955 37.6314 87.9884 39.5368 84.5597C41.4421 81.1339 42.7764 77.4626 43.5397 73.5458C43.6906 72.7946 43.7675 72.0405 43.7675 71.2863V56.5982C43.7675 52.9824 43.7853 49.3667 43.8238 45.7538C43.8622 42.1381 43.9184 38.5223 43.9953 34.9095V33.7783H43.6522C42.5101 33.7052 41.3829 33.6643 40.2794 33.6643C39.1758 33.6643 38.0486 33.6263 36.9066 33.5503C36.5249 33.5503 36.2587 33.6263 36.1048 33.7754C35.951 33.9274 35.877 34.1904 35.877 34.5675C35.951 35.6227 35.9717 36.6779 35.9332 37.7302C35.8947 38.7854 35.877 39.8406 35.877 40.8929C35.877 44.5086 35.8563 48.1244 35.8208 51.7372C35.7823 55.353 35.7646 59.0068 35.7646 62.6956C35.7646 63.8268 35.7439 64.9551 35.7084 66.0863C35.6699 67.2175 35.6107 68.3838 35.5368 69.5881C35.3829 71.7745 35.5752 73.8819 36.1078 75.9134C36.6403 77.9479 37.3652 79.9443 38.2794 81.8998C38.4303 82.3528 38.5072 82.7299 38.5072 83.031C38.5072 83.332 38.3918 83.6711 38.164 84.0482C37.5516 84.8783 36.945 85.726 36.3356 86.5912C35.7231 87.4593 35.0782 88.3801 34.3918 89.3593C34.0101 88.6081 33.6285 87.8919 33.2468 87.2138C32.8652 86.5357 32.4835 85.8575 32.1018 85.1794C31.2616 83.522 30.5575 81.8296 29.9865 80.0963C29.4154 78.3658 29.0515 76.5945 28.9007 74.7852C28.7468 73.3558 28.7083 71.9235 28.7853 70.4913C28.8592 69.0619 28.9007 67.6296 28.9007 66.1974C28.9007 65.2942 28.9184 64.3909 28.9569 63.4848C28.9953 62.5816 29.0131 61.6784 29.0131 60.7723V51.7343C29.0131 48.1946 29.0308 44.6168 29.0693 41.001C29.1078 37.3853 29.164 33.8104 29.2409 30.2677C29.2409 29.8907 29.2586 29.4961 29.2971 29.081C29.3356 28.6689 29.3533 28.2713 29.3533 27.8943C29.3533 27.6692 29.4095 27.4997 29.5249 27.3857C29.6403 27.2717 29.8119 27.2161 30.0397 27.2161C30.4983 27.2921 30.9362 27.3126 31.3533 27.2717C31.7705 27.2337 32.2113 27.2541 32.6669 27.3272C33.0486 27.3272 33.2971 27.2541 33.4095 27.1021C33.5249 26.9531 33.5811 26.69 33.5811 26.31V6.77553C33.5811 6.39846 33.5249 6.13539 33.4095 5.9834C33.2942 5.83432 33.0456 5.75833 32.6669 5.75833C30.3799 5.83432 28.1107 5.85478 25.8622 5.81386C23.6137 5.77586 21.3444 5.79632 19.0574 5.8694C17.7616 5.8694 16.5012 5.92494 15.2853 6.03893C14.0663 6.15293 12.8444 6.50954 11.6255 7.11168C9.56631 8.09089 7.92725 9.40916 6.70832 11.0665C5.48938 12.7239 4.57222 14.6063 3.96275 16.7167C3.8089 17.3948 3.69352 18.0554 3.61956 18.6926C3.54263 19.3328 3.46571 19.9554 3.39174 20.5575C3.31482 20.8586 3.19944 21.0661 3.04855 21.1801C2.8947 21.2941 2.66689 21.3497 2.36216 21.3497C1.59884 21.3497 1.16097 21.2941 1.04855 21.1801C0.933161 21.0661 0.876948 20.6715 0.876948 19.9934C0.950912 18.339 1.02784 16.6991 1.10476 15.0798C1.17872 13.4605 1.25565 11.8586 1.33257 10.2773C1.40653 8.69595 1.48346 7.1146 1.56038 5.53325C1.63435 3.95191 1.74973 2.37056 1.90358 0.789212C1.90358 0.640139 1.88287 0.50568 1.84736 0.394606C1.8089 0.280609 1.79115 0.151996 1.79115 0H78.8711C78.9451 1.43227 79.022 2.86162 79.0989 4.2939C79.1729 5.72617 79.2498 7.19352 79.3268 8.69887C79.4007 9.30393 79.4599 9.94115 79.4984 10.6193C79.5368 11.2974 79.5546 11.9756 79.5546 12.6537C79.6285 13.934 79.7055 15.2347 79.7824 16.5501C79.8563 17.8683 79.9333 19.1691 80.0102 20.4464L80.0161 20.4435ZM72.9273 46.3151V34.9036C72.9273 34.5266 72.8504 34.2635 72.6995 34.1115C72.5457 33.9624 72.2794 33.8864 71.8978 33.8864H66.4096C65.7972 33.8864 65.4362 33.942 65.3238 34.056C65.2084 34.17 65.1522 34.5266 65.1522 35.1287C65.0753 37.6893 65.019 40.2323 64.9806 42.7548C64.9421 45.2803 64.9244 47.8204 64.9244 50.381C64.9244 53.6957 64.9037 57.0104 64.8682 60.3221C64.8297 63.6368 64.8119 66.9515 64.8119 70.2633C64.735 71.3185 64.6966 72.3912 64.6966 73.4815V76.7026C64.7705 78.7371 64.6196 80.751 64.238 82.7474C63.8563 84.7438 63.3238 86.7198 62.6374 88.6782C62.2557 89.6574 61.8356 90.6746 61.38 91.7298C60.9214 92.785 60.4658 93.8402 60.0072 94.8925H60.1226C60.2735 94.8194 60.4273 94.723 60.5812 94.609C60.7321 94.495 60.8859 94.3664 61.0397 94.2144C63.0989 92.332 64.9096 90.28 66.4717 88.0556C68.0338 85.8341 69.3475 83.4431 70.4155 80.8826C70.9481 79.6023 71.4244 78.3045 71.8445 76.9862C72.2617 75.6679 72.5102 74.2941 72.5871 72.8618C72.6611 71.2045 72.7025 69.5121 72.7025 67.7787V62.6956C72.7025 59.91 72.7202 57.1594 72.7587 54.4498C72.7972 51.7372 72.8534 49.0276 72.9303 46.3151H72.9273Z" fill="black"/>
</svg>
