<svg width="339" height="260" viewBox="0 0 339 260" fill="none" xmlns="http://www.w3.org/2000/svg">
<path d="M49.8594 148.136C49.8594 148.136 62.1629 140.288 55.6756 130.967C55.6756 130.967 50.5891 125.307 45.4163 124.074C45.4163 124.074 48.9554 138.326 46.2632 138.82C43.5711 139.315 43.4647 122.655 43.4647 122.655C43.4647 122.655 29.7048 116.982 24.4795 117.792C24.4795 117.792 33.5925 131.384 30.8619 131.2C28.1296 131.016 17.9906 117.314 17.9906 117.314C17.9906 117.314 4.11506 115.56 2.37791 123.823C0.642311 132.086 4.43441 135.949 6.49707 136.341C8.55974 136.732 21.6022 135.813 21.36 137.528C21.1178 139.242 12.4598 142.461 7.45667 141.217C7.45667 141.217 13.6493 154.297 20.729 153.209C27.8088 152.123 29.7603 147.589 34.1464 146.996C38.534 146.404 41.8232 147.407 39.6865 148.72C37.5513 150.033 30.0473 149.664 26.6609 152.893C23.2746 156.123 20.5007 158.154 27.1886 159.13C33.8764 160.107 45.694 158.578 47.7736 153.357L49.8548 148.136H49.8594Z" fill="#FFFDD4"/>
<path d="M8.7943 126.006C8.7943 126.006 45.0507 135.489 49.8579 148.137C49.8579 148.137 50.0184 153.91 53.9586 160.315L54.1051 162.858C54.1051 162.858 49.8795 154.427 47.7783 153.358C47.7783 153.358 55.1033 141.713 8.79582 126.006H8.7943Z" fill="#FFFDD4"/>
<path d="M53.9582 160.317C53.9582 160.317 59.9255 168.338 57.3784 178.665L55.9452 178.367C55.9452 178.367 56.6749 167.113 53.4799 161.656C50.2848 156.199 53.9582 160.318 53.9582 160.318V160.317Z" fill="#FFFDD4"/>
<path d="M27.8653 118.211C27.8653 118.211 23.1048 84.8587 15.6011 86.1662C8.09735 87.4758 27.8653 118.211 27.8653 118.211Z" fill="#FFFDD4"/>
<path opacity="0.46" d="M36.1684 65.9573L0.113956 252.354C-0.620147 256.145 2.28577 259.665 6.14743 259.665H25.1629L36.1704 65.9573H36.1684Z" fill="#455A64"/>
<path d="M275.831 119.313C275.831 119.313 259.614 108.968 268.165 96.6818C268.165 96.6818 274.869 89.2208 281.688 87.5961C281.688 87.5961 277.023 106.382 280.571 107.032C284.12 107.685 284.26 85.7252 284.26 85.7252C284.26 85.7252 302.397 78.2479 309.285 79.3155C309.285 79.3155 297.273 97.2309 300.872 96.9889C304.473 96.7469 317.838 78.6851 317.838 78.6851C317.838 78.6851 336.127 76.373 338.417 87.2646C340.705 98.1562 335.706 103.248 332.988 103.765C330.269 104.281 313.077 103.069 313.397 105.33C313.716 107.59 325.128 111.832 331.723 110.193C331.723 110.193 323.56 127.433 314.228 125.999C304.896 124.568 302.324 118.591 296.543 117.81C290.759 117.029 286.424 118.351 289.24 120.082C292.055 121.812 301.946 121.326 306.409 125.582C310.873 129.841 314.529 132.517 305.714 133.804C296.899 135.091 281.322 133.076 278.581 126.194L275.837 119.313H275.831Z" fill="#FFFDD4"/>
<path d="M329.96 90.1425C329.96 90.1425 282.17 102.643 275.833 119.313C275.833 119.313 275.622 126.923 270.428 135.366L270.235 138.717C270.235 138.717 275.805 127.604 278.574 126.195C278.574 126.195 268.919 110.846 329.958 90.1425H329.96Z" fill="#FFFDD4"/>
<path d="M270.429 135.368C270.429 135.368 262.563 145.94 265.92 159.553L267.809 159.16C267.809 159.16 266.848 144.326 271.059 137.133C275.27 129.941 270.429 135.37 270.429 135.37V135.368Z" fill="#FFFDD4"/>
<path d="M232.168 74.4084C232.168 74.4084 207.251 68.9362 212.284 49.7336C212.284 49.7336 217.224 37.382 224.969 32.2433C224.969 32.2433 227.743 57.762 232.459 56.9526C237.174 56.1433 227.318 28.7395 227.318 28.7395C227.318 28.7395 246.484 11.1454 255.547 9.32746C255.547 9.32746 248.776 37.1197 253.148 35.1736C257.52 33.2275 265.908 4.63408 265.908 4.63408C265.908 4.63408 287.622 -6.59912 295.447 5.91317C303.272 18.4275 299.374 27.0517 296.224 28.9367C293.074 30.8218 271.118 37.1664 272.548 39.8344C273.977 42.5024 290.123 42.5695 297.584 37.5162C297.584 37.5162 295.297 62.7095 283.024 65.1884C270.752 67.6693 264.82 61.404 257.264 63.0735C249.707 64.7431 244.914 68.3688 249.209 69.2372C253.504 70.1055 265.595 64.981 273.097 68.2448C280.598 71.5066 286.374 73.168 275.986 78.7988C265.599 84.4296 245.286 89.0356 238.728 81.721L232.168 74.4064V74.4084Z" fill="#FFFDD4"/>
<path d="M286.231 13.362C286.231 13.362 232.44 50.7565 232.168 74.4085C232.168 74.4085 235.379 83.9782 232.772 96.8647L234.063 101.125C234.063 101.125 235.92 84.7449 238.726 81.7251C238.726 81.7251 219.694 67.0268 286.229 13.364L286.231 13.362Z" fill="#FFFDD4"/>
<path d="M232.772 96.8646C232.772 96.8646 227.808 113.621 238.205 129.033L240.379 127.681C240.379 127.681 232.406 109.649 234.362 98.7721C236.318 87.8947 232.772 96.8646 232.772 96.8646Z" fill="#FFFDD4"/>
<path d="M36.6036 65.2028L12.7056 248.214C11.9126 254.282 16.6385 259.663 22.7574 259.663H57.8153L38.0495 64.5398L36.6036 65.2007V65.2028Z" fill="#A5A5A5"/>
<path d="M36.6036 65.2026L25.9052 247.049C25.5026 253.893 30.9443 259.665 37.8014 259.665H90.0874L36.6036 65.2026Z" fill="#8E8E8E"/>
<path d="M36.2009 66.6873L41.4026 247.049C41 253.894 46.4417 259.665 53.2988 259.665H105.585L36.2009 66.6873Z" fill="#727272"/>
<path d="M286.534 259.663H80.3751C75.2282 259.663 70.8155 255.984 69.8902 250.921L38.521 79.3684C37.0976 71.58 43.0782 64.4037 50.9967 64.4037H254.728C259.874 64.4037 264.287 68.0823 265.212 73.1458L297.019 247.085C298.217 253.631 293.188 259.663 286.534 259.663Z" fill="#E3F1FC"/>
<path d="M42.6003 101.649H270.567L264.722 69.2594C264.216 66.4491 261.77 64.4054 258.915 64.4054H38.1022C36.8963 64.4054 35.9832 65.4994 36.2008 66.685L42.6003 101.647V101.649Z" fill="#383838"/>
<path d="M47.9322 54.6589C42.4824 54.6589 38.0493 59.0899 38.0493 64.5398H39.9486C39.9486 60.1372 43.5297 56.5541 47.9343 56.5541C52.3389 56.5541 55.922 60.1351 55.922 64.5398C55.922 65.4243 55.7776 66.2744 55.5112 67.0674C54.7263 69.4141 52.8819 71.2789 50.5453 72.0862C49.8621 72.3221 49.1402 72.4725 48.3898 72.5132V74.4125C49.2662 74.3739 50.1122 74.2193 50.9154 73.9652C54.1203 72.9504 56.6256 70.3394 57.4919 67.0695C57.7054 66.2622 57.8193 65.4142 57.8193 64.5418C57.8193 59.0919 53.3862 54.6609 47.9363 54.6609L47.9322 54.6589Z" fill="#ADB01B"/>
<path d="M50.9885 73.3937C50.9885 73.5909 50.9601 73.7841 50.9113 73.9651C50.6611 74.87 49.8315 75.535 48.8472 75.535C47.6658 75.535 46.708 74.5772 46.708 73.3957C46.708 72.2142 47.6658 71.2564 48.8472 71.2564C49.5366 71.2564 50.1487 71.5838 50.5412 72.0902C50.8218 72.4521 50.9865 72.9056 50.9865 73.3977L50.9885 73.3937Z" fill="#ADB01B"/>
<path d="M83.3662 54.6589C77.9164 54.6589 73.4833 59.0899 73.4833 64.5398H75.3806C75.3806 60.1372 78.9636 56.5541 83.3683 56.5541C87.7729 56.5541 91.3539 60.1351 91.3539 64.5398C91.3539 65.4243 91.2095 66.2744 90.9431 67.0674C90.1582 69.4141 88.3138 71.2789 85.9813 72.0862C85.2981 72.3221 84.5741 72.4725 83.8217 72.5132V74.4125C84.6982 74.3739 85.5441 74.2193 86.3474 73.9652C89.5543 72.9504 92.0596 70.3394 92.9258 67.0695C93.1394 66.2622 93.2532 65.4142 93.2532 64.5418C93.2532 59.0919 88.8201 54.6609 83.3703 54.6609L83.3662 54.6589Z" fill="#ADB01B"/>
<path d="M86.4205 73.3937C86.4205 73.5909 86.3921 73.7841 86.3433 73.9651C86.0931 74.87 85.2655 75.535 84.2792 75.535C83.0978 75.535 82.14 74.5772 82.14 73.3957C82.14 72.2142 83.0978 71.2564 84.2792 71.2564C84.9706 71.2564 85.5827 71.5838 85.9752 72.0902C86.2538 72.4521 86.4185 72.9056 86.4185 73.3977L86.4205 73.3937Z" fill="#ADB01B"/>
<path d="M118.802 54.6589C113.353 54.6589 108.919 59.0899 108.919 64.5398H110.817C110.817 60.1372 114.398 56.5541 118.804 56.5541C123.211 56.5541 126.79 60.1351 126.79 64.5398C126.79 65.4243 126.646 66.2744 126.379 67.0674C125.594 69.4141 123.75 71.2789 121.418 72.0862C120.734 72.3221 120.01 72.4725 119.258 72.5132V74.4125C120.132 74.3739 120.98 74.2193 121.784 73.9652C124.992 72.9484 127.494 70.3394 128.36 67.0695C128.573 66.2622 128.687 65.4142 128.687 64.5418C128.687 59.0919 124.254 54.6609 118.806 54.6609L118.802 54.6589Z" fill="#ADB01B"/>
<path d="M121.857 73.3937C121.857 73.5909 121.829 73.7841 121.78 73.9651C121.53 74.87 120.7 75.535 119.716 75.535C118.534 75.535 117.576 74.5772 117.576 73.3957C117.576 72.2142 118.534 71.2564 119.716 71.2564C120.405 71.2564 121.017 71.5838 121.412 72.0902C121.69 72.4521 121.855 72.9056 121.855 73.3977L121.857 73.3937Z" fill="#ADB01B"/>
<path d="M154.235 54.6589C148.785 54.6589 144.354 59.0899 144.354 64.5398H146.251C146.251 60.1372 149.832 56.5541 154.237 56.5541C158.641 56.5541 162.225 60.1351 162.225 64.5398C162.225 65.4243 162.08 66.2744 161.814 67.0674C161.029 69.4141 159.184 71.2789 156.848 72.0862C156.165 72.3221 155.443 72.4725 154.692 72.5132V74.4125C155.567 74.3739 156.415 74.2193 157.218 73.9652C160.427 72.9484 162.928 70.3394 163.794 67.0695C164.008 66.2622 164.122 65.4142 164.122 64.5418C164.122 59.0919 159.689 54.6609 154.239 54.6609L154.235 54.6589Z" fill="#ADB01B"/>
<path d="M157.293 73.3937C157.293 73.5909 157.265 73.7841 157.216 73.9651C156.966 74.87 156.136 75.535 155.152 75.535C153.97 75.535 153.013 74.5772 153.013 73.3957C153.013 72.2142 153.97 71.2564 155.152 71.2564C155.841 71.2564 156.453 71.5838 156.846 72.0902C157.126 72.4521 157.291 72.9056 157.291 73.3977L157.293 73.3937Z" fill="#ADB01B"/>
<path d="M189.671 54.6589C184.221 54.6589 179.788 59.0899 179.788 64.5398H181.685C181.685 60.1372 185.269 56.5541 189.673 56.5541C194.078 56.5541 197.659 60.1351 197.659 64.5398C197.659 65.4243 197.514 66.2744 197.248 67.0674C196.463 69.4141 194.619 71.2789 192.282 72.0862C191.603 72.3221 190.877 72.4725 190.127 72.5132V74.4125C191.005 74.3739 191.849 74.2193 192.652 73.9652C195.861 72.9504 198.364 70.3394 199.231 67.0695C199.444 66.2622 199.558 65.4142 199.558 64.5418C199.558 59.0919 195.125 54.6609 189.675 54.6609L189.671 54.6589Z" fill="#ADB01B"/>
<path d="M192.725 73.3937C192.725 73.5909 192.697 73.7841 192.648 73.9651C192.398 74.87 191.57 75.535 190.584 75.535C189.403 75.535 188.445 74.5772 188.445 73.3957C188.445 72.2142 189.403 71.2564 190.584 71.2564C191.276 71.2564 191.89 71.5838 192.278 72.0902C192.559 72.4521 192.723 72.9056 192.723 73.3977L192.725 73.3937Z" fill="#ADB01B"/>
<path d="M225.105 54.6589C219.655 54.6589 215.222 59.0899 215.222 64.5398H217.119C217.119 60.1372 220.7 56.5541 225.107 56.5541C229.514 56.5541 233.093 60.1351 233.093 64.5398C233.093 65.4243 232.948 66.2744 232.682 67.0674C231.897 69.4141 230.053 71.2789 227.716 72.0862C227.037 72.3221 226.311 72.4725 225.561 72.5132V74.4125C226.437 74.3739 227.283 74.2193 228.086 73.9652C231.291 72.9504 233.796 70.3394 234.663 67.0695C234.876 66.2622 234.99 65.4142 234.99 64.5418C234.99 59.0919 230.557 54.6609 225.109 54.6609L225.105 54.6589Z" fill="#ADB01B"/>
<path d="M228.162 73.3937C228.162 73.5909 228.133 73.7841 228.084 73.9651C227.834 74.87 227.004 75.535 226.02 75.535C224.839 75.535 223.881 74.5772 223.881 73.3957C223.881 72.2142 224.839 71.2564 226.02 71.2564C226.71 71.2564 227.322 71.5838 227.714 72.0902C227.995 72.4521 228.16 72.9056 228.16 73.3977L228.162 73.3937Z" fill="#ADB01B"/>
<path d="M260.539 54.6589C255.089 54.6589 250.658 59.0899 250.658 64.5398H252.556C252.556 60.1372 256.137 56.5541 260.541 56.5541C264.946 56.5541 268.529 60.1351 268.529 64.5398C268.529 65.4243 268.385 66.2744 268.118 67.0674C267.333 69.4141 265.489 71.2789 263.152 72.0862C262.469 72.3221 261.747 72.4725 260.997 72.5132V74.4125C261.873 74.3739 262.719 74.2193 263.522 73.9652C266.727 72.9504 269.233 70.3394 270.099 67.0695C270.312 66.2622 270.426 65.4142 270.426 64.5418C270.426 59.0919 265.993 54.6609 260.543 54.6609L260.539 54.6589Z" fill="#ADB01B"/>
<path d="M263.596 73.3937C263.596 73.5909 263.567 73.7841 263.518 73.9651C263.268 74.87 262.438 75.535 261.454 75.535C260.273 75.535 259.315 74.5772 259.315 73.3957C259.315 72.2142 260.273 71.2564 261.454 71.2564C262.144 71.2564 262.756 71.5838 263.148 72.0902C263.429 72.4521 263.594 72.9056 263.594 73.3977L263.596 73.3937Z" fill="#ADB01B"/>
<path d="M174.432 162.497H162.908C161.576 162.497 160.275 161.407 160.018 160.075L157.796 148.551C157.54 147.219 158.418 146.129 159.75 146.129H171.274C172.606 146.129 173.907 147.219 174.164 148.551L176.386 160.075C176.643 161.407 175.764 162.497 174.432 162.497Z" fill="#B3BAC4"/>
<path d="M203.511 162.497H191.987C190.655 162.497 189.354 161.407 189.098 160.075L186.875 148.551C186.619 147.219 187.497 146.129 188.829 146.129H200.353C201.685 146.129 202.987 147.219 203.243 148.551L205.466 160.075C205.722 161.407 204.843 162.497 203.511 162.497Z" fill="#B3BAC4"/>
<path d="M232.591 162.497H221.067C219.735 162.497 218.434 161.407 218.177 160.075L215.955 148.551C215.699 147.219 216.577 146.129 217.909 146.129H229.433C230.765 146.129 232.066 147.219 232.323 148.551L234.545 160.075C234.801 161.407 233.923 162.497 232.591 162.497Z" fill="#545454"/>
<path d="M87.1937 162.497H75.6697C74.3377 162.497 73.0363 161.407 72.7801 160.075L70.5574 148.551C70.3012 147.219 71.1797 146.129 72.5116 146.129H84.0356C85.3676 146.129 86.669 147.219 86.9253 148.551L89.1479 160.075C89.4041 161.407 88.5256 162.497 87.1937 162.497Z" fill="#B3BAC4"/>
<path d="M74.5634 127.9H69.6117C69.0383 127.9 68.4811 127.433 68.3693 126.859L67.4135 121.908C67.3037 121.334 67.6819 120.866 68.2533 120.866H73.205C73.7784 120.866 74.3356 121.334 74.4475 121.908L75.4032 126.859C75.513 127.433 75.1348 127.9 74.5634 127.9Z" fill="#FFC727"/>
<path d="M116.273 162.497H104.749C103.417 162.497 102.118 161.407 101.86 160.075L99.6369 148.551C99.3807 147.219 100.259 146.129 101.591 146.129H113.115C114.447 146.129 115.749 147.219 116.005 148.551L118.227 160.075C118.484 161.407 117.605 162.497 116.273 162.497Z" fill="#B3BAC4"/>
<path d="M145.352 162.497H133.828C132.496 162.497 131.195 161.407 130.939 160.075L128.716 148.551C128.46 147.219 129.338 146.129 130.67 146.129H142.194C143.526 146.129 144.828 147.219 145.084 148.551L147.307 160.075C147.563 161.407 146.684 162.497 145.352 162.497Z" fill="#B3BAC4"/>
<path d="M261.672 162.497H250.148C248.816 162.497 247.517 161.407 247.259 160.075L245.036 148.551C244.78 147.219 245.658 146.129 246.99 146.129H258.514C259.846 146.129 261.148 147.219 261.404 148.551L263.626 160.075C263.883 161.407 263.004 162.497 261.672 162.497Z" fill="#545454"/>
<path d="M169.605 137.468H158.081C156.749 137.468 155.447 136.378 155.191 135.046L152.968 123.522C152.712 122.19 153.591 121.1 154.922 121.1H166.446C167.778 121.1 169.08 122.19 169.336 123.522L171.559 135.046C171.815 136.378 170.937 137.468 169.605 137.468Z" fill="#B3BAC4"/>
<path d="M198.684 137.468H187.16C185.828 137.468 184.526 136.378 184.27 135.046L182.047 123.522C181.791 122.19 182.67 121.1 184.001 121.1H195.525C196.857 121.1 198.159 122.19 198.415 123.522L200.638 135.046C200.894 136.378 200.015 137.468 198.684 137.468Z" fill="#B3BAC4"/>
<path d="M227.763 137.468H216.239C214.907 137.468 213.606 136.378 213.35 135.046L211.127 123.522C210.871 122.19 211.749 121.1 213.081 121.1H224.605C225.937 121.1 227.239 122.19 227.495 123.522L229.717 135.046C229.974 136.378 229.095 137.468 227.763 137.468Z" fill="#545454"/>
<path d="M256.842 137.468H245.318C243.986 137.468 242.685 136.378 242.429 135.046L240.206 123.522C239.95 122.19 240.828 121.1 242.16 121.1H253.684C255.016 121.1 256.318 122.19 256.574 123.522L258.797 135.046C259.053 136.378 258.174 137.468 256.842 137.468Z" fill="#545454"/>
<path d="M179.55 189.026H168.026C166.694 189.026 165.395 187.936 165.136 186.604L162.914 175.08C162.658 173.748 163.536 172.658 164.868 172.658H176.392C177.724 172.658 179.025 173.748 179.282 175.08L181.504 186.604C181.761 187.936 180.882 189.026 179.55 189.026Z" fill="#B3BAC4"/>
<path d="M208.63 189.026H197.106C195.774 189.026 194.472 187.936 194.216 186.604L191.993 175.08C191.737 173.748 192.616 172.658 193.948 172.658H205.472C206.804 172.658 208.105 173.748 208.361 175.08L210.584 186.604C210.84 187.936 209.962 189.026 208.63 189.026Z" fill="#B3BAC4"/>
<path d="M237.709 189.026H226.185C224.853 189.026 223.552 187.936 223.296 186.604L221.073 175.08C220.817 173.748 221.695 172.658 223.027 172.658H234.551C235.883 172.658 237.185 173.748 237.441 175.08L239.663 186.604C239.92 187.936 239.041 189.026 237.709 189.026Z" fill="#545454"/>
<path d="M92.3102 189.026H80.7862C79.4542 189.026 78.1528 187.936 77.8966 186.604L75.6739 175.08C75.4177 173.748 76.2962 172.658 77.6281 172.658H89.1521C90.4841 172.658 91.7856 173.748 92.0418 175.08L94.2644 186.604C94.5206 187.936 93.6422 189.026 92.3102 189.026Z" fill="#B3BAC4"/>
<path d="M121.389 189.026H109.865C108.533 189.026 107.232 187.936 106.976 186.604L104.753 175.08C104.497 173.748 105.375 172.658 106.707 172.658H118.231C119.563 172.658 120.865 173.748 121.121 175.08L123.344 186.604C123.6 187.936 122.721 189.026 121.389 189.026Z" fill="#B3BAC4"/>
<path d="M150.469 189.026H138.945C137.613 189.026 136.311 187.936 136.055 186.604L133.832 175.08C133.576 173.748 134.455 172.658 135.787 172.658H147.311C148.643 172.658 149.944 173.748 150.2 175.08L152.423 186.604C152.679 187.936 151.801 189.026 150.469 189.026Z" fill="#B3BAC4"/>
<path d="M266.788 189.026H255.264C253.933 189.026 252.631 187.936 252.375 186.604L250.152 175.08C249.896 173.748 250.774 172.658 252.106 172.658H263.63C264.962 172.658 266.262 173.748 266.52 175.08L268.743 186.604C268.999 187.936 268.12 189.026 266.788 189.026Z" fill="#545454"/>
<path d="M184.667 215.553H173.143C171.811 215.553 170.509 214.464 170.253 213.132L168.03 201.608C167.774 200.276 168.653 199.186 169.985 199.186H181.509C182.84 199.186 184.142 200.276 184.398 201.608L186.621 213.132C186.877 214.464 185.999 215.553 184.667 215.553Z" fill="#B3BAC4"/>
<path d="M213.746 215.553H202.222C200.89 215.553 199.589 214.464 199.333 213.132L197.11 201.608C196.854 200.276 197.732 199.186 199.064 199.186H210.588C211.92 199.186 213.222 200.276 213.478 201.608L215.7 213.132C215.957 214.464 215.078 215.553 213.746 215.553Z" fill="#B3BAC4"/>
<path d="M242.825 215.553H231.302C229.97 215.553 228.668 214.464 228.412 213.132L226.189 201.608C225.933 200.276 226.811 199.186 228.143 199.186H239.667C240.999 199.186 242.301 200.276 242.557 201.608L244.78 213.132C245.036 214.464 244.157 215.553 242.825 215.553Z" fill="#545454"/>
<path d="M97.4284 215.553H85.9044C84.5725 215.553 83.271 214.464 83.0148 213.132L80.7921 201.608C80.5359 200.276 81.4144 199.186 82.7464 199.186H94.2704C95.6023 199.186 96.9017 200.276 97.16 201.608L99.3826 213.132C99.6389 214.464 98.7604 215.553 97.4284 215.553Z" fill="#B3BAC4"/>
<path d="M126.508 215.553H114.984C113.652 215.553 112.353 214.464 112.095 213.132L109.872 201.608C109.616 200.276 110.494 199.186 111.826 199.186H123.35C124.682 199.186 125.983 200.276 126.24 201.608L128.462 213.132C128.719 214.464 127.84 215.553 126.508 215.553Z" fill="#FFC727"/>
<path d="M155.587 215.553H144.063C142.731 215.553 141.43 214.464 141.173 213.132L138.951 201.608C138.695 200.276 139.573 199.186 140.905 199.186H152.429C153.761 199.186 155.062 200.276 155.319 201.608L157.541 213.132C157.798 214.464 156.919 215.553 155.587 215.553Z" fill="#B3BAC4"/>
<path d="M271.905 215.553H260.381C259.049 215.553 257.748 214.464 257.491 213.132L255.269 201.608C255.012 200.276 255.891 199.186 257.223 199.186H268.747C270.079 199.186 271.38 200.276 271.637 201.608L273.859 213.132C274.115 214.464 273.237 215.553 271.905 215.553Z" fill="#545454"/>
<path d="M189.494 240.584H177.97C176.638 240.584 175.337 239.494 175.08 238.162L172.858 226.638C172.602 225.306 173.48 224.216 174.812 224.216H186.336C187.668 224.216 188.969 225.306 189.226 226.638L191.448 238.162C191.705 239.494 190.826 240.584 189.494 240.584Z" fill="#B3BAC4"/>
<path d="M218.574 240.584H207.05C205.718 240.584 204.416 239.494 204.16 238.162L201.937 226.638C201.681 225.306 202.56 224.216 203.892 224.216H215.416C216.747 224.216 218.049 225.306 218.305 226.638L220.528 238.162C220.784 239.494 219.906 240.584 218.574 240.584Z" fill="#B3BAC4"/>
<path d="M247.655 240.584H236.131C234.799 240.584 233.498 239.494 233.242 238.162L231.019 226.638C230.763 225.306 231.641 224.216 232.973 224.216H244.497C245.829 224.216 247.131 225.306 247.387 226.638L249.609 238.162C249.866 239.494 248.987 240.584 247.655 240.584Z" fill="#545454"/>
<path d="M102.256 240.584H90.732C89.4 240.584 88.0986 239.494 87.8423 238.162L85.6197 226.638C85.3635 225.306 86.242 224.216 87.5739 224.216H99.0979C100.43 224.216 101.731 225.306 101.988 226.638L104.21 238.162C104.466 239.494 103.588 240.584 102.256 240.584Z" fill="#B3BAC4"/>
<path d="M131.335 240.584H119.811C118.479 240.584 117.178 239.494 116.922 238.162L114.699 226.638C114.443 225.306 115.321 224.216 116.653 224.216H128.177C129.509 224.216 130.811 225.306 131.067 226.638L133.29 238.162C133.546 239.494 132.667 240.584 131.335 240.584Z" fill="#B3BAC4"/>
<path d="M160.415 240.584H148.891C147.559 240.584 146.257 239.494 146.001 238.162L143.779 226.638C143.522 225.306 144.401 224.216 145.733 224.216H157.257C158.589 224.216 159.89 225.306 160.146 226.638L162.369 238.162C162.625 239.494 161.747 240.584 160.415 240.584Z" fill="#B3BAC4"/>
<path d="M109.491 123.351H78.9618C78.5124 123.351 78.1444 122.983 78.1444 122.534C78.1444 122.085 78.5124 121.716 78.9618 121.716H109.491C109.941 121.716 110.309 122.085 110.309 122.534C110.309 122.983 109.941 123.351 109.491 123.351Z" fill="#AFCDFB"/>
<path d="M110.419 127.05H79.8894C79.4399 127.05 79.0719 126.682 79.0719 126.233C79.0719 125.783 79.4399 125.415 79.8894 125.415H110.419C110.868 125.415 111.236 125.783 111.236 126.233C111.236 126.682 110.868 127.05 110.419 127.05Z" fill="#AFCDFB"/>
<path d="M76.7474 95.8193H66.2707C65.4125 95.8193 64.711 95.1177 64.711 94.2596C64.711 93.4014 65.4125 92.6999 66.2707 92.6999H76.7474C77.6056 92.6999 78.3071 93.4014 78.3071 94.2596C78.3071 95.1177 77.6056 95.8193 76.7474 95.8193Z" fill="white"/>
<path d="M105.495 95.8193H95.0184C94.1603 95.8193 93.4587 95.1177 93.4587 94.2596C93.4587 93.4014 94.1603 92.6999 95.0184 92.6999H105.495C106.353 92.6999 107.055 93.4014 107.055 94.2596C107.055 95.1177 106.353 95.8193 105.495 95.8193Z" fill="white"/>
<path d="M134.241 95.8193H123.764C122.906 95.8193 122.205 95.1177 122.205 94.2596C122.205 93.4014 122.906 92.6999 123.764 92.6999H134.241C135.099 92.6999 135.801 93.4014 135.801 94.2596C135.801 95.1177 135.099 95.8193 134.241 95.8193Z" fill="white"/>
<path d="M162.989 95.8193H152.512C151.654 95.8193 150.953 95.1177 150.953 94.2596C150.953 93.4014 151.654 92.6999 152.512 92.6999H162.989C163.847 92.6999 164.549 93.4014 164.549 94.2596C164.549 95.1177 163.847 95.8193 162.989 95.8193Z" fill="white"/>
<path d="M191.737 95.8193H181.26C180.402 95.8193 179.701 95.1177 179.701 94.2596C179.701 93.4014 180.402 92.6999 181.26 92.6999H191.737C192.595 92.6999 193.297 93.4014 193.297 94.2596C193.297 95.1177 192.595 95.8193 191.737 95.8193Z" fill="white"/>
<path d="M220.485 95.8193H210.008C209.15 95.8193 208.449 95.1177 208.449 94.2596C208.449 93.4014 209.15 92.6999 210.008 92.6999H220.485C221.343 92.6999 222.045 93.4014 222.045 94.2596C222.045 95.1177 221.343 95.8193 220.485 95.8193Z" fill="white"/>
<path d="M249.231 95.8193H238.754C237.896 95.8193 237.195 95.1177 237.195 94.2596C237.195 93.4014 237.896 92.6999 238.754 92.6999H249.231C250.089 92.6999 250.791 93.4014 250.791 94.2596C250.791 95.1177 250.089 95.8193 249.231 95.8193Z" fill="white"/>
<path d="M182.971 137.696C180.657 137.696 178.973 136.962 178.054 135.536C176.293 132.803 177.653 128.972 182.092 124.15C185.336 120.628 189.124 117.838 189.161 117.81C189.309 117.7 189.519 117.733 189.628 117.881C189.738 118.029 189.706 118.239 189.557 118.349C189.409 118.456 174.81 129.267 178.617 135.174C179.823 137.045 182.403 137.169 184.358 136.943C187.975 136.524 192.691 134.576 196.974 131.733C201.407 128.789 204.528 125.47 205.541 122.629C206.204 120.765 205.998 119.445 204.931 118.705C203.55 117.749 200.664 117.749 197.213 118.703C193.907 119.616 190.58 121.261 188.53 122.997C188.39 123.117 188.179 123.099 188.059 122.959C187.939 122.818 187.957 122.607 188.097 122.487C190.216 120.693 193.641 118.997 197.035 118.06C200.729 117.039 203.745 117.074 205.311 118.158C206.238 118.798 207.139 120.134 206.171 122.855C205.112 125.83 201.895 129.269 197.344 132.291C192.978 135.19 188.152 137.179 184.435 137.608C183.922 137.667 183.434 137.698 182.971 137.698V137.696Z" fill="#C65447"/>
<path d="M243.464 118.699L242.274 116.456C242.274 116.456 242.864 112.458 237.856 109.928C237.856 109.928 236.025 109.182 234.99 110.676C234.039 112.051 236.804 111.803 236.656 114.156C236.507 116.508 237.624 117.889 239.179 118.656L240.465 120.144L243.464 118.699Z" fill="#FFB27D"/>
<path d="M290.808 113.334C290.808 113.334 286.505 134.451 262.831 141.35C255.441 143.504 238.65 119.173 238.65 119.173C238.65 119.173 239.24 116.93 242.939 117.444C242.939 117.444 259.287 128.267 261.345 129.442C263.171 130.485 275.181 116.031 280.655 113.7C286.129 111.368 290.806 113.334 290.806 113.334H290.808Z" fill="#A8862F"/>
<path d="M221.6 112.959L222.548 118.082L248.318 113.31L247.37 108.188L221.6 112.959Z" fill="#C65447"/>
<path d="M216.064 116.627L222.529 118.079L221.581 112.956L216.064 116.627Z" fill="#FFB27D"/>
<path d="M250.663 109.328L250.964 110.947C251.149 111.943 250.49 112.901 249.494 113.084L248.302 113.306L247.352 108.183L248.65 107.943C249.589 107.771 250.49 108.389 250.665 109.328H250.663Z" fill="#FFB27D"/>
<path d="M319.074 246.077C319.074 246.077 322.011 248.757 321.437 250.662C320.864 252.568 318.214 253.837 317.856 256.165C317.498 258.494 316.065 259.762 314.775 259.762H308.628C308.628 259.762 307.678 258.125 309.972 257.631C312.264 257.137 313.128 254.402 312.986 251.862C312.841 249.322 313.201 245.937 313.201 245.937L318.072 244.808L319.074 246.077Z" fill="#233862"/>
<path d="M283.04 253.009C283.04 253.009 283.567 259.11 282.278 259.744L265.776 259.709C265.776 259.709 265.776 257.804 268.425 257.381C271.075 256.958 275.732 255.407 276.521 251.95C277.31 248.493 283.04 253.007 283.04 253.007V253.009Z" fill="#233862"/>
<path d="M269.109 166.84C269.109 166.84 269.979 177.532 271.002 190.386C272.393 207.846 274.064 229.294 274.229 233.357C274.516 240.411 275.663 251.697 275.663 251.697C275.663 251.697 278.384 254.377 283.829 253.249C283.829 253.249 288.681 237.139 290.068 220.094C290.091 219.815 290.111 219.533 290.133 219.252C291.423 201.9 293.428 165.362 293.428 165.362L269.109 166.842V166.84Z" fill="#4F4F4F"/>
<path d="M269.109 166.84C269.109 166.84 269.979 177.533 271.002 190.387L290.068 220.092C290.091 219.814 290.111 219.531 290.133 219.25C291.423 201.898 293.428 165.36 293.428 165.36L269.109 166.84Z" fill="#2D2D2D"/>
<path d="M273.084 168.111C273.084 168.111 288.773 206.836 299.089 225.034C309.405 243.232 312.628 248.312 312.628 248.312C312.628 248.312 318.538 245.983 319.077 244.397C319.077 244.397 315.132 209.264 308.224 200.699C304.319 195.859 299.734 181.337 299.52 176.258C299.305 171.18 298.123 161.128 298.123 161.128L273.086 168.111H273.084Z" fill="#4F4F4F"/>
<path d="M293.725 108.434C293.725 108.434 283.11 113.556 276.991 111.655C276.991 111.655 278.498 109.755 281.133 108.34C280.921 107.112 280.757 106.046 280.663 105.141C280.405 103.055 280.405 101.873 280.405 101.873L284.5 98.6523L288.385 95.5694C288.079 104.236 293.727 108.432 293.727 108.432L293.725 108.434Z" fill="#AD6359"/>
<path d="M268.44 167.725C268.627 167.887 268.84 167.979 269.076 167.979C271.382 167.932 278.091 169.207 283.76 168.628C288.561 168.164 292.799 166.775 297.342 164.782C297.954 164.504 299.345 163.761 299.319 163.113C299.294 162.371 299.225 161.327 299.132 159.983C298.941 157.336 298.674 153.576 298.589 149.118C298.526 145.814 298.56 142.127 298.8 138.22C298.814 137.958 298.827 137.694 298.839 137.429C298.908 135.998 298.941 134.556 298.941 133.147C298.965 128.604 298.638 124.27 297.979 120.401C296.824 113.68 294.658 108.419 291.459 106.078C291.034 105.753 288.397 107.028 285.95 108.21C283.714 109.3 281.479 109.415 279.362 108.999L277.243 110.851C274.674 113.19 271.85 116.411 270.603 121.279C269.568 125.405 268.956 132.866 268.627 140.608C268.464 144.13 268.346 147.652 268.299 151.011V151.127C268.275 151.475 268.275 151.825 268.275 152.172C268.159 160.77 268.275 167.607 268.44 167.723V167.725Z" fill="#FFC727"/>
<path d="M288.454 98.8857C288.454 98.8857 285.771 103.776 280.663 105.143C280.405 103.057 280.405 101.875 280.405 101.875L284.5 98.6539L288.454 98.8857Z" fill="#263238"/>
<path d="M278.536 101.733C278.536 101.733 288.663 103.39 289.613 97.1638C290.562 90.9392 292.511 86.9596 286.085 85.6398C279.659 84.318 278.038 86.5081 277.206 88.5091C276.377 90.5101 275.925 101.141 278.534 101.733H278.536Z" fill="#AD6359"/>
<path d="M293.293 84.8953C293.385 84.7896 293.598 84.7042 294.07 84.6798C294.07 84.6798 293.694 84.4439 293.188 84.4317C293.09 83.7749 292.74 82.6137 291.612 82.3311C291.612 82.3311 292.218 82.6544 292.297 83.3519C290.989 82.0077 288.187 81.0316 280.425 81.6437C270.199 82.451 273.568 88.999 274.892 89.7799C276.216 90.5607 279.549 88.4194 282.015 88.6167C284.482 88.8119 284.952 92.3767 285.788 92.8668C286.625 93.3568 286.296 92.4906 287.429 91.9801C288.561 91.4677 288.669 93.3446 288.342 94.5648C288.014 95.7849 289.57 97.3934 289.57 97.3934L291.142 95.6995C292.714 94.0055 294.196 86.8333 293.48 85.3061C293.417 85.1719 293.354 85.0336 293.289 84.8974L293.293 84.8953Z" fill="#2C3A64"/>
<path d="M242.252 116.348C242.252 116.348 242.599 114.971 241.646 114.353C240.69 113.735 239.814 112.051 239.411 112.281C238.577 112.753 239.866 114.221 239.631 116.053C239.547 116.694 241.04 118.374 242.252 116.35V116.348Z" fill="#FFB27D"/>
<path d="M298.589 149.118C298.526 145.814 298.56 142.127 298.8 138.221C298.814 137.958 298.827 137.694 298.839 137.43C297.877 132.661 296.421 128.429 294.278 128.291C294.278 128.291 287.892 138.324 298.589 149.118Z" fill="#564313"/>
<path d="M307.034 166.421C307.034 166.421 306.501 171.595 305.918 172.575C305.334 173.553 302.847 176.68 301.788 177.295C300.728 177.909 302.434 173.175 302.219 172.253C302.003 171.332 301.346 173.935 300.881 173.996C300.413 174.057 300.533 171.715 300.517 170.863C300.5 170.01 302.788 167.906 303.595 166.09C304.403 164.274 307.034 166.423 307.034 166.423V166.421Z" fill="#FFB27D"/>
<path d="M291.453 106.026C291.453 106.026 297.861 109.06 300.931 113.725C305.696 120.96 311.219 147.327 311.323 149.769C311.424 152.211 307.29 169.449 307.29 169.449C307.29 169.449 303.097 169.173 302.017 167.058C302.017 167.058 302.855 149.346 302.324 148.207C301.794 147.068 284.846 124.449 286.754 119.622C288.659 114.794 291.453 106.028 291.453 106.028V106.026Z" fill="#FFC727"/>
<path d="M219.377 114.422L219.714 117.446L216.064 116.627L219.377 114.422Z" fill="#C65447"/>
</svg>
