<svg width="42" height="26" viewBox="0 0 42 26" fill="none" xmlns="http://www.w3.org/2000/svg">
<g opacity="0.19" clip-path="url(#clip0_284_4523)">
<path d="M0.432861 12.6327C2.81629 16.8971 5.19971 21.1615 7.45991 25.5688C10.3543 23.7755 13.6153 22.5931 16.9786 22.1159C18.8931 21.8454 20.949 21.8272 22.6351 22.7846C23.2993 23.1615 23.9215 23.6934 24.6819 23.7512C25.7789 23.8363 26.6686 22.9123 27.456 22.0096C31.9284 20.4472 36.7343 20.2223 41.3989 19.9792C40.0464 18.4077 38.0507 17.4959 36.7553 15.9305C37.657 15.9245 38.5587 16.0187 39.4213 16.122C38.5406 14.6539 37.3955 13.35 36.073 12.3378C36.3977 12.1919 36.7493 12.1007 37.0799 12.0491C35.4779 10.5962 33.9691 9.03691 32.5806 7.33783C30.9545 5.48372 29.4367 3.53236 27.949 1.44421C27.3749 1.34087 26.7648 1.46853 26.2688 1.79375C25.83 1.28312 25.4573 0.717766 25.1177 0.109863C23.131 0.933571 21.3367 2.22233 19.891 3.8667C18.9833 5.06731 18.1928 6.36214 17.5587 7.74816C17.0387 8.83935 16.7051 10.0187 16.5037 11.198C14.2165 9.6205 11.5355 8.63874 8.77636 8.35302C6.50414 8.31351 4.12973 8.41077 2.122 9.54755C2.23621 9.79375 2.33539 10.0491 2.45562 10.2618C2.18812 10.3165 1.95068 10.4837 1.76734 10.6904C1.584 10.8971 1.45175 11.1433 1.32852 11.3895C1.43673 11.66 1.587 11.9093 1.77335 12.1311C1.33454 12.2831 0.910749 12.4655 0.432861 12.6327Z" fill="white"/>
<path d="M25.4454 22.5141C26.9031 21.0733 28.0362 19.1888 29.7885 18.2162C31.9976 17.0065 34.402 16.0156 36.9688 15.9396C38.15 17.5353 39.9594 18.5232 41.363 19.9244C37.062 20.0429 32.776 20.6265 28.5983 21.666C27.8739 21.8454 27.1105 22.0642 26.6056 22.6204C26.6296 22.5201 26.7288 22.4411 26.831 22.4411C26.1607 23.1402 25.202 23.5445 24.2402 23.5353C24.0358 23.5323 23.8284 23.511 23.6451 23.4229C23.4677 23.3347 23.3265 23.1858 23.1732 23.0581C22.7464 22.6934 22.2114 22.4624 21.7275 22.2405C19.2719 21.739 16.7082 21.9548 14.2917 22.6235C11.8752 23.2922 9.59998 24.4046 7.30973 25.5201C7.31274 24.894 6.99114 24.3195 6.68156 23.7815C4.57766 20.122 2.47375 16.4624 0.487061 12.8454C0.775596 12.3834 1.29857 12.0794 1.83356 12.0034C2.90956 13.59 3.77216 15.3074 4.63476 17.0217C5.65366 19.049 6.67255 21.0764 7.6674 23.0764C10.0809 21.7359 12.7138 20.6873 15.4609 20.5201C16.1041 20.4806 16.7473 20.4897 17.3905 20.5293C19.5785 20.66 21.8267 21.1584 23.5729 22.5019C23.6601 22.5688 23.7503 22.6417 23.8555 22.6782C23.9667 22.7177 24.0869 22.7147 24.2041 22.7055C24.712 22.6691 25.2741 22.6843 25.4454 22.5141Z" fill="white"/>
<path d="M7.49003 26.0004C7.45997 26.0004 7.43292 25.9974 7.40286 25.9913C7.30368 25.967 7.22253 25.9001 7.17444 25.8119L2.99668 18.0338C2.09801 16.3621 1.16929 14.6326 0.0662402 13.0642C-0.0479719 12.9001 -0.0119049 12.6721 0.150397 12.5566C0.312698 12.4411 0.538117 12.4806 0.652329 12.6417C1.77642 14.2466 2.71716 15.9943 3.62785 17.6873L7.61927 25.1159C10.4205 23.2891 13.4441 22.1372 16.615 21.6873C19.4522 21.2861 21.7275 21.6417 23.3805 22.7511C24.0808 23.2375 25.0486 23.2922 25.791 22.8879C26.0465 22.7512 26.2779 22.5627 26.5244 22.3651C26.6747 22.2436 26.8279 22.1189 26.9932 22.0034C27.9941 21.2952 29.2144 20.9973 30.2814 20.7755C33.4222 20.122 36.7854 19.7633 40.5334 19.6904C39.1929 18.6995 37.8975 17.6387 36.6652 16.5201C36.5179 16.3864 36.5059 16.1554 36.6382 16.0065C36.7704 15.8575 36.9988 15.8454 37.1461 15.9791C38.6278 17.3226 40.2088 18.5901 41.8438 19.742C41.9731 19.8332 42.0272 19.9974 41.9821 20.1493C41.937 20.3013 41.7957 20.4046 41.6394 20.4046C37.4917 20.4259 33.8249 20.7785 30.4256 21.4898C29.4308 21.6964 28.2947 21.97 27.405 22.6022C27.2607 22.7056 27.1195 22.818 26.9722 22.9366C26.7107 23.1463 26.4432 23.3621 26.1306 23.5323C25.1568 24.0612 23.8885 23.9913 22.9778 23.356C21.481 22.353 19.3711 22.0338 16.7142 22.4107C13.5252 22.8636 10.4896 24.049 7.6884 25.9426C7.63129 25.9791 7.56216 26.0004 7.49003 26.0004Z" fill="black"/>
<path d="M0.360685 13.1369C0.276529 13.1369 0.192372 13.1065 0.123244 13.0457C-0.0270352 12.912 -0.0420631 12.684 0.0901825 12.5321C0.228439 12.374 0.303579 12.3102 0.510964 12.219C0.805511 12.0913 1.10607 11.9728 1.40963 11.8695C1.59898 11.8056 1.80336 11.909 1.86648 12.1005C1.9296 12.2919 1.82741 12.4986 1.63806 12.5625C1.35553 12.6567 1.07301 12.7661 0.796494 12.8877C0.703321 12.9272 0.703321 12.9272 0.631187 13.0123C0.559053 13.0944 0.459869 13.1369 0.360685 13.1369Z" fill="black"/>
<path d="M24.7181 22.6142C24.6821 22.6142 24.649 22.5929 24.634 22.5564C24.111 21.2677 24.1381 19.678 24.7151 18.0792C25.3974 16.1887 26.7108 14.4379 28.5172 13.0154C29.9749 11.8665 31.7632 10.9181 33.9783 10.1096C33.0857 9.29504 27.1677 3.84215 25.0848 0.200815C20.8199 1.86343 17.4416 6.292 16.6722 11.2464C16.6662 11.2768 16.6482 11.3042 16.6211 11.3163C16.5941 11.3285 16.561 11.3254 16.5369 11.3102C14.2257 9.81176 11.8182 8.88167 9.38667 8.54124C6.82892 8.18562 4.29221 8.57468 2.23338 9.63547C2.55197 10.3224 2.86756 11.0063 3.18615 11.6902C4.59878 14.7358 6.06249 17.8847 7.39697 21.0184C10.7813 19.2251 14.971 18.8391 19.8461 19.8756C22.0191 20.3376 23.5159 21.1856 24.4266 22.4744C24.4567 22.5139 24.4446 22.5716 24.4056 22.602C24.3665 22.6324 24.3094 22.6203 24.2793 22.5808C23.3987 21.3315 21.935 20.5078 19.81 20.0549C14.935 19.0184 10.7572 19.4136 7.39397 21.2251C7.37293 21.2373 7.34588 21.2403 7.32183 21.2312C7.29779 21.2221 7.27975 21.2039 7.26773 21.1826C5.92424 18.0245 4.4485 14.8452 3.02084 11.7692C2.69023 11.061 2.36262 10.3498 2.03201 9.63547C2.01097 9.58987 2.029 9.5382 2.07108 9.51692C4.17499 8.4075 6.78083 7.99717 9.41071 8.36191C11.8302 8.6993 14.2196 9.61419 16.5189 11.0823C17.3424 6.09139 20.7748 1.6537 25.0938 0.00628611C25.1359 -0.00891146 25.181 0.00628611 25.205 0.0457998C27.3931 3.94246 34.1436 10.0184 34.2128 10.0792C34.2368 10.1005 34.2488 10.1339 34.2428 10.1643C34.2368 10.1947 34.2158 10.2221 34.1857 10.2312C31.9225 11.0428 30.1071 12.0002 28.6314 13.1613C26.8521 14.5595 25.5597 16.2829 24.8895 18.1431C24.3304 19.6993 24.3004 21.2434 24.8053 22.4896C24.8233 22.5352 24.8023 22.5899 24.7572 22.6081C24.7422 22.6112 24.7302 22.6142 24.7181 22.6142Z" fill="black"/>
<path d="M25.0758 22.6232H25.0728C25.0247 22.6201 24.9856 22.5776 24.9856 22.5289C24.9856 22.4955 25.1509 19.152 27.9431 16.3283C29.3587 14.8967 31.1801 13.7721 33.3591 12.9818C34.5614 12.5472 35.8087 12.2463 36.9027 11.997C33.6176 8.86025 30.609 5.33746 27.9551 1.52895C27.3961 1.456 26.822 1.5715 26.3351 1.85721C26.29 1.88153 26.2359 1.86633 26.2119 1.82378C26.1878 1.78123 26.2029 1.72348 26.2449 1.69916C26.7799 1.38609 27.4111 1.26451 28.0212 1.35569C28.0453 1.35873 28.0663 1.37393 28.0813 1.39217C30.7653 5.25235 33.819 8.8177 37.1522 11.9849C37.1762 12.0092 37.1853 12.0426 37.1762 12.0761C37.1672 12.1095 37.1402 12.1338 37.1101 12.1399C35.983 12.3922 34.6756 12.7022 33.4223 13.1551C31.2673 13.9362 29.4669 15.0457 28.0723 16.459C25.3342 19.228 25.1689 22.5046 25.1689 22.5381C25.1629 22.5837 25.1239 22.6232 25.0758 22.6232Z" fill="black"/>
<path d="M25.5085 22.6142C25.4905 22.6142 25.4695 22.6081 25.4544 22.596C25.4154 22.5656 25.4094 22.5078 25.4394 22.4683C25.5085 22.3771 27.1706 20.2343 28.0092 19.4774C30.5399 17.1948 35.1294 15.1887 39.3162 16.0853C38.4325 14.6446 37.3505 13.441 36.0191 12.4106C35.98 12.3802 35.971 12.3224 36.001 12.2829C36.0311 12.2434 36.0882 12.2343 36.1273 12.2647C37.5339 13.3528 38.664 14.6294 39.5777 16.1705C39.5957 16.2008 39.5957 16.2404 39.5717 16.2708C39.5506 16.3011 39.5146 16.3133 39.4785 16.3042C35.3007 15.3072 30.6661 17.3194 28.1264 19.6081C27.2999 20.3528 25.5957 22.5534 25.5777 22.5777C25.5596 22.6021 25.5356 22.6142 25.5085 22.6142Z" fill="black"/>
<path d="M24.5738 22.6203C24.5438 22.6203 24.5137 22.6051 24.4957 22.5747C23.609 21.0063 22.527 19.526 21.4811 18.0975L16.4708 11.2312C16.4407 11.1917 16.4497 11.1339 16.4888 11.1035C16.5279 11.0731 16.585 11.0823 16.615 11.1218L21.6283 17.985C22.6773 19.4197 23.7593 20.9029 24.652 22.4804C24.676 22.523 24.661 22.5807 24.6189 22.6051C24.6069 22.6142 24.5919 22.6203 24.5738 22.6203Z" fill="black"/>
<path d="M23.0469 16.4624C23.0379 16.4624 23.0289 16.4624 23.0169 16.4563C22.9688 16.4411 22.9447 16.3894 22.9598 16.3408C24.0207 13.1828 26.4913 10.59 29.5721 9.4016C29.6171 9.38336 29.6712 9.40768 29.6893 9.45327C29.7073 9.49886 29.6833 9.55357 29.6382 9.57181C26.6085 10.739 24.174 13.2922 23.1311 16.3986C23.1191 16.4381 23.083 16.4624 23.0469 16.4624Z" fill="black"/>
<path d="M21.7786 14.6049C21.7666 14.6049 21.7545 14.6019 21.7425 14.5989C21.6974 14.5776 21.6764 14.5259 21.6944 14.4803C21.7696 14.3071 21.8417 14.1338 21.9108 13.9636C22.6863 12.1125 23.3595 10.5107 25.0216 9.30403C25.0607 9.27364 25.1178 9.28275 25.1478 9.32531C25.1779 9.36482 25.1689 9.42257 25.1268 9.45297C23.5038 10.6293 22.8426 12.2098 22.0761 14.0366C22.004 14.2068 21.9319 14.38 21.8597 14.5533C21.8447 14.5837 21.8116 14.6049 21.7786 14.6049Z" fill="black"/>
<path d="M26.4132 8.39821C26.3861 8.39821 26.3591 8.38606 26.341 8.36174C26.311 8.32223 26.317 8.26448 26.3561 8.23408C26.843 7.85414 27.3359 7.6201 27.7326 7.43165L27.7597 7.41949C27.8047 7.39821 27.8588 7.41645 27.8799 7.46204C27.9009 7.50764 27.8829 7.56235 27.8378 7.58362L27.8108 7.59578C27.42 7.78119 26.9361 8.0122 26.4673 8.37998C26.4492 8.39213 26.4312 8.39821 26.4132 8.39821Z" fill="black"/>
<path d="M20.1165 12.9425C20.1074 12.9425 20.0954 12.9395 20.0864 12.9365C20.0413 12.9182 20.0173 12.8666 20.0323 12.821C21.3397 9.25866 23.2693 7.09756 26.2929 5.82097C26.338 5.80273 26.3921 5.82401 26.4101 5.8696C26.4282 5.91519 26.4071 5.9699 26.3621 5.98814C23.3895 7.2465 21.49 9.37112 20.2006 12.8848C20.1856 12.9213 20.1525 12.9425 20.1165 12.9425Z" fill="black"/>
<path d="M18.6557 11.6231C18.6467 11.6231 18.6377 11.6231 18.6316 11.6201C18.5836 11.6049 18.5565 11.5562 18.5715 11.5076C18.6316 11.2979 18.6888 11.0882 18.7429 10.8845C19.0284 9.82068 19.2989 8.81765 20.0503 7.95442C20.0833 7.91795 20.1404 7.91187 20.1765 7.9453C20.2126 7.97874 20.2186 8.03649 20.1855 8.07296C19.4612 8.90579 19.1967 9.88755 18.9172 10.9301C18.8631 11.1368 18.806 11.3465 18.7459 11.5562C18.7308 11.5958 18.6948 11.6231 18.6557 11.6231Z" fill="black"/>
<path d="M21 7.05782C20.979 7.05782 20.9609 7.05174 20.9429 7.03654C20.9038 7.00615 20.8978 6.9484 20.9309 6.90888C21.3487 6.38913 21.8716 5.73867 22.5088 5.36481C22.5509 5.3405 22.608 5.35265 22.632 5.39825C22.6561 5.4408 22.6411 5.49855 22.599 5.52287C21.9888 5.88153 21.4809 6.51679 21.0691 7.02439C21.0511 7.04566 21.0271 7.05782 21 7.05782Z" fill="black"/>
<path d="M23.3655 4.9729C23.3414 4.9729 23.3174 4.96378 23.2993 4.94555C23.2663 4.90907 23.2663 4.85132 23.3023 4.81789C23.6059 4.52609 24.201 4.1036 24.6038 3.94251C24.6488 3.92427 24.7029 3.94555 24.721 3.99418C24.739 4.03977 24.718 4.09448 24.6699 4.11272C24.2912 4.26469 23.7111 4.67807 23.4256 4.95162C23.4105 4.96682 23.3895 4.9729 23.3655 4.9729Z" fill="black"/>
<path d="M24.1801 22.7781C23.6331 22.7781 23.1221 22.6991 22.6472 22.5411C22.5992 22.5259 22.5751 22.4742 22.5901 22.4256C22.6052 22.3769 22.6563 22.3526 22.7044 22.3678C23.5129 22.6383 24.4386 22.6687 25.4575 22.459C26.4132 22.2614 27.3299 21.8815 28.1144 21.538C28.1595 21.5167 28.2136 21.538 28.2316 21.5867C28.2527 21.6322 28.2316 21.687 28.1835 21.7052C27.3901 22.0517 26.4613 22.4377 25.4905 22.6383C25.0367 22.7325 24.5979 22.7781 24.1801 22.7781Z" fill="black"/>
<path d="M7.77253 23.2039C7.76652 23.2039 7.7575 23.2039 7.75149 23.2009C7.72745 23.1948 7.70641 23.1796 7.69439 23.1583C6.92796 21.7966 6.22466 20.3681 5.54539 18.9881C4.29207 16.438 2.99366 13.8027 1.24741 11.4745C1.22637 11.4471 1.22337 11.4106 1.2384 11.3802C1.48185 10.8726 1.8876 10.4501 2.37751 10.1857C2.4226 10.1614 2.4767 10.1796 2.50074 10.2222C2.52479 10.2678 2.50675 10.3225 2.46467 10.3438C2.02285 10.5808 1.65617 10.9577 1.42775 11.4076C3.16798 13.7389 4.46038 16.365 5.7107 18.9061C6.37494 20.2586 7.06321 21.6538 7.8086 22.9851C11.244 20.8118 15.4157 19.9517 19.2689 20.6264C21.1564 20.9577 22.6742 21.6143 23.7773 22.5748C23.8163 22.6082 23.8193 22.6659 23.7863 22.7024C23.7532 22.7419 23.6961 22.745 23.66 22.7115C22.581 21.7693 21.0933 21.1279 19.2388 20.8027C15.3977 20.131 11.238 21.0003 7.82363 23.1857C7.80559 23.1979 7.79056 23.2039 7.77253 23.2039Z" fill="black"/>
<path d="M8.63225 17.9274C8.59918 17.9274 8.56913 17.9092 8.5541 17.8818C8.53006 17.8393 8.54508 17.7815 8.59017 17.7572C10.0689 16.9304 11.8813 16.5171 13.8259 16.5596C15.4339 16.5961 17.1651 16.9365 19.1187 17.5991C19.1668 17.6143 19.1909 17.666 19.1758 17.7146C19.1608 17.7633 19.1097 17.7876 19.0616 17.7724C17.123 17.1159 15.4098 16.7785 13.8199 16.742C11.9023 16.6964 10.126 17.1037 8.67132 17.9152C8.6593 17.9244 8.64427 17.9274 8.63225 17.9274Z" fill="black"/>
<path d="M17.123 15.3252C17.111 15.3252 17.102 15.3222 17.0899 15.3192C16.1221 14.9362 15.1033 14.7143 14.0633 14.6596C14.0152 14.6565 13.9762 14.614 13.9792 14.5623C13.9822 14.5137 14.0182 14.4742 14.0753 14.4772C15.1333 14.535 16.1702 14.7629 17.1561 15.1489C17.2012 15.1672 17.2252 15.2189 17.2072 15.2675C17.1921 15.304 17.1591 15.3252 17.123 15.3252Z" fill="black"/>
<path d="M7.76049 15.7937C7.73344 15.7937 7.70639 15.7815 7.68835 15.7572C7.6583 15.7177 7.66731 15.66 7.70939 15.6296C8.94769 14.7238 10.5677 14.5201 11.9923 14.3986C12.0374 14.3925 12.0855 14.432 12.0885 14.4806C12.0915 14.5293 12.0555 14.5749 12.0074 14.5779C10.6098 14.6964 9.01682 14.894 7.81759 15.7724C7.79956 15.7907 7.78153 15.7937 7.76049 15.7937Z" fill="black"/>
<path d="M6.44413 13.526C6.41107 13.526 6.38101 13.5078 6.36298 13.4774C6.33894 13.4318 6.35697 13.3771 6.40205 13.3558C9.58196 11.6719 13.904 11.8938 15.9418 13.1582C15.9838 13.1856 15.9989 13.2403 15.9718 13.2828C15.9448 13.3254 15.8907 13.3376 15.8486 13.3132C13.8499 12.0762 9.61201 11.8634 6.48621 13.5169C6.47419 13.5199 6.45916 13.526 6.44413 13.526Z" fill="black"/>
<path d="M14.9408 11.6234C14.9288 11.6234 14.9138 11.6204 14.9017 11.6143L14.7605 11.5474C14.0361 11.2039 13.408 10.9061 12.6265 10.6963C12.5784 10.6842 12.5514 10.6325 12.5634 10.5839C12.5754 10.5352 12.6265 10.5049 12.6746 10.52C13.4711 10.7359 14.1053 11.0337 14.8356 11.3833L14.9769 11.4501C15.022 11.4714 15.04 11.5261 15.019 11.5717C15.0069 11.6052 14.9769 11.6234 14.9408 11.6234Z" fill="black"/>
<path d="M5.24493 11.3772C5.21187 11.3772 5.1788 11.359 5.16378 11.3255C5.14274 11.28 5.16077 11.2252 5.20585 11.204C7.07533 10.2678 9.25738 10.2952 11.184 10.3195C11.232 10.3195 11.2741 10.362 11.2741 10.4107C11.2741 10.4593 11.232 10.5018 11.184 10.5018C9.27842 10.4775 7.12041 10.4502 5.29001 11.3651C5.27198 11.3742 5.25695 11.3772 5.24493 11.3772Z" fill="black"/>
<path d="M15.3375 6.4074C15.2925 6.4074 15.2564 6.37397 15.2474 6.32837C15.0881 5.22199 15.2654 4.0609 15.7493 3.05482C15.7703 3.00922 15.8244 2.99099 15.8695 3.01226C15.9146 3.03354 15.9326 3.08825 15.9116 3.13384C15.4457 4.10649 15.2744 5.23111 15.4277 6.30102C15.4337 6.34965 15.4007 6.39828 15.3526 6.40436C15.3466 6.4074 15.3435 6.4074 15.3375 6.4074Z" fill="black"/>
<path d="M14.1234 6.04583C14.0843 6.04583 14.0482 6.02152 14.0362 5.982C13.8408 5.30723 13.6124 4.62942 13.363 3.96985C13.3449 3.92425 13.369 3.86954 13.4141 3.85131C13.4621 3.83307 13.5132 3.85738 13.5313 3.90298C13.7837 4.56559 14.0122 5.24644 14.2105 5.92729C14.2256 5.97592 14.1985 6.02456 14.1504 6.03976C14.1384 6.04279 14.1324 6.04583 14.1234 6.04583Z" fill="black"/>
<path d="M12.341 6.47729C12.32 6.47729 12.3019 6.47121 12.2839 6.45602C11.5355 5.84507 10.5918 5.49857 9.63298 5.47729C9.58188 5.47729 9.54281 5.43474 9.54582 5.38307C9.54582 5.3314 9.58489 5.29492 9.63899 5.29492C10.6398 5.3162 11.6197 5.6779 12.4011 6.31316C12.4402 6.34355 12.4462 6.40131 12.4161 6.44082C12.3951 6.46817 12.3681 6.47729 12.341 6.47729Z" fill="black"/>
</g>
<defs>
<clipPath id="clip0_284_4523">
<rect width="42" height="26" fill="white"/>
</clipPath>
</defs>
</svg>
