<svg width="17" height="19" viewBox="0 0 17 19" fill="none" xmlns="http://www.w3.org/2000/svg">
<path d="M8.17064 10.0904C7.84096 10.0916 7.52083 10.2012 7.25946 10.4021C6.99809 10.603 6.80995 10.8842 6.72396 11.2025C6.63797 11.5208 6.65889 11.8585 6.78351 12.1637C6.90813 12.4689 7.12954 12.7248 7.41371 12.8919V15.038H8.94602V12.8919C9.17085 12.7589 9.35744 12.57 9.48765 12.3435C9.61786 12.1171 9.68726 11.8608 9.6891 11.5996V11.5996C9.6891 11.4006 9.64976 11.2036 9.57334 11.0199C9.49691 10.8362 9.38492 10.6694 9.2438 10.5291C9.10267 10.3889 8.9352 10.2779 8.75103 10.2026C8.56685 10.1273 8.36961 10.0891 8.17064 10.0904V10.0904Z" stroke="#727272" stroke-linecap="round" stroke-linejoin="round"/>
<path d="M13.8431 6.62451H2.49384C1.39267 6.62451 0.5 7.51719 0.5 8.61836V16.506C0.5 17.6072 1.39267 18.4999 2.49384 18.4999H13.8431C14.9442 18.4999 15.8369 17.6072 15.8369 16.506V8.61836C15.8369 7.51719 14.9442 6.62451 13.8431 6.62451Z" stroke="#727272" stroke-linecap="round" stroke-linejoin="round"/>
<path d="M3.25562 6.62461V5.42C3.25562 4.11513 3.77397 2.86371 4.69665 1.94103C5.61933 1.01836 6.87075 0.5 8.17561 0.5C9.48048 0.5 10.7319 1.01836 11.6546 1.94103C12.5773 2.86371 13.0956 4.11513 13.0956 5.42V6.62461" stroke="#727272" stroke-linecap="round" stroke-linejoin="round"/>
</svg>
