<svg width="33" height="21" viewBox="0 0 33 21" fill="none" xmlns="http://www.w3.org/2000/svg">
<g clip-path="url(#clip0_346_729)">
<path fill-rule="evenodd" clip-rule="evenodd" d="M0.585 0C0.25 0 0 0.25 0 0.58V20.415C0 20.665 0.25 21 0.585 21H32.335C32.67 21 33 20.665 33 20.415V0.58C33 0.245 32.665 0 32.335 0H0.585Z" fill="white"/>
<path fill-rule="evenodd" clip-rule="evenodd" d="M32.0851 6.41482C32.1701 6.41482 32.1701 6.49982 32.1701 6.57982V17.5798C32.1701 17.6648 32.1701 17.7498 32.0851 17.7498H31.9201C31.8634 17.7498 31.8084 17.7215 31.7551 17.6648L23.2551 10.5798C23.2551 10.4948 23.1701 10.4948 23.2551 10.4148C23.2551 10.3582 23.2834 10.3298 23.3401 10.3298L31.8401 6.41482C31.8401 6.32982 31.9251 6.32982 32.0901 6.41482H32.0851Z" fill="#E9D51C"/>
<path fill-rule="evenodd" clip-rule="evenodd" d="M31.17 0.5H1.75C1.5 0.5 1.25 0.585 1.085 0.665C0.92 0.915 0.75 1.08 0.75 1.25V3.915C0.75 4 0.835 4.08 1 4.08L16.42 10.995H16.67L31.59 4.08C31.755 3.995 31.84 3.995 31.925 3.995C32.175 3.995 32.175 3.91 32.175 3.83V1.25C32.175 1.085 32.09 0.915 31.925 0.665C31.675 0.58 31.51 0.5 31.175 0.5H31.17Z" fill="#A1A1A1"/>
<path fill-rule="evenodd" clip-rule="evenodd" d="M1.165 17.25C1.165 17.25 1.08 17.335 1 17.335H0.915C0.83 17.25 0.75 17.17 0.75 17.17V6.665C0.75 6.665 0.835 6.58 0.915 6.5H1.165L10.085 10.5C10.17 10.5 10.17 10.585 10.17 10.665C10.17 10.745 10.17 10.75 10.085 10.83L1.165 17.25Z" fill="#E9D51C"/>
<path fill-rule="evenodd" clip-rule="evenodd" d="M31.08 20.1652L20.83 11.5852C20.83 11.5002 20.745 11.5002 20.58 11.5852L17.165 13.0852C16.75 13.2502 16.335 13.2502 15.835 13.0852L12.92 11.7552H12.585L1.25004 20.0002C1.19337 20.0569 1.16504 20.1119 1.16504 20.1652C1.16504 20.2186 1.19337 20.2736 1.25004 20.3302C1.50004 20.4152 1.66504 20.4952 1.75004 20.4952H30.835C31.005 20.4952 31.085 20.4102 31.085 20.3302C31.17 20.2452 31.085 20.1652 31.085 20.1652H31.08Z" fill="#E9D51C"/>
</g>
<defs>
<clipPath id="clip0_346_729">
<rect width="33" height="21" fill="white"/>
</clipPath>
</defs>
</svg>
