<svg width="24" height="36" viewBox="0 0 24 36" fill="none" xmlns="http://www.w3.org/2000/svg">
<g clip-path="url(#clip0_402_874)">
<path d="M16.4206 27.9277H9.90747V28.8221H16.4206V27.9277Z" fill="#E9D61E"/>
<path d="M10.2096 28.5631C10.2096 29.6096 8.70344 30.4593 6.84635 30.4593C4.98926 30.4593 3.48315 29.6096 3.48315 28.5631C3.48315 27.5167 4.98926 26.667 6.84635 26.667C8.70344 26.667 10.2096 27.5167 10.2096 28.5631Z" fill="#E9D61E"/>
<path d="M10.2096 27.9279C10.2096 28.9743 8.70344 29.824 6.84635 29.824C4.98926 29.824 3.48315 28.9743 3.48315 27.9279C3.48315 26.8814 4.98926 26.0317 6.84635 26.0317C8.70344 26.0317 10.2096 26.8814 10.2096 27.9279Z" fill="#E9D61E"/>
<path d="M2.63934 22.48L2.41309 23.9019L15.2491 25.9714L15.4754 24.5495L2.63934 22.48Z" fill="#A1A0A0"/>
<path d="M18.0112 26.6894C17.4203 26.1304 16.8294 25.5714 16.2385 25.0123C19.7617 21.2379 19.7617 15.3572 16.2385 11.5828C16.8294 11.0238 17.4203 10.4648 18.0112 9.90576C22.414 14.6238 22.414 21.9714 18.0112 26.6894Z" fill="#A1A0A0"/>
<path d="M11.275 5.58668L7.875 16.2207L12.5102 17.7223L15.9102 7.08826L11.275 5.58668Z" fill="#A1A0A0"/>
<path d="M8.98895 17.4505L8.16504 20.0259L10.1273 20.6619L10.9512 18.0866L8.98895 17.4505Z" fill="#A1A0A0"/>
<path d="M13.7798 -0.000871902L8.27417 17.2188L11.6025 18.297L17.1082 1.07736L13.7798 -0.000871902Z" fill="#EAD50A"/>
<path d="M18.0511 9.51635L17.4558 9.32405L15.4076 8.65771L14.288 12.1638L13.1685 15.6699H13.1907C14.3103 16.0411 15.5143 15.4195 15.8741 14.2925L16.3406 12.8301L16.936 13.0224C17.8867 13.331 18.9086 12.8033 19.2151 11.8463L19.2284 11.8105C19.535 10.8535 19.0107 9.82492 18.06 9.51635H18.0511Z" fill="#A1A0A0"/>
<path d="M18.5132 11.2113C18.5132 11.7658 18.0645 12.2175 17.5135 12.2175C16.9626 12.2175 16.5139 11.7658 16.5139 11.2113C16.5139 10.6568 16.9626 10.2051 17.5135 10.2051C18.0645 10.2051 18.5132 10.6568 18.5132 11.2113Z" fill="#EDEDEE"/>
<path d="M20.548 33.3617H11.929L11.9467 27.0427C11.9467 25.2315 13.404 23.7646 15.2033 23.7646H15.8031C16.9893 23.7646 18.0556 24.4891 18.4999 25.5937L20.548 33.3617Z" fill="#A1A0A0"/>
<path d="M16.5984 26.0365C16.5984 26.6536 16.1008 27.1545 15.4877 27.1545C14.8745 27.1545 14.377 26.6536 14.377 26.0365C14.377 25.4193 14.8745 24.9185 15.4877 24.9185C16.1008 24.9185 16.5984 25.4193 16.5984 26.0365Z" fill="#EDEDEE"/>
<path d="M0 35.9998H24V34.5241C24 33.8801 23.4846 33.3613 22.8449 33.3613H1.15513C0.515365 33.3613 0 33.8801 0 34.5241V35.9998Z" fill="#A1A0A0"/>
<path d="M9.67648 27.9279C9.67648 28.7284 8.41029 29.3769 6.84642 29.3769C5.28256 29.3769 4.01636 28.7284 4.01636 27.9279C4.01636 27.1275 5.28256 26.479 6.84642 26.479C8.41029 26.479 9.67648 27.1275 9.67648 27.9279Z" fill="#EDEDEE"/>
</g>
<defs>
<clipPath id="clip0_402_874">
<rect width="24" height="36" fill="white"/>
</clipPath>
</defs>
</svg>
