<svg width="52" height="32" viewBox="0 0 52 32" fill="none" xmlns="http://www.w3.org/2000/svg">
<path d="M0.536381 15.5473C3.48731 20.7959 6.43824 26.0445 9.2366 31.4689C12.8201 29.2617 16.8577 27.8065 21.0217 27.2191C23.3921 26.8862 25.9375 26.8637 28.0251 28.0421C28.8475 28.506 29.6178 29.1607 30.5592 29.2318C31.9175 29.3365 33.019 28.1993 33.9939 27.0882C39.5311 25.1653 45.4813 24.8885 51.2567 24.5892C49.5821 22.6552 47.1112 21.5329 45.5074 19.6063C46.6238 19.5988 47.7401 19.7148 48.8081 19.8419C47.7178 18.0351 46.3 16.4302 44.6627 15.1844C45.0646 15.0049 45.4999 14.8926 45.9093 14.829C43.9259 13.0409 42.0578 11.1217 40.3386 9.03054C38.3254 6.74855 36.4462 4.34685 34.6042 1.77681C33.8934 1.64961 33.138 1.80674 32.524 2.20702C31.9807 1.57854 31.5193 0.882716 31.0988 0.134523C28.6391 1.14832 26.4175 2.7345 24.6276 4.75836C23.5038 6.23604 22.5251 7.82969 21.7399 9.53558C21.0962 10.8786 20.6831 12.3301 20.4338 13.7816C17.6019 11.84 14.2826 10.6317 10.8665 10.28C8.05326 10.2314 5.11349 10.3511 2.62771 11.7502C2.76912 12.0532 2.89192 12.3675 3.04077 12.6294C2.70958 12.6967 2.4156 12.9024 2.1886 13.1568C1.96161 13.4112 1.79788 13.7142 1.64531 14.0173C1.77927 14.3502 1.96533 14.657 2.19605 14.9301C1.65275 15.1171 1.12806 15.3416 0.536381 15.5473Z" fill="white"/>
<path d="M31.5046 27.7091C33.3094 25.9359 34.7123 23.6165 36.8817 22.4194C39.6168 20.9305 42.5938 19.7109 45.7717 19.6174C47.2342 21.5814 49.4744 22.7972 51.2122 24.5218C45.8871 24.6677 40.5806 25.3859 35.4081 26.6654C34.5113 26.8861 33.5661 27.1554 32.941 27.84C32.9707 27.7166 33.0935 27.6193 33.2201 27.6193C32.3902 28.4797 31.2032 28.9773 30.0124 28.9661C29.7593 28.9623 29.5026 28.9361 29.2756 28.8276C29.056 28.7191 28.8811 28.5358 28.6913 28.3787C28.1629 27.9298 27.5005 27.6455 26.9014 27.3724C23.8612 26.7551 20.687 27.0207 17.6951 27.8438C14.7032 28.6668 11.8863 30.036 9.0507 31.4089C9.05442 30.6383 8.65625 29.9312 8.27296 29.2691C5.66811 24.7649 3.06325 20.2608 0.60352 15.8091C0.960758 15.2404 1.60825 14.8663 2.27063 14.7728C3.60283 16.7256 4.67082 18.8393 5.73881 20.9492C7.00031 23.4444 8.2618 25.9396 9.49353 28.4012C12.4817 26.7514 15.7415 25.4608 19.1427 25.255C19.939 25.2064 20.7353 25.2176 21.5317 25.2662C24.2407 25.4271 27.0242 26.0406 29.1862 27.6941C29.2942 27.7764 29.4058 27.8662 29.536 27.9111C29.6737 27.9597 29.8226 27.956 29.9677 27.9448C30.5966 27.8999 31.2925 27.9186 31.5046 27.7091Z" fill="white"/>
<path d="M9.27374 32C9.23653 32 9.20304 31.9962 9.16582 31.9887C9.04302 31.9588 8.94255 31.8765 8.88301 31.768L3.71051 22.1949C2.59786 20.1373 1.448 18.0087 0.0823146 16.0784C-0.0590919 15.8764 -0.0144372 15.5958 0.186509 15.4537C0.387455 15.3115 0.666547 15.3601 0.807954 15.5584C2.19969 17.5336 3.36443 19.6847 4.49197 21.7684L9.43375 30.9113C12.9019 28.663 16.6455 27.2452 20.5714 26.6915C24.0842 26.1977 26.9012 26.6354 28.9479 28.0009C29.8149 28.5994 31.0131 28.6668 31.9323 28.1692C32.2486 28.0009 32.5351 27.7689 32.8403 27.5258C33.0263 27.3761 33.2161 27.2227 33.4208 27.0806C34.6599 26.2089 36.1708 25.8423 37.4918 25.5692C41.3805 24.7649 45.5445 24.3235 50.1849 24.2337C48.5252 23.0141 46.9214 21.7085 45.3957 20.3319C45.2133 20.1673 45.1984 19.883 45.3622 19.6996C45.5259 19.5163 45.8087 19.5014 45.9911 19.666C47.8256 21.3195 49.783 22.8795 51.8073 24.2973C51.9674 24.4095 52.0343 24.6115 51.9785 24.7986C51.9227 24.9856 51.7478 25.1128 51.5543 25.1128C46.419 25.139 41.8791 25.573 37.6704 26.4484C36.4387 26.7027 35.0321 27.0394 33.9306 27.8176C33.752 27.9447 33.5771 28.0832 33.3947 28.2291C33.071 28.4872 32.7398 28.7528 32.3528 28.9623C31.1471 29.6132 29.5767 29.5272 28.4492 28.7453C26.596 27.5108 23.9837 27.118 20.6942 27.5819C16.746 28.1393 12.9875 29.5983 9.51934 31.9289C9.44864 31.9738 9.36305 32 9.27374 32Z" fill="black"/>
<path d="M0.447054 16.1683C0.34286 16.1683 0.238665 16.1309 0.153077 16.0561C-0.0329841 15.8914 -0.0515902 15.6109 0.112144 15.4238C0.28332 15.2293 0.376351 15.1507 0.633115 15.0385C0.997795 14.8814 1.36992 14.7355 1.74576 14.6083C1.9802 14.5297 2.23324 14.6569 2.31139 14.8926C2.38953 15.1283 2.26301 15.3827 2.02857 15.4612C1.67878 15.5772 1.32898 15.7119 0.986632 15.8615C0.871274 15.9102 0.871273 15.9102 0.781964 16.0149C0.692655 16.1159 0.569854 16.1683 0.447054 16.1683Z" fill="black"/>
<path d="M30.6039 27.8325C30.5592 27.8325 30.5183 27.8063 30.4997 27.7614C29.8522 26.1752 29.8857 24.2187 30.6001 22.2509C31.4449 19.9241 33.071 17.7693 35.3075 16.0185C37.1123 14.6044 39.3264 13.4372 42.069 12.4421C40.9638 11.4395 33.6367 4.72824 31.0579 0.246558C25.7774 2.29287 21.5948 7.74346 20.6421 13.8412C20.6347 13.8786 20.6124 13.9123 20.5789 13.9273C20.5454 13.9422 20.5045 13.9385 20.4747 13.9198C17.6131 12.0755 14.6324 10.9308 11.6219 10.5118C8.45513 10.0741 5.31442 10.5529 2.76538 11.8585C3.15983 12.704 3.55056 13.5457 3.94501 14.3874C5.69399 18.1359 7.50622 22.0115 9.15845 25.8685C13.3485 23.6613 18.5359 23.1862 24.5718 24.4618C27.2622 25.0305 29.1154 26.0742 30.2429 27.6604C30.2801 27.709 30.2652 27.7801 30.2169 27.8175C30.1685 27.8549 30.0978 27.8399 30.0606 27.7913C28.9702 26.2538 27.158 25.24 24.5271 24.6826C18.4913 23.4069 13.3188 23.8932 9.15473 26.1228C9.12868 26.1378 9.09519 26.1415 9.06542 26.1303C9.03565 26.1191 9.01332 26.0966 8.99843 26.0705C7.33505 22.1836 5.50793 18.2705 3.74034 14.4847C3.33101 13.613 2.9254 12.7377 2.51606 11.8585C2.49001 11.8024 2.51234 11.7388 2.56444 11.7126C5.16929 10.3472 8.39559 9.84214 11.6517 10.2911C14.6473 10.7063 17.6056 11.8323 20.4524 13.6392C21.472 7.49655 25.7216 2.03474 31.069 0.00713584C31.1211 -0.011569 31.1769 0.00713584 31.2067 0.0557684C33.9158 4.85169 42.2736 12.3299 42.3592 12.4047C42.389 12.4309 42.4039 12.472 42.3964 12.5095C42.389 12.5469 42.3629 12.5805 42.3257 12.5918C39.5236 13.5906 37.276 14.769 35.4489 16.198C33.2459 17.9189 31.6458 20.04 30.816 22.3295C30.1238 24.2449 30.0866 26.1453 30.7118 27.6791C30.7341 27.7352 30.7081 27.8025 30.6522 27.825C30.6336 27.8287 30.6188 27.8325 30.6039 27.8325Z" fill="black"/>
<path d="M31.0467 27.8437H31.043C30.9834 27.84 30.9351 27.7876 30.9351 27.7278C30.9351 27.6866 31.1397 23.5716 34.5967 20.0962C36.3494 18.3342 38.6045 16.95 41.3024 15.9774C42.7909 15.4424 44.3352 15.0721 45.6897 14.7653C41.6224 10.9046 37.8975 6.56885 34.6116 1.88142C33.9195 1.79164 33.2087 1.93379 32.6059 2.28544C32.5501 2.31537 32.4831 2.29667 32.4533 2.24429C32.4235 2.19192 32.4421 2.12084 32.4942 2.09091C33.1566 1.70559 33.9381 1.55595 34.6935 1.66818C34.7233 1.67192 34.7493 1.69063 34.7679 1.71308C38.091 6.46411 41.8717 10.8523 45.9986 14.7504C46.0283 14.7803 46.0395 14.8214 46.0283 14.8626C46.0172 14.9037 45.9837 14.9337 45.9465 14.9411C44.551 15.2516 42.9323 15.6332 41.3805 16.1906C38.7124 17.1521 36.4834 18.5175 34.7567 20.2571C31.3667 23.6651 31.162 27.6978 31.162 27.739C31.1546 27.7951 31.1062 27.8437 31.0467 27.8437Z" fill="black"/>
<path d="M31.5825 27.8326C31.5602 27.8326 31.5341 27.8252 31.5155 27.8102C31.4671 27.7728 31.4597 27.7017 31.4969 27.6531C31.5825 27.5408 33.6403 24.9035 34.6786 23.972C37.8118 21.1625 43.4941 18.6935 48.6778 19.797C47.5838 18.0238 46.2441 16.5424 44.5956 15.2742C44.5473 15.2368 44.5361 15.1657 44.5733 15.1171C44.6105 15.0685 44.6812 15.0572 44.7296 15.0946C46.4711 16.4339 47.8703 18.0051 49.0016 19.9018C49.0239 19.9392 49.0239 19.9878 48.9941 20.0252C48.9681 20.0627 48.9234 20.0776 48.8788 20.0664C43.7063 18.8394 37.9681 21.3159 34.8237 24.1328C33.8004 25.0494 31.6904 27.7578 31.6681 27.7878C31.6458 27.8177 31.616 27.8326 31.5825 27.8326Z" fill="black"/>
<path d="M30.4253 27.84C30.3881 27.84 30.3509 27.8213 30.3286 27.7839C29.2308 25.8535 27.8912 24.0317 26.5962 22.2734L20.3929 13.8226C20.3557 13.7739 20.3669 13.7028 20.4152 13.6654C20.4636 13.628 20.5343 13.6393 20.5715 13.6879L26.7785 22.135C28.0772 23.9007 29.4169 25.7263 30.5221 27.6679C30.5519 27.7203 30.5333 27.7913 30.4812 27.8213C30.4663 27.8325 30.4477 27.84 30.4253 27.84Z" fill="black"/>
<path d="M28.535 20.2608C28.5239 20.2608 28.5127 20.2608 28.4978 20.2534C28.4383 20.2347 28.4085 20.1711 28.4271 20.1112C29.7407 16.2243 32.7995 13.0333 36.6138 11.5706C36.6696 11.5481 36.7366 11.5781 36.7589 11.6342C36.7813 11.6903 36.7515 11.7576 36.6957 11.7801C32.9447 13.2166 29.9305 16.359 28.6392 20.1823C28.6243 20.2309 28.5797 20.2608 28.535 20.2608Z" fill="black"/>
<path d="M26.9647 17.9751C26.9498 17.9751 26.9349 17.9713 26.92 17.9676C26.8642 17.9414 26.8381 17.8778 26.8605 17.8217C26.9535 17.6085 27.0428 17.3952 27.1284 17.1857C28.0885 14.9075 28.922 12.936 30.9799 11.4508C31.0282 11.4134 31.0989 11.4246 31.1362 11.477C31.1734 11.5256 31.1622 11.5967 31.1101 11.6341C29.1007 13.0819 28.282 15.0272 27.3331 17.2755C27.2438 17.485 27.1545 17.6982 27.0651 17.9115C27.0465 17.9489 27.0056 17.9751 26.9647 17.9751Z" fill="black"/>
<path d="M32.7027 10.3362C32.6692 10.3362 32.6357 10.3212 32.6134 10.2913C32.5762 10.2426 32.5836 10.1716 32.632 10.1341C33.2348 9.66652 33.8451 9.37847 34.3363 9.14653L34.3698 9.13156C34.4256 9.10538 34.4926 9.12782 34.5186 9.18394C34.5447 9.24005 34.5224 9.30739 34.4666 9.33358L34.4331 9.34854C33.9493 9.57674 33.3502 9.86105 32.7697 10.3137C32.7473 10.3287 32.725 10.3362 32.7027 10.3362Z" fill="black"/>
<path d="M24.9068 15.9287C24.8956 15.9287 24.8807 15.9249 24.8696 15.9212C24.8138 15.8988 24.784 15.8352 24.8026 15.779C26.4213 11.3946 28.8104 8.7348 32.5539 7.16359C32.6097 7.14114 32.6767 7.16733 32.699 7.22344C32.7214 7.27956 32.6953 7.3469 32.6395 7.36934C28.9592 8.9181 26.6074 11.533 25.011 15.8576C24.9924 15.9025 24.9515 15.9287 24.9068 15.9287Z" fill="black"/>
<path d="M23.0983 14.3051C23.0871 14.3051 23.076 14.3051 23.0685 14.3014C23.009 14.2827 22.9755 14.2228 22.9941 14.163C23.0685 13.9049 23.1392 13.6467 23.2062 13.3961C23.5597 12.0868 23.8946 10.8522 24.8249 9.7898C24.8659 9.7449 24.9366 9.73742 24.9812 9.77857C25.0259 9.81972 25.0333 9.8908 24.9924 9.93569C24.0956 10.9607 23.7681 12.1691 23.422 13.4522C23.355 13.7066 23.2843 13.9647 23.2099 14.2228C23.1913 14.2715 23.1467 14.3051 23.0983 14.3051Z" fill="black"/>
<path d="M26.0008 8.68628C25.9747 8.68628 25.9524 8.6788 25.9301 8.66009C25.8817 8.62268 25.8743 8.5516 25.9152 8.50297C26.4324 7.86326 27.0799 7.0627 27.8688 6.60256C27.9209 6.57263 27.9916 6.58759 28.0214 6.64371C28.0512 6.69608 28.0326 6.76716 27.9805 6.79709C27.2251 7.23852 26.5962 8.02039 26.0864 8.64513C26.064 8.67131 26.0343 8.68628 26.0008 8.68628Z" fill="black"/>
<path d="M28.9295 6.11994C28.8997 6.11994 28.8699 6.10872 28.8476 6.08627C28.8067 6.04138 28.8067 5.9703 28.8513 5.92915C29.2272 5.57002 29.964 5.05002 30.4626 4.85175C30.5184 4.82931 30.5854 4.85549 30.6077 4.91535C30.6301 4.97146 30.604 5.0388 30.5445 5.06125C30.0756 5.24829 29.3574 5.75707 29.0039 6.09375C28.9853 6.11246 28.9592 6.11994 28.9295 6.11994Z" fill="black"/>
<path d="M29.9379 28.0345C29.2606 28.0345 28.628 27.9372 28.04 27.7427C27.9805 27.724 27.9507 27.6604 27.9693 27.6005C27.988 27.5406 28.0512 27.5107 28.1107 27.5294C29.1118 27.8624 30.2579 27.8998 31.5194 27.6417C32.7027 27.3985 33.8377 26.9309 34.809 26.5081C34.8648 26.482 34.9318 26.5081 34.9541 26.568C34.9801 26.6241 34.9541 26.6914 34.8945 26.7139C33.9121 27.1404 32.7623 27.6155 31.5603 27.8624C30.9984 27.9783 30.4551 28.0345 29.9379 28.0345Z" fill="black"/>
<path d="M9.62356 28.5583C9.61611 28.5583 9.60495 28.5583 9.59751 28.5545C9.56774 28.5471 9.54169 28.5284 9.5268 28.5022C8.57789 26.8262 7.70713 25.068 6.86613 23.3696C5.31438 20.2309 3.70681 16.9875 1.54478 14.1219C1.51873 14.0882 1.51501 14.0433 1.53361 14.0059C1.83503 13.3812 2.3374 12.8612 2.94396 12.5357C2.99978 12.5058 3.06676 12.5282 3.09653 12.5806C3.1263 12.6367 3.10397 12.7041 3.05187 12.7302C2.50485 13.022 2.05086 13.4859 1.76805 14.0396C3.92264 16.9089 5.52277 20.1411 7.0708 23.2686C7.89319 24.9333 8.74535 26.6504 9.66821 28.2889C13.9216 25.6141 19.0866 24.5554 23.8572 25.3859C26.1942 25.7937 28.0734 26.6018 29.4391 27.7839C29.4875 27.8251 29.4912 27.8961 29.4502 27.941C29.4093 27.9897 29.3386 27.9934 29.2939 27.9522C27.958 26.7925 26.116 26.0032 23.82 25.6029C19.0643 24.7762 13.9141 25.8461 9.68682 28.5358C9.66449 28.5508 9.64588 28.5583 9.62356 28.5583Z" fill="black"/>
<path d="M10.6878 22.064C10.6469 22.064 10.6097 22.0415 10.5911 22.0079C10.5613 21.9555 10.5799 21.8844 10.6357 21.8545C12.4666 20.8369 14.7105 20.3282 17.1181 20.3805C19.109 20.4254 21.2524 20.8444 23.6712 21.6599C23.7307 21.6787 23.7605 21.7422 23.7419 21.8021C23.7233 21.862 23.66 21.8919 23.6005 21.8732C21.2003 21.0651 19.0792 20.6499 17.1107 20.605C14.7365 20.5489 12.5373 21.0502 10.7362 22.049C10.7213 22.0602 10.7027 22.064 10.6878 22.064Z" fill="black"/>
<path d="M21.2004 18.8617C21.1855 18.8617 21.1743 18.858 21.1594 18.8542C19.9612 18.3829 18.6997 18.1098 17.4121 18.0424C17.3526 18.0387 17.3042 17.9863 17.308 17.9227C17.3117 17.8629 17.3563 17.8142 17.427 17.818C18.7369 17.889 20.0207 18.1696 21.2413 18.6447C21.2971 18.6672 21.3269 18.7308 21.3045 18.7906C21.2859 18.8355 21.245 18.8617 21.2004 18.8617Z" fill="black"/>
<path d="M9.60885 19.4377C9.57536 19.4377 9.54187 19.4228 9.51954 19.3928C9.48233 19.3442 9.49349 19.2731 9.54559 19.2357C11.0787 18.1209 13.0845 17.8703 14.8483 17.7206C14.9042 17.7131 14.9637 17.7618 14.9674 17.8216C14.9711 17.8815 14.9265 17.9376 14.8669 17.9413C13.1366 18.0872 11.1643 18.3304 9.67956 19.4115C9.65723 19.434 9.6349 19.4377 9.60885 19.4377Z" fill="black"/>
<path d="M7.97875 16.6471C7.93782 16.6471 7.90061 16.6246 7.87828 16.5872C7.84851 16.5311 7.87084 16.4638 7.92666 16.4376C11.8637 14.3651 17.2148 14.6382 19.7378 16.1944C19.7899 16.2281 19.8085 16.2954 19.775 16.3478C19.7415 16.4002 19.6746 16.4151 19.6225 16.3852C17.1478 14.8626 11.9009 14.6008 8.03085 16.6358C8.01597 16.6396 7.99736 16.6471 7.97875 16.6471Z" fill="black"/>
<path d="M18.4989 14.3053C18.484 14.3053 18.4654 14.3016 18.4505 14.2941L18.2756 14.2118C17.3788 13.789 16.6011 13.4224 15.6335 13.1643C15.574 13.1493 15.5405 13.0857 15.5554 13.0259C15.5703 12.966 15.6335 12.9286 15.6931 12.9473C16.6792 13.2129 17.4644 13.5796 18.3686 14.0098L18.5435 14.0921C18.5994 14.1182 18.6217 14.1856 18.5956 14.2417C18.5808 14.2829 18.5435 14.3053 18.4989 14.3053Z" fill="black"/>
<path d="M6.49416 14.0022C6.45323 14.0022 6.4123 13.9797 6.39369 13.9386C6.36764 13.8825 6.38997 13.8151 6.44579 13.7889C8.76039 12.6367 11.462 12.6704 13.8473 12.7003C13.9068 12.7003 13.9589 12.7527 13.9589 12.8125C13.9589 12.8724 13.9068 12.9248 13.8473 12.9248C11.488 12.8948 8.81621 12.8612 6.54998 13.9872C6.52766 13.9984 6.50905 14.0022 6.49416 14.0022Z" fill="black"/>
<path d="M18.9899 7.88562C18.9341 7.88562 18.8894 7.84447 18.8783 7.78836C18.681 6.42664 18.9006 4.99759 19.4997 3.75933C19.5258 3.70322 19.5927 3.68077 19.6486 3.70696C19.7044 3.73315 19.7267 3.80048 19.7006 3.8566C19.1239 5.05371 18.9118 6.43787 19.1015 7.75469C19.109 7.81454 19.068 7.8744 19.0085 7.88188C19.0011 7.88562 18.9973 7.88562 18.9899 7.88562Z" fill="black"/>
<path d="M17.4867 7.44044C17.4383 7.44044 17.3936 7.41052 17.3787 7.36188C17.1369 6.53139 16.854 5.69715 16.5452 4.88536C16.5229 4.82925 16.5526 4.76191 16.6084 4.73947C16.668 4.71702 16.7312 4.74695 16.7536 4.80306C17.0662 5.61859 17.349 6.45657 17.5946 7.29455C17.6132 7.3544 17.5797 7.41426 17.5201 7.43296C17.5053 7.4367 17.4978 7.44044 17.4867 7.44044Z" fill="black"/>
<path d="M15.2799 7.97164C15.2538 7.97164 15.2315 7.96416 15.2092 7.94546C14.2826 7.19352 13.1141 6.76705 11.9271 6.74087C11.8638 6.74087 11.8154 6.68849 11.8191 6.62489C11.8191 6.5613 11.8675 6.51641 11.9345 6.51641C13.1737 6.54259 14.3868 6.98777 15.3543 7.76963C15.4027 7.80704 15.4101 7.87812 15.3729 7.92675C15.3469 7.96042 15.3134 7.97164 15.2799 7.97164Z" fill="black"/>
</svg>
