<svg width="19" height="13" viewBox="0 0 19 13" fill="none" xmlns="http://www.w3.org/2000/svg">
<path d="M12.4091 6.49996C12.4091 7.28355 12.0978 8.03505 11.5437 8.58914C10.9896 9.14322 10.2381 9.4545 9.45455 9.4545C8.67095 9.4545 7.91945 9.14322 7.36537 8.58914C6.81128 8.03505 6.5 7.28355 6.5 6.49996C6.5 5.71636 6.81128 4.96486 7.36537 4.41078C7.91945 3.85669 8.67095 3.54541 9.45455 3.54541C10.2381 3.54541 10.9896 3.85669 11.5437 4.41078C12.0978 4.96486 12.4091 5.71636 12.4091 6.49996Z" fill="#252525"/>
<path d="M0 6.5C0 6.5 3.54545 0 9.45455 0C15.3636 0 18.9091 6.5 18.9091 6.5C18.9091 6.5 15.3636 13 9.45455 13C3.54545 13 0 6.5 0 6.5ZM9.45455 10.6364C10.5516 10.6364 11.6037 10.2006 12.3794 9.42485C13.1551 8.64913 13.5909 7.59703 13.5909 6.5C13.5909 5.40297 13.1551 4.35087 12.3794 3.57515C11.6037 2.79943 10.5516 2.36364 9.45455 2.36364C8.35751 2.36364 7.30541 2.79943 6.5297 3.57515C5.75398 4.35087 5.31818 5.40297 5.31818 6.5C5.31818 7.59703 5.75398 8.64913 6.5297 9.42485C7.30541 10.2006 8.35751 10.6364 9.45455 10.6364Z" fill="#252525"/>
</svg>
