<svg width="31" height="32" viewBox="0 0 31 32" fill="none" xmlns="http://www.w3.org/2000/svg">
<path d="M18.0783 14.5674C17.9948 14.5492 17.9047 14.5575 17.8278 14.5938C17.7835 14.5823 17.7344 14.5938 17.7033 14.65C17.2088 15.5534 16.8927 16.5725 16.5407 17.542C16.4162 17.5882 16.3376 17.7418 16.4555 17.864C16.6651 18.0787 16.9664 18.1035 17.2317 17.9681C17.5314 17.8145 17.7033 17.5007 17.8458 17.2083C18.0095 16.8714 18.1503 16.5213 18.2584 16.1612C18.3534 15.8425 18.4664 15.4791 18.468 15.1422C18.468 14.8829 18.3501 14.6252 18.0783 14.5674Z" fill="#DDBCA6"/>
<path d="M9.30455 9.86868C9.30947 9.82079 9.30783 9.76959 9.30455 9.71839C9.30455 9.71343 9.30455 9.70683 9.30455 9.70022C9.28654 9.50037 9.21285 9.28732 9.1015 9.09738C9.02454 8.94048 8.92629 8.79348 8.80183 8.66631C8.59551 8.4549 8.23525 8.24515 7.96015 8.46646C7.65393 8.71255 7.84061 9.14363 8.02892 9.39963C8.10425 9.50368 8.19267 9.59617 8.28929 9.67875C8.43667 9.85712 8.60861 10.019 8.81821 10.1197C9.04419 10.2287 9.28163 10.1395 9.30619 9.86703L9.30455 9.86868Z" fill="#DDBCA6"/>
<path d="M8.80172 8.66794C8.78534 8.65143 8.76733 8.63326 8.74931 8.61674C8.74276 8.61344 8.73621 8.61014 8.72803 8.60683C8.71329 8.60023 8.70019 8.59362 8.68545 8.58702C8.65761 8.58041 8.62978 8.57545 8.60194 8.56885C8.67399 8.58702 8.62486 8.58041 8.58884 8.57545C8.58556 8.58206 8.58065 8.58867 8.57901 8.59197C8.57574 8.59858 8.56919 8.61344 8.56264 8.62665C8.55772 8.64317 8.55117 8.66299 8.54954 8.6696C8.54299 8.69767 8.53971 8.72575 8.53316 8.75548C8.53152 8.76374 8.52989 8.77034 8.52825 8.77695C8.52825 8.78025 8.52825 8.78356 8.52825 8.78851C8.52825 8.82154 8.52661 8.85292 8.52661 8.88596C8.52661 8.95532 8.53316 9.02304 8.54135 9.09241C8.54299 9.11058 8.54626 9.12874 8.54954 9.14691C8.55772 9.18325 8.56427 9.21958 8.57246 9.25427C8.58884 9.32363 8.60849 9.393 8.63141 9.46072C8.64615 9.50531 8.66253 9.54991 8.68054 9.59285C8.68545 9.60771 8.692 9.62092 8.69855 9.63579C8.69855 9.63579 8.69855 9.63744 8.70019 9.63909C8.73458 9.70846 8.7706 9.77618 8.81154 9.84059C8.83447 9.87693 8.85739 9.91161 8.88195 9.94464C8.89178 9.95785 8.9016 9.97107 8.91143 9.98428C8.95564 10.0338 8.99986 10.0817 9.05062 10.1247C9.06208 10.1346 9.07191 10.1428 9.08337 10.1527C9.20127 10.123 9.29134 10.0256 9.30444 9.86536C9.30935 9.81747 9.30771 9.76627 9.30444 9.71507C9.30444 9.71011 9.30444 9.70351 9.30444 9.6969C9.28642 9.49705 9.21273 9.284 9.10138 9.09406C9.02442 8.93716 8.92617 8.79016 8.80172 8.66299V8.66794Z" fill="#D6A787"/>
<path d="M16.5325 8.17716C16.1395 8.08301 15.8268 8.58015 15.722 8.95837C15.6483 9.14665 15.6286 9.3498 15.7056 9.53478C15.7056 9.53809 15.7056 9.54139 15.7056 9.54469C15.699 9.62892 15.7547 9.68838 15.8235 9.7082C15.925 9.79904 16.0675 9.83207 16.2018 9.77922C16.4261 9.69003 16.5506 9.41421 16.6472 9.21107C16.7798 8.93029 17.0025 8.28947 16.5325 8.17716Z" fill="#DDBCA6"/>
<path d="M13.4981 12.5637C13.2836 12.2962 12.6499 12.2978 12.3354 12.1971C12.0145 12.0947 11.6362 12.022 11.312 12.1475C10.9026 12.3077 10.7339 13.4969 10.7208 13.6819C10.6488 14.004 10.7863 14.2352 11.0647 14.4235C11.3726 14.6316 11.7574 14.7835 12.1111 14.8876C12.3829 14.9668 12.6515 14.8777 12.9528 14.7422C14.009 14.2666 13.7126 12.8313 13.4965 12.5621L13.4981 12.5637Z" fill="#DDBCA6"/>
<path d="M25.8434 18.2041C25.6371 18.0819 25.3914 18.1727 25.1835 18.2504C25.2097 18.1579 25.19 18.0588 25.1032 17.996C25.0066 17.9266 24.851 17.9432 24.7839 18.0489C24.7004 18.181 24.6365 18.3247 24.5612 18.4618C24.5465 18.4882 24.5317 18.5146 24.5153 18.5427C24.4024 18.5642 24.291 18.5955 24.1813 18.617C23.952 18.6633 23.7211 18.7013 23.4886 18.7293C22.6551 18.8317 21.784 18.8119 20.9832 18.5394C20.5624 18.3957 20.1775 18.1826 19.8255 17.9085C19.4669 17.6294 19.1426 17.3089 18.7856 17.0282C18.4532 16.7656 18.0635 16.4897 17.6345 16.427C17.1645 16.3576 16.8042 16.6615 16.4849 16.9671C16.164 17.2743 15.8577 17.6508 15.807 18.1116C15.771 18.4403 15.8659 18.7789 16.0936 19.0051C16.4276 19.5783 16.8845 20.1183 17.3528 20.5791C17.8277 21.0449 18.3812 21.4413 19.0116 21.6609C20.4199 22.1498 21.9281 21.6609 23.1185 20.8583C23.4264 20.6518 24.2337 19.9631 24.7086 19.537C24.8871 19.4626 25.0672 19.3883 25.2457 19.3157C25.3194 19.2925 25.3881 19.2645 25.4553 19.2298C25.5372 19.1967 25.619 19.1621 25.7009 19.129C25.7975 19.0894 25.8368 19.0118 25.8336 18.9325C25.8434 18.9193 25.8548 18.9077 25.8647 18.8945C26.0235 18.6897 26.1136 18.366 25.8417 18.2058L25.8434 18.2041Z" fill="#D1A88C"/>
<path d="M17.3528 20.5773C17.5084 20.7309 17.6738 20.8762 17.8457 21.01C18.0651 20.5311 18.3026 20.0603 18.5482 19.6012C18.8823 18.9769 19.2458 18.3559 19.665 17.7778C19.3686 17.5317 19.0886 17.2658 18.7856 17.0263C18.4532 16.7637 17.0941 15.8752 16.6667 15.8124C16.1967 15.743 15.8577 17.649 15.807 18.1098C15.771 18.4385 15.8659 18.777 16.0936 19.0033C16.4276 19.5764 16.8845 20.1165 17.3528 20.5773Z" fill="#009687"/>
<path d="M5.15819 25.2105C5.15983 25.1742 4.29194 19.3621 6.52061 16.376C6.68764 16.0093 6.91362 15.6757 7.20674 15.3817C7.64396 14.9441 8.13849 14.5691 8.6625 14.2421C9.24709 13.8771 9.92994 13.456 10.6341 13.4246C10.6914 13.4213 10.7405 13.4378 10.7798 13.4659C10.8224 13.451 10.8633 13.4378 10.9059 13.4246C10.9288 13.418 10.9485 13.4163 10.9665 13.4196C10.973 13.4527 10.978 13.4824 10.9812 13.4939C10.9992 13.565 11.0254 13.6426 11.0549 13.7103C11.0828 13.7747 11.1188 13.8375 11.1581 13.8969C11.3873 14.3297 11.8671 14.6071 12.378 14.6435C12.717 14.6666 13.0724 14.5675 13.3213 14.328C13.5096 14.1463 13.6258 13.9035 13.6684 13.6475C13.6766 13.6442 13.6864 13.6409 13.6946 13.6393C13.7012 13.6475 13.7077 13.6558 13.7159 13.6641C13.8191 13.7714 13.914 13.8854 14.0008 14.0043C14.0107 14.0175 14.0221 14.0373 14.0336 14.0604C14.6739 14.4238 15.2847 14.8532 15.902 15.2546C16.1673 15.4263 16.4424 15.5898 16.6634 15.8178C16.7846 15.864 16.878 15.973 16.9467 16.1068C17.0728 16.3496 17.1694 16.6089 17.2497 16.8698C17.4216 17.4198 17.5231 17.9913 17.5952 18.5627C17.7442 19.7436 17.8916 20.9245 18.1143 22.0955C18.242 22.7694 19.5717 29.8201 19.5471 30.5056C19.4685 32.6576 5.61342 30.6757 5.42511 30.4246C5.41528 30.238 5.15492 26.507 5.15 26.3204C5.14018 25.9521 5.13363 25.5821 5.15328 25.2154L5.15819 25.2105Z" fill="#00A99D"/>
<path d="M8.38742 29.6249C8.72312 29.0716 9.22092 28.7017 9.77277 28.3862C10.4622 27.9931 11.1745 27.6446 11.8868 27.2945C12.7007 26.8931 13.5227 26.5067 14.2629 25.9732C14.6329 25.7056 15.5794 25.0301 15.2061 24.4636C14.9605 24.0903 14.3857 23.9467 13.9878 23.8459C13.5112 23.7237 13.0298 23.6494 12.5418 23.5949C11.6969 23.5007 10.8175 23.4247 10.115 22.8896C9.40105 22.3462 8.97202 21.3933 8.75423 20.5377C8.51843 19.6095 8.47912 18.6351 8.54626 17.6837C8.61668 16.6812 8.80991 15.6853 9.14887 14.7389C9.27496 14.3888 9.42234 14.0403 9.60083 13.71C9.27005 13.8652 8.95564 14.0601 8.66417 14.2418C8.14016 14.5688 7.64562 14.9421 7.20841 15.3814C6.91529 15.6754 6.68931 16.009 6.52228 16.3757C4.29525 19.3634 5.1615 25.1755 5.15986 25.2101C5.14185 25.5785 5.14676 25.9484 5.15659 26.3151C5.1615 26.5017 5.42186 30.2327 5.43169 30.4193C5.48245 30.4854 6.51409 30.5382 7.99769 30.5762C8.08939 30.2443 8.2073 29.9222 8.38742 29.6249Z" fill="#009687"/>
<path d="M10.9174 15.0761C11.0942 15.3122 11.294 15.5352 11.5233 15.7202C11.5855 15.7714 11.7263 15.9085 11.8164 15.9217C11.8196 15.9167 11.8262 15.9085 11.8344 15.8887C11.8409 15.8721 11.8508 15.854 11.8573 15.8391C11.8819 15.7879 11.9048 15.7367 11.9294 15.6855C12.0391 15.4543 12.1439 15.2032 12.306 15.0034C12.401 14.8845 12.4828 14.8515 12.6106 14.9423C12.8103 15.086 12.9708 15.2924 13.1395 15.4692C13.1853 15.5171 13.2312 15.5666 13.2803 15.6112C13.2836 15.6145 13.3163 15.6492 13.3278 15.6541C13.3376 15.6591 13.3442 15.6607 13.3491 15.6624C13.4572 15.6228 13.5685 15.4031 13.6242 15.3073C13.8502 14.9192 13.9795 14.4452 13.991 13.9777C13.9075 13.8654 13.8174 13.7564 13.7208 13.6557C13.7126 13.6474 13.7061 13.6392 13.6995 13.6309C13.6913 13.6342 13.6815 13.6375 13.6733 13.6392C13.6307 13.8952 13.5128 14.1396 13.3262 14.3196C13.0773 14.5591 12.7219 14.6599 12.383 14.6351C11.8704 14.5988 11.3906 14.3213 11.163 13.8886C11.1237 13.8291 11.0877 13.7663 11.0598 13.7019C11.0304 13.6342 11.0042 13.5582 10.9861 13.4856C10.9829 13.474 10.978 13.4443 10.9714 13.4112C10.9534 13.4079 10.9321 13.4079 10.9108 13.4162C10.8289 13.4426 10.7471 13.4707 10.6668 13.4988C10.6308 13.5186 10.5948 13.5368 10.5587 13.5582C10.4965 13.5929 10.4359 13.6293 10.3753 13.6656C10.3033 14.1495 10.6619 14.7243 10.919 15.0711L10.9174 15.0761Z" fill="#02B5A3"/>
<path opacity="0.7" d="M10.5964 5.27225C10.6521 5.22601 10.7061 5.17481 10.7602 5.11865C10.7029 5.16655 10.6488 5.21775 10.5964 5.27225Z" fill="#EAD1BE"/>
<path d="M14.6608 5.0639C14.4594 4.90204 14.2416 4.71211 13.9714 4.71046C13.621 4.70881 13.3475 4.98297 13.1428 5.22576C13.0544 5.33146 12.8857 5.29678 12.812 5.19273C12.7187 5.0606 12.6008 4.9615 12.4665 4.88883C12.4485 4.87892 12.4272 4.87397 12.4059 4.87231C12.0047 4.84754 11.5872 4.84259 11.2351 5.01105C11.2187 5.01931 11.204 5.03087 11.1909 5.04408C11.15 5.09033 11.109 5.13657 11.0664 5.18282C10.9797 5.27861 10.8929 5.38431 10.775 5.44047C10.7717 5.44047 10.7684 5.44212 10.7668 5.44377C10.7226 5.45368 10.6833 5.4735 10.6603 5.51149C10.3083 6.10607 9.22751 8.80976 9.08177 9.68677C8.94094 10.534 8.93111 11.4408 9.4715 12.1774C10.0102 12.9124 10.9092 13.2889 11.7919 13.4211C12.311 13.4987 12.8382 13.5003 13.359 13.4723C13.5538 13.4624 13.7487 13.4458 13.9403 13.4178C13.9452 13.4178 13.9485 13.4178 13.9534 13.4178C16.2427 13.3269 16.2427 11.4276 16.2934 10.7273C16.3344 10.1492 15.9463 6.09781 14.6608 5.0639Z" fill="#EAD1BE"/>
<path d="M16.2934 10.7275C16.2983 10.6482 16.2967 10.5028 16.2852 10.3096C16.1313 10.407 15.9479 10.4681 15.7547 10.4814C15.1062 10.5276 14.6412 10.0734 14.1876 9.68033C13.5866 9.15677 12.7842 9.06758 12.0752 9.43094C11.5413 9.7051 11.0664 10.1907 10.4327 10.2022C9.91854 10.2121 9.51898 9.84219 9.10305 9.57793C9.09487 9.61592 9.08832 9.6539 9.08177 9.68694C8.94094 10.5342 8.93111 11.4409 9.4715 12.1776C10.0102 12.9125 10.9092 13.2891 11.7919 13.4212C12.311 13.4989 12.8382 13.5005 13.359 13.4724C13.5538 13.4625 13.7487 13.446 13.9403 13.4179C13.9452 13.4179 13.9485 13.4179 13.9534 13.4179C16.2427 13.3271 16.2427 11.4277 16.2934 10.7275ZM13.5309 11.4079C13.115 11.512 12.7187 11.4938 12.3044 11.3897C11.936 11.2973 11.3285 11.0396 11.579 10.5491C11.7313 10.2485 12.0309 10.407 12.2618 10.5028C12.3699 10.5474 12.4813 10.5854 12.5943 10.6118C12.8284 10.6168 13.0691 10.5739 13.2706 10.5227C13.5407 10.4549 13.9616 10.3162 14.1974 10.5408C14.669 10.9884 13.8584 11.3253 13.5309 11.4063V11.4079Z" fill="#663B1E"/>
<path opacity="0.9" d="M14.4724 5.01117C14.271 4.84931 14.0532 4.65937 13.783 4.65772C13.4326 4.65607 13.1591 4.93024 12.9544 5.17303C12.866 5.27873 12.6973 5.24404 12.6236 5.13999C12.5303 5.00786 12.4124 4.90877 12.2781 4.8361C12.2601 4.82619 12.2388 4.82123 12.2175 4.81958C11.8163 4.79481 11.3988 4.78985 11.0467 4.95832C11.0303 4.96657 11.0156 4.97813 11.0025 4.99135C10.9616 5.03759 10.9206 5.08384 10.878 5.13008C10.7913 5.22588 10.7045 5.33158 10.5866 5.38773C10.5833 5.38773 10.58 5.38939 10.5784 5.39104C10.5342 5.40095 10.4949 5.42077 10.4719 5.45875C10.1608 5.98397 9.27982 8.16079 8.97852 9.26242C8.99325 9.26242 9.00963 9.27233 9.01618 9.28885C9.0391 9.34335 9.05875 9.3995 9.07677 9.45566C9.11607 9.32353 9.15701 9.1914 9.20286 9.06092C9.46322 8.30779 9.79728 7.55135 10.2607 6.90061C10.6046 6.41834 11.0827 5.93937 11.6853 5.82541C12.2503 5.71971 12.7514 5.97571 13.1509 6.35063C13.4162 5.73623 13.9648 5.27047 14.6837 5.40755C14.7475 5.41912 14.8097 5.43728 14.8703 5.45875C14.7492 5.27873 14.6165 5.12513 14.4741 5.01117H14.4724Z" fill="#E5BFA5"/>
<path d="M16.3048 5.60565C16.2655 5.37443 16.2196 5.1432 16.164 4.91528C16.0674 4.57505 15.9511 4.23977 15.8086 3.9144C15.8053 3.90614 15.8021 3.89954 15.8004 3.89128C15.6252 3.57087 15.3763 3.29505 15.0292 3.16127C14.7148 3.03905 14.3512 3.05226 14.0728 3.22403C14.027 2.94821 13.8534 2.69881 13.5816 2.59146C13.2623 2.46428 12.8906 2.5799 12.6744 2.8359C12.3846 2.47419 11.926 2.26774 11.4577 2.32555C10.9796 2.38501 10.5702 2.7335 10.3966 3.17943C9.61877 2.64101 8.53309 3.05556 8.08114 3.85659C7.45888 4.96152 7.85188 6.23327 8.26782 7.33324C8.44794 7.81221 9.09477 9.60421 9.10132 9.57943C9.27981 8.96834 9.49923 8.12767 9.73995 7.53969C9.96102 6.99796 10.1968 6.44798 10.5047 5.95084C10.7585 5.53959 11.1122 5.12999 11.6002 5.01933C12.0128 4.92519 12.6515 5.11512 12.8627 5.51647C12.9217 5.62878 12.9511 5.66676 12.9773 5.52142C13.0592 5.07053 13.5587 4.77159 13.9746 4.80627C14.4986 4.84921 14.8572 5.2968 15.075 5.73943C15.3403 6.27456 15.4893 6.87409 15.6334 7.4505C15.7939 8.08472 16.0297 8.68426 16.1263 9.33169C16.1312 9.36307 16.1803 9.46217 16.2033 9.47869C16.2164 9.15992 16.3736 6.57185 16.3015 5.6073L16.3048 5.60565Z" fill="#724422"/>
<path d="M16.3049 5.60575C16.2656 5.37452 16.2197 5.1433 16.164 4.91537C16.1296 4.79481 16.092 4.67589 16.0527 4.55697C15.8709 4.67589 15.6679 4.76343 15.455 4.79811C15.1881 4.8427 14.9555 4.72544 14.7427 4.57019C14.5183 4.40668 14.3153 4.20848 14.0402 4.13581C13.7634 4.06149 13.5358 4.14077 13.2853 4.25143C13.056 4.35217 12.8186 4.45623 12.5631 4.45788C12.2929 4.45788 12.085 4.34557 11.8623 4.20353C11.6183 4.04993 11.389 3.91119 11.1008 4.02516C10.9125 4.10113 10.7569 4.23821 10.6194 4.38686C10.3557 4.67259 10.156 5.02438 9.84646 5.26552C9.18818 5.78082 8.30882 5.24735 8.13688 4.50908C8.08612 4.29272 8.07466 4.06149 8.09758 3.82861C8.09267 3.83687 8.08776 3.84513 8.08285 3.85339C7.46059 4.95832 7.85359 6.23006 8.26952 7.33003C8.44965 7.809 9.09648 9.601 9.10303 9.57623C9.28152 8.96513 9.50094 8.12446 9.74166 7.53648C9.96273 6.99476 10.1985 6.44477 10.5064 5.94763C10.7602 5.53638 11.1139 5.12678 11.6019 5.01612C12.0145 4.92198 12.6532 5.11192 12.8644 5.51326C12.9234 5.62557 12.9528 5.66356 12.979 5.51821C13.0609 5.06732 13.5604 4.76838 13.9763 4.80306C14.5003 4.84601 14.8589 5.29359 15.0767 5.73623C15.342 6.27135 15.491 6.87088 15.6351 7.4473C15.7956 8.08152 16.0314 8.68105 16.128 9.32848C16.1329 9.35987 16.182 9.45896 16.205 9.47548C16.2181 9.15672 16.3753 6.56864 16.3032 5.6041L16.3049 5.60575Z" fill="#663B1E"/>
<path d="M4.69974 26.1849C5.63968 25.1163 6.44535 23.9503 7.64074 23.1839C7.626 23.1112 7.62436 23.0303 7.6391 22.9345C7.70297 22.5299 7.95678 22.1731 8.13855 21.8164C8.36125 21.3787 8.5119 20.9047 8.59378 20.4208C8.75262 19.4793 8.66256 18.3942 8.15165 17.5701C7.87654 17.1241 7.44751 16.7856 6.92514 16.7079C6.87438 16.6997 6.82198 16.6947 6.77121 16.6931C6.74174 16.6402 6.66805 16.6072 6.60091 16.6485C6.57307 16.6666 6.54524 16.6832 6.5174 16.7013C6.18662 16.741 3.86624 19.1292 3.31112 20.2424C2.68722 21.4927 2.44978 22.9659 3.04748 24.2723C3.37171 24.9825 4.08076 25.7191 4.69974 26.1865V26.1849Z" fill="#EAD1BE"/>
<path d="M8.73308 21.3239C8.79858 21.0993 8.85098 20.8714 8.89028 20.6418C9.07532 19.5369 8.97052 18.2635 8.37119 17.294C8.04859 16.7704 7.54915 16.2403 6.93016 16.2816C5.63488 16.3658 4.14801 18.3163 3.1311 19.7235C5.01753 20.1645 6.91051 20.6649 8.73308 21.3239Z" fill="#02B5A3"/>
<path d="M21.8807 4.06134C20.0189 3.64679 18.4239 4.6295 18.0981 5.26041C17.4758 6.44627 17.6166 7.05902 17.5462 7.91786C17.4889 8.60163 16.5097 12.0535 16.6816 12.5903C17.0975 13.8818 18.8775 14.3575 20.0058 13.7993C20.2334 13.6869 20.4332 13.5251 20.5986 13.3302C21.1504 12.9388 21.4681 12.2352 21.3289 11.5564C21.175 10.8148 20.4987 10.4894 19.8879 10.1822C19.544 10.0088 19.1968 9.82052 18.961 9.50506C18.6696 9.11528 18.5484 8.61154 18.4419 8.14413C18.3781 7.86666 18.324 7.58588 18.2847 7.30181C18.2995 7.1961 18.3159 7.0904 18.3388 6.98635C18.4927 6.27616 20.836 4.30909 21.437 4.172C21.5287 4.15053 21.9774 4.08281 21.8824 4.06134H21.8807Z" fill="#916640"/>
<path d="M17.7116 8.18711C17.7181 8.13096 17.7902 8.10784 17.8344 8.13096C17.9752 8.20363 18.0849 8.31099 18.1602 8.44807C18.1897 8.44146 18.2225 8.45137 18.2405 8.48771C18.3338 8.66278 18.36 8.84776 18.3093 9.041C18.2945 9.09881 18.2372 9.11862 18.1864 9.09715C17.9539 8.99806 17.8 8.77674 17.7672 8.53395C17.7165 8.4299 17.6968 8.30933 17.7116 8.18711Z" fill="#E5BFA5"/>
<path opacity="0.55" d="M19.2214 14.0254C19.2312 14.032 19.2443 14.0386 19.2574 14.0435C19.4604 14.1145 19.6635 14.1856 19.8665 14.2566C19.9091 14.0666 19.973 13.88 20.0401 13.7049C20.1646 13.3829 20.3152 13.0724 20.4823 12.7685C20.4577 12.8098 20.4331 12.8527 20.4102 12.894C20.3742 12.9617 20.2677 12.9089 20.3038 12.8395C20.4577 12.5406 20.6657 12.2713 20.9129 12.05C21.0701 11.8023 21.2339 11.5595 21.3976 11.3184C21.319 11.3596 21.2421 11.4026 21.1684 11.4488C20.443 11.8948 19.8796 12.5604 19.4113 13.2656C19.2934 13.4423 19.1821 13.6224 19.074 13.804C19.0036 13.923 19.1247 14.0501 19.223 14.0237L19.2214 14.0254Z" fill="#110F4C"/>
<path d="M29.4723 27.7357C29.4084 26.0346 29.0138 24.34 28.3522 22.7759C28.0002 21.9452 27.5744 21.1491 27.0488 20.4158C26.808 20.0805 26.5198 19.7717 26.2136 19.4975C26.0613 19.3621 25.9041 19.2465 25.7387 19.1441C25.6765 19.0103 25.6356 18.8649 25.6274 18.7031C25.6143 18.4372 25.6601 18.1696 25.688 17.9053C26.2005 17.7253 26.6607 17.4412 27.0537 17.0614C27.2666 16.8549 27.3435 16.6154 27.2092 16.338C27.111 16.1348 25.9254 12.9356 22.6979 11.4591C21.8185 11.0561 20.7607 11.5219 19.9485 12.019C19.0986 12.5409 18.4387 13.3205 17.8901 14.1463C17.7525 14.3527 17.6215 14.5641 17.4938 14.7772C17.4103 14.9159 17.5528 15.0646 17.669 15.0332C17.6805 15.0414 17.6952 15.0497 17.7116 15.0547C18.0145 15.1604 17.9261 15.0712 18.2274 15.1769C17.2613 17.4396 18.6794 17.6873 18.7973 17.9648C19.0511 18.5627 19.3164 19.5586 19.2853 20.3349C19.1215 20.505 18.9758 20.6949 18.8317 20.8815C18.5762 21.2135 18.3453 21.5653 18.1259 21.9221C17.6756 22.6554 17.3006 23.4316 16.9665 24.2261C16.3917 25.5853 15.2209 29.2255 15.2193 29.427C15.2193 29.4468 14.0812 31.7756 14.335 31.9424C14.9982 32.3751 23.5428 30.2363 25.2786 29.8977C26.1481 29.7276 27.0095 29.5211 27.8577 29.2618C28.2376 29.1462 28.6699 29.0455 29.0007 28.8126C29.3626 28.5599 29.487 28.1652 29.4707 27.7341L29.4723 27.7357ZM25.7371 28.8671C25.783 28.8489 25.8288 28.8291 25.8747 28.8093C25.8779 28.8175 25.8828 28.8258 25.8878 28.8324C25.837 28.844 25.7879 28.8555 25.7371 28.8671Z" fill="#F7C786"/>
<path d="M29.4722 27.7355C29.4083 26.0343 29.0137 24.3398 28.3521 22.7757C28 21.9449 27.5743 21.1488 27.0486 20.4155C26.8079 20.0803 26.5197 19.7714 26.2135 19.4972C26.0612 19.3618 25.904 19.2462 25.7386 19.1438C25.6764 19.01 25.6355 18.8647 25.6273 18.7028C25.6142 18.4369 25.66 18.1693 25.6879 17.9051C26.2004 17.7251 26.6605 17.441 27.0536 17.0611C27.2664 16.8547 27.3434 16.6152 27.2091 16.3377C27.1109 16.1345 25.9253 12.9354 22.6977 11.4588C22.5667 11.3994 22.4325 11.3581 22.2949 11.335C23.3839 11.8883 24.2779 12.9668 24.82 14.0271C24.8232 14.0337 24.8265 14.0387 24.8298 14.0453C24.8331 14.0453 24.8347 14.0453 24.838 14.0453C25.3096 14.1097 25.6567 14.5226 25.8811 14.9157C26.1382 15.3665 26.3101 15.8802 26.3707 16.3972C26.4133 16.7556 26.3871 17.3749 26.0432 17.5896C25.6911 17.8093 25.3816 17.3452 25.1868 17.1189C25.0541 16.962 24.9084 16.7803 24.7217 16.6862C24.4957 16.5706 24.2845 16.6928 24.0962 16.8299C23.8276 17.0248 23.5984 17.2709 23.3298 17.4674C23.0547 17.6689 22.7518 17.7713 22.4177 17.8225C21.7398 17.9249 21.1306 17.6772 20.6164 17.2593C20.0662 17.7168 19.2376 17.8985 18.5466 17.7482C18.6711 17.8374 18.7693 17.9001 18.7971 17.9662C19.051 18.5641 19.3162 19.56 19.2851 20.3363C19.1214 20.5064 18.9756 20.6963 18.8315 20.8829C18.5761 21.2149 18.3452 21.5667 18.1258 21.9235C18.1258 21.9251 18.1225 21.9284 18.1208 21.9317C18.4827 21.5518 18.8872 21.2166 19.3474 20.9622C20.1039 20.5444 21.0553 20.2603 21.9003 20.5708C22.737 20.8796 23.243 21.7038 23.8735 22.2868C24.4941 22.8616 25.4324 22.9788 25.9302 23.6973C26.41 24.3893 26.5574 25.339 26.6687 26.1565C26.7932 27.0732 26.8325 27.9997 26.8636 28.923C26.8701 29.1278 26.88 29.3309 26.8898 29.5357C27.214 29.4515 27.5383 29.3607 27.8592 29.2632C28.2391 29.1476 28.6714 29.0469 29.0022 28.814C29.3641 28.5613 29.4886 28.1665 29.4722 27.7355Z" fill="#EFBC7F"/>
<path opacity="0.47" d="M19.2868 20.2407C19.9843 20.3943 20.7212 20.3695 21.4319 20.3679C22.5045 20.3646 23.5804 20.3167 24.6415 20.1482C25.2244 20.0557 25.8123 19.9252 26.3576 19.6924C26.3707 19.6857 26.3854 19.6808 26.3985 19.6742C26.3379 19.6147 26.2757 19.5569 26.2135 19.5008C26.0661 19.3686 25.9138 19.2563 25.7533 19.1572C24.9493 19.3587 24.0863 19.4099 23.3085 19.4595C22.588 19.5041 21.8708 19.5569 21.1519 19.6131C20.528 19.6626 19.8845 19.7056 19.2507 19.6643C19.2753 19.8625 19.2884 20.059 19.2884 20.244L19.2868 20.2407Z" fill="#C1272D"/>
<path d="M23.8931 12.1396C23.9045 12.1479 23.9144 12.1545 23.9258 12.1628C23.9651 12.2619 23.9995 12.3643 24.0257 12.4683C23.9864 12.3577 23.9422 12.247 23.8931 12.1396Z" fill="#CE6C6A"/>
<path d="M26.5968 17.4394C26.6001 17.2924 26.5723 17.1421 26.5379 17.0066C26.4625 16.7143 24.6711 13.0758 24.3485 12.7372C24.0406 12.4135 23.6968 12.1245 23.3398 11.852C23.3218 11.8206 23.3021 11.7892 23.2825 11.7578C26.0695 13.3285 27.1176 16.1495 27.2093 16.3394C27.3435 16.6169 27.2666 16.8563 27.0537 17.0628C26.9112 17.2015 26.7589 17.3271 26.5968 17.441V17.4394Z" fill="#EFBC7F"/>
<path d="M20.045 12.8563C20.0826 12.5937 20.1776 12.3311 20.3103 12.1015C20.4363 11.8851 20.5935 11.715 20.7753 11.5548C20.7229 11.132 20.6672 10.6117 20.7082 10.549C20.9374 10.1972 22.272 9.69179 22.4423 10.0799C22.4669 10.1361 22.5553 10.7967 22.6192 11.2939C22.9025 11.7183 22.9156 12.2402 22.8304 12.7341C22.7371 13.2807 22.5029 13.7977 22.0428 14.1231C21.8364 14.2701 21.5892 14.3741 21.3403 14.427C21.0537 14.4864 20.7393 14.5112 20.4838 14.3427C20.022 14.0388 19.9713 13.3551 20.0417 12.8563H20.045Z" fill="#DDBCA6"/>
<path d="M23.2332 8.58026C23.2103 8.06165 23.0924 7.548 22.8795 7.07894C22.5995 6.46124 22.1475 5.98062 21.5466 5.67672C21.0438 5.42237 20.474 5.2985 19.9123 5.33484C19.3932 5.36952 18.8676 5.5512 18.4942 5.92942C18.1012 6.32581 17.9686 6.85597 17.9587 7.3977C17.9686 7.55461 17.9849 7.70821 18.0079 7.8585C18.3976 10.4003 19.2851 11.639 21.4958 10.9454C22.3948 10.6629 22.8337 9.94119 23.1219 8.96343C23.1595 8.83626 23.1955 8.70908 23.2316 8.58026H23.2332Z" fill="#EAD1BE"/>
<path d="M23.0842 8.74716C23.1317 8.69596 23.1825 8.64641 23.2349 8.60017C23.2398 8.582 23.248 8.56548 23.266 8.55062C23.4068 8.43335 24.0929 7.85033 24.2354 8.23846C24.2583 8.29792 24.2485 8.35408 24.2207 8.40528C24.2272 8.51263 24.1879 8.63155 24.1355 8.71082C24.0111 8.89911 23.8014 9.01142 23.6066 9.10721C23.4477 9.18649 23.1366 9.41111 22.9598 9.27568C22.7665 9.12703 22.9729 8.86938 23.0842 8.74881V8.74716Z" fill="#E5BFA5"/>
<path d="M26.903 21.0976C26.3757 20.645 25.9418 20.2222 25.3064 19.92C26.225 19.1338 25.5569 17.8092 25.7141 17.6011C25.8681 17.5549 26.0204 17.497 26.1661 17.4326C26.4887 17.2906 26.7982 17.1089 27.0684 16.8793C27.1208 16.8347 27.1732 16.7869 27.2239 16.7373C27.5744 17.3352 27.8331 18.0702 27.9592 18.5277C28.1491 19.2147 28.4603 20.8465 27.4925 21.7978C27.3009 21.5683 27.1257 21.2892 26.903 21.0992V21.0976Z" fill="#EAD1BE"/>
<path d="M20.2758 20.7247C20.374 20.3729 20.6835 20.1384 21.0323 20.0723C21.4188 19.998 21.82 20.1021 22.1999 20.1747C22.3587 20.2045 22.5175 20.2358 22.6764 20.2689C23.6933 20.2425 24.9247 20.1533 25.3488 19.9319C25.3341 19.9286 25.3193 19.9237 25.3046 19.9204C25.3062 19.8874 25.3079 19.8543 25.3095 19.8213C25.6288 19.9865 25.9383 20.1681 26.238 20.3713C26.7571 20.7247 27.2582 21.1244 27.6594 21.6116C27.4973 21.8131 27.2877 21.9932 27.0224 22.1435C26.0644 22.2921 25.113 22.0956 24.214 21.79C23.5721 21.572 22.9449 21.311 22.3259 21.0319C22.2048 21.0253 22.0836 21.0286 21.9641 21.0319C21.5121 21.0468 21.0634 21.1244 20.6115 21.1409C20.4019 21.1492 20.2185 20.9345 20.2758 20.7247Z" fill="#EAD1BE"/>
<path d="M26.3135 11.2311C26.0843 10.6927 25.6847 10.2517 25.3883 9.75291C25.0412 9.17154 24.9397 8.52576 24.8447 7.86347C24.6711 6.66274 24.2666 5.45872 23.3971 4.58006C22.9566 4.13412 22.3933 3.91776 21.7694 4.01521C21.5238 4.05319 21.2667 4.13412 21.0194 4.24643C19.5047 4.8823 19.4146 5.41743 19.4163 5.41412C20.2678 5.42403 21.4517 5.58259 22.056 6.20029C22.7437 6.90553 22.9877 7.81227 22.8895 8.78341C22.783 9.83384 22.0085 10.6894 22.1739 11.7563C22.2901 12.5045 23.1449 13.4591 23.9064 13.6656C24.0521 13.7052 24.1995 13.7184 24.3452 13.7118C24.6334 13.7713 24.9347 13.7696 25.2229 13.7201C25.7748 13.6243 26.248 13.2973 26.438 12.7539C26.6099 12.2617 26.5133 11.6952 26.3119 11.2278L26.3135 11.2311Z" fill="#A67C52"/>
<path d="M21.2404 17.3553C20.8932 17.0877 20.7344 16.5906 20.7327 16.1645C20.7311 15.8986 20.7933 15.6343 20.9063 15.3965C20.867 15.4163 20.8277 15.4394 20.79 15.4642C20.0908 15.9432 20.081 16.9952 20.7196 17.5254C21.296 18.0044 22.1295 17.8855 22.6011 17.3768C22.1623 17.6014 21.6547 17.6708 21.2436 17.3536L21.2404 17.3553Z" fill="#FFD6A4"/>
<path d="M12.4715 14.7011C12.4715 14.7011 12.3536 14.0273 12.3487 13.9728C12.3323 13.768 12.3159 13.5632 12.2816 13.36C12.2062 12.9323 12.0654 12.5111 11.8771 12.1197C11.5709 11.4838 11.0665 10.8512 10.3444 10.7819C10.287 10.7505 10.2265 10.7521 10.1757 10.7769C10.1659 10.7769 10.1577 10.7769 10.1479 10.7769C10.1135 10.7769 10.0938 10.8099 10.0971 10.8364C10.0349 10.9123 10.0169 11.0279 10.0971 11.1138C10.5818 11.6258 10.9175 12.1494 11.0305 12.8579C11.132 13.4955 11.0911 14.2123 10.8733 14.82C10.7849 15.0678 10.6735 15.3453 10.7996 15.6029C10.9109 15.8308 11.1582 15.9299 11.3989 15.9266C11.9884 15.92 12.4371 15.4675 12.7712 15.0282C12.9136 14.8399 12.6598 14.5905 12.4682 14.6995L12.4715 14.7011Z" fill="#B5885B"/>
<path d="M11.0862 12.7671C11.006 12.5359 10.7079 12.412 10.4901 12.5293C10.2756 12.6466 10.215 12.9339 10.3575 13.1288C10.3903 13.1751 10.4492 13.1206 10.4312 13.076C10.3755 12.9372 10.4214 12.739 10.5655 12.6746C10.7145 12.6086 10.857 12.6978 10.9274 12.8266C10.9716 12.9075 11.1173 12.8613 11.0846 12.7671H11.0862Z" fill="#473832"/>
<path d="M10.0987 16.1295C10.0954 15.89 10.0397 15.7496 9.7859 15.71C9.48459 15.6621 9.14235 15.6126 8.83777 15.6423C8.70349 15.6555 8.55612 15.7067 8.46769 15.8058C8.44804 15.8141 8.43166 15.8306 8.43003 15.8553C8.43003 15.8553 8.43003 15.8553 8.43003 15.857C8.4071 15.8983 8.39073 15.9445 8.38745 15.9974C8.38745 16.0238 8.40055 16.0486 8.42184 16.0635C8.41693 16.3178 8.42839 16.5804 8.45131 16.8281C8.47424 17.066 8.66747 17.1733 8.86888 17.2658C9.11615 17.3781 9.39289 17.431 9.66472 17.4112C9.87269 17.3963 10.0757 17.3501 10.1019 17.1073C10.1347 16.7885 10.1019 16.4466 10.0987 16.1262V16.1295Z" fill="#D1A88C"/>
<path d="M11.8395 14.1676C11.8329 13.834 11.7953 13.654 11.6986 13.3418C11.6086 13.0511 11.4841 12.7769 11.3662 12.4978C11.3138 12.3723 11.2614 12.2484 11.2074 12.1229C11.1894 12.0816 11.1697 12.0387 11.1517 11.9974C11.1763 12.0552 11.114 11.9214 11.1026 11.8983C11.0485 11.7926 10.9896 11.6885 10.9241 11.5878C10.8963 11.5465 10.8684 11.5052 10.8389 11.4656C10.8209 11.4424 10.7653 11.3797 10.7751 11.3879C10.762 11.3747 10.7489 11.3599 10.7358 11.3466C10.4377 10.9932 10.0251 10.7306 9.59115 10.5985C8.92795 10.397 8.28277 10.539 7.67852 10.8512C7.03006 11.1881 6.45529 11.606 6.15398 12.2963C5.86742 12.9487 5.65454 13.72 5.92309 14.4005C6.41107 15.6309 7.59009 16.1347 7.91105 16.2635C8.16978 16.3676 8.52185 16.47 8.86736 16.5112C8.88046 16.5112 8.93778 16.5178 8.94433 16.5195C8.98363 16.5212 9.02293 16.5228 9.06223 16.5228C9.15393 16.5228 9.24563 16.5228 9.33733 16.5145C9.51582 16.5013 9.63045 16.4799 9.80075 16.432C10.1315 16.3362 10.3673 16.2354 10.6261 16.0884C10.7636 16.0108 10.8963 15.9249 11.024 15.8308C11.0502 15.811 11.0747 15.7911 11.1009 15.7713C11.1059 15.768 11.1206 15.7548 11.1304 15.7465C11.1697 15.7119 11.209 15.6755 11.2451 15.6375C11.4628 15.4129 11.7625 14.7605 11.7723 14.7275C11.7887 14.6631 11.8034 14.597 11.8149 14.531C11.846 14.3526 11.846 14.3443 11.8427 14.166L11.8395 14.1676Z" fill="#EAD1BE"/>
<path d="M12.8546 23.7802C12.8481 23.6249 12.8628 23.4317 12.7711 23.2963C12.6712 23.1476 12.478 23.1229 12.3159 23.0981C11.8738 23.0271 11.4235 23.0882 10.9895 23.1906C10.7684 23.2434 10.5441 23.2996 10.3296 23.3722C10.1675 23.4284 10.1478 23.8529 10.2117 23.8578C10.1986 24.1601 10.215 24.4656 10.2002 24.7695C10.1806 25.1709 10.1265 25.5738 9.99717 25.9554C9.95132 26.0891 9.86616 26.2361 9.9202 26.3798C9.98407 26.5533 10.1855 26.5566 10.341 26.5681C10.7373 26.5978 11.1402 26.5681 11.5299 26.4888C11.8623 26.4195 12.2209 26.322 12.4518 26.0528C12.6942 25.7687 12.7466 25.3707 12.7957 25.0123C12.8514 24.606 12.8694 24.1931 12.8514 23.7818L12.8546 23.7802Z" fill="#C99E81"/>
<path d="M10.4293 24.7511C10.4293 24.5298 10.4326 24.2952 10.354 24.0838C10.1755 23.6032 9.61385 23.5091 9.17172 23.4397C8.58548 23.3472 7.98942 23.3555 7.40483 23.4496C7.40155 23.4496 7.39828 23.4496 7.395 23.4513C7.35243 23.4315 7.28856 23.4562 7.28529 23.514C7.26073 24.0607 7.29348 24.6041 7.32459 25.1508C7.33933 25.415 7.30985 25.6165 7.14282 25.8279C6.99545 26.0146 6.83497 26.1863 6.70069 26.3829C6.57296 26.5679 6.45998 26.7611 6.35845 26.9626C6.25037 27.1492 6.14393 27.3491 6.08826 27.5522C6.01457 27.8247 6.11937 28.0956 6.21762 28.3467C6.26511 28.4689 6.4174 28.4804 6.52056 28.4391C6.76292 28.3433 6.71052 28.0659 6.85134 27.8925C6.89556 27.838 6.94796 27.7901 7.00527 27.7471C7.20177 27.7042 7.39337 27.6381 7.53583 27.6018C8.33003 27.4003 9.2798 27.2252 9.87258 26.6059C10.1772 26.2871 10.3311 25.8874 10.3917 25.4547C10.4244 25.2218 10.4293 24.9856 10.4277 24.7511H10.4293Z" fill="#D1A88C"/>
<path d="M13.246 23.1128C13.2017 22.9047 12.3371 20.5181 12.0964 19.8525C11.895 20.026 11.6461 20.1548 11.4005 20.2671C10.6816 20.5941 9.90868 20.8319 9.12594 20.9343C8.37431 21.0334 7.84867 21.0202 6.90054 20.5066C6.57304 21.2531 6.31922 22.0409 6.03757 22.8056C5.96715 22.9972 5.8951 23.1888 5.82469 23.3804C5.7641 23.5439 5.63801 23.7553 5.66748 23.9337C5.71825 24.2326 6.17839 24.3647 6.42075 24.4308C7.12488 24.6224 7.91253 24.5398 8.63141 24.4853C9.42561 24.4242 10.2165 24.3185 10.9993 24.1666C11.4103 24.0856 11.8262 24.0014 12.2274 23.8775C12.5828 23.7685 13.002 23.6215 13.264 23.344C13.3344 23.2697 13.3115 23.1657 13.2476 23.1145L13.246 23.1128Z" fill="#667891"/>
<path d="M6.95294 22.8436C7.22477 22.0921 7.67509 21.4694 8.2384 20.969C7.85031 20.931 7.4442 20.8005 6.90054 20.5049C6.57304 21.2514 6.31922 22.0392 6.03757 22.8039C5.96715 22.9955 5.8951 23.1871 5.82469 23.3787C5.7641 23.5422 5.63801 23.7536 5.66748 23.932C5.71825 24.2309 6.17839 24.3631 6.42075 24.4291C6.49607 24.4506 6.57304 24.4671 6.65164 24.482C6.6631 23.9237 6.76135 23.3721 6.95294 22.8436Z" fill="#576C84"/>
<path d="M10.8142 10.7587C10.2247 10.1806 8.2171 9.73798 6.5239 10.9238C6.22587 11.1319 5.93112 11.3467 5.75099 11.6704C5.54957 12.0304 5.40547 12.4532 5.31541 12.8546C5.1189 13.7233 5.39401 14.5756 5.69859 15.3815C5.77555 15.5847 5.87053 15.7911 5.90164 16.0092C5.9131 16.095 5.90492 16.1694 5.89018 16.2404C5.78702 16.1429 5.62326 16.1908 5.51519 16.3015C5.376 16.3775 5.33506 16.5575 5.3891 16.716C5.4022 16.9555 5.52992 17.1801 5.73789 17.3156C5.8869 17.413 6.04738 17.4626 6.2095 17.4725C6.51571 17.6476 7.06265 17.4675 7.3312 17.3222C7.88305 17.0216 8.13031 16.432 7.97147 15.8225C7.80117 15.1685 7.33611 14.6367 7.05773 14.0305C6.90872 13.7085 6.81538 13.3583 6.78099 13.0049C6.76626 12.8496 6.78591 12.6696 6.79082 12.4929C6.92346 12.511 7.05446 12.5209 7.17072 12.5292C7.51624 12.5556 8.0992 12.6035 8.35629 12.3062C8.41852 12.2352 8.45291 12.1526 8.46437 12.0717C8.66579 12.0882 8.86884 12.075 8.99002 11.9148C9.02768 11.8653 9.04897 11.8157 9.05552 11.7695C9.35355 11.7794 9.66795 11.743 9.85299 11.5415C9.96598 11.4193 9.99054 11.2839 9.95943 11.1584C10.1789 11.1848 10.4098 11.1749 10.6095 11.0907C10.6243 11.084 10.639 11.0774 10.6521 11.0708C10.6472 11.0642 10.6406 11.0593 10.6357 11.0543C10.7389 11.0279 10.9125 10.8512 10.8175 10.757L10.8142 10.7587Z" fill="#C69C6D"/>
<path d="M8.97212 10.1772C8.81656 10.2037 8.66263 10.2384 8.51362 10.2846C7.29039 10.6612 6.18342 11.9263 6.4618 13.2823C6.52239 13.5746 6.64847 13.8323 6.80895 14.0751C6.77293 13.9611 6.74181 13.8471 6.71889 13.7315C6.65502 13.4095 6.65339 13.1023 6.69924 12.8083C6.74181 11.9032 7.3084 11.0592 8.155 10.6628C8.66263 10.4266 9.20957 10.3639 9.76141 10.4151C10.0185 10.4382 10.3345 10.4795 10.6015 10.5951C10.2396 10.3672 9.6517 10.1905 8.97212 10.1772Z" fill="#B8E0C6"/>
<path d="M12.0751 19.1092C12.1291 19.0878 12.1799 19.058 12.2274 19.0233C12.2716 18.9721 12.3158 18.9193 12.3584 18.8664C12.4009 18.8119 12.4419 18.7574 12.4828 18.7013C12.4861 18.6963 12.509 18.6633 12.5205 18.6484C12.5287 18.6352 12.5434 18.6137 12.5434 18.6154C12.7874 18.2388 12.9823 17.8243 13.1313 17.4015C13.1389 17.3805 13.1389 17.3805 13.1313 17.4015C13.1362 17.3849 13.1411 17.3684 13.1476 17.3536C13.1558 17.3288 13.164 17.3057 13.1706 17.2809C13.1886 17.2231 13.205 17.1669 13.2213 17.1091C13.2508 17.0018 13.277 16.8928 13.2983 16.7838C13.3442 16.5542 13.3687 16.3543 13.3687 16.1677C13.3687 16.0504 13.3638 15.9315 13.3491 15.8143C13.3327 15.6772 13.3327 15.6722 13.295 15.5384C13.2786 15.4823 13.2606 15.4261 13.241 15.3716C13.2377 15.3634 13.223 15.3254 13.2181 15.3089C13.2181 15.3056 13.2148 15.3039 13.2148 15.3023C13.1935 15.2676 13.1738 15.2312 13.1509 15.1982C13.1395 15.18 13.1247 15.1635 13.1116 15.1454C13.0723 15.1041 13.033 15.0661 12.9888 15.0297C12.9773 15.0198 12.9642 15.0099 12.9511 15C12.9299 14.9885 12.9086 14.9769 12.8873 14.9653C12.7612 15.4327 12.5319 15.8737 12.2405 16.2569C12.08 16.4683 11.8949 16.6599 11.6935 16.8317C11.4872 17.0084 11.2596 17.1455 11.0402 17.304C10.9616 17.3602 10.9845 17.4428 11.0434 17.489C11.1138 17.745 11.2088 17.9944 11.2956 18.2454C11.3726 18.4701 11.4266 18.7393 11.5494 18.9424C11.664 19.129 11.8753 19.1951 12.0751 19.1142V19.1092Z" fill="#D8AD9C"/>
<path d="M12.4124 19.7485C12.4059 19.547 12.2405 19.4298 12.1029 19.3092C12.0456 19.2596 11.9899 19.2068 11.931 19.1605C11.872 18.969 11.8049 18.7807 11.7345 18.594C11.5511 18.1101 11.0385 17.2992 10.4605 16.8037C10.3655 16.7228 10.2378 16.7096 10.1477 16.7129C10.0773 16.8235 9.97743 16.916 9.85953 16.9788C9.62045 17.1043 9.36336 17.1241 9.09972 17.0977C8.86555 17.0746 8.62156 16.9804 8.45126 16.8301C8.45126 16.8301 8.45126 16.8318 8.45126 16.8334C8.13194 17.1456 7.84701 17.4875 7.58337 17.8492C7.34101 18.1828 6.80227 19.6511 6.80882 20.2275C6.64343 20.3002 6.57138 20.5083 6.64506 20.6949C6.73513 20.9261 6.95619 20.9625 7.16416 20.9162C7.29189 21.1623 7.59155 21.2812 7.83718 21.1474C8.04842 21.3324 8.36119 21.3588 8.60518 21.2052C8.91631 21.3621 9.29949 21.3159 9.55167 21.0764C9.89555 21.2498 10.3033 21.1524 10.526 20.8386C10.8453 20.9377 11.1826 20.7725 11.3235 20.4736C11.5298 20.5347 11.746 20.5413 11.9228 20.3794C11.9998 20.3101 12.0505 20.2225 12.0767 20.1284C12.2634 20.1003 12.4206 19.9897 12.4124 19.7518V19.7485Z" fill="#5D5D5D"/>
<path d="M7.76032 19.2576C7.685 19.3914 7.59984 19.6854 7.60312 19.8357C7.60803 20.0967 7.66862 20.4303 7.95519 20.6021C7.98139 20.1165 7.82582 19.5797 7.98139 19.1123C7.86676 19.142 7.83237 19.1288 7.76032 19.256V19.2576Z" fill="#667891"/>
<path d="M8.33513 16.9487C8.68556 17.213 9.16372 17.3154 9.59275 17.289C9.82364 17.2758 10.0676 17.2196 10.2543 17.0743C10.3542 16.9966 10.4164 16.9041 10.4574 16.8001C10.3624 16.7208 10.2379 16.7076 10.1479 16.7109C10.0775 16.8216 9.97757 16.9141 9.85967 16.9768C9.62059 17.1023 9.3635 17.1222 9.09986 17.0957C8.86569 17.0726 8.6217 16.9785 8.4514 16.8282C8.4514 16.8282 8.4514 16.8298 8.4514 16.8315C8.4121 16.8695 8.3728 16.9091 8.3335 16.9487H8.33513Z" fill="#667891"/>
<path d="M10.6571 17.3402C10.6571 17.3402 10.6489 17.3402 10.6456 17.3402C10.6407 17.3419 10.6325 17.3435 10.6227 17.3468H10.6194C10.6162 17.3501 10.6112 17.3534 10.6047 17.3567C10.6014 17.3584 10.5981 17.36 10.5965 17.3617C10.5556 17.4112 10.5097 17.4575 10.4704 17.5087C10.4671 17.5136 10.4639 17.5169 10.4606 17.5202C10.4589 17.5235 10.4557 17.5268 10.4524 17.5318C10.4344 17.5599 10.4164 17.5863 10.3984 17.6144C10.1855 17.9381 9.95787 18.2321 9.66147 18.4848C9.33561 18.7623 8.9819 18.9671 8.55778 19.0397C8.39239 19.0678 8.22373 19.0794 8.0567 19.1025C8.05015 19.1025 8.0043 19.1107 7.98137 19.114C7.98137 19.114 7.97973 19.114 7.9781 19.114C7.89622 19.5666 7.68826 20.0059 7.84382 20.4684C7.85528 20.5031 7.86838 20.5344 7.88312 20.5642C7.88803 20.5675 7.89295 20.5691 7.89622 20.5708C7.9388 20.5939 7.98301 20.617 8.02886 20.6368C8.04851 20.6451 8.06816 20.6534 8.08781 20.6616C8.18115 20.6781 8.27121 20.7112 8.36619 20.726C8.39075 20.7293 8.41532 20.7326 8.43988 20.7343C8.47918 20.7343 8.51684 20.7376 8.55614 20.7376C8.64293 20.7376 8.72972 20.731 8.81651 20.7194C8.83452 20.7178 8.91149 20.7046 8.91967 20.7046C8.94588 20.6996 8.97208 20.693 8.99828 20.688C9.0867 20.6666 9.17185 20.6418 9.25864 20.6121C9.35198 20.5807 9.44205 20.5427 9.53211 20.5047C9.54521 20.4998 9.55831 20.4931 9.57141 20.4865C9.57632 20.4849 9.58123 20.4816 9.58451 20.4799C9.62545 20.4585 9.66639 20.4386 9.70569 20.4155C9.87108 20.3247 10.0299 20.2206 10.1789 20.105C10.2117 20.0802 10.2444 20.0538 10.2755 20.0274C10.2854 20.0191 10.3067 19.9993 10.3198 19.9878C10.3836 19.9299 10.4458 19.8688 10.5048 19.8044C10.549 19.7582 10.5916 19.7086 10.6325 19.6591C10.7488 19.4477 10.8356 19.2231 10.888 18.9902C11.0157 18.4303 10.9633 17.8621 10.7455 17.3369C10.716 17.3369 10.6849 17.3369 10.6555 17.3369L10.6571 17.3402Z" fill="#EAD1BE"/>
<path d="M14.877 24.4852C14.8999 24.462 14.9212 24.4389 14.9425 24.4158C15.103 24.2358 14.8639 23.9897 14.6674 24.0656C14.4742 24.14 14.2793 24.2093 14.0845 24.2771C14.1221 24.2044 14.1467 24.1235 14.1549 24.0343C14.1712 23.8675 13.9731 23.7452 13.8388 23.8559C13.5735 24.0723 13.264 24.2704 12.9398 24.4174C12.9169 24.4174 12.894 24.4174 12.871 24.4207C12.7679 24.4042 12.6647 24.3877 12.5616 24.3712C12.3257 24.4703 12.0637 24.5281 11.8099 24.5578C11.1156 24.6421 10.4082 24.6784 9.70898 24.6999C8.92788 24.723 8.15661 24.6685 7.37878 24.6074C6.99888 24.5776 6.58458 24.5331 6.21614 24.391C5.66757 24.8948 5.1583 25.4414 4.6654 25.9997C4.63593 26.0327 4.60809 26.0658 4.57861 26.0988C4.95852 26.3763 5.37445 26.6058 5.80348 26.7809C7.1004 27.3111 8.54306 27.3111 9.89893 27.0319C10.7144 26.8635 11.507 26.6009 12.2783 26.2871C12.4813 26.2045 12.7007 26.1219 12.9218 26.0294C13.4475 26.074 13.9764 26.0674 14.502 26.0079C14.7673 25.9782 14.8 25.6842 14.6641 25.5273C14.7034 25.5092 14.7444 25.4893 14.7837 25.4695C14.9573 25.382 14.9671 25.1326 14.8524 25.0203C14.8868 24.9906 14.9212 24.9592 14.954 24.9261C15.0801 24.799 15.0506 24.5281 14.8803 24.4852H14.877Z" fill="#EAD1BE"/>
</svg>
