<svg width="92" height="56" viewBox="0 0 92 56" fill="none" xmlns="http://www.w3.org/2000/svg">
<path d="M0.948743 27.2074C6.16965 36.3925 11.3906 45.5775 16.3415 55.0703C22.6817 51.2077 29.825 48.661 37.1922 47.6332C41.3861 47.0505 45.8894 47.0113 49.5828 49.0735C51.0378 49.8853 52.4007 51.0309 54.0664 51.1553C56.4694 51.3386 58.4182 49.3484 60.1432 47.4041C69.9398 44.039 80.4672 43.5546 90.6851 43.0308C87.7225 39.6462 83.3508 37.6822 80.5133 34.3106C82.4884 34.2975 84.4635 34.5005 86.353 34.723C84.424 31.561 81.9156 28.7524 79.0187 26.5724C79.7298 26.2581 80.5001 26.0617 81.2243 25.9504C77.7152 22.8211 74.4101 19.4626 71.3684 15.803C67.8066 11.8095 64.4818 7.60648 61.2229 3.10888C59.9654 2.88629 58.6289 3.16125 57.5426 3.86175C56.5814 2.7619 55.765 1.54421 55.021 0.234866C50.6692 2.00903 46.7387 4.78484 43.5719 8.32663C41.5836 10.9126 39.8521 13.7015 38.4629 16.6868C37.3239 19.0371 36.5931 21.5772 36.152 24.1173C31.1418 20.7196 25.2691 18.605 19.2252 17.9896C14.2479 17.9045 9.04674 18.114 4.64881 20.5625C4.89899 21.0927 5.11625 21.6427 5.3796 22.1009C4.79365 22.2188 4.27353 22.5789 3.87192 23.024C3.47032 23.4692 3.18063 23.9995 2.9107 24.5298C3.14771 25.1124 3.4769 25.6493 3.88509 26.1272C2.92387 26.4545 1.99556 26.8473 0.948743 27.2074Z" fill="white"/>
<path d="M55.7385 48.491C58.9317 45.3878 61.4137 41.3289 65.2521 39.2339C70.0911 36.6283 75.3581 34.4941 80.9806 34.3304C83.568 37.7674 87.5314 39.8951 90.606 42.9132C81.1847 43.1685 71.7963 44.4255 62.6449 46.6644C61.0582 47.0507 59.3859 47.5221 58.2799 48.7201C58.3325 48.5041 58.5498 48.3339 58.7736 48.3339C57.3055 49.8396 55.2053 50.7103 53.0985 50.6907C52.6508 50.6841 52.1965 50.6383 51.7949 50.4485C51.4064 50.2586 51.097 49.9378 50.7612 49.6628C49.8263 48.8772 48.6544 48.3797 47.5945 47.9018C42.2155 46.8216 36.5996 47.2864 31.3063 48.7267C26.0129 50.1669 21.0291 52.563 16.0122 54.9657C16.0188 53.6171 15.3144 52.3797 14.6362 51.221C10.0276 43.3387 5.41901 35.4564 1.06715 27.6658C1.69919 26.6707 2.84476 26.0161 4.01667 25.8524C6.37365 29.2698 8.26318 32.9687 10.1527 36.661C12.3846 41.0277 14.6165 45.3944 16.7957 49.7021C22.0825 46.815 27.8498 44.5564 33.8674 44.1963C35.2763 44.1112 36.6852 44.1309 38.0941 44.216C42.8871 44.4975 47.8117 45.5711 51.6369 48.4648C51.8278 48.6088 52.0253 48.7659 52.2557 48.8445C52.4993 48.9296 52.7627 48.9231 53.0195 48.9034C54.1321 48.8249 55.3633 48.8576 55.7385 48.491Z" fill="white"/>
<path d="M16.4075 55.9999C16.3416 55.9999 16.2824 55.9934 16.2165 55.9803C15.9993 55.9279 15.8215 55.7839 15.7162 55.594L6.56478 38.8409C4.59624 35.2402 2.56187 31.5151 0.145634 28.137C-0.104548 27.7835 -0.0255429 27.2925 0.329979 27.0437C0.685501 26.795 1.17928 26.8801 1.42946 27.227C3.89178 30.6837 5.95249 34.4481 7.94737 38.0946L16.6906 54.0948C22.8266 50.1602 29.4499 47.679 36.3957 46.7101C42.6108 45.8459 47.5947 46.6119 51.2157 49.0015C52.7497 50.0489 54.8697 50.1668 56.4959 49.2961C57.0555 49.0015 57.5624 48.5956 58.1023 48.17C58.4315 47.9082 58.7673 47.6397 59.1294 47.391C61.3218 45.8656 63.9948 45.224 66.332 44.7461C73.212 43.3385 80.5792 42.566 88.7891 42.4089C85.8528 40.2747 83.0152 37.9899 80.3158 35.5807C79.9932 35.2926 79.9669 34.7951 80.2566 34.4743C80.5463 34.1535 81.0466 34.1273 81.3692 34.4153C84.615 37.309 88.0781 40.039 91.6596 42.5202C91.9427 42.7166 92.0612 43.0701 91.9625 43.3975C91.8637 43.7248 91.5543 43.9474 91.2119 43.9474C82.1264 43.9932 74.0942 44.7526 66.648 46.2846C64.4688 46.7297 61.9801 47.319 60.0313 48.6807C59.7153 48.9033 59.4059 49.1455 59.0833 49.4008C58.5105 49.8525 57.9245 50.3174 57.2398 50.684C55.1067 51.8231 52.3284 51.6725 50.3335 50.3043C47.0548 48.1438 42.433 47.4564 36.613 48.2682C29.6276 49.2437 22.978 51.7969 16.842 55.8755C16.7169 55.9541 16.5655 55.9999 16.4075 55.9999Z" fill="black"/>
<path d="M0.790814 28.2942C0.60647 28.2942 0.422125 28.2287 0.270699 28.0978C-0.0584883 27.8097 -0.091407 27.3187 0.198278 26.9914C0.50113 26.6509 0.665723 26.5134 1.12 26.317C1.76521 26.0421 2.42358 25.7868 3.08854 25.5642C3.50332 25.4267 3.95101 25.6493 4.08927 26.0617C4.22753 26.4742 4.00368 26.9193 3.5889 27.0568C2.97003 27.2598 2.35116 27.4955 1.74546 27.7573C1.54136 27.8424 1.54136 27.8424 1.38335 28.0257C1.22534 28.2025 1.00808 28.2942 0.790814 28.2942Z" fill="black"/>
<path d="M54.1453 48.7071C54.0663 48.7071 53.9939 48.6612 53.961 48.5827C52.8154 45.8069 52.8747 42.3829 54.1388 38.9393C55.6333 34.8673 58.5104 31.0964 62.4672 28.0325C65.6603 25.5578 69.5776 23.5152 74.4298 21.7738C72.4745 20.0193 59.5111 8.27446 54.9485 0.431479C45.6062 4.01254 38.2061 13.5511 36.5207 24.2223C36.5075 24.2878 36.468 24.3467 36.4087 24.3729C36.3495 24.3991 36.2771 24.3925 36.2244 24.3598C31.1615 21.1322 25.8879 19.1289 20.5617 18.3957C14.9589 17.6297 9.40223 18.4677 4.89236 20.7525C5.59024 22.2321 6.28153 23.7051 6.97941 25.1781C10.0738 31.7379 13.28 38.5204 16.2032 45.27C23.6165 41.4075 32.7943 40.576 43.4731 42.8085C48.2331 43.8036 51.5118 45.6301 53.5067 48.4059C53.5725 48.491 53.5462 48.6154 53.4606 48.6809C53.375 48.7463 53.2499 48.7202 53.1841 48.6351C51.2551 45.9443 48.0488 44.1702 43.3941 43.1947C32.7153 40.9623 23.5639 41.8134 16.1966 45.7152C16.1506 45.7414 16.0913 45.7479 16.0386 45.7283C15.986 45.7087 15.9465 45.6694 15.9201 45.6236C12.9772 38.8215 9.74458 31.9736 6.6173 25.3483C5.89309 23.8229 5.17546 22.291 4.45125 20.7525C4.40517 20.6543 4.44467 20.543 4.53684 20.4972C9.14546 18.1076 14.8536 17.2238 20.6143 18.0094C25.9142 18.7361 31.1483 20.7067 36.1849 23.8688C37.9888 13.119 45.5075 3.56082 54.9683 0.0124878C55.0605 -0.0202459 55.1592 0.0124878 55.2119 0.0975953C60.0049 8.4905 74.7919 21.5774 74.9434 21.7084C74.996 21.7542 75.0224 21.8262 75.0092 21.8917C74.996 21.9571 74.95 22.016 74.8841 22.0357C69.9266 23.7837 65.95 25.8459 62.7174 28.3467C58.8198 31.3582 55.9888 35.0702 54.5206 39.0768C53.296 42.4288 53.2302 45.7545 54.3363 48.4387C54.3758 48.5369 54.3297 48.6547 54.2309 48.694C54.198 48.7005 54.1717 48.7071 54.1453 48.7071Z" fill="black"/>
<path d="M54.9289 48.7266H54.9224C54.817 48.72 54.7314 48.6284 54.7314 48.5236C54.7314 48.4516 55.0935 41.2502 61.2098 35.1683C64.3108 32.0848 68.3005 29.6625 73.0737 27.9603C75.7072 27.0242 78.4395 26.376 80.836 25.8392C73.6399 19.083 67.0496 11.4953 61.2362 3.29226C60.0116 3.13514 58.7541 3.38391 57.6875 3.9993C57.5888 4.05168 57.4703 4.01894 57.4176 3.92729C57.3649 3.83564 57.3978 3.71125 57.49 3.65887C58.6619 2.98456 60.0445 2.72269 61.381 2.91909C61.4337 2.92564 61.4798 2.95837 61.5127 2.99765C67.392 11.312 74.081 18.9913 81.3824 25.813C81.4351 25.8654 81.4548 25.9374 81.4351 26.0094C81.4153 26.0814 81.3561 26.1338 81.2902 26.1469C78.8213 26.6903 75.9574 27.358 73.212 28.3335C68.4914 30.016 64.5478 32.4056 61.4929 35.4498C55.4951 41.4139 55.133 48.4712 55.133 48.5433C55.1199 48.6415 55.0343 48.7266 54.9289 48.7266Z" fill="black"/>
<path d="M55.8769 48.7069C55.8374 48.7069 55.7913 48.6938 55.7584 48.6676C55.6728 48.6022 55.6596 48.4778 55.7255 48.3927C55.8769 48.1963 59.5177 43.5808 61.3546 41.9507C66.8981 37.0341 76.9514 32.7132 86.1226 34.6445C84.187 31.5414 81.8168 28.9489 78.9002 26.7295C78.8146 26.6641 78.7949 26.5397 78.8607 26.4546C78.9266 26.3695 79.0517 26.3498 79.1373 26.4153C82.2184 28.759 84.6939 31.5086 86.6954 34.8278C86.7349 34.8933 86.7349 34.9784 86.6822 35.0439C86.6361 35.1093 86.5571 35.1355 86.4781 35.1159C77.3267 32.9686 67.1746 37.3025 61.6113 42.2322C59.8008 43.8361 56.0678 48.576 56.0283 48.6283C55.9888 48.6807 55.9362 48.7069 55.8769 48.7069Z" fill="black"/>
<path d="M53.8295 48.7201C53.7636 48.7201 53.6978 48.6874 53.6583 48.6219C51.7161 45.2438 49.3459 42.0555 47.0548 38.9786L36.0797 24.1895C36.0139 24.1044 36.0336 23.98 36.1192 23.9145C36.2048 23.8491 36.3299 23.8687 36.3957 23.9538L47.3774 38.7363C49.6751 41.8264 52.0453 45.0212 54.0006 48.4189C54.0533 48.5106 54.0204 48.635 53.9282 48.6874C53.9019 48.707 53.869 48.7201 53.8295 48.7201Z" fill="black"/>
<path d="M50.4848 35.4563C50.465 35.4563 50.4453 35.4563 50.4189 35.4432C50.3136 35.4105 50.2609 35.2992 50.2938 35.1944C52.6179 28.3924 58.0297 22.808 64.7781 20.2482C64.8768 20.209 64.9953 20.2613 65.0348 20.3595C65.0743 20.4577 65.0217 20.5756 64.9229 20.6149C58.2865 23.1288 52.9537 28.6281 50.6691 35.3188C50.6428 35.4039 50.5638 35.4563 50.4848 35.4563Z" fill="black"/>
<path d="M47.7064 31.4563C47.6801 31.4563 47.6537 31.4498 47.6274 31.4432C47.5286 31.3974 47.4826 31.2861 47.5221 31.1879C47.6866 30.8147 47.8447 30.4416 47.9961 30.0749C49.6947 26.088 51.1694 22.6379 54.8103 20.0388C54.8958 19.9733 55.0209 19.993 55.0868 20.0846C55.1526 20.1697 55.1329 20.2941 55.0407 20.3596C51.4855 22.8932 50.037 26.2975 48.3582 30.2321C48.2002 30.5987 48.0422 30.9719 47.8842 31.345C47.8512 31.4105 47.7788 31.4563 47.7064 31.4563Z" fill="black"/>
<path d="M57.8586 18.088C57.7993 18.088 57.7401 18.0618 57.7006 18.0094C57.6348 17.9243 57.6479 17.7999 57.7335 17.7345C58.8001 16.9161 59.8798 16.412 60.7489 16.0061L60.8081 15.98C60.9069 15.9341 61.0254 15.9734 61.0715 16.0716C61.1176 16.1698 61.0781 16.2877 60.9793 16.3335L60.92 16.3597C60.0642 16.759 59.0042 17.2566 57.9771 18.0487C57.9376 18.0749 57.8981 18.088 57.8586 18.088Z" fill="black"/>
<path d="M44.0656 27.8752C44.0458 27.8752 44.0195 27.8686 43.9997 27.8621C43.901 27.8228 43.8483 27.7115 43.8812 27.6133C46.7451 19.9405 50.9719 15.2858 57.5952 12.5362C57.6939 12.4969 57.8124 12.5427 57.8519 12.6409C57.8914 12.7391 57.8453 12.857 57.7466 12.8962C51.2353 15.6066 47.0743 20.1827 44.2499 27.7508C44.217 27.8293 44.1446 27.8752 44.0656 27.8752Z" fill="black"/>
<path d="M40.8659 25.034C40.8461 25.034 40.8263 25.034 40.8132 25.0275C40.7078 24.9947 40.6486 24.89 40.6815 24.7852C40.8132 24.3335 40.9383 23.8818 41.0568 23.4432C41.6822 21.1518 42.2748 18.9914 43.9207 17.1321C43.9931 17.0536 44.1182 17.0405 44.1972 17.1125C44.2762 17.1845 44.2894 17.3089 44.217 17.3874C42.6303 19.1812 42.0509 21.2958 41.4386 23.5414C41.3201 23.9865 41.195 24.4383 41.0634 24.89C41.0304 24.9751 40.9514 25.034 40.8659 25.034Z" fill="black"/>
<path d="M46.0013 15.2007C45.9552 15.2007 45.9157 15.1876 45.8762 15.1549C45.7906 15.0894 45.7774 14.965 45.8499 14.8799C46.765 13.7604 47.9106 12.3594 49.3063 11.5542C49.3985 11.5018 49.5236 11.528 49.5763 11.6262C49.6289 11.7178 49.596 11.8422 49.5038 11.8946C48.1673 12.6671 47.0547 14.0354 46.1527 15.1287C46.1132 15.1745 46.0605 15.2007 46.0013 15.2007Z" fill="black"/>
<path d="M51.1827 10.7097C51.13 10.7097 51.0773 10.6901 51.0378 10.6508C50.9654 10.5722 50.9654 10.4478 51.0444 10.3758C51.7094 9.74734 53.013 8.83734 53.8952 8.49037C53.9939 8.45109 54.1124 8.49691 54.1519 8.60166C54.1914 8.69986 54.1454 8.8177 54.04 8.85698C53.2105 9.18432 51.9398 10.0747 51.3143 10.6639C51.2814 10.6966 51.2353 10.7097 51.1827 10.7097Z" fill="black"/>
<path d="M52.9668 49.0605C51.7686 49.0605 50.6493 48.8903 49.6091 48.5499C49.5038 48.5171 49.4511 48.4058 49.484 48.3011C49.5169 48.1963 49.6289 48.144 49.7342 48.1767C51.5052 48.7593 53.533 48.8248 55.7649 48.3731C57.8585 47.9476 59.8666 47.1292 61.5849 46.3894C61.6837 46.3436 61.8022 46.3894 61.8417 46.4942C61.8878 46.5924 61.8417 46.7102 61.7364 46.7495C59.9983 47.4958 57.9639 48.3273 55.8373 48.7594C54.8432 48.9623 53.882 49.0605 52.9668 49.0605Z" fill="black"/>
<path d="M17.0263 49.977C17.0131 49.977 16.9934 49.977 16.9802 49.9704C16.9275 49.9573 16.8814 49.9246 16.8551 49.8788C15.1763 46.9458 13.6357 43.8689 12.1477 40.8967C9.40232 35.4039 6.55814 29.7279 2.73299 24.7131C2.6869 24.6542 2.68032 24.5757 2.71324 24.5102C3.24652 23.4169 4.13532 22.5069 5.20847 21.9373C5.30723 21.8849 5.42574 21.9242 5.47841 22.0159C5.53108 22.1141 5.49158 22.2319 5.3994 22.2777C4.43159 22.7884 3.62838 23.6002 3.12801 24.5691C6.94 29.5904 9.77101 35.2468 12.5098 40.7199C13.9648 43.6332 15.4725 46.6381 17.1053 49.5056C24.6305 44.8247 33.7687 42.972 42.2091 44.4253C46.3437 45.1389 49.6685 46.553 52.0847 48.6218C52.1703 48.6938 52.1769 48.8182 52.1045 48.8968C52.032 48.9819 51.9069 48.9884 51.8279 48.9164C49.4644 46.8869 46.2054 45.5056 42.1433 44.8051C33.7292 43.3582 24.6173 45.2306 17.1382 49.9377C17.0987 49.9639 17.0658 49.977 17.0263 49.977Z" fill="black"/>
<path d="M18.9092 38.6119C18.8368 38.6119 18.771 38.5726 18.7381 38.5137C18.6854 38.422 18.7183 38.2976 18.8171 38.2452C22.0563 36.4645 26.0263 35.5742 30.2859 35.6658C33.8082 35.7444 37.6005 36.4776 41.8799 37.9048C41.9852 37.9375 42.0379 38.0488 42.005 38.1536C41.9721 38.2583 41.8601 38.3107 41.7548 38.278C37.5083 36.8639 33.7556 36.1372 30.2728 36.0586C26.0723 35.9604 22.1814 36.8377 18.9948 38.5857C18.9685 38.6053 18.9356 38.6119 18.9092 38.6119Z" fill="black"/>
<path d="M37.5082 33.008C37.4819 33.008 37.4621 33.0014 37.4358 32.9949C35.3158 32.17 33.0839 31.6921 30.806 31.5742C30.7006 31.5677 30.615 31.476 30.6216 31.3647C30.6282 31.26 30.7072 31.1749 30.8323 31.1814C33.1498 31.3058 35.4212 31.7968 37.5806 32.6283C37.6794 32.6675 37.732 32.7788 37.6925 32.8836C37.6596 32.9621 37.5872 33.008 37.5082 33.008Z" fill="black"/>
<path d="M17 34.0162C16.9407 34.0162 16.8815 33.99 16.842 33.9377C16.7761 33.8525 16.7959 33.7282 16.8881 33.6627C19.6006 31.7118 23.1492 31.2731 26.2699 31.0113C26.3686 30.9982 26.474 31.0833 26.4806 31.188C26.4871 31.2928 26.4081 31.391 26.3028 31.3975C23.2414 31.6528 19.752 32.0784 17.1251 33.9704C17.0856 34.0097 17.0461 34.0162 17 34.0162Z" fill="black"/>
<path d="M14.1161 29.1323C14.0437 29.1323 13.9779 29.093 13.9384 29.0275C13.8857 28.9293 13.9252 28.8115 14.024 28.7657C20.9896 25.1388 30.457 25.6167 34.9208 28.3401C35.0129 28.3991 35.0459 28.5169 34.9866 28.6085C34.9273 28.7002 34.8088 28.7264 34.7167 28.674C30.3385 26.0095 21.0554 25.5512 14.2083 29.1126C14.182 29.1192 14.1491 29.1323 14.1161 29.1323Z" fill="black"/>
<path d="M32.7285 25.0339C32.7022 25.0339 32.6692 25.0274 32.6429 25.0143L32.3335 24.8703C30.7468 24.1305 29.3708 23.4889 27.659 23.0372C27.5537 23.011 27.4944 22.8997 27.5207 22.7949C27.5471 22.6902 27.659 22.6247 27.7643 22.6575C29.509 23.1223 30.8982 23.7639 32.4981 24.5167L32.8075 24.6608C32.9063 24.7066 32.9458 24.8244 32.8997 24.9226C32.8733 24.9946 32.8075 25.0339 32.7285 25.0339Z" fill="black"/>
<path d="M11.4893 24.5037C11.4169 24.5037 11.3445 24.4644 11.3115 24.3924C11.2655 24.2942 11.305 24.1763 11.4037 24.1305C15.4988 22.1141 20.2786 22.173 24.4988 22.2254C24.6041 22.2254 24.6963 22.3171 24.6963 22.4218C24.6963 22.5266 24.6041 22.6182 24.4988 22.6182C20.3247 22.5658 15.5976 22.5069 11.5881 24.4775C11.5486 24.4971 11.5156 24.5037 11.4893 24.5037Z" fill="black"/>
<path d="M33.5976 13.7999C33.4988 13.7999 33.4198 13.7278 33.4001 13.6296C33.0511 11.2466 33.4396 8.74578 34.4996 6.57881C34.5456 6.48061 34.6641 6.44133 34.7629 6.48715C34.8617 6.53298 34.9012 6.65082 34.8551 6.74902C33.8346 8.84398 33.4593 11.2663 33.7951 13.5707C33.8083 13.6755 33.7358 13.7802 33.6305 13.7933C33.6173 13.7999 33.6107 13.7999 33.5976 13.7999Z" fill="black"/>
<path d="M30.9378 13.0207C30.8522 13.0207 30.7732 12.9684 30.7469 12.8832C30.3189 11.4299 29.8186 9.96995 29.2721 8.54931C29.2326 8.45111 29.2853 8.33327 29.384 8.29399C29.4894 8.25471 29.6013 8.30708 29.6408 8.40528C30.1938 9.83247 30.6942 11.2989 31.1287 12.7654C31.1617 12.8702 31.1024 12.9749 30.9971 13.0076C30.9707 13.0142 30.9576 13.0207 30.9378 13.0207Z" fill="black"/>
<path d="M27.0334 13.9504C26.9873 13.9504 26.9478 13.9373 26.9083 13.9046C25.269 12.5887 23.2017 11.8423 21.1015 11.7965C20.9895 11.7965 20.904 11.7049 20.9105 11.5936C20.9105 11.4823 20.9961 11.4037 21.1146 11.4037C23.307 11.4495 25.4533 12.2286 27.1651 13.5969C27.2507 13.6623 27.2639 13.7867 27.198 13.8718C27.1519 13.9308 27.0927 13.9504 27.0334 13.9504Z" fill="black"/>
</svg>
