<svg width="26" height="30" viewBox="0 0 26 30" fill="none" xmlns="http://www.w3.org/2000/svg">
<g opacity="0.34" clip-path="url(#clip0_278_1157)">
<path fill-rule="evenodd" clip-rule="evenodd" d="M9.71362 13.4624H16.3157V14.6274C15.4738 15.5875 14.4339 16.827 13.0209 17.2036C11.6247 16.7608 10.591 15.5792 9.71362 14.6274V13.4624Z" fill="#FED7B0"/>
<path fill-rule="evenodd" clip-rule="evenodd" d="M9.71362 13.4624H16.3157C14.1213 16.9884 11.8018 16.916 9.71362 13.4624Z" fill="#FCAE7D"/>
<path fill-rule="evenodd" clip-rule="evenodd" d="M9.98036 4.87739C14.3859 2.03631 17.2389 2.11908 17.737 6.9156C18.0684 7.7164 17.7766 8.83794 17.6891 9.77324C16.2282 17.2453 10.1596 18.0027 8.46738 10.0878C8.29232 9.09452 8.20479 8.06611 8.22772 7.07287C8.74663 6.32173 9.46353 5.63474 9.98036 4.87739Z" fill="#FED7B0"/>
<path d="M10.0408 8.37846C10.766 8.20464 11.8538 8.29362 12.1539 8.51089C12.2665 8.60401 12.3478 8.72402 12.3603 8.88956H12.4082C12.3873 9.48137 12.1581 9.78555 11.9351 10.1042C11.4621 10.6919 9.96782 10.4498 9.58645 10.0442C9.08421 9.32824 9.14881 8.62884 10.0408 8.38053V8.37846Z" stroke="#85451F" stroke-width="0.48" stroke-miterlimit="10"/>
<path d="M16.1615 8.37854C15.4238 8.20472 14.3151 8.28956 14.0109 8.51097C13.8942 8.60409 13.8129 8.7241 13.8004 8.88964H13.7524C13.7733 9.48145 14.0067 9.78563 14.2338 10.1043C14.7153 10.692 16.2345 10.4499 16.6221 10.0443C17.1369 9.32832 17.0681 8.62892 16.1615 8.38061V8.37854Z" stroke="#85451F" stroke-width="0.48" stroke-miterlimit="10"/>
<path fill-rule="evenodd" clip-rule="evenodd" d="M8.48179 8.57918C8.95903 8.33501 9.51337 8.2212 10.0761 8.13222C10.9305 7.99979 11.7391 8.03911 12.481 8.3495C12.6227 8.41778 12.6665 8.82335 12.4602 8.87922C12.4351 8.8875 12.3914 8.8875 12.358 8.8875C12.3101 8.48607 11.9704 8.38467 11.5765 8.33294C10.868 8.23569 10.1031 8.26052 9.64467 8.54607C9.36124 8.73852 9.24037 8.99717 9.2758 9.31377H8.89026C8.81315 9.27031 8.75688 8.98889 8.7152 8.95579C8.64226 8.90406 8.54848 8.89992 8.46095 8.89164L8.26714 8.86267L8.25464 8.56056L8.47763 8.57711L8.48179 8.57918Z" fill="#85451F"/>
<path fill-rule="evenodd" clip-rule="evenodd" d="M17.7974 8.59148C17.3077 8.34524 16.6846 8.22109 16.1094 8.13418C15.2424 8.00175 14.4214 8.04106 13.6649 8.35145C13.519 8.41973 13.4752 8.82531 13.6857 8.88118C13.7149 8.88945 13.7586 8.88945 13.792 8.88945C13.8357 8.48802 14.1838 8.38663 14.5902 8.33489C15.3071 8.23764 16.0844 8.26247 16.5491 8.54803C16.8409 8.74047 16.9617 8.99912 16.9263 9.31572H17.3139C17.3952 9.27227 17.4515 8.99085 17.4911 8.95774C17.5682 8.90601 17.6682 8.90187 17.762 8.89359C17.7828 8.80048 17.8016 8.69701 17.7995 8.59148H17.7974Z" fill="#85451F"/>
<path fill-rule="evenodd" clip-rule="evenodd" d="M12.5999 8.56687C12.9083 8.48617 13.2188 8.48617 13.5439 8.56687V8.68689C13.248 8.59791 12.9333 8.60619 12.5999 8.68275V8.56687Z" fill="#85451F"/>
<path fill-rule="evenodd" clip-rule="evenodd" d="M17.887 8.0495L18.3476 8.02881L18.2351 9.99046C18.4789 11.5941 17.3598 11.112 17.4869 10.6692L17.887 8.04743V8.0495Z" fill="#EECBA8"/>
<path fill-rule="evenodd" clip-rule="evenodd" d="M8.11718 8.04932L7.62744 8.05345L7.86293 10.0027C7.69205 11.6188 8.79031 11.0849 8.64027 10.6504L8.11718 8.04932Z" fill="#EECBA8"/>
<path fill-rule="evenodd" clip-rule="evenodd" d="M9.71356 13.9941C10.3929 15.3247 11.4537 16.3821 12.9042 17.2015C11.1098 17.4953 9.91988 18.2589 9.41138 19.6018C8.97791 17.7333 8.97374 15.8627 9.71564 13.9941H9.71356Z" fill="#F3F3F3"/>
<path fill-rule="evenodd" clip-rule="evenodd" d="M16.3156 13.9985C15.6362 15.3291 14.5713 16.3782 13.1208 17.1976C14.9152 17.4914 16.1135 18.2591 16.6261 19.6021C17.0596 17.7335 17.0513 15.8671 16.3135 13.9985H16.3156Z" fill="#F3F3F3"/>
<path fill-rule="evenodd" clip-rule="evenodd" d="M11.1952 17.696C12.604 16.8435 13.5585 16.9159 14.8151 17.6919C14.5713 18.2547 14.2399 18.7369 13.9002 19.2149C14.4191 20.9924 14.7026 22.8485 14.7818 24.7708L13.9565 29.9605C13.5605 29.9853 13.1625 29.9998 12.7624 29.9998C12.5123 29.9998 12.2601 29.9915 12.01 29.9832L11.1931 24.7853C11.2327 22.8754 11.5328 21.0151 12.1247 19.2149C11.7808 18.741 11.464 18.2423 11.1973 17.696H11.1952Z" fill="#85451F"/>
<path fill-rule="evenodd" clip-rule="evenodd" d="M10.1741 18.4123C10.4783 18.1226 10.8139 17.8784 11.1952 17.6963C11.4411 18.2157 11.7662 18.7164 12.1226 19.2151C11.5516 21.0733 11.1702 22.9211 11.1911 24.7545C10.7951 22.6853 10.4429 20.5663 10.1741 18.4123Z" fill="#F3F3F3"/>
<path fill-rule="evenodd" clip-rule="evenodd" d="M15.8051 18.3586C15.5009 18.0647 15.1654 17.8723 14.809 17.6943C14.5589 18.2137 14.2338 18.7145 13.8774 19.2132C14.4485 21.0714 14.7277 22.9357 14.7798 24.7691C15.1716 22.6999 15.5363 20.5085 15.8031 18.3586H15.8051Z" fill="#F3F3F3"/>
<path fill-rule="evenodd" clip-rule="evenodd" d="M16.4324 14.3066C15.6113 19.5398 14.7151 24.7295 13.894 29.9605C14.3754 29.9316 14.8527 29.8798 15.3195 29.8115C17.3118 24.9467 19.375 19.1549 16.4324 14.3066Z" fill="#333333"/>
<path fill-rule="evenodd" clip-rule="evenodd" d="M0.721152 18.1183C3.46995 17.214 6.3167 16.3056 9.06549 15.4014C7.17947 19.3205 8.46738 24.4047 10.7369 29.853C6.498 29.3523 2.73013 27.3947 8.72477e-05 24.4212C-0.0165848 22.4037 0.331443 20.2372 0.721152 18.1183Z" fill="#272727"/>
<path fill-rule="evenodd" clip-rule="evenodd" d="M25.2791 18.1452C22.5344 17.2409 19.721 16.3366 16.9764 15.4365C18.8541 19.3391 17.5391 24.4005 15.2842 29.8157C18.7895 29.3088 21.9551 27.7527 24.4496 25.4827L25.2791 18.1472V18.1452Z" fill="#616163"/>
<path fill-rule="evenodd" clip-rule="evenodd" d="M26.0001 23.8748C25.9605 22.0146 25.6396 20.0839 25.2791 18.1471C22.5344 17.2429 19.721 16.3386 16.9764 15.4385C18.5707 19.2169 17.5266 24.3942 15.2842 29.8177C19.5668 29.199 23.3409 27.0159 26.0001 23.8769V23.8748Z" fill="#272727"/>
<path fill-rule="evenodd" clip-rule="evenodd" d="M9.60713 14.2676C10.4282 19.5049 11.191 24.7421 12.0079 29.9856C11.5348 29.9649 11.068 29.9256 10.6033 29.8697C8.61098 24.9946 6.65202 19.1324 9.60713 14.2696V14.2676Z" fill="#333333"/>
<path fill-rule="evenodd" clip-rule="evenodd" d="M18.381 25.1416L22.9887 25.1892L22.972 26.6894C21.5674 27.7095 20.0044 28.5269 18.3206 29.0939L18.381 25.1416Z" fill="#272727"/>
<path fill-rule="evenodd" clip-rule="evenodd" d="M18.3809 25.1416L22.9865 25.1892L22.9824 25.7106L18.3726 25.6631L18.3809 25.1416Z" fill="#333333"/>
<path fill-rule="evenodd" clip-rule="evenodd" d="M8.62371 10.8512C8.62371 10.8512 6.95651 7.16168 7.57963 3.96882C7.57963 3.96882 7.95683 0.817354 11.3808 0.237964C11.3808 0.237964 14.8465 -0.713892 16.0573 1.18982C16.0573 1.18982 19.15 1.35536 19.1062 4.04745C19.1062 4.04745 18.9812 8.4053 17.439 10.8491C17.439 10.8491 18.108 7.4493 17.0618 6.66092C17.0618 6.66092 17.5641 4.71582 16.3095 4.63098C16.3095 4.63098 14.634 5.92633 12.7271 6.23051C12.7271 6.23051 14.015 5.59112 14.5277 4.54614C14.5277 4.54201 11.8518 6.4871 9.53234 6.89681C9.53234 6.89681 10.3576 6.12912 10.7661 4.87515C10.7661 4.87515 9.53234 6.53883 8.75709 7.10167L8.62371 10.8491V10.8512Z" fill="#1F120E"/>
</g>
<defs>
<clipPath id="clip0_278_1157">
<rect width="26" height="30" fill="white"/>
</clipPath>
</defs>
</svg>
