<svg width="38" height="27" viewBox="0 0 38 27" fill="none" xmlns="http://www.w3.org/2000/svg">
<g clip-path="url(#clip0_402_908)">
<path d="M4.92538 4.97666L0 0V27L4.92538 17.4208V4.97666Z" fill="#A1A0A0"/>
<path d="M22.4395 4.97666L4.92538 17.4208L0 27L38 0L22.4395 4.97666Z" fill="#EAD50A"/>
<path d="M22.4395 4.97666L38 0H0L4.92538 4.97666H22.4395Z" fill="#A1A0A0"/>
<path d="M1.80262 0H1.42749V2.26928H1.80262V0Z" fill="#3D3D3C"/>
<path d="M3.4784 0H3.10327V1.48168H3.4784V0Z" fill="#3D3D3C"/>
<path d="M5.20301 0H4.82788V2.26928H5.20301V0Z" fill="#3D3D3C"/>
<path d="M6.87903 0H6.50391V1.48168H6.87903V0Z" fill="#3D3D3C"/>
<path d="M8.60364 0H8.22852V2.26928H8.60364V0Z" fill="#3D3D3C"/>
<path d="M10.2794 0H9.9043V1.48168H10.2794V0Z" fill="#3D3D3C"/>
<path d="M12.0089 0H11.6338V2.26928H12.0089V0Z" fill="#3D3D3C"/>
<path d="M13.6849 0H13.3098V1.48168H13.6849V0Z" fill="#3D3D3C"/>
<path d="M15.4096 0H15.0344V2.26928H15.4096V0Z" fill="#3D3D3C"/>
<path d="M17.0853 0H16.7102V1.48168H17.0853V0Z" fill="#3D3D3C"/>
<path d="M18.8099 0H18.4348V2.26928H18.8099V0Z" fill="#3D3D3C"/>
<path d="M20.486 0H20.1108V1.48168H20.486V0Z" fill="#3D3D3C"/>
<path d="M22.2106 0H21.8354V2.26928H22.2106V0Z" fill="#3D3D3C"/>
<path d="M23.8864 0H23.5112V1.48168H23.8864V0Z" fill="#3D3D3C"/>
<path d="M25.6159 0H25.2407V2.26928H25.6159V0Z" fill="#3D3D3C"/>
<path d="M27.2919 0H26.9167V1.48168H27.2919V0Z" fill="#3D3D3C"/>
<path d="M29.0165 0H28.6414V2.26928H29.0165V0Z" fill="#3D3D3C"/>
<path d="M30.6923 0H30.3171V1.48168H30.6923V0Z" fill="#3D3D3C"/>
<path d="M32.4169 0H32.0417V2.26928H32.4169V0Z" fill="#3D3D3C"/>
</g>
<defs>
<clipPath id="clip0_402_908">
<rect width="38" height="27" fill="white"/>
</clipPath>
</defs>
</svg>
