<svg width="59" height="83" viewBox="0 0 59 83" fill="none" xmlns="http://www.w3.org/2000/svg">
<path d="M51.5446 19.9742C52.4284 20.029 53.2435 20.2738 53.9899 20.7083C54.7364 21.145 55.412 21.6598 56.0212 22.2568C56.7398 22.9636 57.2224 23.7652 57.4712 24.6618C57.72 25.5584 57.8166 26.4972 57.7608 27.474C57.705 28.5626 57.6771 29.649 57.6771 30.7355C57.6771 31.822 57.6492 32.9106 57.5935 33.997V41.7838C57.5935 44.366 57.5377 46.9608 57.4283 49.5705C57.4283 50.8215 57.4133 52.0578 57.3876 53.2814C57.3597 54.505 57.1516 55.7412 56.7655 56.9922C55.8818 59.874 54.5948 62.5237 52.911 64.9414C51.225 67.3612 49.1937 69.5489 46.8171 71.5045C45.7103 72.4286 44.5499 73.2851 43.3358 74.072C42.1196 74.861 40.8755 75.5804 39.6057 76.2323C39.329 76.342 39.0952 76.4095 38.9 76.4369C38.7048 76.4643 38.4989 76.3968 38.278 76.2323C38.1128 76.1247 37.9455 76.0825 37.7803 76.1099C37.6152 76.1373 37.4479 76.2323 37.2827 76.3947C36.0107 77.6457 34.6723 78.7997 33.2609 79.8609C31.8516 80.9199 30.3716 81.9114 28.8251 82.8376C28.6041 82.9452 28.4111 83 28.2438 83C28.0765 83 27.8834 82.9452 27.6625 82.8376C25.5068 81.5338 23.5313 80.0929 21.7338 78.517C19.9363 76.9411 18.3211 75.2281 16.884 73.38C15.4468 71.532 14.2306 69.5468 13.2354 67.4287C12.2401 65.3106 11.4379 63.0258 10.8309 60.5786C10.6657 59.8171 10.5413 59.0428 10.4576 58.2559C10.374 57.469 10.3332 56.6652 10.3332 55.8509C10.2775 54.6547 10.2624 53.4459 10.2925 52.2223C10.3204 50.9987 10.3332 49.7625 10.3332 48.5114C10.3868 46.5537 10.4169 44.598 10.4169 42.6403C10.4169 40.6825 10.4448 38.7269 10.5005 36.7691C10.5005 34.9211 10.5134 33.1004 10.5413 31.3051C10.5692 29.5119 10.6099 27.7166 10.6657 25.9234V24.6196C10.7193 24.4023 10.6786 24.2526 10.5413 24.1703C10.4019 24.088 10.1959 24.0479 9.91924 24.0479C9.25645 24.1028 8.60652 24.1302 7.9716 24.1302C7.33669 24.1302 6.71465 24.1028 6.10548 24.0479C5.66147 23.9952 5.37189 24.0205 5.23462 24.1302C5.09519 24.2399 5.02655 24.4572 5.02655 24.7821C5.08018 26.6301 5.09519 28.4803 5.06731 30.3262C5.03942 32.1743 5.02655 34.0245 5.02655 35.8704V42.923C5.02655 45.2879 4.97078 47.6402 4.86139 49.9755C4.80562 51.9881 5.05444 53.9037 5.60784 55.7243C6.1591 57.5471 6.90555 59.3529 7.8472 61.1461C8.34483 62.125 8.92397 63.0617 9.58892 63.9583C10.2517 64.8549 10.9703 65.7114 11.7446 66.5279C11.7982 66.5827 11.869 66.665 11.9527 66.7726C12.0363 66.8823 12.105 66.9899 12.1607 67.0996C12.8793 68.7303 13.7352 70.2788 14.7304 71.7471C15.7257 73.2155 16.8025 74.6015 17.9629 75.9053C18.0165 75.9601 18.0723 76.0276 18.1281 76.1099C18.1817 76.1922 18.2653 76.2871 18.3769 76.3947C18.2117 76.342 18.0723 76.2998 17.9629 76.2723C17.8514 76.2449 17.7677 76.2048 17.7141 76.15C14.6189 74.5741 11.8283 72.6986 9.3401 70.5235C6.85193 68.3506 4.77988 65.7684 3.12181 62.7769C2.29171 61.3634 1.61604 59.8951 1.09052 58.3741C0.565004 56.853 0.219662 55.3045 0.0544993 53.7265C0.000874907 53.1295 -0.0141399 52.5303 0.0137448 51.9333C0.0416294 51.3363 0.0544993 50.7392 0.0544993 50.1401C0.0544993 46.4988 0.0673692 42.8428 0.0952538 39.172C0.123139 35.5033 0.136008 31.8473 0.136008 28.206C0.136008 27.6639 0.148878 27.1196 0.176763 26.5753C0.204648 26.0331 0.245402 25.4888 0.301172 24.9445C0.354796 24.1829 0.590743 23.5057 1.00687 22.9066C1.42085 22.3096 1.90561 21.7653 2.45687 21.2758C3.11967 20.6788 3.82537 20.2295 4.57182 19.9299C5.31827 19.6324 6.1591 19.5101 7.10075 19.5628C8.37057 19.6177 9.65756 19.6451 10.9553 19.6451H14.8098C15.0865 19.6451 15.2924 19.6999 15.4318 19.8075C15.5691 19.9172 15.6399 20.1345 15.6399 20.4594C15.5841 23.0163 15.5434 25.5837 15.5155 28.166C15.4876 30.7482 15.4747 33.343 15.4747 35.9527C15.419 38.0729 15.3782 40.2205 15.3503 42.3935C15.3224 44.5685 15.3096 46.714 15.3096 48.8342C15.3096 49.6507 15.2946 50.465 15.2688 51.2793C15.2409 52.0957 15.198 52.9101 15.1444 53.7265C15.0886 55.5746 15.2538 57.3551 15.642 59.0681C16.0281 60.7812 16.5815 62.4794 17.3001 64.1651C17.6862 65.0342 18.1152 65.8907 18.5849 66.7325C19.0547 67.5764 19.5094 68.4033 19.9534 69.2198C20.0071 69.3295 20.0628 69.4118 20.1186 69.4645C20.1722 69.5193 20.228 69.6016 20.2838 69.7092V69.7915C20.3932 69.9539 20.5176 70.1058 20.657 70.2408C20.7943 70.378 20.9187 70.5256 21.0302 70.6881C21.1396 70.8505 21.279 71.0151 21.4442 71.1775C21.6094 71.34 21.7466 71.532 21.8582 71.7492C22.1349 72.0214 22.3837 72.3062 22.6046 72.6058C22.8256 72.9053 23.0744 73.1648 23.3511 73.38V73.4623C23.4605 73.572 23.5591 73.6796 23.6407 73.7893C23.7243 73.899 23.8487 74.0066 24.0139 74.1163C24.6209 74.6606 25.258 75.1774 25.9208 75.6648C26.5836 76.1542 27.2185 76.6711 27.8276 77.2132C28.0486 77.3757 28.2416 77.458 28.4089 77.458C28.5762 77.458 28.7671 77.3757 28.9902 77.2132C31.6972 75.4749 33.9773 73.4222 35.8306 71.0573C37.6817 68.6924 39.1596 66.0426 40.2664 63.1081C40.6525 62.0765 40.9721 61.028 41.2187 59.969C41.4654 58.9099 41.7292 57.8635 42.0059 56.8298V56.2581C42.0596 53.5408 42.1025 50.8236 42.1303 48.1043C42.1582 45.387 42.1711 42.6698 42.1711 39.9505C42.2247 37.4505 42.2548 34.9506 42.2548 32.4486C42.2548 29.9465 42.2826 27.4213 42.3384 24.8665C42.3384 24.1597 42.3513 23.4403 42.3792 22.7062C42.407 21.972 42.4199 21.2252 42.4199 20.4636C42.4199 20.2463 42.4607 20.1113 42.5443 20.0565C42.628 20.0037 42.7781 19.9742 42.9991 19.9742C44.4362 19.9742 45.8583 19.9615 47.2697 19.9341C48.679 19.9067 50.1011 19.9214 51.5404 19.9742H51.5446ZM58.0117 14.7549C58.0117 15.027 57.971 15.2043 57.8873 15.2844C57.8037 15.3667 57.6235 15.4068 57.3489 15.4068C57.2932 15.354 57.2095 15.3245 57.1001 15.3245C56.9907 15.3245 56.9049 15.3519 56.8513 15.4068C56.5746 15.4068 56.3944 15.354 56.3129 15.2443C56.2293 15.1368 56.1606 14.9469 56.1049 14.6726C55.9397 13.7486 55.7595 12.8372 55.5665 11.9406C55.3713 11.044 55.0281 10.1875 54.5304 9.37318C53.5909 7.74242 52.3876 6.50617 50.9247 5.6623C49.4597 4.82055 47.7609 4.3712 45.8261 4.31635C43.9471 4.20876 42.0531 4.1539 40.1462 4.1539H34.4663C34.1896 4.1539 33.9966 4.20876 33.8851 4.31635C33.7735 4.42394 33.7199 4.61592 33.7199 4.88806V19.0776C33.7199 19.4046 33.7735 19.6219 33.8851 19.7295C33.9945 19.8392 34.1875 19.8666 34.4663 19.8117H36.2081C36.4848 19.759 36.6628 19.7843 36.7465 19.894C36.8301 20.0037 36.8709 20.1936 36.8709 20.4657C36.8709 21.8792 36.8558 23.2927 36.8301 24.7061C36.8022 26.1196 36.7894 27.5331 36.7894 28.9465V32.3705C36.7336 35.035 36.6928 37.6699 36.6649 40.2796C36.6371 42.8892 36.6242 45.5263 36.6242 48.1887V50.9607C36.6242 51.8848 36.5684 52.8088 36.459 53.7328C36.4033 54.9839 36.1823 56.1779 35.7962 57.3213C35.408 58.4627 34.9382 59.5787 34.387 60.6651C34.0545 61.3719 33.6813 62.0786 33.2673 62.7853C32.8533 63.4921 32.4243 64.1714 31.9825 64.8233C31.8173 65.0406 31.7465 65.2452 31.7744 65.4351C31.8023 65.627 31.8988 65.8296 32.064 66.0469C32.671 66.5912 33.2652 67.1481 33.8464 67.7177C34.4277 68.2894 35.0197 68.8991 35.6289 69.5531C35.1849 70.0425 34.7302 70.5594 34.2604 71.1016C33.7907 71.6459 33.3059 72.2155 32.8104 72.8146C32.0361 72.1627 31.3047 71.5383 30.614 70.9391C29.9211 70.3421 29.2455 69.7156 28.5827 69.0637C27.8083 69.7156 27.049 70.3548 26.3026 70.9792C25.5561 71.6037 24.7968 72.2429 24.0225 72.8948C23.7458 72.6226 23.4969 72.3526 23.276 72.0784C23.0551 71.8062 22.832 71.5066 22.6132 71.1818C22.448 71.0193 22.3086 70.8695 22.1992 70.7324C22.0877 70.5974 21.9504 70.4476 21.7852 70.2852C21.6737 70.1776 21.5643 70.0404 21.4528 69.878C21.3412 69.7155 21.2318 69.5805 21.1203 69.4708C21.5064 69.1987 21.8796 68.9139 22.24 68.6143C22.5982 68.3168 22.9457 68.0299 23.276 67.7578C25.4853 65.7473 27.2828 63.5047 28.6642 61.0301C30.0456 58.5576 31.0129 55.9079 31.5663 53.0809C31.6757 52.5388 31.7315 51.9945 31.7315 51.4502V40.8492C31.7315 38.2395 31.7444 35.6299 31.7723 33.0224C31.8001 30.4127 31.8409 27.8031 31.8967 25.1956V24.3791H31.6478C30.8199 24.3264 30.0026 24.2969 29.2026 24.2969C28.4025 24.2969 27.5853 24.2694 26.7573 24.2146C26.4806 24.2146 26.2876 24.2694 26.176 24.377C26.0645 24.4867 26.0109 24.6766 26.0109 24.9487C26.0645 25.7103 26.0795 26.4719 26.0516 27.2314C26.0237 27.993 26.0109 28.7546 26.0109 29.514C26.0109 32.1237 25.9958 34.7333 25.9701 37.3408C25.9422 39.9505 25.9293 42.5875 25.9293 45.2499C25.9293 46.0664 25.9143 46.8807 25.8886 47.6971C25.8607 48.5136 25.8178 49.3553 25.7642 50.2245C25.6526 51.8025 25.7921 53.3236 26.1782 54.7898C26.5643 56.2581 27.0898 57.699 27.7526 59.1103C27.862 59.4373 27.9177 59.7095 27.9177 59.9268C27.9177 60.1441 27.8341 60.3888 27.6689 60.6609C27.2249 61.2601 26.7852 61.8719 26.3433 62.4963C25.8993 63.1229 25.4317 63.7874 24.9341 64.4942C24.6574 63.952 24.3807 63.4351 24.104 62.9457C23.8273 62.4562 23.5506 61.9668 23.2739 61.4774C22.6647 60.2812 22.1542 59.0597 21.7402 57.8087C21.3262 56.5598 21.0624 55.2813 20.953 53.9754C20.8415 52.9438 20.8136 51.9101 20.8693 50.8764C20.923 49.8447 20.953 48.811 20.953 47.7773C20.953 47.1254 20.9659 46.4735 20.9938 45.8195C21.0216 45.1676 21.0345 44.5158 21.0345 43.8618V37.3387C21.0345 34.7839 21.0474 32.2017 21.0753 29.5921C21.1031 26.9824 21.1439 24.4023 21.1997 21.8454C21.1997 21.5733 21.2125 21.2885 21.2404 20.9889C21.2683 20.6915 21.2812 20.4046 21.2812 20.1324C21.2812 19.97 21.3219 19.8476 21.4056 19.7653C21.4892 19.683 21.6137 19.643 21.7788 19.643C22.1113 19.6978 22.4287 19.7126 22.7312 19.683C23.0336 19.6556 23.3532 19.6704 23.6836 19.7231C23.9603 19.7231 24.1404 19.6704 24.2219 19.5607C24.3056 19.4531 24.3464 19.2632 24.3464 18.989V4.89017C24.3464 4.61803 24.3056 4.42816 24.2219 4.31846C24.1383 4.21086 23.9581 4.15601 23.6836 4.15601C22.0255 4.21086 20.3803 4.22563 18.7501 4.1961C17.1199 4.16867 15.4747 4.18344 13.8167 4.23618C12.8772 4.23618 11.9634 4.27626 11.0818 4.35854C10.1981 4.44082 9.31221 4.69819 8.42848 5.13278C6.93558 5.83952 5.74726 6.79097 4.86353 7.98714C3.9798 9.18331 3.31486 10.5419 2.873 12.0651C2.76146 12.5545 2.6778 13.0313 2.62418 13.4912C2.56841 13.9532 2.51264 14.4026 2.45902 14.8372C2.40325 15.0545 2.31959 15.2043 2.2102 15.2865C2.09866 15.3688 1.9335 15.4089 1.71257 15.4089C1.15916 15.4089 0.841705 15.3688 0.760196 15.2865C0.676542 15.2043 0.635788 14.9195 0.635788 14.43C0.689412 13.236 0.745182 12.0524 0.800951 10.8837C0.854575 9.71495 0.910345 8.55886 0.966114 7.41754C1.01974 6.27621 1.07551 5.13489 1.13128 3.99357C1.1849 2.85225 1.26856 1.71093 1.38009 0.569606C1.38009 0.462014 1.36508 0.36497 1.33934 0.284803C1.31146 0.202527 1.29859 0.109702 1.29859 0H57.1816C57.2353 1.03373 57.291 2.06535 57.3468 3.09908C57.4004 4.13281 57.4562 5.19185 57.512 6.27832C57.5656 6.71502 57.6085 7.17493 57.6364 7.66436C57.6643 8.1538 57.6771 8.64324 57.6771 9.13268C57.7308 10.0567 57.7865 10.9955 57.8423 11.9448C57.8959 12.8963 57.9517 13.8351 58.0075 14.757L58.0117 14.7549ZM52.8724 33.4274V25.1913C52.8724 24.9192 52.8166 24.7293 52.7072 24.6196C52.5957 24.512 52.4026 24.4572 52.1259 24.4572H48.147C47.703 24.4572 47.4413 24.4973 47.3598 24.5796C47.2761 24.6618 47.2354 24.9192 47.2354 25.3538C47.1796 27.2018 47.1389 29.0372 47.111 30.8579C47.0831 32.6806 47.0702 34.5139 47.0702 36.362C47.0702 38.7543 47.0552 41.1466 47.0295 43.5369C47.0016 45.9292 46.9887 48.3216 46.9887 50.7118C46.9329 51.4734 46.9051 52.2476 46.9051 53.0345V55.3594C46.9587 56.8277 46.8493 58.2812 46.5726 59.7221C46.2959 61.163 45.9098 62.5891 45.4122 64.0026C45.1355 64.7093 44.8309 65.4435 44.5005 66.2051C44.1681 66.9667 43.8377 67.7283 43.5053 68.4877H43.5889C43.6983 68.435 43.8099 68.3654 43.9214 68.2831C44.0308 68.2008 44.1423 68.108 44.2539 67.9983C45.7468 66.6397 47.0595 65.1587 48.192 63.5533C49.3246 61.9499 50.277 60.2242 51.0513 58.3762C51.4374 57.4521 51.7827 56.5155 52.0873 55.564C52.3898 54.6126 52.5699 53.621 52.6257 52.5873C52.6793 51.3911 52.7094 50.1696 52.7094 48.9186V45.2499C52.7094 43.2394 52.7222 41.2542 52.7501 39.2986C52.778 37.3408 52.8188 35.3852 52.8745 33.4274H52.8724Z" fill="black"/>
</svg>
