<svg width="24" height="26" viewBox="0 0 24 26" fill="none" xmlns="http://www.w3.org/2000/svg">
<path fill-rule="evenodd" clip-rule="evenodd" d="M22.0964 5.01235V20.1881C22.0964 21.1064 21.3934 21.886 20.4703 21.886V23.5791C20.4703 24.4974 19.6955 25.2005 18.7772 25.2005H17.0841C16.1658 25.2005 15.3862 24.4974 15.3862 23.5791V21.886H8.68074V23.5791C8.68074 24.4974 7.90593 25.2005 6.98764 25.2005H5.29454C4.37624 25.2005 3.60143 24.4974 3.60143 23.5791V21.886C2.68314 21.886 1.90355 21.1112 1.90355 20.1881V5.01235C1.90355 2.25747 4.1658 0 6.98764 0H17.0841C19.839 0 22.0964 2.25747 22.0964 5.01235ZM0.846552 6.70546H1.6931V11.7895H0.846552C0.420884 11.7895 0 11.3687 0 10.943V7.55201C0 7.05938 0.425667 6.70546 0.846552 6.70546ZM23.1534 6.70546H22.3786V11.7895H23.1534C23.6508 11.7895 24 11.3687 24 10.943V7.55201C24 7.05938 23.6461 6.70546 23.1534 6.70546ZM20.4703 5.01235H3.60143V15.104H20.4703V5.01235ZM8.68074 3.38621L15.4579 3.31447L14.6783 1.68832H9.31207L8.67596 3.38142L8.68074 3.38621ZM4.3045 17.2228H6.35153C6.7772 17.2228 7.12634 17.5767 7.12634 17.9976V19.3416C7.12634 19.7624 6.77241 20.0446 6.35153 20.0446H4.3045C3.87883 20.0446 3.52969 19.7624 3.52969 19.3416V17.9976C3.52969 17.5719 3.88362 17.2228 4.3045 17.2228ZM17.7154 17.2228H19.7624C20.1881 17.2228 20.5372 17.5767 20.5372 17.9976V19.3416C20.5372 19.7624 20.1833 20.0446 19.7624 20.0446H17.7154C17.2897 20.0446 16.9406 19.7624 16.9406 19.3416V17.9976C16.9406 17.5719 17.2945 17.2228 17.7154 17.2228Z" fill="#A1A1A1"/>
<path d="M20.4702 5.01221H3.60132V15.1039H20.4702V5.01221Z" fill="#E9D518"/>
<path fill-rule="evenodd" clip-rule="evenodd" d="M8.68066 3.38597L15.4626 3.31902L14.6831 1.69287H9.31677L8.68066 3.38597Z" fill="#E9D518"/>
<path fill-rule="evenodd" clip-rule="evenodd" d="M6.35138 17.2227H4.30435C3.81172 17.2227 3.52954 17.5766 3.52954 17.9975V19.3414C3.52954 19.7623 3.81172 20.0445 4.30435 20.0445H6.35138C6.77705 20.0445 7.12619 19.7623 7.12619 19.3414V17.9975C7.12619 17.5718 6.77226 17.2227 6.35138 17.2227Z" fill="#E9D518"/>
<path fill-rule="evenodd" clip-rule="evenodd" d="M16.9456 17.9975V19.3414C16.9456 19.7623 17.2995 20.0445 17.7204 20.0445H19.7674C20.1931 20.0445 20.5422 19.7623 20.5422 19.3414V17.9975C20.5422 17.5718 20.1883 17.2227 19.7674 17.2227H17.7204C17.2947 17.2227 16.9456 17.5766 16.9456 17.9975Z" fill="#E9D518"/>
<path fill-rule="evenodd" clip-rule="evenodd" d="M1.6931 11.7897V6.70557H0.846552C0.420884 6.70557 0 7.05949 0 7.55212V10.9431C0 11.3688 0.425667 11.7897 0.846552 11.7897H1.6931Z" fill="#E9D518"/>
<path fill-rule="evenodd" clip-rule="evenodd" d="M22.3787 6.70557V11.7897H23.1535C23.6509 11.7897 24 11.3688 24 10.9431V7.55212C24 7.05949 23.6461 6.70557 23.1535 6.70557H22.3787Z" fill="#E9D518"/>
</svg>
