<svg width="42" height="26" viewBox="0 0 42 26" fill="none" xmlns="http://www.w3.org/2000/svg">
<g opacity="0.19" clip-path="url(#clip0_278_973)">
<path d="M0.432861 12.6322C2.81629 16.8966 5.19971 21.161 7.45991 25.5683C10.3543 23.775 13.6153 22.5927 16.9786 22.1155C18.8931 21.8449 20.949 21.8267 22.6351 22.7841C23.2993 23.161 23.9215 23.693 24.6819 23.7507C25.7789 23.8358 26.6686 22.9118 27.456 22.0091C31.9284 20.4468 36.7343 20.2218 41.3989 19.9787C40.0464 18.4072 38.0507 17.4954 36.7553 15.93C37.657 15.924 38.5587 16.0182 39.4213 16.1215C38.5406 14.6534 37.3955 13.3495 36.073 12.3373C36.3977 12.1914 36.7493 12.1003 37.0799 12.0486C35.4779 10.5957 33.9691 9.03643 32.5806 7.33734C30.9545 5.48323 29.4367 3.53187 27.949 1.44372C27.3749 1.34038 26.7648 1.46804 26.2688 1.79327C25.83 1.28263 25.4573 0.717278 25.1177 0.109375C23.131 0.933083 21.3367 2.22184 19.891 3.86621C18.9833 5.06682 18.1928 6.36165 17.5587 7.74767C17.0387 8.83886 16.7051 10.0182 16.5037 11.1975C14.2165 9.62001 11.5355 8.63825 8.77636 8.35254C6.50414 8.31302 4.12973 8.41029 2.122 9.54706C2.23621 9.79327 2.33539 10.0486 2.45562 10.2613C2.18812 10.3161 1.95068 10.4832 1.76734 10.6899C1.584 10.8966 1.45175 11.1428 1.32852 11.389C1.43673 11.6595 1.587 11.9088 1.77335 12.1307C1.33454 12.2826 0.910749 12.465 0.432861 12.6322Z" fill="white"/>
<path d="M25.4454 22.5136C26.9031 21.0728 28.0362 19.1883 29.7885 18.2157C31.9976 17.006 34.402 16.0151 36.9688 15.9391C38.15 17.5348 39.9594 18.5227 41.363 19.9239C37.062 20.0424 32.776 20.626 28.5983 21.6655C27.8739 21.8449 27.1105 22.0637 26.6056 22.62C26.6296 22.5196 26.7288 22.4406 26.831 22.4406C26.1607 23.1397 25.202 23.544 24.2402 23.5348C24.0358 23.5318 23.8284 23.5105 23.6451 23.4224C23.4677 23.3342 23.3265 23.1853 23.1732 23.0576C22.7464 22.6929 22.2114 22.4619 21.7275 22.24C19.2719 21.7385 16.7082 21.9543 14.2917 22.623C11.8752 23.2917 9.59998 24.4041 7.30973 25.5196C7.31274 24.8935 6.99114 24.319 6.68156 23.781C4.57766 20.1215 2.47375 16.4619 0.487061 12.8449C0.775596 12.3829 1.29857 12.0789 1.83356 12.0029C2.90956 13.5896 3.77216 15.3069 4.63476 17.0212C5.65366 19.0485 6.67255 21.0759 7.6674 23.0759C10.0809 21.7355 12.7138 20.6868 15.4609 20.5196C16.1041 20.4801 16.7473 20.4893 17.3905 20.5288C19.5785 20.6595 21.8267 21.1579 23.5729 22.5014C23.6601 22.5683 23.7503 22.6412 23.8555 22.6777C23.9667 22.7172 24.0869 22.7142 24.2041 22.7051C24.712 22.6686 25.2741 22.6838 25.4454 22.5136Z" fill="white"/>
<path d="M7.49003 25.9999C7.45997 25.9999 7.43292 25.9969 7.40286 25.9908C7.30368 25.9665 7.22253 25.8996 7.17444 25.8115L2.99668 18.0333C2.09801 16.3616 1.16929 14.6321 0.0662402 13.0637C-0.0479719 12.8996 -0.0119049 12.6716 0.150397 12.5561C0.312698 12.4406 0.538117 12.4801 0.652329 12.6412C1.77642 14.2461 2.71716 15.9938 3.62785 17.6868L7.61927 25.1154C10.4205 23.2887 13.4441 22.1367 16.615 21.6868C19.4522 21.2856 21.7275 21.6412 23.3805 22.7507C24.0808 23.237 25.0486 23.2917 25.791 22.8874C26.0465 22.7507 26.2779 22.5622 26.5244 22.3646C26.6747 22.2431 26.8279 22.1184 26.9932 22.0029C27.9941 21.2947 29.2144 20.9969 30.2814 20.775C33.4222 20.1215 36.7854 19.7628 40.5334 19.6899C39.1929 18.699 37.8975 17.6382 36.6652 16.5197C36.5179 16.3859 36.5059 16.1549 36.6382 16.006C36.7704 15.857 36.9988 15.8449 37.1461 15.9786C38.6278 17.3221 40.2088 18.5896 41.8438 19.7415C41.9731 19.8327 42.0272 19.9969 41.9821 20.1488C41.937 20.3008 41.7957 20.4042 41.6394 20.4042C37.4917 20.4254 33.8249 20.778 30.4256 21.4893C29.4308 21.6959 28.2947 21.9695 27.405 22.6017C27.2607 22.7051 27.1195 22.8175 26.9722 22.9361C26.7107 23.1458 26.4432 23.3616 26.1306 23.5318C25.1568 24.0607 23.8885 23.9908 22.9778 23.3555C21.481 22.3525 19.3711 22.0333 16.7142 22.4102C13.5252 22.8631 10.4896 24.0485 7.6884 25.9422C7.63129 25.9786 7.56216 25.9999 7.49003 25.9999Z" fill="black"/>
<path d="M0.360685 13.1369C0.276529 13.1369 0.192372 13.1065 0.123244 13.0457C-0.0270352 12.912 -0.0420631 12.684 0.0901825 12.5321C0.228439 12.374 0.303579 12.3102 0.510964 12.219C0.805511 12.0913 1.10607 11.9728 1.40963 11.8695C1.59898 11.8056 1.80336 11.909 1.86648 12.1005C1.9296 12.2919 1.82741 12.4986 1.63806 12.5625C1.35553 12.6567 1.07301 12.7661 0.796494 12.8877C0.703321 12.9272 0.703321 12.9272 0.631187 13.0123C0.559053 13.0944 0.459869 13.1369 0.360685 13.1369Z" fill="black"/>
<path d="M24.7181 22.6139C24.6821 22.6139 24.649 22.5927 24.634 22.5562C24.111 21.2674 24.1381 19.6778 24.7151 18.079C25.3974 16.1884 26.7108 14.4377 28.5172 13.0152C29.9749 11.8662 31.7632 10.9179 33.9783 10.1094C33.0857 9.2948 27.1677 3.84191 25.0848 0.200571C20.8199 1.86318 17.4416 6.29176 16.6722 11.2462C16.6662 11.2766 16.6482 11.3039 16.6211 11.3161C16.5941 11.3282 16.561 11.3252 16.5369 11.31C14.2257 9.81151 11.8182 8.88142 9.38667 8.541C6.82892 8.18537 4.29221 8.57443 2.23338 9.63522C2.55197 10.3222 2.86756 11.006 3.18615 11.6899C4.59878 14.7355 6.06249 17.8845 7.39697 21.0182C10.7813 19.2249 14.971 18.8389 19.8461 19.8753C22.0191 20.3374 23.5159 21.1854 24.4266 22.4741C24.4567 22.5136 24.4446 22.5714 24.4056 22.6018C24.3665 22.6322 24.3094 22.62 24.2793 22.5805C23.3987 21.3313 21.935 20.5076 19.81 20.0547C14.935 19.0182 10.7572 19.4133 7.39397 21.2249C7.37293 21.237 7.34588 21.2401 7.32183 21.231C7.29779 21.2218 7.27975 21.2036 7.26773 21.1823C5.92424 18.0243 4.4485 14.8449 3.02084 11.769C2.69023 11.0608 2.36262 10.3495 2.03201 9.63522C2.01097 9.58963 2.029 9.53796 2.07108 9.51668C4.17499 8.40726 6.78083 7.99692 9.41071 8.36167C11.8302 8.69905 14.2196 9.61394 16.5189 11.082C17.3424 6.09115 20.7748 1.65346 25.0938 0.00604196C25.1359 -0.0091556 25.181 0.00604197 25.205 0.0455556C27.3931 3.94221 34.1436 10.0182 34.2128 10.079C34.2368 10.1003 34.2488 10.1337 34.2428 10.1641C34.2368 10.1945 34.2158 10.2218 34.1857 10.231C31.9225 11.0425 30.1071 12 28.6314 13.1611C26.8521 14.5592 25.5597 16.2826 24.8895 18.1428C24.3304 19.6991 24.3004 21.2431 24.8053 22.4893C24.8233 22.5349 24.8023 22.5896 24.7572 22.6079C24.7422 22.6109 24.7302 22.6139 24.7181 22.6139Z" fill="black"/>
<path d="M25.0758 22.6232H25.0728C25.0247 22.6201 24.9856 22.5776 24.9856 22.5289C24.9856 22.4955 25.1509 19.152 27.9431 16.3283C29.3587 14.8967 31.1801 13.7721 33.3591 12.9818C34.5614 12.5472 35.8087 12.2463 36.9027 11.997C33.6176 8.86025 30.609 5.33746 27.9551 1.52895C27.3961 1.456 26.822 1.5715 26.3351 1.85721C26.29 1.88153 26.2359 1.86633 26.2119 1.82378C26.1878 1.78123 26.2029 1.72348 26.2449 1.69916C26.7799 1.38609 27.4111 1.26451 28.0212 1.35569C28.0453 1.35873 28.0663 1.37393 28.0813 1.39217C30.7653 5.25235 33.819 8.8177 37.1522 11.9849C37.1762 12.0092 37.1853 12.0426 37.1762 12.0761C37.1672 12.1095 37.1402 12.1338 37.1101 12.1399C35.983 12.3922 34.6756 12.7022 33.4223 13.1551C31.2673 13.9362 29.4669 15.0457 28.0723 16.459C25.3342 19.228 25.1689 22.5046 25.1689 22.5381C25.1629 22.5837 25.1239 22.6232 25.0758 22.6232Z" fill="black"/>
<path d="M25.5085 22.6137C25.4905 22.6137 25.4695 22.6077 25.4544 22.5955C25.4154 22.5651 25.4094 22.5073 25.4394 22.4678C25.5085 22.3766 27.1706 20.2338 28.0092 19.477C30.5399 17.1943 35.1294 15.1882 39.3162 16.0849C38.4325 14.6441 37.3505 13.4405 36.0191 12.4101C35.98 12.3797 35.971 12.3219 36.001 12.2824C36.0311 12.2429 36.0882 12.2338 36.1273 12.2642C37.5339 13.3523 38.664 14.6289 39.5777 16.17C39.5957 16.2004 39.5957 16.2399 39.5717 16.2703C39.5506 16.3007 39.5146 16.3128 39.4785 16.3037C35.3007 15.3067 30.6661 17.3189 28.1264 19.6077C27.2999 20.3523 25.5957 22.5529 25.5777 22.5773C25.5596 22.6016 25.5356 22.6137 25.5085 22.6137Z" fill="black"/>
<path d="M24.5738 22.6203C24.5438 22.6203 24.5137 22.6051 24.4957 22.5747C23.609 21.0063 22.527 19.526 21.4811 18.0975L16.4708 11.2312C16.4407 11.1917 16.4497 11.1339 16.4888 11.1035C16.5279 11.0731 16.585 11.0823 16.615 11.1218L21.6283 17.985C22.6773 19.4197 23.7593 20.9029 24.652 22.4804C24.676 22.523 24.661 22.5807 24.6189 22.6051C24.6069 22.6142 24.5919 22.6203 24.5738 22.6203Z" fill="black"/>
<path d="M23.0469 16.4619C23.0379 16.4619 23.0289 16.4619 23.0169 16.4558C22.9688 16.4406 22.9447 16.389 22.9598 16.3403C24.0207 13.1823 26.4913 10.5896 29.5721 9.40111C29.6171 9.38287 29.6712 9.40719 29.6893 9.45278C29.7073 9.49837 29.6833 9.55309 29.6382 9.57132C26.6085 10.7385 24.174 13.2917 23.1311 16.3981C23.1191 16.4376 23.083 16.4619 23.0469 16.4619Z" fill="black"/>
<path d="M21.7786 14.6049C21.7666 14.6049 21.7545 14.6019 21.7425 14.5989C21.6974 14.5776 21.6764 14.5259 21.6944 14.4803C21.7696 14.3071 21.8417 14.1338 21.9108 13.9636C22.6863 12.1125 23.3595 10.5107 25.0216 9.30403C25.0607 9.27364 25.1178 9.28275 25.1478 9.32531C25.1779 9.36482 25.1689 9.42257 25.1268 9.45297C23.5038 10.6293 22.8426 12.2098 22.0761 14.0366C22.004 14.2068 21.9319 14.38 21.8597 14.5533C21.8447 14.5837 21.8116 14.6049 21.7786 14.6049Z" fill="black"/>
<path d="M26.4132 8.39821C26.3861 8.39821 26.3591 8.38606 26.341 8.36174C26.311 8.32223 26.317 8.26448 26.3561 8.23408C26.843 7.85414 27.3359 7.6201 27.7326 7.43165L27.7597 7.41949C27.8047 7.39821 27.8588 7.41645 27.8799 7.46204C27.9009 7.50764 27.8829 7.56235 27.8378 7.58362L27.8108 7.59578C27.42 7.78119 26.9361 8.0122 26.4673 8.37998C26.4492 8.39213 26.4312 8.39821 26.4132 8.39821Z" fill="black"/>
<path d="M20.1165 12.9421C20.1074 12.9421 20.0954 12.939 20.0864 12.936C20.0413 12.9177 20.0173 12.8661 20.0323 12.8205C21.3397 9.25817 23.2693 7.09707 26.2929 5.82048C26.338 5.80224 26.3921 5.82352 26.4101 5.86911C26.4282 5.9147 26.4071 5.96941 26.3621 5.98765C23.3895 7.24601 21.49 9.37063 20.2006 12.8843C20.1856 12.9208 20.1525 12.9421 20.1165 12.9421Z" fill="black"/>
<path d="M18.6557 11.6231C18.6467 11.6231 18.6377 11.6231 18.6316 11.6201C18.5836 11.6049 18.5565 11.5562 18.5715 11.5076C18.6316 11.2979 18.6888 11.0882 18.7429 10.8845C19.0284 9.82068 19.2989 8.81765 20.0503 7.95442C20.0833 7.91795 20.1404 7.91187 20.1765 7.9453C20.2126 7.97874 20.2186 8.03649 20.1855 8.07296C19.4612 8.90579 19.1967 9.88755 18.9172 10.9301C18.8631 11.1368 18.806 11.3465 18.7459 11.5562C18.7308 11.5958 18.6948 11.6231 18.6557 11.6231Z" fill="black"/>
<path d="M21 7.05782C20.979 7.05782 20.9609 7.05174 20.9429 7.03654C20.9038 7.00615 20.8978 6.9484 20.9309 6.90888C21.3487 6.38913 21.8716 5.73867 22.5088 5.36481C22.5509 5.3405 22.608 5.35265 22.632 5.39825C22.6561 5.4408 22.6411 5.49855 22.599 5.52287C21.9888 5.88153 21.4809 6.51679 21.0691 7.02439C21.0511 7.04566 21.0271 7.05782 21 7.05782Z" fill="black"/>
<path d="M23.3655 4.97241C23.3414 4.97241 23.3174 4.96329 23.2993 4.94506C23.2663 4.90858 23.2663 4.85083 23.3023 4.8174C23.6059 4.5256 24.201 4.10311 24.6038 3.94202C24.6488 3.92378 24.7029 3.94506 24.721 3.99369C24.739 4.03928 24.718 4.09399 24.6699 4.11223C24.2912 4.26421 23.7111 4.67758 23.4256 4.95114C23.4105 4.96633 23.3895 4.97241 23.3655 4.97241Z" fill="black"/>
<path d="M24.1801 22.7781C23.6331 22.7781 23.1221 22.6991 22.6472 22.5411C22.5992 22.5259 22.5751 22.4742 22.5901 22.4256C22.6052 22.3769 22.6563 22.3526 22.7044 22.3678C23.5129 22.6383 24.4386 22.6687 25.4575 22.459C26.4132 22.2614 27.3299 21.8815 28.1144 21.538C28.1595 21.5167 28.2136 21.538 28.2316 21.5867C28.2527 21.6322 28.2316 21.687 28.1835 21.7052C27.3901 22.0517 26.4613 22.4377 25.4905 22.6383C25.0367 22.7325 24.5979 22.7781 24.1801 22.7781Z" fill="black"/>
<path d="M7.77253 23.2034C7.76652 23.2034 7.7575 23.2034 7.75149 23.2004C7.72745 23.1943 7.70641 23.1791 7.69439 23.1579C6.92796 21.7962 6.22466 20.3676 5.54539 18.9876C4.29207 16.4375 2.99366 13.8022 1.24741 11.474C1.22637 11.4466 1.22337 11.4101 1.2384 11.3797C1.48185 10.8721 1.8876 10.4496 2.37751 10.1852C2.4226 10.1609 2.4767 10.1791 2.50074 10.2217C2.52479 10.2673 2.50675 10.322 2.46467 10.3433C2.02285 10.5803 1.65617 10.9572 1.42775 11.4071C3.16798 13.7384 4.46038 16.3645 5.7107 18.9056C6.37494 20.2582 7.06321 21.6533 7.8086 22.9846C11.244 20.8113 15.4157 19.9512 19.2689 20.6259C21.1564 20.9572 22.6742 21.6138 23.7773 22.5743C23.8163 22.6077 23.8193 22.6655 23.7863 22.7019C23.7532 22.7414 23.6961 22.7445 23.66 22.711C22.581 21.7688 21.0933 21.1275 19.2388 20.8022C15.3977 20.1305 11.238 20.9998 7.82363 23.1852C7.80559 23.1974 7.79056 23.2034 7.77253 23.2034Z" fill="black"/>
<path d="M8.63225 17.9269C8.59918 17.9269 8.56913 17.9087 8.5541 17.8813C8.53006 17.8388 8.54508 17.781 8.59017 17.7567C10.0689 16.93 11.8813 16.5166 13.8259 16.5591C15.4339 16.5956 17.1651 16.936 19.1187 17.5986C19.1668 17.6138 19.1909 17.6655 19.1758 17.7142C19.1608 17.7628 19.1097 17.7871 19.0616 17.7719C17.123 17.1154 15.4098 16.778 13.8199 16.7415C11.9023 16.6959 10.126 17.1032 8.67132 17.9148C8.6593 17.9239 8.64427 17.9269 8.63225 17.9269Z" fill="black"/>
<path d="M17.123 15.3252C17.111 15.3252 17.102 15.3222 17.0899 15.3192C16.1221 14.9362 15.1033 14.7143 14.0633 14.6596C14.0152 14.6565 13.9762 14.614 13.9792 14.5623C13.9822 14.5137 14.0182 14.4742 14.0753 14.4772C15.1333 14.535 16.1702 14.7629 17.1561 15.1489C17.2012 15.1672 17.2252 15.2189 17.2072 15.2675C17.1921 15.304 17.1591 15.3252 17.123 15.3252Z" fill="black"/>
<path d="M7.76049 15.7932C7.73344 15.7932 7.70639 15.7811 7.68835 15.7567C7.6583 15.7172 7.66731 15.6595 7.70939 15.6291C8.94769 14.7233 10.5677 14.5197 11.9923 14.3981C12.0374 14.392 12.0855 14.4315 12.0885 14.4801C12.0915 14.5288 12.0555 14.5744 12.0074 14.5774C10.6098 14.696 9.01682 14.8935 7.81759 15.7719C7.79956 15.7902 7.78153 15.7932 7.76049 15.7932Z" fill="black"/>
<path d="M6.44413 13.526C6.41107 13.526 6.38101 13.5078 6.36298 13.4774C6.33894 13.4318 6.35697 13.3771 6.40205 13.3558C9.58196 11.6719 13.904 11.8938 15.9418 13.1582C15.9838 13.1856 15.9989 13.2403 15.9718 13.2828C15.9448 13.3254 15.8907 13.3376 15.8486 13.3132C13.8499 12.0762 9.61201 11.8634 6.48621 13.5169C6.47419 13.5199 6.45916 13.526 6.44413 13.526Z" fill="black"/>
<path d="M14.9408 11.6229C14.9288 11.6229 14.9138 11.6199 14.9017 11.6138L14.7605 11.5469C14.0361 11.2035 13.408 10.9056 12.6265 10.6959C12.5784 10.6837 12.5514 10.632 12.5634 10.5834C12.5754 10.5348 12.6265 10.5044 12.6746 10.5196C13.4711 10.7354 14.1053 11.0332 14.8356 11.3828L14.9769 11.4497C15.022 11.4709 15.04 11.5256 15.019 11.5712C15.0069 11.6047 14.9769 11.6229 14.9408 11.6229Z" fill="black"/>
<path d="M5.24493 11.3767C5.21187 11.3767 5.1788 11.3585 5.16378 11.3251C5.14274 11.2795 5.16077 11.2248 5.20585 11.2035C7.07533 10.2673 9.25738 10.2947 11.184 10.319C11.232 10.319 11.2741 10.3615 11.2741 10.4102C11.2741 10.4588 11.232 10.5014 11.184 10.5014C9.27842 10.477 7.12041 10.4497 5.29001 11.3646C5.27198 11.3737 5.25695 11.3767 5.24493 11.3767Z" fill="black"/>
<path d="M15.3375 6.4074C15.2925 6.4074 15.2564 6.37397 15.2474 6.32837C15.0881 5.22199 15.2654 4.0609 15.7493 3.05482C15.7703 3.00922 15.8244 2.99099 15.8695 3.01226C15.9146 3.03354 15.9326 3.08825 15.9116 3.13384C15.4457 4.10649 15.2744 5.23111 15.4277 6.30102C15.4337 6.34965 15.4007 6.39828 15.3526 6.40436C15.3466 6.4074 15.3435 6.4074 15.3375 6.4074Z" fill="black"/>
<path d="M14.1234 6.04535C14.0843 6.04535 14.0482 6.02103 14.0362 5.98152C13.8408 5.30674 13.6124 4.62893 13.363 3.96936C13.3449 3.92377 13.369 3.86905 13.4141 3.85082C13.4621 3.83258 13.5132 3.8569 13.5313 3.90249C13.7837 4.5651 14.0122 5.24595 14.2105 5.9268C14.2256 5.97544 14.1985 6.02407 14.1504 6.03927C14.1384 6.04231 14.1324 6.04535 14.1234 6.04535Z" fill="black"/>
<path d="M12.341 6.47729C12.32 6.47729 12.3019 6.47121 12.2839 6.45602C11.5355 5.84507 10.5918 5.49857 9.63298 5.47729C9.58188 5.47729 9.54281 5.43474 9.54582 5.38307C9.54582 5.3314 9.58489 5.29492 9.63899 5.29492C10.6398 5.3162 11.6197 5.6779 12.4011 6.31316C12.4402 6.34355 12.4462 6.40131 12.4161 6.44082C12.3951 6.46817 12.3681 6.47729 12.341 6.47729Z" fill="black"/>
</g>
<defs>
<clipPath id="clip0_278_973">
<rect width="42" height="26" fill="white"/>
</clipPath>
</defs>
</svg>
