<svg width="38" height="27" viewBox="0 0 38 27" fill="none" xmlns="http://www.w3.org/2000/svg">
<path d="M35 3L37 1H1L2.94595 3H35Z" fill="#A1A0A0"/>
<path d="M3 2.92308L1 1V26L3 24V2.92308Z" fill="#A1A0A0"/>
<path d="M2.85456 24L1 26H37L35 24H2.85456Z" fill="#A1A0A0"/>
<path d="M35 2.92308V24L37 26V1L35 2.92308Z" fill="#A1A0A0"/>
<path d="M35.1138 2.89307H2.88599V24.1074H35.1138V2.89307Z" fill="#EAD50A"/>
<path opacity="0.2" d="M2.88599 2.89307V3.73682H34.2095V24.1074H35.1138V2.89307H2.88599Z" fill="#1D1D1B"/>
<path opacity="0.2" d="M30.7607 22.7188H27.7399C27.3627 22.7188 27.0569 23.0253 27.0569 23.4034V23.4227C27.0569 23.8008 27.3627 24.1073 27.7399 24.1073H30.7607C31.1379 24.1073 31.4437 23.8008 31.4437 23.4227V23.4034C31.4437 23.0253 31.1379 22.7188 30.7607 22.7188Z" fill="#1D1D1B"/>
<path d="M31.6025 22.7188H28.5817C28.2045 22.7188 27.8987 23.0253 27.8987 23.4034V23.4227C27.8987 23.8008 28.2045 24.1073 28.5817 24.1073H31.6025C31.9797 24.1073 32.2855 23.8008 32.2855 23.4227V23.4034C32.2855 23.0253 31.9797 22.7188 31.6025 22.7188Z" fill="white"/>
<path d="M7.4123 18.0082C7.38825 18.0082 7.35939 18.0082 7.33534 17.9937C7.21028 17.9503 7.14294 17.8153 7.18623 17.6899L10.4138 8.06155C10.4571 7.9362 10.5918 7.8687 10.7169 7.91209C10.8419 7.95548 10.9093 8.09048 10.866 8.21584L7.63838 17.8442C7.60471 17.9455 7.50851 18.0082 7.4123 18.0082Z" fill="#A1A0A0"/>
<path d="M12.5256 18.2203C12.415 18.2203 12.314 18.1432 12.2899 18.0275C11.9676 16.4075 11.655 14.7586 11.3471 13.1096C11.0393 11.4559 10.7266 9.80695 10.4043 8.18213C10.3803 8.05195 10.4621 7.92659 10.5919 7.89766C10.7218 7.86874 10.8469 7.95552 10.8757 8.0857C11.2028 9.71052 11.5107 11.3643 11.8185 13.018C12.1264 14.6669 12.4342 16.3111 12.7613 17.9311C12.7853 18.0612 12.7036 18.1866 12.5737 18.2155C12.5593 18.2155 12.54 18.2155 12.5256 18.2155V18.2203Z" fill="#A1A0A0"/>
<path d="M9.88 14.1121C9.52886 14.1121 9.17291 14.088 8.82177 14.035C8.6919 14.0157 8.60051 13.8952 8.61975 13.7602C8.63899 13.63 8.75924 13.5336 8.89392 13.5577C9.77899 13.6878 10.6737 13.6396 11.5443 13.4227C11.6742 13.3889 11.8041 13.4709 11.8377 13.5962C11.8714 13.7264 11.7896 13.8566 11.6646 13.8903C11.0777 14.035 10.4861 14.1121 9.88962 14.1121H9.88Z" fill="#A1A0A0"/>
<path d="M16.5997 17.9648C16.4747 17.9648 16.3689 17.8635 16.3592 17.7382L15.8253 8.0278C15.8157 7.8928 15.9215 7.78191 16.0514 7.77227C16.1861 7.7578 16.2967 7.8687 16.3063 7.99888L16.8403 17.7092C16.8499 17.8442 16.744 17.9551 16.6142 17.9648C16.6142 17.9648 16.6046 17.9648 16.5997 17.9648Z" fill="#A1A0A0"/>
<path d="M16.4363 13.2301C16.3257 13.2301 16.2246 13.153 16.2006 13.0372C16.1717 12.9071 16.2583 12.7769 16.3882 12.7528C17.3695 12.5455 18.3074 12.1067 19.0915 11.4847C19.5196 11.1424 19.7553 10.8483 19.8563 10.5253C20.0006 10.0624 19.8274 9.48867 19.433 9.09331C18.9857 8.64974 18.3652 8.49063 17.9274 8.4376C17.7543 8.41831 17.5763 8.38938 17.3935 8.35563C16.951 8.28331 16.4988 8.21099 16.09 8.24956C15.9601 8.26403 15.8398 8.1676 15.8254 8.0326C15.811 7.90242 15.9072 7.78188 16.0419 7.76742C16.5084 7.72403 16.9943 7.80117 17.4705 7.87831C17.6436 7.90724 17.8168 7.93617 17.9852 7.95545C18.495 8.01813 19.2214 8.20617 19.7697 8.74617C20.2988 9.2717 20.5153 10.0238 20.3181 10.6603C20.1497 11.2051 19.7072 11.6005 19.3897 11.856C18.5431 12.5262 17.5426 12.9987 16.4844 13.2205C16.47 13.2205 16.4507 13.2253 16.4363 13.2253V13.2301Z" fill="#A1A0A0"/>
<path d="M16.5996 17.9646C16.4698 17.9646 16.3639 17.8633 16.3591 17.7331C16.3543 17.5981 16.4553 17.4872 16.59 17.4824C17.3885 17.4535 18.1726 17.2847 18.692 17.1449C19.428 16.9521 20.0004 16.629 20.39 16.1903C20.8374 15.684 21.0201 15.0139 20.8662 14.4449C20.6498 13.6494 19.8128 13.1624 19.0817 13.0323C18.2399 12.8828 17.3693 13.0564 16.5275 13.2251C16.3976 13.254 16.2726 13.1673 16.2437 13.0371C16.2196 12.9069 16.3014 12.7815 16.4313 12.7526C17.2731 12.5839 18.2303 12.391 19.1634 12.5549C20.2361 12.7478 21.0827 13.4372 21.3232 14.3099C21.5204 15.0331 21.2991 15.8721 20.746 16.4989C20.2938 17.0099 19.6396 17.3812 18.8123 17.603C18.2688 17.7476 17.4462 17.9212 16.6044 17.9549C16.6044 17.9549 16.5996 17.9549 16.5948 17.9549L16.5996 17.9646Z" fill="#A1A0A0"/>
<path d="M27.3167 17.8584C27.2253 17.8584 27.1339 17.8536 27.0425 17.8391C25.9746 17.7089 24.9789 16.9086 24.4354 15.7514C23.9448 14.7004 23.8582 13.5095 23.8437 12.4825C23.8293 11.6388 23.8582 10.7372 24.166 9.90305C24.5124 8.96288 25.2002 8.2493 26.0035 7.99377C26.9703 7.69002 28.0622 8.12877 28.4374 8.97252C28.4903 9.09305 28.4374 9.2377 28.3172 9.29073C28.1969 9.34377 28.0526 9.29073 27.9997 9.1702C27.7255 8.55305 26.8741 8.2252 26.1478 8.4518C25.484 8.65913 24.9116 9.2618 24.6134 10.067C24.3344 10.8288 24.3055 11.6725 24.3199 12.4729C24.3344 13.4468 24.4113 14.575 24.8683 15.5441C25.3397 16.5518 26.1911 17.2413 27.0954 17.357C27.6053 17.4197 28.1584 17.2557 28.5817 16.9182C28.9329 16.6386 29.1493 16.2673 29.1878 15.872C29.2022 15.7418 29.3177 15.6454 29.4523 15.655C29.5822 15.6695 29.6832 15.7852 29.6688 15.9202C29.6159 16.4457 29.3369 16.9327 28.8848 17.2943C28.4374 17.6511 27.8698 17.8488 27.3167 17.8488V17.8584Z" fill="#A1A0A0"/>
</svg>
