<svg width="44" height="26" viewBox="0 0 44 26" fill="none" xmlns="http://www.w3.org/2000/svg">
<g opacity="0.19" clip-path="url(#clip0_278_811)">
<path d="M0.453613 12.6322C2.95054 16.8966 5.44746 21.161 7.81528 25.5683C10.8475 23.775 14.2638 22.5927 17.7872 22.1155C19.793 21.8449 21.9467 21.8267 23.7131 22.7841C24.409 23.161 25.0607 23.693 25.8574 23.7507C27.0066 23.8358 27.9387 22.9118 28.7636 22.0091C33.4489 20.4468 38.4837 20.2218 43.3705 19.9787C41.9535 18.4072 39.8628 17.4954 38.5057 15.93C39.4503 15.924 40.3949 16.0182 41.2986 16.1215C40.376 14.6534 39.1764 13.3495 37.791 12.3373C38.131 12.1914 38.4994 12.1003 38.8458 12.0486C37.1675 10.5957 35.5869 9.03643 34.1322 7.33734C32.4287 5.48323 30.8386 3.53187 29.28 1.44372C28.6786 1.34038 28.0394 1.46804 27.5199 1.79327C27.0602 1.28263 26.6697 0.717278 26.3139 0.109375C24.2326 0.933083 22.3529 2.22184 20.8383 3.86621C19.8874 5.06682 19.0593 6.36165 18.3949 7.74767C17.8502 8.83886 17.5007 10.0182 17.2897 11.1975C14.8936 9.62001 12.0849 8.63825 9.19442 8.35254C6.814 8.31302 4.32652 8.41029 2.22319 9.54706C2.34284 9.79327 2.44674 10.0486 2.57269 10.2613C2.29246 10.3161 2.04371 10.4832 1.85164 10.6899C1.65957 10.8966 1.52102 11.1428 1.39193 11.389C1.50528 11.6595 1.66272 11.9088 1.85794 12.1307C1.39822 12.2826 0.954257 12.465 0.453613 12.6322Z" fill="white"/>
<path d="M26.6571 22.5138C28.1842 21.0731 29.3713 19.1886 31.207 18.2159C33.5213 17.0062 36.0402 16.0153 38.7292 15.9393C39.9667 17.5351 41.8622 18.5229 43.3326 19.9241C38.8268 20.0427 34.3368 20.6263 29.9601 21.6658C29.2013 21.8451 28.4015 22.064 27.8725 22.6202C27.8977 22.5199 28.0016 22.4409 28.1087 22.4409C27.4065 23.14 26.4021 23.5442 25.3945 23.5351C25.1804 23.532 24.9631 23.5108 24.771 23.4226C24.5852 23.3345 24.4373 23.1855 24.2767 23.0579C23.8296 22.6931 23.2691 22.4621 22.7621 22.2403C20.1897 21.7387 17.5038 21.9545 14.9723 22.6232C12.4407 23.2919 10.0571 24.4044 7.65781 25.5199C7.66096 24.8938 7.32405 24.3193 6.99973 23.7813C4.79564 20.1217 2.59155 16.4621 0.510254 12.8451C0.81253 12.3831 1.3604 12.0792 1.92087 12.0032C3.04811 13.5898 3.95179 15.3071 4.85547 17.0214C5.92288 19.0488 6.99029 21.0761 8.03251 23.0761C10.5609 21.7357 13.3192 20.6871 16.1971 20.5199C16.8709 20.4804 17.5447 20.4895 18.2186 20.529C20.5108 20.6597 22.8661 21.1582 24.6955 22.5017C24.7868 22.5685 24.8812 22.6415 24.9914 22.6779C25.1079 22.7175 25.2339 22.7144 25.3567 22.7053C25.8888 22.6688 26.4776 22.684 26.6571 22.5138Z" fill="white"/>
<path d="M7.84671 26.0001C7.81522 26.0001 7.78688 25.9971 7.75539 25.991C7.65149 25.9667 7.56647 25.8998 7.51609 25.8117L3.13939 18.0336C2.19793 16.3618 1.22498 14.6324 0.0694062 13.064C-0.0502446 12.8998 -0.0124602 12.6719 0.15757 12.5564C0.3276 12.4409 0.563753 12.4804 0.683404 12.6415C1.86102 14.2463 2.84656 15.9941 3.80062 17.6871L7.9821 25.1156C10.9167 23.2889 14.0843 22.1369 17.4062 21.6871C20.3785 21.2859 22.7621 21.6415 24.4939 22.7509C25.2276 23.2372 26.2414 23.2919 27.0192 22.8877C27.2868 22.7509 27.5293 22.5625 27.7875 22.3649C27.9449 22.2433 28.1055 22.1187 28.2787 22.0032C29.3272 21.295 30.6055 20.9971 31.7233 20.7752C35.0137 20.1217 38.5371 19.7631 42.4636 19.6901C41.0592 18.6992 39.7021 17.6384 38.4112 16.5199C38.2569 16.3862 38.2443 16.1552 38.3828 16.0062C38.5214 15.8573 38.7607 15.8451 38.915 15.9789C40.4673 17.3223 42.1235 18.5898 43.8364 19.7418C43.9718 19.833 44.0285 19.9971 43.9812 20.1491C43.934 20.3011 43.786 20.4044 43.6223 20.4044C39.2771 20.4257 35.4357 20.7783 31.8745 21.4895C30.8323 21.6962 29.642 21.9698 28.71 22.602C28.5589 22.7053 28.4109 22.8178 28.2566 22.9363C27.9827 23.146 27.7024 23.3618 27.375 23.5321C26.3548 24.0609 25.026 23.991 24.072 23.3558C22.5039 22.3527 20.2935 22.0336 17.5101 22.4105C14.1693 22.8634 10.9891 24.0488 8.05452 25.9424C7.9947 25.9789 7.92228 26.0001 7.84671 26.0001Z" fill="black"/>
<path d="M0.37786 13.1369C0.289697 13.1369 0.201533 13.1065 0.129113 13.0457C-0.0283226 12.912 -0.0440661 12.684 0.0944769 12.5321C0.239317 12.374 0.318035 12.3102 0.535296 12.219C0.843869 12.0913 1.15874 11.9728 1.47676 11.8695C1.67513 11.8056 1.88924 11.909 1.95536 12.1005C2.02148 12.2919 1.91443 12.4986 1.71606 12.5625C1.42008 12.6567 1.1241 12.7661 0.834423 12.8877C0.736813 12.9272 0.736813 12.9272 0.661244 13.0123C0.585675 13.0944 0.481768 13.1369 0.37786 13.1369Z" fill="black"/>
<path d="M25.895 22.6139C25.8573 22.6139 25.8226 22.5927 25.8069 22.5562C25.259 21.2674 25.2873 19.6778 25.8919 18.079C26.6067 16.1884 27.9826 14.4377 29.875 13.0152C31.4021 11.8662 33.2756 10.9179 35.5962 10.1094C34.661 9.2948 28.4612 3.84191 26.2792 0.200571C21.8112 1.86318 18.272 6.29176 17.466 11.2462C17.4597 11.2766 17.4408 11.3039 17.4124 11.3161C17.3841 11.3282 17.3495 11.3252 17.3243 11.31C14.9029 9.81151 12.3808 8.88142 9.8335 8.541C7.15395 8.18537 4.49645 8.57443 2.33958 9.63522C2.67335 10.3222 3.00396 11.006 3.33772 11.6899C4.81761 14.7355 6.35103 17.8845 7.74906 21.0182C11.2945 19.2249 15.6838 18.8389 20.791 19.8753C23.0675 20.3374 24.6356 21.1854 25.5896 22.4741C25.6211 22.5136 25.6085 22.5714 25.5676 22.6018C25.5266 22.6322 25.4668 22.62 25.4353 22.5805C24.5128 21.3313 22.9793 20.5076 20.7532 20.0547C15.646 19.0182 11.2693 19.4133 7.74591 21.2249C7.72387 21.237 7.69553 21.2401 7.67034 21.231C7.64515 21.2218 7.62626 21.2036 7.61366 21.1823C6.20619 18.0243 4.66018 14.8449 3.16454 11.769C2.81819 11.0608 2.47498 10.3495 2.12862 9.63522C2.10658 9.58963 2.12547 9.53796 2.16955 9.51668C4.37365 8.40726 7.10357 7.99692 9.85869 8.36167C12.3934 8.69905 14.8966 9.61394 17.3054 11.082C18.1681 6.09115 21.7639 1.65346 26.2886 0.00604196C26.3327 -0.0091556 26.3799 0.00604197 26.4051 0.0455556C28.6974 3.94221 35.7694 10.0182 35.8418 10.079C35.867 10.1003 35.8796 10.1337 35.8733 10.1641C35.867 10.1945 35.845 10.2218 35.8135 10.231C33.4425 11.0425 31.5407 12 29.9947 13.1611C28.1306 14.5592 26.7767 16.2826 26.0745 18.1428C25.4889 19.6991 25.4574 21.2431 25.9864 22.4893C26.0052 22.5349 25.9832 22.5896 25.936 22.6079C25.9202 22.6109 25.9076 22.6139 25.895 22.6139Z" fill="black"/>
<path d="M26.2698 22.6232H26.2666C26.2162 22.6201 26.1753 22.5776 26.1753 22.5289C26.1753 22.4955 26.3485 19.152 29.2736 16.3283C30.7567 14.8967 32.6648 13.7721 34.9476 12.9818C36.2071 12.5472 37.5138 12.2463 38.6599 11.997C35.2184 8.86025 32.0665 5.33746 29.2862 1.52895C28.7006 1.456 28.0992 1.5715 27.5891 1.85721C27.5418 1.88153 27.4852 1.86633 27.46 1.82378C27.4348 1.78123 27.4505 1.72348 27.4946 1.69916C28.0551 1.38609 28.7163 1.26451 29.3555 1.35569C29.3807 1.35873 29.4027 1.37393 29.4185 1.39217C32.2303 5.25235 35.4293 8.8177 38.9213 11.9849C38.9464 12.0092 38.9559 12.0426 38.9464 12.0761C38.937 12.1095 38.9087 12.1338 38.8772 12.1399C37.6964 12.3922 36.3267 12.7022 35.0137 13.1551C32.7561 13.9362 30.87 15.0457 29.409 16.459C26.5405 19.228 26.3674 22.5046 26.3674 22.5381C26.3611 22.5837 26.3201 22.6232 26.2698 22.6232Z" fill="black"/>
<path d="M26.7232 22.614C26.7043 22.614 26.6823 22.6079 26.6665 22.5957C26.6256 22.5653 26.6193 22.5076 26.6508 22.4681C26.7232 22.3769 28.4644 20.234 29.3429 19.4772C31.9941 17.1945 36.8022 15.1884 41.1883 16.0851C40.2626 14.6444 39.1291 13.4407 37.7342 12.4103C37.6933 12.3799 37.6838 12.3222 37.7153 12.2827C37.7468 12.2432 37.8066 12.234 37.8476 12.2644C39.3212 13.3526 40.5051 14.6292 41.4623 16.1702C41.4812 16.2006 41.4812 16.2401 41.456 16.2705C41.4339 16.3009 41.3962 16.3131 41.3584 16.3039C36.9817 15.307 32.1264 17.3191 29.4657 19.6079C28.5998 20.3526 26.8145 22.5532 26.7956 22.5775C26.7767 22.6018 26.7515 22.614 26.7232 22.614Z" fill="black"/>
<path d="M25.744 22.62C25.7125 22.62 25.681 22.6048 25.6621 22.5744C24.7332 21.006 23.5997 19.5258 22.504 18.0972L17.2551 11.231C17.2236 11.1914 17.233 11.1337 17.274 11.1033C17.3149 11.0729 17.3747 11.082 17.4062 11.1215L22.6582 17.9848C23.7571 19.4194 24.8907 20.9027 25.8258 22.4802C25.851 22.5228 25.8353 22.5805 25.7912 22.6048C25.7786 22.6139 25.7629 22.62 25.744 22.62Z" fill="black"/>
<path d="M24.1443 16.4621C24.1349 16.4621 24.1254 16.4621 24.1128 16.4561C24.0624 16.4409 24.0373 16.3892 24.053 16.3406C25.1645 13.1825 27.7527 10.5898 30.9801 9.40135C31.0274 9.38312 31.0841 9.40743 31.1029 9.45303C31.1218 9.49862 31.0967 9.55333 31.0494 9.57157C27.8755 10.7387 25.3251 13.2919 24.2325 16.3983C24.2199 16.4378 24.1821 16.4621 24.1443 16.4621Z" fill="black"/>
<path d="M22.8156 14.6049C22.803 14.6049 22.7904 14.6019 22.7778 14.5989C22.7306 14.5776 22.7086 14.5259 22.7275 14.4803C22.8062 14.3071 22.8817 14.1338 22.9542 13.9636C23.7665 12.1125 24.4718 10.5107 26.2131 9.30403C26.254 9.27364 26.3138 9.28275 26.3453 9.32531C26.3768 9.36482 26.3674 9.42257 26.3233 9.45297C24.623 10.6293 23.9303 12.2098 23.1273 14.0366C23.0518 14.2068 22.9762 14.38 22.9006 14.5533C22.8849 14.5837 22.8502 14.6049 22.8156 14.6049Z" fill="black"/>
<path d="M27.6709 8.39821C27.6426 8.39821 27.6142 8.38606 27.5954 8.36174C27.5639 8.32223 27.5702 8.26448 27.6111 8.23408C28.1212 7.85414 28.6376 7.6201 29.0532 7.43165L29.0815 7.41949C29.1288 7.39821 29.1854 7.41645 29.2075 7.46204C29.2295 7.50764 29.2106 7.56235 29.1634 7.58362L29.1351 7.59578C28.7257 7.78119 28.2188 8.0122 27.7276 8.37998C27.7087 8.39213 27.6898 8.39821 27.6709 8.39821Z" fill="black"/>
<path d="M21.0743 12.9423C21.0648 12.9423 21.0523 12.9393 21.0428 12.9362C20.9956 12.918 20.9704 12.8663 20.9861 12.8207C22.3558 9.25841 24.3773 7.09732 27.5449 5.82072C27.5921 5.80249 27.6488 5.82376 27.6677 5.86935C27.6866 5.91495 27.6645 5.96966 27.6173 5.9879C24.5032 7.24625 22.5133 9.37087 21.1625 12.8846C21.1467 12.921 21.1121 12.9423 21.0743 12.9423Z" fill="black"/>
<path d="M19.5442 11.6231C19.5347 11.6231 19.5253 11.6231 19.519 11.6201C19.4686 11.6049 19.4403 11.5562 19.456 11.5076C19.519 11.2979 19.5788 11.0882 19.6355 10.8845C19.9346 9.82068 20.218 8.81765 21.0052 7.95442C21.0398 7.91795 21.0996 7.91187 21.1374 7.9453C21.1752 7.97874 21.1815 8.03649 21.1469 8.07296C20.388 8.90579 20.1109 9.88755 19.8181 10.9301C19.7614 11.1368 19.7016 11.3465 19.6386 11.5562C19.6229 11.5958 19.5851 11.6231 19.5442 11.6231Z" fill="black"/>
<path d="M22.0002 7.05782C21.9781 7.05782 21.9592 7.05174 21.9404 7.03654C21.8994 7.00615 21.8931 6.9484 21.9278 6.90888C22.3654 6.38913 22.9133 5.73867 23.5808 5.36481C23.6249 5.3405 23.6847 5.35265 23.7099 5.39825C23.7351 5.4408 23.7194 5.49855 23.6753 5.52287C23.0361 5.88153 22.504 6.51679 22.0726 7.02439C22.0537 7.04566 22.0285 7.05782 22.0002 7.05782Z" fill="black"/>
<path d="M24.4782 4.97266C24.453 4.97266 24.4278 4.96354 24.4089 4.9453C24.3743 4.90883 24.3743 4.85108 24.412 4.81764C24.7301 4.52585 25.3535 4.10336 25.7754 3.94226C25.8227 3.92402 25.8793 3.9453 25.8982 3.99393C25.9171 4.03953 25.8951 4.09424 25.8447 4.11247C25.448 4.26445 24.8403 4.67782 24.5411 4.95138C24.5254 4.96658 24.5034 4.97266 24.4782 4.97266Z" fill="black"/>
<path d="M25.3315 22.7781C24.7584 22.7781 24.2231 22.6991 23.7256 22.5411C23.6752 22.5259 23.65 22.4742 23.6658 22.4256C23.6815 22.3769 23.7351 22.3526 23.7854 22.3678C24.6324 22.6383 25.6022 22.6687 26.6697 22.459C27.6709 22.2614 28.6313 21.8815 29.4531 21.538C29.5003 21.5167 29.557 21.538 29.5759 21.5867C29.598 21.6322 29.5759 21.687 29.5255 21.7052C28.6943 22.0517 27.7213 22.4377 26.7043 22.6383C26.2288 22.7325 25.7691 22.7781 25.3315 22.7781Z" fill="black"/>
<path d="M8.14272 23.2037C8.13642 23.2037 8.12698 23.2037 8.12068 23.2007C8.09549 23.1946 8.07345 23.1794 8.06085 23.1581C7.25794 21.7964 6.52114 20.3678 5.80953 18.9879C4.49652 16.4377 3.13628 13.8025 1.30688 11.4742C1.28484 11.4469 1.28169 11.4104 1.29744 11.38C1.55248 10.8724 1.97756 10.4499 2.4908 10.1855C2.53803 10.1611 2.5947 10.1794 2.61989 10.2219C2.64508 10.2675 2.62619 10.3222 2.58211 10.3435C2.11925 10.5806 1.73511 10.9575 1.49581 11.4073C3.31891 13.7386 4.67285 16.3648 5.98271 18.9058C6.67857 20.2584 7.39963 21.6535 8.18051 22.9848C11.7795 20.8116 16.1499 19.9514 20.1865 20.6262C22.1639 20.9575 23.754 21.614 24.9096 22.5745C24.9505 22.6079 24.9537 22.6657 24.919 22.7022C24.8844 22.7417 24.8246 22.7447 24.7868 22.7113C23.6564 21.769 22.0978 21.1277 20.155 20.8025C16.131 20.1307 11.7732 21 8.19625 23.1855C8.17736 23.1976 8.16161 23.2037 8.14272 23.2037Z" fill="black"/>
<path d="M9.04325 17.9272C9.00861 17.9272 8.97712 17.9089 8.96138 17.8816C8.93619 17.839 8.95193 17.7813 8.99916 17.7569C10.5483 16.9302 12.447 16.5168 14.4842 16.5594C16.1688 16.5959 17.9824 16.9363 20.0291 17.5989C20.0795 17.6141 20.1046 17.6658 20.0889 17.7144C20.0732 17.763 20.0196 17.7873 19.9693 17.7721C17.9383 17.1156 16.1436 16.7782 14.4779 16.7418C12.469 16.6962 10.6082 17.1035 9.08418 17.915C9.07158 17.9241 9.05584 17.9272 9.04325 17.9272Z" fill="black"/>
<path d="M17.9382 15.3252C17.9257 15.3252 17.9162 15.3222 17.9036 15.3192C16.8897 14.9362 15.8223 14.7143 14.7329 14.6596C14.6825 14.6565 14.6416 14.614 14.6447 14.5623C14.6479 14.5137 14.6856 14.4742 14.7455 14.4772C15.8538 14.535 16.9401 14.7629 17.9729 15.1489C18.0201 15.1672 18.0453 15.2189 18.0264 15.2675C18.0107 15.304 17.976 15.3252 17.9382 15.3252Z" fill="black"/>
<path d="M8.13 15.7935C8.10166 15.7935 8.07332 15.7813 8.05443 15.757C8.02294 15.7175 8.03239 15.6597 8.07647 15.6293C9.37374 14.7236 11.0709 14.5199 12.5634 14.3983C12.6106 14.3922 12.661 14.4318 12.6641 14.4804C12.6673 14.529 12.6295 14.5746 12.5791 14.5777C11.115 14.6962 9.44616 14.8938 8.18982 15.7722C8.17093 15.7904 8.15204 15.7935 8.13 15.7935Z" fill="black"/>
<path d="M6.75099 13.5258C6.71636 13.5258 6.68487 13.5075 6.66598 13.4771C6.64079 13.4315 6.65968 13.3768 6.70691 13.3555C10.0382 11.6717 14.5661 11.8935 16.7009 13.158C16.745 13.1853 16.7607 13.24 16.7324 13.2826C16.704 13.3252 16.6474 13.3373 16.6033 13.313C14.5094 12.0759 10.0697 11.8631 6.79508 13.5166C6.78248 13.5197 6.76674 13.5258 6.75099 13.5258Z" fill="black"/>
<path d="M15.6523 11.6231C15.6397 11.6231 15.624 11.6201 15.6114 11.614L15.4634 11.5472C14.7045 11.2037 14.0465 10.9058 13.2278 10.6961C13.1774 10.6839 13.1491 10.6323 13.1617 10.5836C13.1743 10.535 13.2278 10.5046 13.2782 10.5198C14.1126 10.7356 14.777 11.0335 15.5421 11.383L15.6901 11.4499C15.7373 11.4712 15.7562 11.5259 15.7342 11.5715C15.7216 11.6049 15.6901 11.6231 15.6523 11.6231Z" fill="black"/>
<path d="M5.49457 11.377C5.45993 11.377 5.4253 11.3587 5.40955 11.3253C5.38751 11.2797 5.40641 11.225 5.45364 11.2037C7.41213 10.2676 9.69809 10.2949 11.7164 10.3192C11.7668 10.3192 11.8109 10.3618 11.8109 10.4104C11.8109 10.459 11.7668 10.5016 11.7164 10.5016C9.72013 10.4773 7.45936 10.4499 5.5418 11.3648C5.52291 11.3739 5.50716 11.377 5.49457 11.377Z" fill="black"/>
<path d="M16.0679 6.4074C16.0207 6.4074 15.9829 6.37397 15.9735 6.32837C15.8066 5.22199 15.9924 4.0609 16.4993 3.05482C16.5213 3.00922 16.578 2.99099 16.6253 3.01226C16.6725 3.03354 16.6914 3.08825 16.6693 3.13384C16.1813 4.10649 16.0018 5.23111 16.1624 6.30102C16.1687 6.34965 16.1341 6.39828 16.0837 6.40436C16.0774 6.4074 16.0742 6.4074 16.0679 6.4074Z" fill="black"/>
<path d="M14.7959 6.04559C14.7549 6.04559 14.7171 6.02127 14.7045 5.98176C14.4999 5.30699 14.2606 4.62918 13.9992 3.9696C13.9803 3.92401 14.0055 3.8693 14.0528 3.85106C14.1031 3.83282 14.1567 3.85714 14.1756 3.90273C14.44 4.56535 14.6793 5.2462 14.8872 5.92705C14.9029 5.97568 14.8746 6.02431 14.8242 6.03951C14.8116 6.04255 14.8053 6.04559 14.7959 6.04559Z" fill="black"/>
<path d="M12.9287 6.47729C12.9067 6.47729 12.8878 6.47121 12.8689 6.45602C12.0849 5.84507 11.0962 5.49857 10.0917 5.47729C10.0382 5.47729 9.99727 5.43474 10.0004 5.38307C10.0004 5.3314 10.0413 5.29492 10.098 5.29492C11.1465 5.3162 12.173 5.6779 12.9917 6.31316C13.0326 6.34355 13.0389 6.40131 13.0074 6.44082C12.9854 6.46817 12.957 6.47729 12.9287 6.47729Z" fill="black"/>
</g>
<defs>
<clipPath id="clip0_278_811">
<rect width="44" height="26" fill="white"/>
</clipPath>
</defs>
</svg>
