<svg width="29" height="26" viewBox="0 0 29 26" fill="none" xmlns="http://www.w3.org/2000/svg">
<g clip-path="url(#clip0_319_969)">
<path fill-rule="evenodd" clip-rule="evenodd" d="M0 12.5243H1.41843V25.9999H10.9703V12.5243V9.729H0V12.5243Z" fill="#A1A1A1"/>
<path fill-rule="evenodd" clip-rule="evenodd" d="M18.8906 2.95379C18.8906 1.36008 20.227 0 21.875 0C23.523 0 24.9333 1.36008 24.9333 2.95379C24.9333 4.23042 24.1461 5.26508 23.1295 5.74904C24.1543 6.06611 25.089 6.86714 25.089 8.06033V14.7606C25.089 15.5616 24.6955 16.1958 23.9904 16.5963H26.2615V5.42362C26.2615 4.62259 26.8928 3.98845 27.5979 3.98845C28.4588 3.98845 29.0082 4.62259 29.0082 5.42362V18.0231C29.0082 18.5822 28.7786 18.9827 28.385 19.2163C28.6228 19.6919 28.7786 20.251 28.7786 20.8935V24.7985C28.7786 25.4326 28.2293 25.9917 27.5979 25.9917C26.9666 25.9917 26.4255 25.4326 26.4255 24.7985V20.8935C26.4255 20.3344 26.0319 19.9339 25.4826 19.9339H21.5716C21.1043 19.9339 20.6288 20.3344 20.6288 20.8935V24.7985C20.6288 25.4326 20.1614 25.9917 19.5301 25.9917C18.8988 25.9917 18.3576 25.4326 18.3576 24.7985V20.8935C18.3576 20.251 18.5134 19.7754 18.743 19.2997C18.5872 19.1412 18.4314 19.0578 18.2756 18.8992L17.7263 24.0058C17.6525 24.6399 17.0212 25.199 16.3981 25.199C16.3161 25.199 16.2423 25.199 16.2423 25.1155C15.4552 25.1155 14.9058 24.3979 14.9878 23.5969L15.9307 15.5449C16.0045 14.8273 16.5538 14.2683 17.259 14.2683H19.6859V13.2336C19.3743 13.3922 19.0627 13.4756 18.743 13.5507C18.825 13.5507 18.825 13.6258 18.825 13.7092C18.825 14.0263 18.5872 14.1849 18.2756 14.1849H13.3398C13.102 14.1849 12.9463 14.1014 12.8725 13.8678L10.6751 8.04365C10.5193 7.80167 10.6751 7.4846 10.9867 7.4095C11.2245 7.25096 11.536 7.4095 11.6918 7.72657L13.7252 13.1502H16.1521C15.9963 12.9082 15.9225 12.7497 15.9225 12.4326C15.9963 11.7901 16.5456 11.3979 17.095 11.473C18.743 11.5565 18.9808 11.2311 19.0545 11.0725C19.7597 10.4384 19.6777 8.04365 19.6777 8.04365C19.6777 7.00899 20.3008 6.2914 21.1699 5.89089C19.8335 5.57381 18.8988 4.37227 18.8988 2.9371L18.8906 2.95379Z" fill="#A1A1A1"/>
<path fill-rule="evenodd" clip-rule="evenodd" d="M0.86084 2.23633H6.19022V3.42952H0.86084V2.23633Z" fill="#E9D518"/>
<path fill-rule="evenodd" clip-rule="evenodd" d="M0.86084 3.67139H6.19022V4.78949H0.86084V3.67139Z" fill="#E9D518"/>
<path fill-rule="evenodd" clip-rule="evenodd" d="M0.86084 5.02295H6.19022V6.14105H0.86084V5.02295Z" fill="#E9D518"/>
<path fill-rule="evenodd" clip-rule="evenodd" d="M0.86084 6.3833H6.19022V7.5765H0.86084V6.3833Z" fill="#E9D518"/>
<path d="M6.19022 7.81836H0.86084V9.0199H6.19022V7.81836Z" fill="#E9D518"/>
</g>
<defs>
<clipPath id="clip0_319_969">
<rect width="29" height="26" fill="white"/>
</clipPath>
</defs>
</svg>
