<svg width="25" height="25" viewBox="0 0 25 25" fill="none" xmlns="http://www.w3.org/2000/svg">
<g clip-path="url(#clip0_319_822)">
<path fill-rule="evenodd" clip-rule="evenodd" d="M21.9685 4.37813V12.2602H21.5667V3.90576C21.7006 4.03972 21.8346 4.17367 21.9685 4.37813Z" fill="#E9D518"/>
<path fill-rule="evenodd" clip-rule="evenodd" d="M17.2518 0.944727C15.7712 0.33841 14.2202 0 12.4647 0C10.8502 0 9.22864 0.33841 7.74809 0.944727C6.26755 1.55104 4.98442 2.42527 3.84229 3.50395L12.4647 12.1334L21.1576 3.50395C20.0154 2.42527 18.7323 1.55104 17.2518 0.944727Z" fill="#A2A2A2"/>
<path fill-rule="evenodd" clip-rule="evenodd" d="M21.2986 21.3621C23.59 19.1343 24.9365 16.1027 25.007 12.7397H12.6692L9.50366 24.6687C9.97603 24.7321 10.4484 24.8026 10.9208 24.9366C11.3931 24.9366 11.936 25 12.4718 25C15.9757 25 19.0778 23.5829 21.2986 21.3621Z" fill="#A2A2A2"/>
<path fill-rule="evenodd" clip-rule="evenodd" d="M7.48026 23.9215V23.6536H6.94444V23.7241C6.60603 23.5196 6.26763 23.3222 5.92922 23.1177H6.40158V22.5819H5.86576V23.1177C5.66131 22.9838 5.52735 22.8498 5.3229 22.7159V22.5819H5.11844C4.85054 22.3775 4.51213 22.1096 4.24422 21.9051V21.4962H3.84236C3.57445 21.2283 3.36999 21.0238 3.16554 20.8194V20.4175H2.82713C2.69318 20.2836 2.62267 20.1496 2.55922 20.0791C2.42527 19.8746 2.22081 19.6067 2.08686 19.3388H2.01636C1.8824 19.1344 1.8119 18.9299 1.74845 18.796H2.08686V18.2602H1.48054V18.3941C1.34659 18.0557 1.14213 17.7173 1.00818 17.3154V17.111H0.874224C0.803723 16.977 0.803722 16.7726 0.740271 16.5752H1.00818V16.0323H0.535815C0.197406 14.9536 0 13.741 0 12.4649C0 11.3157 0.204456 10.1031 0.535815 9.02439H1.00818V8.41808H0.740271C0.740271 8.28412 0.803723 8.07967 0.874224 7.88226H1.00818V7.67781C1.14213 7.27595 1.34659 6.93754 1.48054 6.59913V6.80358H2.08686V6.26072H1.685C1.81895 6.05626 1.88945 5.92231 2.02341 5.7249H2.09391V5.6544C2.29836 5.25254 2.56627 4.97758 2.83418 4.64622H3.17259V4.24436C3.30654 4.11041 3.37704 3.97645 3.511 3.83545L3.71545 4.11041H3.64495V4.64622H4.25127V4.57572L4.85759 5.18204H4.78708V5.71785H5.3229V5.64735L5.92922 6.25367H5.86576V6.79653H6.40158V6.73308L7.0079 7.3394H6.93739V7.87521H7.47321V7.81176L8.07953 8.41808H8.00902V9.02439H8.54484V8.89044L9.15116 9.49676H9.08065V10.1031H9.61647V10.0396L10.2228 10.5754V11.1818H10.7586V11.1183L11.3015 11.6541V12.2604H11.8373V12.1899L12.1757 12.5918L11.8373 13.8679H11.3015V14.4107H11.7033L11.5694 14.9466H11.3015V15.4824H11.4354L11.3015 16.0182V16.0816L10.6951 18.239H10.2228V18.7748H10.5612L10.4272 19.3177H10.2228V19.8535H10.2933L9.55302 22.5467H9.08065V23.0825H9.34856L9.27806 23.6183H9.0736V24.1612L9.0031 24.4996C8.73519 24.3656 8.46729 24.2951 8.19233 24.1612H8.52369V23.6183H7.98787V24.1612C7.78342 24.0272 7.64946 23.9567 7.45206 23.8933L7.48026 23.9215Z" fill="#E9D518"/>
<path fill-rule="evenodd" clip-rule="evenodd" d="M22.7793 5.39345V12.2674H22.3774V4.85059C22.5114 5.05504 22.6454 5.189 22.7793 5.3864V5.39345Z" fill="#E9D518"/>
<path fill-rule="evenodd" clip-rule="evenodd" d="M23.5898 6.73981V12.2672H23.188V6.06299C23.3854 6.26744 23.4559 6.53535 23.5898 6.73981Z" fill="#E9D518"/>
<path fill-rule="evenodd" clip-rule="evenodd" d="M24.3936 8.69294V12.2674H23.9917V7.61426C23.9917 7.68476 24.0622 7.68476 24.0622 7.74821C24.1962 8.01612 24.2667 8.35453 24.4006 8.69294H24.3936Z" fill="#E9D518"/>
<path fill-rule="evenodd" clip-rule="evenodd" d="M24.8025 12.2672V10.5117C24.9364 11.0475 25.0069 11.6539 25.0069 12.2672H24.8025Z" fill="#E9D518"/>
<path fill-rule="evenodd" clip-rule="evenodd" d="M20.7559 12.2675V4.58274L21.1577 4.17383V12.2675H20.7559Z" fill="#E9D518"/>
<path fill-rule="evenodd" clip-rule="evenodd" d="M19.9451 12.2675V5.45704L20.354 5.05518V12.2675H19.9451Z" fill="#E9D518"/>
<path fill-rule="evenodd" clip-rule="evenodd" d="M19.1414 12.2673V6.26758L19.5432 5.86572V12.2673H19.1414Z" fill="#E9D518"/>
<path fill-rule="evenodd" clip-rule="evenodd" d="M18.3306 12.2673V7.07835L18.7324 6.66943V12.2673H18.3306Z" fill="#E9D518"/>
<path fill-rule="evenodd" clip-rule="evenodd" d="M17.5198 12.2676V7.88233L17.8582 7.48047V12.2676H17.5198Z" fill="#E9D518"/>
<path fill-rule="evenodd" clip-rule="evenodd" d="M16.7161 12.2673V8.69288L17.0474 8.29102V12.2673H16.7161Z" fill="#E9D518"/>
<path fill-rule="evenodd" clip-rule="evenodd" d="M15.9053 12.2671V9.50342L16.2437 9.10156V12.2671H15.9053Z" fill="#E9D518"/>
<path fill-rule="evenodd" clip-rule="evenodd" d="M15.031 12.2676V10.3076L15.4329 9.90576V12.2676H15.031Z" fill="#E9D518"/>
<path fill-rule="evenodd" clip-rule="evenodd" d="M14.2202 12.2674V11.1182L14.6221 10.7163V12.2674H14.2202Z" fill="#E9D518"/>
<path fill-rule="evenodd" clip-rule="evenodd" d="M13.4094 12.2672V11.9287L13.7478 11.5903V12.2672H13.4094Z" fill="#E9D518"/>
<path fill-rule="evenodd" clip-rule="evenodd" d="M2.55933 5.18896V5.72478H3.16564V5.18896H2.55933Z" fill="white"/>
<path fill-rule="evenodd" clip-rule="evenodd" d="M3.63794 5.18896H4.24426V5.72478H3.63794V5.18896Z" fill="white"/>
<path fill-rule="evenodd" clip-rule="evenodd" d="M2.55933 6.26758V6.81044H3.16564V6.26758H2.55933Z" fill="white"/>
<path fill-rule="evenodd" clip-rule="evenodd" d="M3.63794 6.26758H4.24426V6.81044H3.63794V6.26758Z" fill="white"/>
<path fill-rule="evenodd" clip-rule="evenodd" d="M4.78711 6.26758H5.32292V6.81044H4.78711V6.26758Z" fill="white"/>
<path fill-rule="evenodd" clip-rule="evenodd" d="M1.48047 7.34619V7.88201H2.08679V7.34619H1.48047Z" fill="white"/>
<path fill-rule="evenodd" clip-rule="evenodd" d="M2.55933 7.34619V7.88201H3.16564V7.34619H2.55933Z" fill="white"/>
<path fill-rule="evenodd" clip-rule="evenodd" d="M3.63794 7.34619H4.24426V7.88201H3.63794V7.34619Z" fill="white"/>
<path fill-rule="evenodd" clip-rule="evenodd" d="M4.78711 7.34619H5.32292V7.88201H4.78711V7.34619Z" fill="white"/>
<path fill-rule="evenodd" clip-rule="evenodd" d="M5.86572 7.34619H6.40154V7.88201H5.86572V7.34619Z" fill="white"/>
<path fill-rule="evenodd" clip-rule="evenodd" d="M1.48047 8.4248V9.03112H2.08679V8.4248H1.48047Z" fill="white"/>
<path fill-rule="evenodd" clip-rule="evenodd" d="M2.55933 8.4248V9.03112H3.16564V8.4248H2.55933Z" fill="white"/>
<path fill-rule="evenodd" clip-rule="evenodd" d="M3.63794 8.4248H4.24426V9.03112H3.63794V8.4248Z" fill="white"/>
<path fill-rule="evenodd" clip-rule="evenodd" d="M4.78711 8.4248H5.32292V9.03112H4.78711V8.4248Z" fill="white"/>
<path fill-rule="evenodd" clip-rule="evenodd" d="M5.86572 8.4248H6.40154V9.03112H5.86572V8.4248Z" fill="white"/>
<path fill-rule="evenodd" clip-rule="evenodd" d="M0.401855 9.50391V10.1102H1.00817V9.50391H0.401855Z" fill="white"/>
<path fill-rule="evenodd" clip-rule="evenodd" d="M1.48047 9.50391V10.1102H2.08679V9.50391H1.48047Z" fill="white"/>
<path fill-rule="evenodd" clip-rule="evenodd" d="M2.55933 9.50391V10.1102H3.16564V9.50391H2.55933Z" fill="white"/>
<path fill-rule="evenodd" clip-rule="evenodd" d="M3.63794 9.50391H4.24426V10.1102H3.63794V9.50391Z" fill="white"/>
<path fill-rule="evenodd" clip-rule="evenodd" d="M4.78711 9.50391H5.32292V10.1102H4.78711V9.50391Z" fill="white"/>
<path fill-rule="evenodd" clip-rule="evenodd" d="M5.86572 9.50391H6.40154V10.1102H5.86572V9.50391Z" fill="white"/>
<path fill-rule="evenodd" clip-rule="evenodd" d="M10.7797 13.8818V14.4247H10.2439V13.8818H10.7797Z" fill="white"/>
<path fill-rule="evenodd" clip-rule="evenodd" d="M10.7797 14.9604V15.4963H10.2439V14.9604H10.7797Z" fill="white"/>
<path fill-rule="evenodd" clip-rule="evenodd" d="M10.7797 16.0391V16.5819H10.2439V16.0391H10.7797Z" fill="white"/>
<path fill-rule="evenodd" clip-rule="evenodd" d="M10.7797 17.1177V17.724H10.2439V17.1177H10.7797Z" fill="white"/>
<path fill-rule="evenodd" clip-rule="evenodd" d="M0.401855 10.5825V11.1888H1.00817V10.5825H0.401855Z" fill="white"/>
<path fill-rule="evenodd" clip-rule="evenodd" d="M1.48047 10.5825V11.1888H2.08679V10.5825H1.48047Z" fill="white"/>
<path fill-rule="evenodd" clip-rule="evenodd" d="M2.55933 10.5825V11.1888H3.16564V10.5825H2.55933Z" fill="white"/>
<path fill-rule="evenodd" clip-rule="evenodd" d="M3.63794 10.5825H4.24426V11.1888H3.63794V10.5825Z" fill="white"/>
<path fill-rule="evenodd" clip-rule="evenodd" d="M4.78711 10.5825H5.32292V11.1888H4.78711V10.5825Z" fill="white"/>
<path fill-rule="evenodd" clip-rule="evenodd" d="M5.86572 10.5825H6.40154V11.1888H5.86572V10.5825Z" fill="white"/>
<path fill-rule="evenodd" clip-rule="evenodd" d="M9.63759 13.8818V14.4247H9.09473V13.8818H9.63759Z" fill="white"/>
<path fill-rule="evenodd" clip-rule="evenodd" d="M9.63759 14.9604V15.4963H9.09473V14.9604H9.63759Z" fill="white"/>
<path fill-rule="evenodd" clip-rule="evenodd" d="M9.63759 16.0391V16.5819H9.09473V16.0391H9.63759Z" fill="white"/>
<path fill-rule="evenodd" clip-rule="evenodd" d="M9.63759 17.1177V17.724H9.09473V17.1177H9.63759Z" fill="white"/>
<path fill-rule="evenodd" clip-rule="evenodd" d="M9.63759 18.2603V18.8031H9.09473V18.2603H9.63759Z" fill="white"/>
<path fill-rule="evenodd" clip-rule="evenodd" d="M9.63759 19.3389V19.8817H9.09473V19.3389H9.63759Z" fill="white"/>
<path fill-rule="evenodd" clip-rule="evenodd" d="M9.63759 20.4175V20.9603H9.09473V20.4175H9.63759Z" fill="white"/>
<path fill-rule="evenodd" clip-rule="evenodd" d="M9.63759 21.4961V22.039H9.09473V21.4961H9.63759Z" fill="white"/>
<path fill-rule="evenodd" clip-rule="evenodd" d="M0.401855 11.6611V12.2674H1.00817V11.6611H0.401855Z" fill="white"/>
<path fill-rule="evenodd" clip-rule="evenodd" d="M1.48047 11.6611V12.2674H2.08679V11.6611H1.48047Z" fill="white"/>
<path fill-rule="evenodd" clip-rule="evenodd" d="M2.55933 11.6611V12.2674H3.16564V11.6611H2.55933Z" fill="white"/>
<path fill-rule="evenodd" clip-rule="evenodd" d="M3.63794 11.6611H4.24426V12.2674H3.63794V11.6611Z" fill="white"/>
<path fill-rule="evenodd" clip-rule="evenodd" d="M4.78711 11.6611H5.32292V12.2674H4.78711V11.6611Z" fill="white"/>
<path fill-rule="evenodd" clip-rule="evenodd" d="M5.86572 11.6611H6.40154V12.2674H5.86572V11.6611Z" fill="white"/>
<path fill-rule="evenodd" clip-rule="evenodd" d="M8.55898 13.8818H8.01611V14.4247H8.55898V13.8818Z" fill="white"/>
<path fill-rule="evenodd" clip-rule="evenodd" d="M8.55898 14.9604H8.01611V15.4963H8.55898V14.9604Z" fill="white"/>
<path fill-rule="evenodd" clip-rule="evenodd" d="M8.55898 16.0391H8.01611V16.5819H8.55898V16.0391Z" fill="white"/>
<path fill-rule="evenodd" clip-rule="evenodd" d="M8.55898 17.1177H8.01611V17.724H8.55898V17.1177Z" fill="white"/>
<path fill-rule="evenodd" clip-rule="evenodd" d="M8.55898 18.2603H8.01611V18.8031H8.55898V18.2603Z" fill="white"/>
<path fill-rule="evenodd" clip-rule="evenodd" d="M8.55898 19.3389H8.01611V19.8817H8.55898V19.3389Z" fill="white"/>
<path fill-rule="evenodd" clip-rule="evenodd" d="M8.55898 20.4175H8.01611V20.9603H8.55898V20.4175Z" fill="white"/>
<path fill-rule="evenodd" clip-rule="evenodd" d="M8.55898 21.4961H8.01611V22.039H8.55898V21.4961Z" fill="white"/>
<path fill-rule="evenodd" clip-rule="evenodd" d="M8.55898 22.5747H8.01611V23.1176H8.55898V22.5747Z" fill="white"/>
<path fill-rule="evenodd" clip-rule="evenodd" d="M0.401855 12.7397V13.339H1.00817V12.7397H0.401855Z" fill="white"/>
<path fill-rule="evenodd" clip-rule="evenodd" d="M1.48047 12.7397V13.339H2.08679V12.7397H1.48047Z" fill="white"/>
<path fill-rule="evenodd" clip-rule="evenodd" d="M2.55933 12.7397V13.339H3.16564V12.7397H2.55933Z" fill="white"/>
<path fill-rule="evenodd" clip-rule="evenodd" d="M3.63794 12.7397V13.339H4.24426V12.7397H3.63794Z" fill="white"/>
<path fill-rule="evenodd" clip-rule="evenodd" d="M4.78711 12.7397V13.339H5.32292V12.7397H4.78711Z" fill="white"/>
<path fill-rule="evenodd" clip-rule="evenodd" d="M5.86572 12.7397V13.339H6.40154V12.7397H5.86572Z" fill="white"/>
<path fill-rule="evenodd" clip-rule="evenodd" d="M7.48015 13.8818H6.94434V14.4247H7.48015V13.8818Z" fill="white"/>
<path fill-rule="evenodd" clip-rule="evenodd" d="M7.48015 14.9604H6.94434V15.4963H7.48015V14.9604Z" fill="white"/>
<path fill-rule="evenodd" clip-rule="evenodd" d="M7.48015 16.0391H6.94434V16.5819H7.48015V16.0391Z" fill="white"/>
<path fill-rule="evenodd" clip-rule="evenodd" d="M7.48015 17.1177H6.94434V17.724H7.48015V17.1177Z" fill="white"/>
<path fill-rule="evenodd" clip-rule="evenodd" d="M7.48015 18.2603H6.94434V18.8031H7.48015V18.2603Z" fill="white"/>
<path fill-rule="evenodd" clip-rule="evenodd" d="M7.48015 19.3389H6.94434V19.8817H7.48015V19.3389Z" fill="white"/>
<path fill-rule="evenodd" clip-rule="evenodd" d="M7.48015 20.4175H6.94434V20.9603H7.48015V20.4175Z" fill="white"/>
<path fill-rule="evenodd" clip-rule="evenodd" d="M7.48015 21.4961H6.94434V22.039H7.48015V21.4961Z" fill="white"/>
<path fill-rule="evenodd" clip-rule="evenodd" d="M7.48015 22.5747H6.94434V23.1176H7.48015V22.5747Z" fill="white"/>
<path fill-rule="evenodd" clip-rule="evenodd" d="M0.401855 13.8818V14.4247H1.00817V13.8818H0.401855Z" fill="white"/>
<path fill-rule="evenodd" clip-rule="evenodd" d="M1.48047 13.8818V14.4247H2.08679V13.8818H1.48047Z" fill="white"/>
<path fill-rule="evenodd" clip-rule="evenodd" d="M2.55933 13.8818V14.4247H3.16564V13.8818H2.55933Z" fill="white"/>
<path fill-rule="evenodd" clip-rule="evenodd" d="M3.63794 13.8818V14.4247H4.24426V13.8818H3.63794Z" fill="white"/>
<path fill-rule="evenodd" clip-rule="evenodd" d="M4.78711 13.8818V14.4247H5.32292V13.8818H4.78711Z" fill="white"/>
<path fill-rule="evenodd" clip-rule="evenodd" d="M5.86572 13.8818V14.4247H6.40154V13.8818H5.86572Z" fill="white"/>
<path fill-rule="evenodd" clip-rule="evenodd" d="M6.40154 14.9604H5.86572V15.4963H6.40154V14.9604Z" fill="white"/>
<path fill-rule="evenodd" clip-rule="evenodd" d="M6.40154 16.0391H5.86572V16.5819H6.40154V16.0391Z" fill="white"/>
<path fill-rule="evenodd" clip-rule="evenodd" d="M6.40154 17.1177H5.86572V17.724H6.40154V17.1177Z" fill="white"/>
<path fill-rule="evenodd" clip-rule="evenodd" d="M6.40154 18.2603H5.86572V18.8031H6.40154V18.2603Z" fill="white"/>
<path fill-rule="evenodd" clip-rule="evenodd" d="M6.40154 19.3389H5.86572V19.8817H6.40154V19.3389Z" fill="white"/>
<path fill-rule="evenodd" clip-rule="evenodd" d="M6.40154 20.4175H5.86572V20.9603H6.40154V20.4175Z" fill="white"/>
<path fill-rule="evenodd" clip-rule="evenodd" d="M6.40154 21.4961H5.86572V22.039H6.40154V21.4961Z" fill="white"/>
<path fill-rule="evenodd" clip-rule="evenodd" d="M0.401855 14.9604V15.4963H1.00817V14.9604H0.401855Z" fill="white"/>
<path fill-rule="evenodd" clip-rule="evenodd" d="M1.48047 14.9604V15.4963H2.08679V14.9604H1.48047Z" fill="white"/>
<path fill-rule="evenodd" clip-rule="evenodd" d="M2.55933 14.9604V15.4963H3.16564V14.9604H2.55933Z" fill="white"/>
<path fill-rule="evenodd" clip-rule="evenodd" d="M3.63794 14.9604V15.4963H4.24426V14.9604H3.63794Z" fill="white"/>
<path fill-rule="evenodd" clip-rule="evenodd" d="M4.78711 14.9604V15.4963H5.32292V14.9604H4.78711Z" fill="white"/>
<path fill-rule="evenodd" clip-rule="evenodd" d="M5.32292 16.0391H4.78711V16.5819H5.32292V16.0391Z" fill="white"/>
<path fill-rule="evenodd" clip-rule="evenodd" d="M5.32292 17.1177H4.78711V17.724H5.32292V17.1177Z" fill="white"/>
<path fill-rule="evenodd" clip-rule="evenodd" d="M5.32292 18.2603H4.78711V18.8031H5.32292V18.2603Z" fill="white"/>
<path fill-rule="evenodd" clip-rule="evenodd" d="M5.32292 19.3389H4.78711V19.8817H5.32292V19.3389Z" fill="white"/>
<path fill-rule="evenodd" clip-rule="evenodd" d="M5.32292 20.4175H4.78711V20.9603H5.32292V20.4175Z" fill="white"/>
<path fill-rule="evenodd" clip-rule="evenodd" d="M5.32292 21.4961H4.78711V22.039H5.32292V21.4961Z" fill="white"/>
<path fill-rule="evenodd" clip-rule="evenodd" d="M1.48047 16.0391V16.5819H2.08679V16.0391H1.48047Z" fill="white"/>
<path fill-rule="evenodd" clip-rule="evenodd" d="M2.55933 16.0391V16.5819H3.16564V16.0391H2.55933Z" fill="white"/>
<path fill-rule="evenodd" clip-rule="evenodd" d="M3.63794 16.0391V16.5819H4.24426V16.0391H3.63794Z" fill="white"/>
<path fill-rule="evenodd" clip-rule="evenodd" d="M4.24426 17.1177H3.63794V17.724H4.24426V17.1177Z" fill="white"/>
<path fill-rule="evenodd" clip-rule="evenodd" d="M4.24426 18.2603H3.63794V18.8031H4.24426V18.2603Z" fill="white"/>
<path fill-rule="evenodd" clip-rule="evenodd" d="M4.24426 19.3389H3.63794V19.8817H4.24426V19.3389Z" fill="white"/>
<path fill-rule="evenodd" clip-rule="evenodd" d="M4.24426 20.4175H3.63794V20.9603H4.24426V20.4175Z" fill="white"/>
<path fill-rule="evenodd" clip-rule="evenodd" d="M1.48047 17.1177V17.724H2.08679V17.1177H1.48047Z" fill="white"/>
<path fill-rule="evenodd" clip-rule="evenodd" d="M2.55933 17.1177V17.724H3.16564V17.1177H2.55933Z" fill="white"/>
<path fill-rule="evenodd" clip-rule="evenodd" d="M3.16564 18.2603H2.55933V18.8031H3.16564V18.2603Z" fill="white"/>
<path fill-rule="evenodd" clip-rule="evenodd" d="M3.16564 19.3389H2.55933V19.8817H3.16564V19.3389Z" fill="white"/>
<path fill-rule="evenodd" clip-rule="evenodd" d="M11.8583 12.7397V13.339H11.3225V12.7397H11.8583Z" fill="white"/>
<path fill-rule="evenodd" clip-rule="evenodd" d="M6.94434 8.4248H7.48015V9.03112H6.94434V8.4248Z" fill="white"/>
<path fill-rule="evenodd" clip-rule="evenodd" d="M6.94434 9.50391H7.48015V10.1102H6.94434V9.50391Z" fill="white"/>
<path fill-rule="evenodd" clip-rule="evenodd" d="M8.01611 9.50391H8.55898V10.1102H8.01611V9.50391Z" fill="white"/>
<path fill-rule="evenodd" clip-rule="evenodd" d="M10.7797 11.6611V12.2674H10.2439V11.6611H10.7797Z" fill="white"/>
<path fill-rule="evenodd" clip-rule="evenodd" d="M10.7797 12.7397V13.339H10.2439V12.7397H10.7797Z" fill="white"/>
<path fill-rule="evenodd" clip-rule="evenodd" d="M6.94434 10.5825H7.48015V11.1888H6.94434V10.5825Z" fill="white"/>
<path fill-rule="evenodd" clip-rule="evenodd" d="M8.01611 10.5825H8.55898V11.1888H8.01611V10.5825Z" fill="white"/>
<path fill-rule="evenodd" clip-rule="evenodd" d="M9.09473 10.5825H9.63759V11.1888H9.09473V10.5825Z" fill="white"/>
<path fill-rule="evenodd" clip-rule="evenodd" d="M9.63759 11.6611V12.2674H9.09473V11.6611H9.63759Z" fill="white"/>
<path fill-rule="evenodd" clip-rule="evenodd" d="M9.63759 12.7397V13.339H9.09473V12.7397H9.63759Z" fill="white"/>
<path fill-rule="evenodd" clip-rule="evenodd" d="M6.94434 11.6611H7.48015V12.2674H6.94434V11.6611Z" fill="white"/>
<path fill-rule="evenodd" clip-rule="evenodd" d="M8.01611 11.6611H8.55898V12.2674H8.01611V11.6611Z" fill="white"/>
<path fill-rule="evenodd" clip-rule="evenodd" d="M8.55898 12.7397H8.01611V13.339H8.55898V12.7397Z" fill="white"/>
<path fill-rule="evenodd" clip-rule="evenodd" d="M6.94434 12.7397V13.339H7.48015V12.7397H6.94434Z" fill="white"/>
</g>
<defs>
<clipPath id="clip0_319_822">
<rect width="25" height="25" fill="white"/>
</clipPath>
</defs>
</svg>
