<svg width="25" height="30" viewBox="0 0 25 30" fill="none" xmlns="http://www.w3.org/2000/svg">
<path d="M12.2 2.36281C7.5981 2.36281 3.85818 6.10273 3.85818 10.7046V14.7226C3.85818 15.5707 3.4967 16.8637 3.0657 17.5867L1.46685 20.2421C0.479734 21.8827 1.16098 23.704 2.96838 24.3157C8.9606 26.3178 15.4255 26.3178 21.4177 24.3157C23.1 23.7596 23.8369 21.7715 22.9193 20.2421L21.3204 17.5867C20.9033 16.8637 20.5418 15.5707 20.5418 14.7226V10.7046C20.5418 6.11663 16.788 2.36281 12.2 2.36281Z" stroke="#2F2F2F" stroke-width="2" stroke-miterlimit="10" stroke-linecap="round"/>
<path d="M14.7713 2.7652C14.3403 2.64007 13.8954 2.54275 13.4366 2.48713C12.1019 2.3203 10.8228 2.41762 9.62715 2.7652C10.0303 1.73637 11.0314 1.01341 12.1992 1.01341C13.3671 1.01341 14.3681 1.73637 14.7713 2.7652Z" stroke="#2F2F2F" stroke-width="2" stroke-miterlimit="10" stroke-linecap="round" stroke-linejoin="round"/>
<path d="M16.3694 24.8157C16.3694 27.1097 14.4925 28.9866 12.1985 28.9866C11.0585 28.9866 10.0018 28.5139 9.25108 27.7631C8.50031 27.0124 8.02761 25.9557 8.02761 24.8157" stroke="#2F2F2F" stroke-width="2" stroke-miterlimit="10"/>
</svg>
