<svg width="20" height="12" viewBox="0 0 20 12" fill="none" xmlns="http://www.w3.org/2000/svg">
<g opacity="0.19" clip-path="url(#clip0_278_865)">
<path d="M0.206299 5.83029C1.34126 7.79849 2.47623 9.76669 3.55251 11.8008C4.93079 10.9731 6.48367 10.4274 8.08522 10.2072C8.99691 10.0823 9.97587 10.0739 10.7788 10.5158C11.0951 10.6898 11.3914 10.9353 11.7535 10.9619C12.2759 11.0012 12.6995 10.5747 13.0745 10.1581C15.2042 9.43702 17.4927 9.33321 19.714 9.22098C19.0699 8.49571 18.1196 8.07485 17.5027 7.35238C17.9321 7.34958 18.3614 7.39307 18.7722 7.44076C18.3529 6.76319 17.8076 6.16136 17.1778 5.69421C17.3324 5.62688 17.4998 5.58479 17.6573 5.56094C16.8944 4.89038 16.176 4.17071 15.5147 3.38652C14.7404 2.53078 14.0177 1.63015 13.3092 0.666389C13.0358 0.618692 12.7453 0.677612 12.5091 0.827717C12.3002 0.592038 12.1227 0.331108 11.961 0.0505371C11.0149 0.43071 10.1605 1.02552 9.47208 1.78446C9.03985 2.33859 8.66343 2.9362 8.36144 3.57591C8.11384 4.07953 7.95497 4.62384 7.85908 5.16814C6.76992 4.44006 5.49326 3.98694 4.17939 3.85507C3.09738 3.83684 1.96671 3.88173 1.01065 4.40639C1.06504 4.52003 1.11227 4.63786 1.16952 4.73606C1.04214 4.76132 0.92907 4.83847 0.841765 4.93387C0.75446 5.02926 0.691486 5.14289 0.632805 5.25652C0.684329 5.38138 0.755891 5.49641 0.844627 5.59882C0.635668 5.66896 0.433864 5.75313 0.206299 5.83029Z" fill="white"/>
<path d="M12.1169 10.3909C12.811 9.72591 13.3506 8.85614 14.185 8.40723C15.2369 7.84889 16.3819 7.39156 17.6042 7.35649C18.1667 8.09299 19.0283 8.54891 19.6967 9.19563C17.6486 9.25034 15.6076 9.51969 13.6182 9.99946C13.2733 10.0822 12.9098 10.1832 12.6693 10.44C12.6808 10.3937 12.728 10.3572 12.7767 10.3572C12.4575 10.6798 12.0009 10.8664 11.5429 10.8622C11.4456 10.8608 11.3469 10.851 11.2596 10.8103C11.1751 10.7696 11.1078 10.7009 11.0349 10.642C10.8316 10.4736 10.5769 10.367 10.3464 10.2646C9.17712 10.0331 7.95628 10.1327 6.80557 10.4414C5.65486 10.75 4.57142 11.2634 3.48082 11.7783C3.48226 11.4893 3.32911 11.2242 3.1817 10.9758C2.17984 9.28681 1.17798 7.59778 0.231934 5.92838C0.369332 5.71515 0.618366 5.57487 0.873124 5.53979C1.3855 6.27208 1.79627 7.0647 2.20703 7.8559C2.69222 8.79161 3.1774 9.72731 3.65114 10.6504C4.80042 10.0317 6.05417 9.54774 7.36232 9.47059C7.6686 9.45235 7.97488 9.45656 8.28117 9.4748C9.3231 9.53512 10.3937 9.76519 11.2252 10.3852C11.2667 10.4161 11.3096 10.4498 11.3597 10.4666C11.4127 10.4848 11.4699 10.4834 11.5258 10.4792C11.7676 10.4624 12.0353 10.4694 12.1169 10.3909Z" fill="white"/>
<path d="M3.5668 12.0001C3.55248 12.0001 3.5396 11.9987 3.52529 11.9959C3.47806 11.9847 3.43942 11.9538 3.41652 11.9131L1.42711 8.32323C0.99917 7.55166 0.55692 6.75344 0.0316592 6.02956C-0.0227275 5.95381 -0.00555273 5.8486 0.0717336 5.79529C0.14902 5.74198 0.256362 5.76022 0.310749 5.83457C0.846029 6.57527 1.294 7.38191 1.72767 8.1633L3.62834 11.5919C4.96224 10.7488 6.40206 10.2171 7.91201 10.0095C9.26309 9.82428 10.3465 9.98841 11.1337 10.5005C11.4672 10.7249 11.928 10.7502 12.2816 10.5636C12.4032 10.5005 12.5134 10.4135 12.6308 10.3223C12.7023 10.2662 12.7753 10.2087 12.854 10.1554C13.3306 9.82849 13.9117 9.69101 14.4198 9.5886C15.9154 9.28699 17.517 9.12145 19.3017 9.08778C18.6634 8.63045 18.0465 8.14086 17.4597 7.62461C17.3896 7.56288 17.3839 7.45627 17.4469 7.38753C17.5098 7.31879 17.6186 7.31317 17.6887 7.3749C18.3943 7.99496 19.1472 8.57995 19.9257 9.11163C19.9873 9.15372 20.0131 9.22947 19.9916 9.29961C19.9701 9.36976 19.9028 9.41745 19.8284 9.41745C17.8533 9.42727 16.1072 9.59 14.4885 9.91827C14.0148 10.0137 13.4738 10.1399 13.0501 10.4317C12.9814 10.4794 12.9142 10.5313 12.844 10.586C12.7195 10.6828 12.5921 10.7824 12.4433 10.861C11.9796 11.1051 11.3756 11.0728 10.9419 10.7796C10.2292 10.3167 9.22444 10.1694 7.95924 10.3433C6.4407 10.5524 4.99516 11.0995 3.66126 11.9735C3.63406 11.9903 3.60115 12.0001 3.5668 12.0001Z" fill="black"/>
<path d="M0.171755 6.06318C0.13168 6.06318 0.0916058 6.04915 0.0586876 6.0211C-0.0128739 5.95937 -0.02003 5.85416 0.0429441 5.78401C0.108781 5.71106 0.144561 5.68161 0.243316 5.63952C0.383577 5.5806 0.5267 5.52589 0.671254 5.47819C0.761421 5.44873 0.858745 5.49643 0.888801 5.58481C0.918856 5.67319 0.870195 5.76858 0.780027 5.79804C0.645492 5.84153 0.510956 5.89203 0.379283 5.94815C0.334915 5.96638 0.334915 5.96638 0.300565 6.00566C0.266216 6.04354 0.218985 6.06318 0.171755 6.06318Z" fill="black"/>
<path d="M11.7705 10.4373C11.7533 10.4373 11.7376 10.4275 11.7304 10.4107C11.4814 9.81587 11.4943 9.08218 11.7691 8.34428C12.094 7.47171 12.7194 6.66366 13.5796 6.00713C14.2737 5.47685 15.1253 5.03916 16.1801 4.666C15.755 4.29004 12.9369 1.77332 11.9451 0.0927026C9.91419 0.860063 8.30549 2.90402 7.9391 5.19067C7.93623 5.2047 7.92765 5.21732 7.91476 5.22293C7.90188 5.22855 7.88614 5.22714 7.87469 5.22013C6.77407 4.52852 5.62766 4.09925 4.46979 3.94213C3.25182 3.778 2.04386 3.95756 1.06347 4.44716C1.21518 4.7642 1.36546 5.07984 1.51717 5.39548C2.18985 6.80114 2.88686 8.2545 3.52232 9.70084C5.13389 8.87316 7.12902 8.69499 9.45047 9.17337C10.4853 9.3866 11.198 9.778 11.6317 10.3728C11.646 10.391 11.6403 10.4177 11.6216 10.4317C11.603 10.4458 11.5758 10.4401 11.5615 10.4219C11.1422 9.84533 10.4452 9.46516 9.4333 9.25614C7.11185 8.77776 5.12244 8.96013 3.52089 9.79623C3.51087 9.80185 3.49799 9.80325 3.48654 9.79904C3.47509 9.79483 3.4665 9.78641 3.46078 9.77659C2.82102 8.31903 2.11829 6.85165 1.43845 5.43196C1.28102 5.10509 1.12501 4.77683 0.967577 4.44716C0.957558 4.42611 0.966145 4.40227 0.986183 4.39245C1.98804 3.8804 3.22892 3.69102 4.48124 3.85936C5.63338 4.01508 6.77121 4.43734 7.8661 5.11491C8.25826 2.81143 9.89272 0.763266 11.9494 0.00292006C11.9694 -0.0040942 11.9909 0.00292006 12.0024 0.0211571C13.0443 1.81961 16.2588 4.62392 16.2918 4.65197C16.3032 4.66179 16.3089 4.67722 16.3061 4.69125C16.3032 4.70528 16.2932 4.71791 16.2789 4.72212C15.2012 5.09668 14.3367 5.53858 13.634 6.07447C12.7867 6.71978 12.1712 7.51519 11.8521 8.37374C11.5859 9.092 11.5716 9.80465 11.812 10.3798C11.8206 10.4009 11.8106 10.4261 11.7891 10.4345C11.7819 10.4359 11.7762 10.4373 11.7705 10.4373Z" fill="black"/>
<path d="M11.9409 10.4414H11.9395C11.9166 10.44 11.8979 10.4204 11.8979 10.398C11.8979 10.3825 11.9767 8.83939 13.3063 7.53614C13.9804 6.87539 14.8477 6.35634 15.8854 5.9916C16.4578 5.79099 17.0518 5.65211 17.5728 5.53707C16.0084 4.08933 14.5758 2.46342 13.312 0.705649C13.0458 0.67198 12.7724 0.725289 12.5406 0.857157C12.5191 0.86838 12.4933 0.861365 12.4819 0.841726C12.4704 0.822086 12.4776 0.795431 12.4976 0.784209C12.7524 0.639715 13.053 0.583601 13.3435 0.625686C13.3549 0.627089 13.365 0.634103 13.3721 0.64252C14.6502 2.42414 16.1043 4.06969 17.6916 5.53146C17.703 5.54268 17.7073 5.55812 17.703 5.57355C17.6987 5.58898 17.6858 5.6002 17.6715 5.60301C17.1348 5.71944 16.5122 5.86253 15.9154 6.07156C14.8892 6.43209 14.0319 6.94413 13.3678 7.59646C12.064 8.87446 11.9853 10.3867 11.9853 10.4022C11.9824 10.4232 11.9638 10.4414 11.9409 10.4414Z" fill="black"/>
<path d="M12.147 10.4372C12.1384 10.4372 12.1283 10.4344 12.1212 10.4287C12.1026 10.4147 12.0997 10.3881 12.114 10.3698C12.147 10.3277 12.9384 9.33873 13.3377 8.98942C14.5428 7.93588 16.7283 7.00999 18.722 7.42384C18.3012 6.75888 17.786 6.20335 17.152 5.72779C17.1334 5.71376 17.1291 5.6871 17.1434 5.66887C17.1577 5.65063 17.1849 5.64642 17.2035 5.66045C17.8733 6.16267 18.4114 6.75187 18.8465 7.46312C18.8551 7.47714 18.8551 7.49538 18.8437 7.50941C18.8337 7.52344 18.8165 7.52905 18.7993 7.52484C16.8099 7.06471 14.6029 7.99339 13.3936 9.04974C13 9.39344 12.1885 10.4091 12.1799 10.4203C12.1713 10.4316 12.1598 10.4372 12.147 10.4372Z" fill="black"/>
<path d="M11.7018 10.44C11.6875 10.44 11.6732 10.433 11.6646 10.4189C11.2424 9.69505 10.7272 9.01187 10.2291 8.35252L7.84324 5.18348C7.82892 5.16524 7.83322 5.13859 7.85182 5.12456C7.87043 5.11053 7.89762 5.11474 7.91193 5.13298L10.2992 8.30062C10.7987 8.96277 11.314 9.64736 11.739 10.3754C11.7505 10.3951 11.7433 10.4217 11.7233 10.433C11.7176 10.4372 11.7104 10.44 11.7018 10.44Z" fill="black"/>
<path d="M10.9748 7.59782C10.9705 7.59782 10.9662 7.59782 10.9605 7.59501C10.9376 7.588 10.9261 7.56415 10.9333 7.5417C11.4385 6.08414 12.615 4.88751 14.082 4.33899C14.1034 4.33058 14.1292 4.3418 14.1378 4.36284C14.1464 4.38388 14.1349 4.40914 14.1135 4.41755C12.6708 4.95625 11.5115 6.13464 11.0149 7.56836C11.0091 7.5866 10.992 7.59782 10.9748 7.59782Z" fill="black"/>
<path d="M10.3708 6.74072C10.3651 6.74072 10.3593 6.73932 10.3536 6.73792C10.3321 6.7281 10.3221 6.70425 10.3307 6.68321C10.3665 6.60324 10.4008 6.52328 10.4338 6.44472C10.803 5.59038 11.1236 4.85108 11.9151 4.29415C11.9337 4.28012 11.9609 4.28433 11.9752 4.30397C11.9895 4.32221 11.9852 4.34886 11.9652 4.36289C11.1923 4.90579 10.8774 5.63528 10.5125 6.47839C10.4781 6.55695 10.4438 6.63691 10.4094 6.71688C10.4023 6.7309 10.3865 6.74072 10.3708 6.74072Z" fill="black"/>
<path d="M12.5778 3.87597C12.5649 3.87597 12.5521 3.87036 12.5435 3.85913C12.5292 3.8409 12.532 3.81424 12.5506 3.80021C12.7825 3.62486 13.0172 3.51684 13.2061 3.42986L13.219 3.42425C13.2405 3.41443 13.2662 3.42285 13.2763 3.44389C13.2863 3.46493 13.2777 3.49018 13.2562 3.5L13.2433 3.50561C13.0573 3.59119 12.8269 3.6978 12.6036 3.86755C12.595 3.87316 12.5864 3.87597 12.5778 3.87597Z" fill="black"/>
<path d="M9.57931 5.97324C9.57502 5.97324 9.5693 5.97184 9.565 5.97043C9.54353 5.96202 9.53208 5.93817 9.53924 5.91713C10.1618 4.27298 11.0807 3.27555 12.5205 2.68636C12.542 2.67794 12.5677 2.68776 12.5763 2.7088C12.5849 2.72984 12.5749 2.7551 12.5534 2.76351C11.1379 3.34429 10.2334 4.32489 9.61939 5.94658C9.61223 5.96342 9.59649 5.97324 9.57931 5.97324Z" fill="black"/>
<path d="M8.88361 5.36457C8.87931 5.36457 8.87502 5.36457 8.87216 5.36317C8.84926 5.35615 8.83637 5.33371 8.84353 5.31126C8.87216 5.21447 8.89935 5.11767 8.92511 5.02368C9.06108 4.53268 9.18989 4.06974 9.5477 3.67133C9.56344 3.65449 9.59063 3.65169 9.60781 3.66712C9.62498 3.68255 9.62784 3.70921 9.6121 3.72604C9.26718 4.11042 9.14123 4.56354 9.00812 5.04472C8.98236 5.14012 8.95517 5.23691 8.92654 5.33371C8.91939 5.35195 8.90221 5.36457 8.88361 5.36457Z" fill="black"/>
<path d="M10.0002 3.25751C9.99015 3.25751 9.98156 3.25471 9.97298 3.24769C9.95437 3.23366 9.95151 3.20701 9.96725 3.18877C10.1662 2.94888 10.4152 2.64867 10.7186 2.47612C10.7387 2.4649 10.7659 2.47051 10.7773 2.49155C10.7888 2.51119 10.7816 2.53785 10.7616 2.54907C10.471 2.71461 10.2292 3.0078 10.0331 3.24208C10.0245 3.2519 10.0131 3.25751 10.0002 3.25751Z" fill="black"/>
<path d="M11.1264 2.29496C11.1149 2.29496 11.1035 2.29075 11.0949 2.28233C11.0791 2.2655 11.0791 2.23885 11.0963 2.22341C11.2409 2.08874 11.5243 1.89374 11.716 1.81939C11.7375 1.81098 11.7633 1.8208 11.7719 1.84324C11.7804 1.86428 11.7704 1.88954 11.7475 1.89795C11.5672 1.9681 11.291 2.15888 11.155 2.28514C11.1478 2.29215 11.1378 2.29496 11.1264 2.29496Z" fill="black"/>
<path d="M11.5144 10.5129C11.2539 10.5129 11.0106 10.4765 10.7844 10.4035C10.7615 10.3965 10.7501 10.3726 10.7572 10.3502C10.7644 10.3278 10.7887 10.3165 10.8116 10.3235C11.1966 10.4484 11.6375 10.4624 12.1226 10.3656C12.5778 10.2744 13.0143 10.0991 13.3878 9.94057C13.4093 9.93075 13.4351 9.94057 13.4437 9.96301C13.4537 9.98406 13.4437 10.0093 13.4208 10.0177C13.0429 10.1777 12.6007 10.3558 12.1384 10.4484C11.9223 10.4919 11.7133 10.5129 11.5144 10.5129Z" fill="black"/>
<path d="M3.70117 10.7095C3.69831 10.7095 3.69401 10.7095 3.69115 10.7081C3.6797 10.7053 3.66968 10.6983 3.66396 10.6884C3.29899 10.06 2.96409 9.40063 2.64063 8.76373C2.04381 7.58674 1.42552 6.37047 0.593971 5.29588C0.583953 5.28326 0.582522 5.26642 0.589678 5.25239C0.705607 5.01812 0.898823 4.82312 1.13211 4.70107C1.15358 4.68985 1.17934 4.69827 1.19079 4.71791C1.20224 4.73895 1.19366 4.7642 1.17362 4.77402C0.963229 4.88344 0.788619 5.0574 0.679845 5.26502C1.50853 6.34101 2.12396 7.55307 2.71935 8.72586C3.03565 9.35013 3.3634 9.99403 3.71834 10.6085C5.35424 9.60544 7.34079 9.20844 9.17562 9.51987C10.0744 9.67278 10.7972 9.9758 11.3225 10.4191C11.3411 10.4345 11.3425 10.4612 11.3268 10.478C11.311 10.4963 11.2838 10.4977 11.2666 10.4822C10.7528 10.0473 10.0444 9.75134 9.16131 9.60124C7.3322 9.29121 5.35138 9.69242 3.7255 10.7011C3.71691 10.7067 3.70976 10.7095 3.70117 10.7095Z" fill="black"/>
<path d="M4.1105 8.27402C4.09476 8.27402 4.08044 8.2656 4.07329 8.25298C4.06184 8.23334 4.06899 8.20668 4.09046 8.19546C4.79463 7.81388 5.65766 7.62309 6.58366 7.64273C7.34937 7.65957 8.17376 7.81669 9.10406 8.12251C9.12696 8.12952 9.13841 8.15337 9.13125 8.17582C9.1241 8.19826 9.09977 8.20949 9.07687 8.20247C8.15372 7.89946 7.33792 7.74374 6.5808 7.72691C5.66768 7.70586 4.82182 7.89384 4.12911 8.26841C4.12338 8.27261 4.11622 8.27402 4.1105 8.27402Z" fill="black"/>
<path d="M8.15388 7.07311C8.14816 7.07311 8.14386 7.07171 8.13814 7.07031C7.67728 6.89355 7.1921 6.79114 6.69689 6.76589C6.67399 6.76448 6.65538 6.74484 6.65682 6.721C6.65825 6.69855 6.67542 6.68031 6.70262 6.68172C7.20641 6.70837 7.70018 6.81358 8.16963 6.99175C8.19109 7.00016 8.20254 7.02401 8.19396 7.04646C8.1868 7.06329 8.17106 7.07311 8.15388 7.07311Z" fill="black"/>
<path d="M3.69561 7.28921C3.68273 7.28921 3.66985 7.2836 3.66126 7.27238C3.64695 7.25414 3.65124 7.22749 3.67128 7.21346C4.26094 6.79541 5.03238 6.70142 5.71078 6.64531C5.73225 6.6425 5.75515 6.66074 5.75658 6.68318C5.75801 6.70563 5.74084 6.72667 5.71794 6.72807C5.05241 6.78278 4.29386 6.87397 3.7228 7.27939C3.71422 7.28781 3.70563 7.28921 3.69561 7.28921Z" fill="black"/>
<path d="M3.06863 6.2426C3.05289 6.2426 3.03858 6.23419 3.02999 6.22016C3.01854 6.19911 3.02713 6.17386 3.0486 6.16404C4.56284 5.38686 6.62095 5.48927 7.59132 6.07286C7.61136 6.08548 7.61851 6.11073 7.60563 6.13037C7.59275 6.15001 7.56699 6.15563 7.54695 6.1444C6.59518 5.57344 4.57715 5.47524 3.08867 6.23839C3.08295 6.2398 3.07579 6.2426 3.06863 6.2426Z" fill="black"/>
<path d="M7.11466 5.36457C7.10893 5.36457 7.10178 5.36316 7.09605 5.36036L7.02878 5.3295C6.68386 5.17097 6.38473 5.03349 6.01261 4.9367C5.98971 4.93109 5.97683 4.90724 5.98256 4.88479C5.98828 4.86235 6.01261 4.84832 6.03551 4.85533C6.41479 4.95494 6.71678 5.09241 7.06457 5.25374L7.13183 5.28461C7.1533 5.29443 7.16189 5.31968 7.15187 5.34072C7.14615 5.35615 7.13183 5.36457 7.11466 5.36457Z" fill="black"/>
<path d="M2.49764 5.25089C2.4819 5.25089 2.46616 5.24248 2.459 5.22705C2.44898 5.206 2.45757 5.18075 2.47904 5.17093C3.36926 4.73885 4.40833 4.75148 5.32575 4.7627C5.34865 4.7627 5.36869 4.78234 5.36869 4.80479C5.36869 4.82723 5.34865 4.84687 5.32575 4.84687C4.41835 4.83565 3.39073 4.82302 2.51911 5.24528C2.51052 5.24949 2.50337 5.25089 2.49764 5.25089Z" fill="black"/>
<path d="M7.30369 2.9573C7.28223 2.9573 7.26505 2.94187 7.26076 2.92083C7.1849 2.41019 7.26934 1.8743 7.49977 1.40995C7.50979 1.38891 7.53555 1.38049 7.55702 1.39031C7.57849 1.40013 7.58708 1.42538 7.57706 1.44643C7.35522 1.89534 7.27364 2.4144 7.34663 2.9082C7.34949 2.93064 7.33375 2.95309 7.31085 2.9559C7.30799 2.9573 7.30656 2.9573 7.30369 2.9573Z" fill="black"/>
<path d="M6.72532 2.79033C6.70671 2.79033 6.68954 2.77911 6.68381 2.76087C6.59078 2.44944 6.48201 2.1366 6.36322 1.83218C6.35463 1.81114 6.36608 1.78589 6.38755 1.77747C6.41045 1.76905 6.43478 1.78027 6.44337 1.80132C6.56359 2.10714 6.67236 2.42138 6.76683 2.73562C6.77398 2.75806 6.7611 2.78051 6.7382 2.78752C6.73248 2.78893 6.72961 2.79033 6.72532 2.79033Z" fill="black"/>
<path d="M5.87678 2.98956C5.86676 2.98956 5.85817 2.98675 5.84958 2.97974C5.49321 2.69776 5.0438 2.53784 4.58724 2.52802C4.56291 2.52802 4.5443 2.50838 4.54573 2.48453C4.54573 2.46068 4.56434 2.44385 4.5901 2.44385C5.0667 2.45367 5.53328 2.62061 5.9054 2.9138C5.92401 2.92783 5.92687 2.95449 5.91256 2.97272C5.90254 2.98535 5.88966 2.98956 5.87678 2.98956Z" fill="black"/>
</g>
<defs>
<clipPath id="clip0_278_865">
<rect width="20" height="12" fill="white"/>
</clipPath>
</defs>
</svg>
