<svg width="28" height="23" viewBox="0 0 28 23" fill="none" xmlns="http://www.w3.org/2000/svg">
<g clip-path="url(#clip0_346_723)">
<path fill-rule="evenodd" clip-rule="evenodd" d="M21.1167 0.457364C20.4963 1.06589 20.4963 2.0814 21.1167 2.68992C23.4994 5.02713 24.8429 8.17442 24.8429 11.5233C24.8429 14.8721 23.4994 17.9225 21.1167 20.3062C20.4963 20.9147 20.4963 21.9302 21.1167 22.5426C21.4249 22.845 21.7884 23 22.2033 23C22.6182 23 23.0292 22.8488 23.3413 22.5426C26.2891 19.6473 28.0001 15.6899 28.0001 11.5233C28.0001 7.35659 26.3444 3.44961 23.3413 0.457364C23.0292 0.151163 22.6656 0 22.2547 0H22.2033C21.7884 0 21.4249 0.151163 21.1167 0.457364Z" fill="#E9D51C"/>
<path fill-rule="evenodd" clip-rule="evenodd" d="M16.5091 2.38748C16.0468 2.89523 16.0468 3.75957 16.5091 4.26732C18.5797 6.24794 19.7177 8.93786 19.7177 11.7828C19.7177 14.6278 18.5797 17.2634 16.5091 19.2983C16.0468 19.7557 16.0468 20.6162 16.5091 21.1743C16.8213 21.4301 17.1334 21.5309 17.493 21.5309C17.8526 21.5309 18.1687 21.4301 18.4255 21.1743C21.0138 18.6859 22.4126 15.3371 22.4126 11.7828C22.4126 8.22856 21.0138 4.92624 18.4255 2.39135C18.1687 2.13554 17.8605 1.98438 17.493 1.98438C17.1334 1.98438 16.8213 2.13554 16.5091 2.39135V2.38748Z" fill="#E9D51C"/>
<path fill-rule="evenodd" clip-rule="evenodd" d="M15.0076 5.32935C14.4899 4.87199 13.6127 4.87199 13.0911 5.32935C12.5735 5.88749 12.5735 6.75183 13.0911 7.25958C15.6319 9.74796 15.6319 13.7596 13.0911 16.2441C12.5735 16.7518 12.5735 17.6162 13.0911 18.1239C13.4072 18.3797 13.7154 18.4805 14.075 18.4805C14.3832 18.4805 14.7468 18.3797 15.0036 18.1239C18.6271 14.62 18.6271 8.88362 15.0036 5.32935H15.0076Z" fill="#E9D51C"/>
<path fill-rule="evenodd" clip-rule="evenodd" d="M4.50071 6.60059H1.18544C0.513689 6.60059 0 7.15873 0 7.76725V15.7401C0 16.3486 0.51764 16.9068 1.18544 16.9068H4.50071V6.60059Z" fill="#A1A1A1"/>
<path fill-rule="evenodd" clip-rule="evenodd" d="M9.31362 3.50403L5.5874 6.24434V17.2598L9.31362 20.0001C10.0921 20.5583 11.1748 20.0505 11.1748 19.0854V4.41875C11.1748 3.45364 10.0921 2.94589 9.31362 3.50403Z" fill="#A1A1A1"/>
</g>
<defs>
<clipPath id="clip0_346_723">
<rect width="28" height="23" fill="white"/>
</clipPath>
</defs>
</svg>
