<svg width="14" height="19" viewBox="0 0 14 19" fill="none" xmlns="http://www.w3.org/2000/svg">
<path d="M6.77099 8.58595C6.68268 8.57712 6.5767 8.57712 6.47956 8.58595C4.37778 8.51531 2.70872 6.79326 2.70872 4.67381C2.70872 2.51022 4.45726 0.752844 6.62969 0.752844C8.79329 0.752844 10.5507 2.51022 10.5507 4.67381C10.5418 6.79326 8.87277 8.51531 6.77099 8.58595Z" stroke="#242424" stroke-width="1.5" stroke-linecap="round" stroke-linejoin="round"/>
<path d="M2.35567 11.8445C0.218568 13.2751 0.218568 15.6065 2.35567 17.0283C4.7842 18.6532 8.76699 18.6532 11.1955 17.0283C13.3326 15.5977 13.3326 13.2663 11.1955 11.8445C8.77582 10.2284 4.79303 10.2284 2.35567 11.8445Z" stroke="#242424" stroke-width="1.5" stroke-linecap="round" stroke-linejoin="round"/>
</svg>
