<svg width="25" height="22" viewBox="0 0 25 22" fill="none" xmlns="http://www.w3.org/2000/svg">
<g clip-path="url(#clip0_381_773)">
<path d="M23.737 0H1.263L0 3.06246H25L23.737 0Z" fill="#E9D51C"/>
<path d="M23.7369 12.0151V3.40771H1.26294V12.0151H23.7369ZM18.1102 5.29629H19.7869V6.87758H18.1102V5.29629ZM18.1102 7.22284H19.7869V8.80414H18.1102V7.22284ZM18.1102 9.1494H19.7869V10.7307H18.1102V9.1494ZM16.0674 5.29284H17.7441V6.87413H16.0674V5.29284ZM16.0674 7.21939H17.7441V8.80068H16.0674V7.21939ZM16.0674 9.14594H17.7441V10.7272H16.0674V9.14594ZM12.6812 5.28938H14.3578V6.87068H12.6812V5.28938ZM12.6812 7.21594H14.3578V8.79723H12.6812V7.21594ZM12.6812 9.14249H14.3578V10.7238H12.6812V9.14249ZM10.6384 5.28593H12.3151V6.86722H10.6384V5.28593ZM10.6384 7.21249H12.3151V8.79378H10.6384V7.21249ZM10.6384 9.13904H12.3151V10.7203H10.6384V9.13904ZM7.06906 5.28248H8.74573V6.86377H7.06906V5.28248ZM7.06906 7.20903H8.74573V8.79033H7.06906V7.20903ZM7.06906 9.13559H8.74573V10.7169H7.06906V9.13559ZM5.0263 5.27903H6.70297V6.86032H5.0263V5.27903ZM5.0263 7.20558H6.70297V8.78687H5.0263V7.20558ZM5.0263 9.13213H6.70297V10.7134H5.0263V9.13213Z" fill="#A1A1A1"/>
<path d="M3.63892 22.0001H10.1369V14.3008H3.63892V22.0001ZM8.09418 14.646H9.77085V16.2273H8.09418V14.646ZM8.09418 16.5726H9.77085V18.1539H8.09418V16.5726ZM6.05142 14.646H7.7281V16.2273H6.05142V14.646ZM6.05142 16.5726H7.7281V18.1539H6.05142V16.5726ZM4.00866 14.646H5.68534V16.2273H4.00866V14.646ZM4.00866 16.5726H5.68534V18.1539H4.00866V16.5726Z" fill="#E9D51C"/>
<path d="M14.863 22.0001H21.3611V14.3008H14.863V22.0001ZM19.3183 14.646H20.995V16.2273H19.3183V14.646ZM19.3183 16.5726H20.995V18.1539H19.3183V16.5726ZM17.2755 14.646H18.9522V16.2273H17.2755V14.646ZM17.2755 16.5726H18.9522V18.1539H17.2755V16.5726ZM15.2328 14.646H16.9095V16.2273H15.2328V14.646ZM15.2328 16.5726H16.9095V18.1539H15.2328V16.5726Z" fill="#E9D51C"/>
<path d="M0 13.3961H1.263V22H3.27281V13.9555H10.503V22H14.497V13.9555H21.7272V22H23.737V13.3961H25V12.3604H0V13.3961Z" fill="#A1A1A1"/>
</g>
<defs>
<clipPath id="clip0_381_773">
<rect width="25" height="22" fill="white"/>
</clipPath>
</defs>
</svg>
