<svg width="31" height="32" viewBox="0 0 31 32" fill="none" xmlns="http://www.w3.org/2000/svg">
<g clip-path="url(#clip0_284_4701)">
<path fill-rule="evenodd" clip-rule="evenodd" d="M17.9498 8.3173C18.0207 7.41637 18.3351 6.47009 18.11 5.63224C17.5827 4.43559 15.0923 3.87176 13.8958 4.08468C13.1474 5.30892 13.4557 6.81706 13.5936 8.21085L17.9498 8.31533V8.3173Z" fill="#995503"/>
<path fill-rule="evenodd" clip-rule="evenodd" d="M15.7595 8.26429V4.19727C16.7816 4.42989 17.7956 4.9188 18.11 5.63246C18.3351 6.47031 18.0207 7.41461 17.9498 8.31752L15.7595 8.26429Z" fill="#8B4801"/>
<path fill-rule="evenodd" clip-rule="evenodd" d="M15.7209 16.7765C16.3821 16.7863 17.031 16.7587 17.6739 16.6937V10.9667L17.4549 10.874C16.9722 10.669 16.374 10.4324 15.7209 10.3457V16.7784V16.7765Z" fill="#B2D8DE"/>
<path fill-rule="evenodd" clip-rule="evenodd" d="M15.721 16.7765C15.0599 16.7863 14.4109 16.7587 13.7681 16.6937V10.9667L13.9871 10.874C14.4698 10.669 15.068 10.4324 15.721 10.3457V16.7784V16.7765Z" fill="#B2D8DE"/>
<path fill-rule="evenodd" clip-rule="evenodd" d="M14.3279 9.21826H17.1164V10.8545C16.1876 11.5721 15.2567 11.6017 14.3279 10.8545V9.21826Z" fill="#E0AC7E"/>
<path fill-rule="evenodd" clip-rule="evenodd" d="M14.5732 5.86083C14.1778 5.78592 13.8005 6.17823 13.7296 6.56266C13.6647 6.91554 13.618 7.27828 13.6018 7.64102C13.5917 7.64102 13.6484 7.63905 13.5694 7.63905C13.4903 7.63905 13.2307 7.69622 13.2428 8.03136C13.253 8.2837 13.4761 9.01312 13.7722 8.89484C14.2001 10.0107 14.778 10.6395 15.7211 10.8643C15.7373 10.8347 15.7454 10.8584 15.7596 10.8485V5.97912C15.3783 5.97912 14.9991 5.94166 14.5732 5.8628V5.86083Z" fill="#F2C196"/>
<path fill-rule="evenodd" clip-rule="evenodd" d="M16.9073 5.86083C17.3028 5.78592 17.68 6.17823 17.751 6.56266C17.8159 6.91554 17.8605 7.27828 17.8787 7.64102C17.8889 7.64102 17.8301 7.63905 17.9112 7.63905C17.9923 7.63905 18.2499 7.69622 18.2377 8.03136C18.2296 8.2837 18.0045 9.01312 17.7084 8.89484C17.2744 10.0264 16.6883 10.6474 15.7209 10.8643V5.97912C16.1022 5.97912 16.4835 5.94166 16.9073 5.8628V5.86083Z" fill="#EBB688"/>
<path fill-rule="evenodd" clip-rule="evenodd" d="M15.721 11.4043H16.1975L15.9968 12.1396H15.721H15.4472L15.2444 11.4043H15.721Z" fill="#FF3705"/>
<path fill-rule="evenodd" clip-rule="evenodd" d="M15.9968 12.1162L16.1915 14.8998L15.721 15.7357L15.2505 14.8998L15.4472 12.1162H15.9968Z" fill="#FF5527"/>
<path fill-rule="evenodd" clip-rule="evenodd" d="M15.721 11.4045L14.9037 12.1773L13.9871 10.8742L14.3257 10.6948C14.6685 11.0457 15.1369 11.2705 15.719 11.4045H15.721Z" fill="#F0FAFC"/>
<path fill-rule="evenodd" clip-rule="evenodd" d="M15.721 15.661L13.7133 10.9907C11.8983 11.7517 10.7322 12.3392 10.5273 14.5728C11.3527 16.0021 13.3199 17.1731 15.721 17.1711V15.659V15.661Z" fill="#096385"/>
<path fill-rule="evenodd" clip-rule="evenodd" d="M12.168 16.2012C12.241 16.2504 12.3241 16.2899 12.3992 16.3372L12.3931 15.4126L12.168 16.2012Z" fill="#08426A"/>
<path fill-rule="evenodd" clip-rule="evenodd" d="M15.7212 15.661V16.8399L13.8311 13.5496L14.3928 12.8872L13.537 12.6093L13.1497 11.2293L14.0866 10.833L15.7212 15.661Z" fill="#0174A3"/>
<path fill-rule="evenodd" clip-rule="evenodd" d="M15.7209 11.4045L16.5403 12.1773L17.4549 10.8742L17.1162 10.6948C16.7735 11.0457 16.303 11.2705 15.7209 11.4045Z" fill="#F0FAFC"/>
<path fill-rule="evenodd" clip-rule="evenodd" d="M15.7209 15.661L17.7287 10.9907C19.5437 11.7517 20.7098 12.3392 20.9147 14.5728C20.0893 16.0021 18.1221 17.1731 15.7209 17.1711V15.659V15.661Z" fill="#0B5975"/>
<path fill-rule="evenodd" clip-rule="evenodd" d="M19.2742 16.2012C19.2012 16.2504 19.118 16.2899 19.043 16.3372L19.0491 15.4126L19.2742 16.2012Z" fill="#08426A"/>
<path fill-rule="evenodd" clip-rule="evenodd" d="M15.7209 15.6609V16.8398L17.611 13.5495L17.0493 12.8871L17.9051 12.6092L18.2925 11.2292L17.39 10.8408L15.7209 15.6609Z" fill="#0A6D94"/>
<path fill-rule="evenodd" clip-rule="evenodd" d="M25.6381 24.0905C25.6827 23.5385 25.8733 22.9589 25.7354 22.4463C25.4129 21.7149 23.8879 21.3679 23.1538 21.498C22.6954 22.2472 22.884 23.1718 22.9692 24.0254L25.636 24.0905H25.6381Z" fill="#995503"/>
<path fill-rule="evenodd" clip-rule="evenodd" d="M24.2954 24.0568V21.5649C24.92 21.7069 25.5426 22.0065 25.7353 22.4442C25.8732 22.9568 25.6805 23.5364 25.6379 24.0884L24.2974 24.0568H24.2954Z" fill="#8B4801"/>
<path fill-rule="evenodd" clip-rule="evenodd" d="M24.2732 29.2714C24.6768 29.2773 25.0763 29.2596 25.4697 29.2201V25.713L25.3359 25.6558C25.0398 25.5297 24.6747 25.3857 24.2732 25.3325V29.2714Z" fill="#B2D8DE"/>
<path fill-rule="evenodd" clip-rule="evenodd" d="M24.2732 29.2714C23.8676 29.2773 23.4701 29.2596 23.0767 29.2201V25.713L23.2105 25.6558C23.5066 25.5297 23.8737 25.3857 24.2732 25.3325V29.2714Z" fill="#B2D8DE"/>
<path fill-rule="evenodd" clip-rule="evenodd" d="M23.4194 24.6426H25.127V25.6441C24.5571 26.0837 23.9893 26.1014 23.4194 25.6441V24.6426Z" fill="#E0AC7E"/>
<path fill-rule="evenodd" clip-rule="evenodd" d="M23.5695 22.5861C23.3282 22.5408 23.095 22.7813 23.0524 23.0159C23.0118 23.2327 22.9855 23.4535 22.9733 23.6763C22.9672 23.6763 23.0037 23.6763 22.953 23.6763C22.9023 23.6763 22.7441 23.7118 22.7523 23.9168C22.7583 24.0706 22.8962 24.5181 23.0767 24.4452C23.3383 25.1292 23.6912 25.5156 24.2712 25.6517C24.2814 25.6339 24.2854 25.6477 24.2956 25.6418V22.6591C24.0623 22.6591 23.8291 22.6374 23.5695 22.5881V22.5861Z" fill="#F2C196"/>
<path fill-rule="evenodd" clip-rule="evenodd" d="M24.9991 22.5861C25.2405 22.5408 25.4717 22.7813 25.5163 23.0159C25.5568 23.2327 25.5832 23.4535 25.5954 23.6763C25.6015 23.6763 25.567 23.6763 25.6157 23.6763C25.6643 23.6763 25.8245 23.7118 25.8164 23.9168C25.8103 24.0706 25.6724 24.5181 25.4919 24.4452C25.2263 25.1391 24.8673 25.5196 24.2751 25.6517V22.6591C24.5084 22.6591 24.7416 22.6374 25.0012 22.5881L24.9991 22.5861Z" fill="#EBB688"/>
<path fill-rule="evenodd" clip-rule="evenodd" d="M24.2732 25.981H24.5653L24.4416 26.4304H24.2732H24.1049L23.9812 25.981H24.2732Z" fill="#FF3705"/>
<path fill-rule="evenodd" clip-rule="evenodd" d="M24.4414 26.4165L24.5611 28.1218L24.2731 28.6324L23.9851 28.1218L24.1048 26.4165H24.4414Z" fill="#FF5527"/>
<path fill-rule="evenodd" clip-rule="evenodd" d="M24.273 25.9811L23.7721 26.4542L23.2124 25.6558L23.4213 25.5454C23.6302 25.7603 23.9181 25.8983 24.2751 25.9811H24.273Z" fill="#F0FAFC"/>
<path fill-rule="evenodd" clip-rule="evenodd" d="M24.2732 28.5871L23.0442 25.7266C21.9329 26.1918 21.219 26.5526 21.0933 27.9207C21.5982 28.7961 22.8049 29.5136 24.2752 29.5117V28.5851L24.2732 28.5871Z" fill="#096385"/>
<path fill-rule="evenodd" clip-rule="evenodd" d="M22.0972 28.9185C22.1418 28.9481 22.1925 28.9737 22.2391 29.0013L22.2351 28.4355L22.0972 28.9185Z" fill="#08426A"/>
<path fill-rule="evenodd" clip-rule="evenodd" d="M24.2733 28.5875V29.309L23.1153 27.2942L23.46 26.8881L22.9348 26.7186L22.6975 25.8729L23.2714 25.6304L24.2733 28.5875Z" fill="#0174A3"/>
<path fill-rule="evenodd" clip-rule="evenodd" d="M24.2732 25.9811L24.7741 26.4542L25.3359 25.6558L25.127 25.5454C24.9161 25.7603 24.6301 25.8983 24.2732 25.9811Z" fill="#F0FAFC"/>
<path fill-rule="evenodd" clip-rule="evenodd" d="M24.2733 28.5871L25.5022 25.7266C26.6136 26.1918 27.3274 26.5526 27.4532 27.9207C26.9482 28.7961 25.7415 29.5136 24.2712 29.5117V28.5851L24.2733 28.5871Z" fill="#0B5975"/>
<path fill-rule="evenodd" clip-rule="evenodd" d="M26.4491 28.9185C26.4045 28.9481 26.3538 28.9737 26.3071 29.0013L26.3112 28.4355L26.4491 28.9185Z" fill="#08426A"/>
<path fill-rule="evenodd" clip-rule="evenodd" d="M24.2732 28.5875V29.309L25.4312 27.2942L25.0864 26.8881L25.6096 26.7186L25.8469 25.8728L25.2953 25.6343L24.2732 28.5875Z" fill="#0A6D94"/>
<path fill-rule="evenodd" clip-rule="evenodd" d="M8.1038 24.1027C8.14842 23.5507 8.34108 22.9711 8.20317 22.4585C7.87869 21.7271 6.35567 21.3801 5.62153 21.5103C5.1632 22.2594 5.35181 23.184 5.43698 24.0376L8.1038 24.1027Z" fill="#995503"/>
<path fill-rule="evenodd" clip-rule="evenodd" d="M6.76343 24.069V21.5791C7.38805 21.721 8.01065 22.0207 8.20331 22.4584C8.34121 22.9709 8.14855 23.5505 8.10394 24.1025L6.76343 24.071V24.069Z" fill="#8B4801"/>
<path fill-rule="evenodd" clip-rule="evenodd" d="M6.73901 29.2856C7.14259 29.2915 7.5421 29.2738 7.93553 29.2343V25.7252L7.80169 25.668C7.5056 25.5419 7.14056 25.398 6.74104 25.3447V29.2836L6.73901 29.2856Z" fill="#B2D8DE"/>
<path fill-rule="evenodd" clip-rule="evenodd" d="M6.739 29.2856C6.3334 29.2915 5.93591 29.2738 5.54248 29.2343V25.7252L5.67633 25.668C5.97242 25.5419 6.33746 25.398 6.739 25.3447V29.2836V29.2856Z" fill="#B2D8DE"/>
<path fill-rule="evenodd" clip-rule="evenodd" d="M5.88525 24.6548H7.59283V25.6563C7.02296 26.0959 6.45512 26.1136 5.88525 25.6563V24.6548Z" fill="#E0AC7E"/>
<path fill-rule="evenodd" clip-rule="evenodd" d="M6.03528 22.5983C5.79395 22.553 5.56073 22.7935 5.51814 23.0281C5.47758 23.2449 5.45122 23.4657 5.44108 23.6885C5.43499 23.6885 5.46947 23.6885 5.4208 23.6885C5.37212 23.6885 5.21191 23.724 5.22002 23.929C5.22611 24.0828 5.36401 24.5303 5.5445 24.4574C5.80814 25.1414 6.16102 25.5259 6.739 25.6639C6.74711 25.6461 6.75319 25.6599 6.7613 25.654V22.6713C6.52808 22.6713 6.29486 22.6496 6.03528 22.6003V22.5983Z" fill="#F2C196"/>
<path fill-rule="evenodd" clip-rule="evenodd" d="M7.46504 22.5983C7.70637 22.553 7.93756 22.7935 7.98218 23.0281C8.02274 23.2449 8.0491 23.4657 8.05924 23.6885C8.06533 23.6885 8.03085 23.6885 8.07952 23.6885C8.12819 23.6885 8.28638 23.724 8.28029 23.929C8.27421 24.0828 8.13631 24.5303 7.95581 24.4574C7.69015 25.1493 7.33119 25.5318 6.73901 25.6639V22.6713C6.97223 22.6713 7.20545 22.6496 7.46504 22.6003V22.5983Z" fill="#EBB688"/>
<path fill-rule="evenodd" clip-rule="evenodd" d="M6.73905 25.9932H7.03108L6.90738 26.4426H6.73905H6.57073L6.44702 25.9932H6.73905Z" fill="#FF3705"/>
<path fill-rule="evenodd" clip-rule="evenodd" d="M6.90747 26.4287L7.02712 28.134L6.73915 28.6446L6.45117 28.134L6.57082 26.4287H6.90747Z" fill="#FF5527"/>
<path fill-rule="evenodd" clip-rule="evenodd" d="M6.73911 25.9933L6.23819 26.4664L5.67847 25.668L5.88735 25.5576C6.09623 25.7725 6.38421 25.9105 6.74114 25.9933H6.73911Z" fill="#F0FAFC"/>
<path fill-rule="evenodd" clip-rule="evenodd" d="M6.73906 28.5993L5.50806 25.7388C4.39672 26.204 3.68286 26.5648 3.55713 27.933C4.0621 28.8083 5.26876 29.5259 6.73906 29.5259V28.5993Z" fill="#096385"/>
<path fill-rule="evenodd" clip-rule="evenodd" d="M4.56299 28.9307C4.6076 28.9603 4.6583 28.9859 4.70495 29.0135V28.4478L4.56299 28.9307Z" fill="#08426A"/>
<path fill-rule="evenodd" clip-rule="evenodd" d="M6.73901 28.5997V29.3232L5.58102 27.3064L5.92578 26.9003L5.40053 26.7308L5.16528 25.887L5.73718 25.6426L6.73901 28.5997Z" fill="#0174A3"/>
<path fill-rule="evenodd" clip-rule="evenodd" d="M6.73909 25.9933L7.24 26.4664L7.79973 25.668L7.59085 25.5576C7.38196 25.7725 7.09399 25.9105 6.73706 25.9933H6.73909Z" fill="#F0FAFC"/>
<path fill-rule="evenodd" clip-rule="evenodd" d="M6.73901 28.5993L7.96798 25.7388C9.07933 26.204 9.79318 26.5648 9.91892 27.933C9.41394 28.8083 8.20729 29.5259 6.73901 29.5259V28.5993Z" fill="#0B5975"/>
<path fill-rule="evenodd" clip-rule="evenodd" d="M8.91515 28.9307C8.87054 28.9603 8.81984 28.9859 8.77319 29.0135L8.77725 28.4478L8.91515 28.9307Z" fill="#08426A"/>
<path fill-rule="evenodd" clip-rule="evenodd" d="M6.73901 28.5997V29.3232L7.897 27.3064L7.55224 26.9003L8.07749 26.7308L8.31274 25.887L7.76113 25.6465L6.73901 28.5997Z" fill="#0A6D94"/>
<path fill-rule="evenodd" clip-rule="evenodd" d="M26.3942 12.3785C26.2867 12.9483 26.1346 13.5022 25.9379 14.0365C25.0192 13.6205 23.9079 13.9497 23.3928 14.8191C22.8757 15.6885 23.1373 16.7866 23.9647 17.3524C23.5834 17.7881 23.1657 18.1942 22.7175 18.5648C22.1354 17.7585 21.0058 17.5062 20.1115 18.0089C19.2171 18.5116 18.8785 19.59 19.3064 20.483C18.7568 20.6742 18.1869 20.8221 17.6008 20.9266C17.5116 19.9448 16.6619 19.176 15.6296 19.176C14.5974 19.176 13.7476 19.9448 13.6584 20.9266C13.0723 20.8221 12.5024 20.6723 11.9528 20.483C12.3808 19.59 12.0421 18.5096 11.1477 18.0089C10.2534 17.5082 9.12379 17.7605 8.54175 18.5648C8.09357 18.1942 7.6758 17.7881 7.29453 17.3524C8.12196 16.7866 8.38357 15.6885 7.86643 14.8191C7.34929 13.9497 6.23997 13.6205 5.32129 14.0365C5.12457 13.5022 4.97247 12.9483 4.86499 12.3785C5.87493 12.2918 6.66585 11.4677 6.66585 10.4643C6.66585 9.46084 5.87493 8.63678 4.86499 8.54807C4.97045 7.97833 5.12457 7.42436 5.32129 6.89011C6.23997 7.30608 7.34929 6.97685 7.86643 6.10746C8.38357 5.23807 8.12196 4.14196 7.29453 3.57419C7.6758 3.13851 8.09357 2.7324 8.54175 2.36177C9.12379 3.16611 10.2534 3.42042 11.1477 2.91771C12.0421 2.415 12.3808 1.33664 11.9528 0.441615C12.5024 0.250388 13.0723 0.102532 13.6584 -0.00195312C13.7476 0.97784 14.5974 1.74866 15.6296 1.74866C16.6619 1.74866 17.5116 0.979811 17.6008 -0.00195312C18.1869 0.102532 18.7568 0.250388 19.3064 0.441615C18.8785 1.33467 19.2171 2.415 20.1115 2.91771C21.0058 3.41845 22.1354 3.16611 22.7175 2.36177C23.1657 2.7324 23.5834 3.13851 23.9647 3.57419C23.1373 4.13999 22.8757 5.23807 23.3928 6.10746C23.9099 6.97685 25.0192 7.30608 25.9379 6.89011C26.1346 7.42436 26.2867 7.97833 26.3942 8.54807C25.3843 8.63481 24.5934 9.45886 24.5934 10.4643C24.5934 11.4697 25.3843 12.2918 26.3942 12.3785ZM7.89279 10.4643C7.89279 14.6181 11.3566 17.9852 15.6296 17.9852C19.9026 17.9852 23.3664 14.6181 23.3664 10.4643C23.3664 6.31052 19.9026 2.94334 15.6316 2.94334C11.3607 2.94334 7.89482 6.31052 7.89482 10.4643H7.89279Z" fill="#FF5527"/>
<path fill-rule="evenodd" clip-rule="evenodd" d="M30.9917 25.2008C31.0079 25.5557 30.9917 25.9066 30.9512 26.2516C30.3448 26.1254 29.7283 26.4684 29.5417 27.0559C29.3551 27.6434 29.6654 28.2644 30.2393 28.4931C30.073 28.8045 29.8804 29.1022 29.6654 29.3822C29.2051 28.978 28.4953 28.9761 28.0308 29.396C27.5664 29.8139 27.5157 30.5039 27.897 30.981C27.5948 31.1683 27.2764 31.3319 26.9418 31.4719C26.7512 30.8962 26.1367 30.5512 25.5202 30.6873C24.9037 30.8253 24.5042 31.397 24.5893 31.9943C24.2243 32.0101 23.8633 31.9943 23.5084 31.9549C23.6382 31.3654 23.2853 30.7661 22.679 30.5847C22.0746 30.4034 21.4358 30.705 21.2005 31.2629C20.8801 31.1012 20.5739 30.914 20.2859 30.705C20.7017 30.2575 20.7017 29.5675 20.2717 29.116C19.8418 28.6646 19.132 28.6153 18.6412 28.9859C18.4485 28.6922 18.2802 28.3827 18.1362 28.0574C18.7264 27.8721 19.0833 27.2747 18.9434 26.6754C18.8034 26.0761 18.2153 25.6897 17.5988 25.7705C17.5826 25.4157 17.5968 25.0648 17.6394 24.7198C18.2457 24.8459 18.8623 24.5029 19.0488 23.9154C19.2354 23.328 18.9251 22.707 18.3512 22.4783C18.5175 22.1668 18.7102 21.8691 18.9251 21.5892C19.3855 21.9933 20.0953 21.9933 20.5597 21.5754C21.0241 21.1574 21.0748 20.4674 20.6935 19.9904C20.9957 19.8031 21.3141 19.6394 21.6508 19.4995C21.8414 20.0732 22.4559 20.4201 23.0724 20.2841C23.6889 20.1481 24.0884 19.5764 24.0032 18.977C24.3683 18.9613 24.7293 18.9751 25.0842 19.0165C24.9544 19.6059 25.3072 20.2052 25.9136 20.3866C26.518 20.568 27.1568 20.2664 27.392 19.7084C27.7124 19.8701 28.0187 20.0574 28.3067 20.2664C27.8909 20.7139 27.8889 21.4039 28.3208 21.8553C28.7508 22.3068 29.4606 22.3561 29.9493 21.9854C30.142 22.2792 30.3103 22.5887 30.4543 22.914C29.8642 23.0993 29.5072 23.6966 29.6472 24.2959C29.7871 24.8952 30.3752 25.2816 30.9917 25.2008ZM19.6755 26.5098C20.2575 28.9899 22.7986 30.5414 25.3498 29.9736C27.9011 29.4078 29.4971 26.9376 28.9151 24.4576C28.333 21.9775 25.7919 20.426 23.2407 20.9918C20.6895 21.5576 19.0934 24.0278 19.6775 26.5079L19.6755 26.5098Z" fill="#FF5527"/>
<path fill-rule="evenodd" clip-rule="evenodd" d="M13.3989 25.2008C13.4151 25.5557 13.4009 25.9066 13.3583 26.2516C12.7519 26.1254 12.1354 26.4684 11.9489 27.0559C11.7623 27.6434 12.0726 28.2644 12.6465 28.4931C12.4802 28.8045 12.2875 29.1022 12.0726 29.3822C11.6122 28.978 10.9024 28.9761 10.438 29.396C9.97358 29.8139 9.92288 30.5039 10.3041 30.981C10.004 31.1683 9.68358 31.3319 9.34896 31.4719C9.15833 30.8962 8.54384 30.5512 7.92733 30.6873C7.31082 30.8253 6.9113 31.397 6.99648 31.9943C6.63144 32.0101 6.27046 31.9943 5.91556 31.9549C6.04535 31.3654 5.69248 30.7661 5.08813 30.5847C4.48379 30.4034 3.84497 30.705 3.60972 31.2629C3.2893 31.1012 2.98307 30.914 2.69509 30.705C3.1088 30.2575 3.11083 29.5675 2.6809 29.116C2.25096 28.6646 1.54116 28.6153 1.05039 28.9859C0.857725 28.6922 0.689401 28.3827 0.545413 28.0574C1.13556 27.8721 1.49249 27.2747 1.35256 26.6754C1.2106 26.0761 0.624505 25.6897 0.00799342 25.7705C-0.00823057 25.4157 0.00596542 25.0648 0.0485534 24.7198C0.654925 24.8459 1.27144 24.5029 1.45801 23.9154C1.64459 23.328 1.33431 22.707 0.760381 22.4783C0.926677 22.1668 1.11934 21.8691 1.33431 21.5892C1.79466 21.9933 2.50446 21.9933 2.96887 21.5754C3.43328 21.1574 3.48398 20.4674 3.10272 19.9904C3.40489 19.8031 3.72329 19.6394 4.05994 19.4995C4.25057 20.0732 4.86505 20.4201 5.48156 20.2841C6.09808 20.1481 6.49759 19.5764 6.41242 18.977C6.77746 18.9613 7.13844 18.9751 7.49334 19.0165C7.36355 19.6059 7.71642 20.2052 8.32279 20.3866C8.92714 20.568 9.56596 20.2664 9.8012 19.7084C10.1216 19.8701 10.4279 20.0574 10.7158 20.2664C10.3001 20.7139 10.2981 21.4039 10.728 21.8553C11.1579 22.3068 11.8677 22.3561 12.3585 21.9854C12.5512 22.2792 12.7195 22.5887 12.8635 22.914C12.2733 23.0993 11.9164 23.6966 12.0563 24.2959C12.1983 24.8952 12.7844 25.2816 13.4009 25.2008H13.3989ZM2.08264 26.5098C2.66467 28.9899 5.20576 30.5414 7.75698 29.9736C10.3082 29.4078 11.9042 26.9376 11.3222 24.4576C10.7402 21.9775 8.19908 20.426 5.64786 20.9918C3.09664 21.5576 1.5006 24.0278 2.08466 26.5079L2.08264 26.5098Z" fill="#FF5527"/>
</g>
<defs>
<clipPath id="clip0_284_4701">
<rect width="31" height="32" fill="white"/>
</clipPath>
</defs>
</svg>
