<svg width="19" height="19" viewBox="0 0 19 19" fill="none" xmlns="http://www.w3.org/2000/svg">
<path d="M0.502159 18.1357C0.502839 18.1842 0.51307 18.2321 0.532268 18.2767C0.551466 18.3213 0.579254 18.3616 0.614047 18.3954C0.64884 18.4293 0.689956 18.4559 0.735046 18.4738C0.780135 18.4918 0.828316 18.5006 0.876837 18.5H18.1219C18.1705 18.5007 18.2187 18.4919 18.2639 18.474C18.309 18.4561 18.3502 18.4294 18.385 18.3956C18.4199 18.3618 18.4477 18.3214 18.4669 18.2768C18.4862 18.2322 18.4964 18.1843 18.4971 18.1357V17.7008C18.5056 17.5696 18.5231 16.916 18.0921 16.1926C17.8202 15.7365 17.4256 15.3428 16.9193 15.0217C16.3068 14.6333 15.5276 14.3524 14.585 14.1833C14.1065 14.1159 13.6319 14.0236 13.163 13.9066C11.9163 13.5883 11.8074 13.3065 11.8064 13.3036C11.7992 13.2758 11.7887 13.2489 11.7752 13.2236C11.7647 13.1715 11.7396 12.9735 11.788 12.4434C11.9102 11.0967 12.6325 10.301 13.2128 9.66148C13.3956 9.46016 13.5685 9.26927 13.7016 9.08264C14.2762 8.27737 14.3292 7.36079 14.3316 7.30395C14.3338 7.20323 14.3198 7.10281 14.2904 7.00648C14.2335 6.83121 14.1279 6.72227 14.0502 6.64174C14.0318 6.62331 14.014 6.60435 13.9967 6.5849C13.991 6.57827 13.9759 6.56027 13.9896 6.46979C14.036 6.17834 14.0681 5.88477 14.0858 5.59016C14.1123 5.11553 14.1326 4.40595 14.01 3.71484C13.992 3.58284 13.9647 3.45226 13.9285 3.32405C13.7992 2.84848 13.5917 2.44205 13.3032 2.10669C13.2535 2.05221 12.0466 0.780369 8.5428 0.519843C8.05823 0.483843 7.57934 0.503264 7.10756 0.527422C6.96804 0.530523 6.82919 0.547662 6.6931 0.57858C6.33121 0.671895 6.23458 0.901159 6.20947 1.02953C6.16732 1.24269 6.24121 1.40753 6.29 1.51742C6.2971 1.53305 6.30611 1.55247 6.29047 1.60363C6.20948 1.72963 6.08111 1.84332 5.95085 1.95084C5.91295 1.98258 5.03476 2.74048 4.98644 3.73C4.85618 4.48269 4.86566 5.65506 5.0196 6.46553C5.02908 6.51053 5.04187 6.57685 5.02055 6.62185C4.85476 6.77011 4.66719 6.93827 4.66766 7.32195C4.66956 7.36079 4.72308 8.2769 5.29765 9.08264C5.43028 9.26927 5.60317 9.45969 5.78554 9.661L5.78648 9.66148C6.36674 10.301 7.08909 11.0967 7.2113 12.443C7.25914 12.9735 7.23403 13.171 7.22409 13.2236C7.21034 13.2489 7.19968 13.2758 7.19235 13.3036C7.19188 13.3065 7.08341 13.5874 5.84238 13.9052C5.12618 14.0885 4.42135 14.1823 4.40003 14.1847C3.48395 14.3396 2.70949 14.6138 2.09797 14.9999C1.59351 15.3187 1.19799 15.7137 0.923257 16.1732C0.483686 16.9074 0.495528 17.5763 0.501686 17.6985V18.1357H0.502159Z" stroke="#727272" stroke-linejoin="round"/>
</svg>
