<svg width="29" height="26" viewBox="0 0 29 26" fill="none" xmlns="http://www.w3.org/2000/svg">
<g clip-path="url(#clip0_319_963)">
<path fill-rule="evenodd" clip-rule="evenodd" d="M14.5368 5.86029C15.2399 5.86029 15.7877 5.24682 15.7877 4.55262H20.2436C20.2436 5.24682 20.865 5.86029 21.5763 5.86029C22.3611 5.86029 22.9089 5.24682 22.9089 4.55262H26.3428V8.4837H2.65718V4.55262H6.09924C6.09924 5.24682 6.72061 5.86029 7.43191 5.86029C8.2168 5.86029 8.76459 5.24682 8.76459 4.55262V1.31574C8.76459 0.621546 8.2168 0 7.43191 0C6.72879 0 6.09924 0.621546 6.09924 1.31574V2.00993H1.33268C0.629546 2.00993 0 2.55076 0 3.24496V22.7631C0 23.4573 0.62137 23.9981 1.33268 23.9981H8.13504C7.58726 23.3039 7.11305 22.3757 6.87595 21.4474H2.65718V9.72679H26.3346V21.4555H22.1159C21.8869 22.3837 21.4945 23.3039 20.9467 24.0062H27.6673C28.3705 24.0062 29 23.4654 29 22.7712V3.24496C29 2.55076 28.3705 2.00993 27.6673 2.00993H22.9008V1.31574C22.9008 0.621546 22.353 0 21.5681 0C20.865 0 20.2354 0.621546 20.2354 1.31574V2.00993H15.7795V1.31574C15.7795 0.621546 15.2317 0 14.5286 0C13.7437 0 13.1959 0.621546 13.1959 1.31574V2.00993H8.74006V4.55262H13.1959C13.1959 5.24682 13.7437 5.86029 14.5286 5.86029H14.5368Z" fill="#A1A1A1"/>
<path fill-rule="evenodd" clip-rule="evenodd" d="M14.5368 13.0361C18.1261 13.0361 21.1021 15.8936 21.1021 19.4373C21.1021 22.9809 18.1261 25.9917 14.5368 25.9917C10.9476 25.9917 7.96338 23.0616 7.96338 19.4373C7.96338 15.8129 10.9312 13.0361 14.5368 13.0361Z" fill="#A1A1A1"/>
<path fill-rule="evenodd" clip-rule="evenodd" d="M14.5367 24.8457C11.5607 24.8457 9.14062 22.4564 9.14062 19.4455C9.14062 16.5881 11.5607 14.1987 14.5367 14.1987C17.5128 14.1987 19.9247 16.5881 19.9247 19.4455C19.9247 22.4564 17.5046 24.8457 14.5367 24.8457Z" fill="#E9D518"/>
<path d="M16.7934 17.0726C17.0387 16.8385 17.4229 16.8546 17.66 17.0968C17.8808 17.3309 17.889 17.686 17.66 17.9201L14.3978 21.9481C14.1689 22.1902 13.7765 22.2064 13.5312 21.9804C13.5312 21.9804 13.523 21.9723 13.5148 21.9642L11.3482 19.8251C11.1029 19.5991 11.0866 19.2117 11.3155 18.9695C11.5444 18.7273 11.9369 18.7112 12.1822 18.9372C12.1903 18.9453 12.2067 18.9534 12.2149 18.9695L13.9236 20.6565L16.7607 17.0806C16.7607 17.0806 16.7689 17.0645 16.777 17.0645L16.7934 17.0726Z" fill="#A1A1A1"/>
</g>
<defs>
<clipPath id="clip0_319_963">
<rect width="29" height="26" fill="white"/>
</clipPath>
</defs>
</svg>
