<svg width="342" height="315" viewBox="0 0 342 315" fill="none" xmlns="http://www.w3.org/2000/svg">
<g clip-path="url(#clip0_242_3113)">
<g opacity="0.25">
<g opacity="0.41">
<path d="M338.286 202.373C338.604 196.913 338.46 191.43 337.847 186C334.95 160.491 321.842 136.438 302.553 119.469C295.67 113.413 287.841 107.99 283.364 100.001C275.822 86.5434 276.39 71.0698 267.033 57.7862C257.661 44.48 244 34.1038 228.6 28.7798C182.671 12.8909 118.377 38.7633 124.163 94.0046C124.186 94.2009 124.209 94.4879 124.232 94.8579C125.003 106.337 115.979 115.98 104.497 116.252C62.1233 117.257 25.6496 149.873 17.8435 191.189C12.821 217.756 21.0431 246.883 40.5129 265.679C55.0434 279.711 74.5434 287.421 94.0511 292.715C133.165 303.332 174.321 305.56 214.652 301.497C252.404 297.699 292.221 286.862 316.638 257.863C329.663 242.397 337.121 222.559 338.294 202.373H338.286Z" fill="#53D0F7"/>
</g>
<g opacity="0.31">
<path d="M326.85 28.1215C329.216 20.2389 324.733 11.9341 316.838 9.5722C308.943 7.2103 300.624 11.6857 298.259 19.5683C295.893 27.451 300.376 35.7558 308.271 38.1177C316.166 40.4796 324.485 36.0041 326.85 28.1215Z" fill="#53D0F7"/>
</g>
<g opacity="0.31">
<path d="M288.137 8.05783C288.674 10.8671 286.828 13.5782 284.007 14.1144C281.193 14.6505 278.477 12.8079 277.94 9.99108C277.403 7.18182 279.249 4.47073 282.07 3.93455C284.884 3.39838 287.6 5.24101 288.137 8.05783Z" fill="#53D0F7"/>
</g>
<g opacity="0.31">
<path d="M103.039 38.8638C103.92 35.1334 101.606 31.3956 97.8699 30.5151C94.1335 29.6347 90.3896 31.945 89.5077 35.6754C88.6258 39.4058 90.9399 43.1437 94.6763 44.0241C98.4128 44.9046 102.157 42.5943 103.039 38.8638Z" fill="#53D0F7"/>
</g>
<g opacity="0.31">
<path d="M34.529 306.223C35.9685 300.096 32.1602 293.964 26.0229 292.527C19.8856 291.089 13.7434 294.892 12.3039 301.019C10.8644 307.146 14.6728 313.279 20.8101 314.716C26.9473 316.153 33.0895 312.351 34.529 306.223Z" fill="#53D0F7"/>
</g>
</g>
<path opacity="0.58" d="M47.3206 26.771C49.2004 26.771 50.7244 25.2495 50.7244 23.3727C50.7244 21.4958 49.2004 19.9744 47.3206 19.9744C45.4407 19.9744 43.9167 21.4958 43.9167 23.3727C43.9167 25.2495 45.4407 26.771 47.3206 26.771Z" fill="#FFA000"/>
<path opacity="0.58" d="M2.70036 195.81C2.70036 196.558 2.09524 197.154 1.35397 197.154C0.612691 197.154 0.00756836 196.55 0.00756836 195.81C0.00756836 195.07 0.612691 194.466 1.35397 194.466C2.09524 194.466 2.70036 195.07 2.70036 195.81Z" fill="#FFA000"/>
<path opacity="0.58" d="M337.099 56.3664C337.099 57.1141 336.493 57.7106 335.752 57.7106C335.011 57.7106 334.406 57.1065 334.406 56.3664C334.406 55.6264 335.011 55.0222 335.752 55.0222C336.493 55.0222 337.099 55.6264 337.099 56.3664Z" fill="#FFA000"/>
<path opacity="0.58" d="M23.0854 1.34422C23.0854 2.09184 22.4803 2.68843 21.739 2.68843C20.9977 2.68843 20.3926 2.08429 20.3926 1.34422C20.3926 0.604143 20.9977 0 21.739 0C22.4803 0 23.0854 0.604143 23.0854 1.34422Z" fill="#2F7DED"/>
<path opacity="0.58" d="M339.799 146.278C339.799 147.026 339.194 147.622 338.453 147.622C337.711 147.622 337.106 147.018 337.106 146.278C337.106 145.538 337.711 144.934 338.453 144.934C339.194 144.934 339.799 145.538 339.799 146.278Z" fill="#2F7DED"/>
<path opacity="0.58" d="M140.82 1.34422C140.82 2.09184 140.214 2.68843 139.473 2.68843C138.732 2.68843 138.127 2.08429 138.127 1.34422C138.127 0.604143 138.732 0 139.473 0C140.214 0 140.82 0.604143 140.82 1.34422Z" fill="#2F7DED"/>
<path opacity="0.58" d="M234.318 6.28299C233.85 8.48811 231.679 9.89275 229.47 9.42453C227.261 8.95632 225.854 6.78896 226.323 4.58384C226.792 2.37872 228.963 0.974089 231.172 1.4423C233.381 1.91051 234.787 4.07787 234.318 6.28299Z" fill="#FFA000"/>
<g opacity="0.25">
<g opacity="0.47">
<path d="M37.2152 46.2773C33.6374 39.6166 25.3245 37.117 18.6606 40.689C11.9891 44.261 4.84869 55.0374 8.42647 61.698C12.0043 68.3587 22.6468 63.1178 30.2184 63.2084C40.7778 63.3292 40.7929 52.938 37.2152 46.2773Z" fill="#53D0F7"/>
</g>
<g opacity="0.47">
<path d="M336.743 248.695C341.478 241.181 342.666 231.855 341.675 223.027C340.692 214.259 338.006 205.054 334.247 197.079C330.684 189.519 325.526 182.776 324.058 174.356C322.114 163.232 327.205 152.538 328.385 141.626C330.737 119.9 316.033 100.763 297.788 90.425C282.97 82.0274 265.603 78.8783 248.569 79.1049C233.237 79.3088 217.935 82.0198 203.079 85.6749C188.76 89.194 174.767 93.8308 159.76 92.3658C147.279 91.1499 136.039 85.977 124.413 82.118C96.6608 72.9048 63.0538 71.6059 37.6765 85.6296C21.3912 94.6313 9.99218 109.252 4.93941 124.967C1.23304 136.476 0.136254 149.714 2.85174 161.366C5.90004 174.461 11.5352 185.985 10.0451 199.782C8.82732 211.095 4.65954 222.128 5.03018 233.607C5.34787 243.469 9.04668 253.34 14.8029 261.314C15.1735 261.828 15.5744 262.334 16.0132 262.787H320.564C326.94 259.358 332.893 254.805 336.743 248.688V248.695Z" fill="#53D0F7"/>
</g>
<g opacity="0.81">
<path d="M297.652 241.159C298.734 232.776 296.207 224.99 296.533 216.842C297.168 201.172 311.585 190.358 316.615 176.266C322.977 158.429 322.674 138.447 314.944 121.063C311.222 112.688 305.784 104.902 298.356 99.5173C286.904 91.2179 271.897 89.3979 257.79 90.4476C236.792 92.0109 214.629 100.733 193.518 98.3544C181.87 97.0404 178.307 84.9424 172.294 76.9677C165.486 67.9433 156.22 60.8522 145.971 56.1399C127.098 47.4478 104.444 46.6247 85.156 54.5087C64.5591 62.9214 46.6097 83.4698 47.7897 106.699C48.3343 117.445 52.8197 128.123 50.7472 138.688C48.1376 151.942 37.7295 164.025 30.1806 174.824C21.845 186.748 16.7998 200.976 15.8165 215.483C14.697 231.938 18.7967 248.703 27.3743 262.794H290.406C294.226 256.156 296.669 248.748 297.645 241.159H297.652Z" fill="#53D0F7"/>
</g>
</g>
<path d="M317.954 266.034H18.827C18.1689 266.034 17.6318 265.498 17.6318 264.841C17.6318 264.184 18.1689 263.648 18.827 263.648H317.954C318.612 263.648 319.149 264.184 319.149 264.841C319.149 265.498 318.612 266.034 317.954 266.034Z" fill="#233863"/>
<path d="M271.36 200.726H213.185C210.847 200.726 208.941 198.823 208.941 196.49V161.253C208.941 158.444 211.233 156.156 214.047 156.156H255.785C256.201 156.156 256.542 156.496 256.542 156.911C256.542 157.326 256.201 157.666 255.785 157.666H214.047C212.065 157.666 210.454 159.275 210.454 161.253V196.49C210.454 197.993 211.679 199.216 213.185 199.216H271.36C272.865 199.216 274.09 197.993 274.09 196.49V162.175C274.09 159.69 272.063 157.666 269.574 157.666H261.511C261.095 157.666 260.755 157.326 260.755 156.911C260.755 156.496 261.095 156.156 261.511 156.156H269.574C272.903 156.156 275.603 158.859 275.603 162.175V196.49C275.603 198.823 273.697 200.726 271.36 200.726Z" fill="#F9DAAC"/>
<path d="M211.702 199.692C211.49 199.692 211.286 199.609 211.135 199.435C210.855 199.125 210.885 198.65 211.195 198.37L234.961 177.263C235.272 176.984 235.756 177.014 236.028 177.323C236.308 177.633 236.278 178.109 235.967 178.388L212.201 199.495C212.058 199.624 211.876 199.684 211.694 199.684L211.702 199.692Z" fill="#F9DAAC"/>
<path d="M272.6 200.281C272.418 200.281 272.245 200.22 272.101 200.092L248.365 179.091C248.055 178.811 248.024 178.335 248.304 178.026C248.584 177.709 249.061 177.686 249.371 177.958L273.107 198.959C273.417 199.239 273.447 199.714 273.167 200.024C273.016 200.19 272.812 200.281 272.6 200.281Z" fill="#F9DAAC"/>
<path d="M242.283 183.085C241.497 183.085 240.71 182.836 240.037 182.345L209.94 160.264C209.599 160.015 209.531 159.547 209.781 159.207C210.03 158.874 210.499 158.799 210.84 159.048L240.937 181.13C241.739 181.719 242.82 181.719 243.622 181.13L273.077 159.69C273.417 159.441 273.886 159.516 274.136 159.856C274.385 160.196 274.31 160.664 273.969 160.913L244.515 182.353C243.849 182.836 243.063 183.085 242.283 183.085Z" fill="#F9DAAC"/>
<path d="M271.874 151.443C272.502 151.904 273.349 151.904 273.977 151.443L299.006 133.221C298.038 132.028 296.563 131.265 294.906 131.265H250.014C248.63 131.265 247.397 131.915 246.603 132.919C246.633 132.934 246.663 132.942 246.686 132.957L271.866 151.436L271.874 151.443Z" fill="#3A3A3A"/>
<path d="M274.869 152.667C274.287 153.09 273.606 153.301 272.933 153.301C272.26 153.301 271.564 153.09 270.981 152.659L267.162 149.858L247.851 167.008C247.851 167.008 247.82 167.023 247.805 167.038C248.221 167.212 248.675 167.31 249.159 167.31H296.707C296.979 167.31 297.236 167.272 297.486 167.212L278.266 150.197L274.877 152.667H274.869Z" fill="#3A3A3A"/>
<path d="M265.913 148.944L245.891 134.256C245.748 134.686 245.665 135.147 245.665 135.622V163.836C245.665 164.765 246.035 165.611 246.633 166.23C246.671 166.101 246.731 165.981 246.837 165.882L265.906 148.944H265.913Z" fill="#3A3A3A"/>
<path d="M298.81 166.366C298.855 166.404 298.878 166.457 298.908 166.502C299.679 165.86 300.186 164.908 300.186 163.829V136.536C300.186 135.826 300.042 135.147 299.785 134.528L279.506 149.284L298.802 166.358L298.81 166.366Z" fill="#3A3A3A"/>
<g opacity="0.69">
<path d="M300.269 237.383H260.785C258.448 237.383 256.542 235.48 256.542 233.146V210.264C256.542 207.455 258.833 205.167 261.647 205.167H298.476C301.805 205.167 304.505 207.871 304.505 211.186V233.146C304.505 235.48 302.599 237.383 300.262 237.383H300.269ZM261.647 206.677C259.665 206.677 258.054 208.286 258.054 210.264V233.146C258.054 234.649 259.28 235.873 260.785 235.873H300.269C301.774 235.873 303 234.649 303 233.146V211.186C303 208.701 300.973 206.677 298.484 206.677H261.655H261.647Z" fill="white"/>
<path d="M275.169 220.249L258.227 235.309L259.233 236.437L276.175 221.377L275.169 220.249Z" fill="white"/>
<path d="M285.718 220.735L284.714 221.865L301.64 236.842L302.643 235.712L285.718 220.735Z" fill="white"/>
<path d="M280.527 224.809C279.922 224.809 279.317 224.62 278.802 224.243L257.343 208.497L258.236 207.282L279.695 223.027C280.194 223.389 280.86 223.389 281.359 223.027L303.59 206.844L304.482 208.067L282.252 224.25C281.737 224.628 281.132 224.809 280.535 224.809H280.527Z" fill="white"/>
</g>
<path d="M299.891 140.916C305.138 140.916 309.391 136.67 309.391 131.431C309.391 126.193 305.138 121.946 299.891 121.946C294.644 121.946 290.391 126.193 290.391 131.431C290.391 136.67 294.644 140.916 299.891 140.916Z" fill="#D8A830"/>
<path d="M297.788 135.094H296.745V128.818L295.686 129.468V128.395L296.745 127.693H297.788V135.101V135.094Z" fill="white"/>
<path d="M300.012 134.618C299.657 134.248 299.475 133.735 299.475 133.07V129.702C299.475 129.037 299.657 128.516 300.02 128.154C300.383 127.784 300.905 127.603 301.601 127.603C302.296 127.603 302.818 127.784 303.181 128.154C303.537 128.524 303.719 129.037 303.719 129.709V133.078C303.719 133.742 303.537 134.263 303.174 134.626C302.811 134.996 302.289 135.177 301.601 135.177C300.912 135.177 300.383 134.988 300.02 134.618H300.012ZM302.402 133.901C302.576 133.712 302.667 133.433 302.667 133.07V129.702C302.667 129.339 302.584 129.068 302.41 128.871C302.236 128.682 301.964 128.584 301.593 128.584C301.222 128.584 300.95 128.682 300.776 128.871C300.602 129.06 300.519 129.339 300.519 129.702V133.07C300.519 133.433 300.61 133.704 300.784 133.901C300.958 134.09 301.23 134.188 301.601 134.188C301.971 134.188 302.236 134.09 302.417 133.901H302.402Z" fill="white"/>
<path d="M89.0135 128.781C88.4916 128.781 87.9848 128.577 87.6142 128.184L81.2075 121.546C80.7839 121.108 80.1863 120.851 79.5736 120.851L16.656 120.776C13.1615 120.776 10.325 117.936 10.325 114.455V90.6365C10.325 87.1476 13.169 84.3157 16.6636 84.3157H83.7565C87.7352 84.3157 90.9726 87.5478 90.9726 91.5201V126.84C90.9726 127.64 90.4961 128.35 89.7548 128.645C89.5128 128.743 89.2707 128.788 89.0211 128.788L89.0135 128.781ZM16.6636 85.826C14.0011 85.826 11.8378 87.9858 11.8378 90.6365V114.455C11.8378 117.113 14.0011 119.265 16.6636 119.265L79.5812 119.341C80.6023 119.341 81.5932 119.764 82.3042 120.496L88.7034 127.134C88.8925 127.323 89.1043 127.27 89.1799 127.24C89.2632 127.21 89.4523 127.104 89.4523 126.832V91.5125C89.4523 88.3785 86.8956 85.8185 83.749 85.8185H16.6636V85.826Z" fill="#A3A3A3"/>
<path d="M73.3182 98.3998H57.1993C56.7833 98.3998 56.4429 98.0599 56.4429 97.6446C56.4429 97.2292 56.7833 96.8894 57.1993 96.8894H73.3182C73.7342 96.8894 74.0746 97.2292 74.0746 97.6446C74.0746 98.0599 73.7342 98.3998 73.3182 98.3998Z" fill="#FFA000"/>
<path d="M47.3812 98.3998H22.7073C22.2913 98.3998 21.9509 98.0599 21.9509 97.6446C21.9509 97.2292 22.2913 96.8894 22.7073 96.8894H47.3812C47.7972 96.8894 48.1376 97.2292 48.1376 97.6446C48.1376 98.0599 47.7972 98.3998 47.3812 98.3998Z" fill="#FFA000"/>
<path d="M73.3181 104.131H32.7144C32.2984 104.131 31.958 103.792 31.958 103.376C31.958 102.961 32.2984 102.621 32.7144 102.621H73.3106C73.7266 102.621 74.067 102.961 74.067 103.376C74.067 103.792 73.7266 104.131 73.3106 104.131H73.3181Z" fill="#FFA000"/>
<path d="M73.3181 109.863H46.4129C45.9969 109.863 45.6565 109.524 45.6565 109.108C45.6565 108.693 45.9969 108.353 46.4129 108.353H73.3106C73.7266 108.353 74.067 108.693 74.067 109.108C74.067 109.524 73.7266 109.863 73.3106 109.863H73.3181Z" fill="#FFA000"/>
<path d="M80.3678 88.1596H58.5078C57.8119 88.1596 57.1387 88.4465 56.6546 88.9449L51.216 94.5786C50.5807 95.2356 49.4688 94.79 49.4688 93.8763V63.8881C49.4688 60.8674 51.9195 58.4131 54.9527 58.4131H81.2301C83.696 58.4131 85.6929 60.4068 85.6929 62.8686V82.8356C85.6929 85.7732 83.3026 88.1596 80.3602 88.1596H80.3678Z" fill="#D8A830"/>
<path d="M61.0115 73.9471C61.0115 74.9817 60.1719 75.8124 59.1432 75.8124C58.1145 75.8124 57.2749 74.9741 57.2749 73.9471C57.2749 72.92 58.1145 72.0818 59.1432 72.0818C60.1719 72.0818 61.0115 72.92 61.0115 73.9471Z" fill="white"/>
<path d="M69.7857 73.9471C69.7857 74.9817 68.9461 75.8124 67.9174 75.8124C66.8887 75.8124 66.0491 74.9741 66.0491 73.9471C66.0491 72.92 66.8887 72.0818 67.9174 72.0818C68.9461 72.0818 69.7857 72.92 69.7857 73.9471Z" fill="white"/>
<path d="M76.8883 75.8124C77.9202 75.8124 78.7567 74.9773 78.7567 73.9471C78.7567 72.9169 77.9202 72.0818 76.8883 72.0818C75.8565 72.0818 75.02 72.9169 75.02 73.9471C75.02 74.9773 75.8565 75.8124 76.8883 75.8124Z" fill="white"/>
<path d="M80.6636 163.402C86.6272 151.523 81.8159 137.066 69.9172 131.112C58.0185 125.158 43.5383 129.962 37.5747 141.841C31.6111 153.721 36.4224 168.177 48.3211 174.131C60.2197 180.085 74.7 175.282 80.6636 163.402Z" fill="#3A3A3A"/>
<path d="M59.1205 165.83C56.458 165.83 54.2266 163.844 53.9164 161.208L53.8181 160.362H64.4229L64.3246 161.208C64.022 163.844 61.783 165.83 59.1205 165.83ZM55.6184 161.873C56.1403 163.315 57.5245 164.319 59.1205 164.319C60.7165 164.319 62.1007 163.315 62.6226 161.873H55.6184Z" fill="white"/>
<path d="M68.4242 156.873H49.8091V148.34C49.8091 143.416 53.818 139.414 58.7422 139.414H59.4835C64.4077 139.414 68.4242 143.416 68.4242 148.34V156.873ZM51.3219 155.363H66.9114V148.34C66.9114 144.254 63.5832 140.924 59.4835 140.924H58.7422C54.6501 140.924 51.3219 144.247 51.3219 148.34V155.363Z" fill="white"/>
<path d="M67.6754 161.873H50.5656C48.8258 161.873 47.4114 160.46 47.4114 158.724V158.505C47.4114 156.768 48.8258 155.363 50.5656 155.363H67.6754C69.4151 155.363 70.8296 156.775 70.8296 158.505V158.724C70.8296 160.46 69.4151 161.873 67.6754 161.873ZM50.5656 156.873C49.6579 156.873 48.9242 157.606 48.9242 158.505V158.724C48.9242 159.622 49.6579 160.362 50.5656 160.362H67.6754C68.5755 160.362 69.3168 159.63 69.3168 158.724V158.505C69.3168 157.606 68.5831 156.873 67.6754 156.873H50.5656Z" fill="white"/>
<path d="M105.659 43.3173C111.57 37.416 111.57 27.8482 105.659 21.9469C99.7484 16.0456 90.1651 16.0456 84.2543 21.9469C78.3434 27.8482 78.3434 37.416 84.2543 43.3173C90.1651 49.2185 99.7484 49.2185 105.659 43.3173Z" fill="#3A3A3A"/>
<path d="M94.1118 26.6504H95.791V35.5388H94.1118V26.6504ZM94.1118 36.9284H95.791V38.6049H94.1118V36.9284Z" fill="white"/>
<path d="M299.15 66.3425H219.803C215.59 66.3425 212.171 69.7559 212.171 73.9623V115.731C212.171 117 213.722 117.627 214.599 116.713L222.171 108.867C222.844 108.164 223.774 107.772 224.75 107.772L299.15 107.689C302.796 107.689 305.746 104.743 305.746 101.103V72.9352C305.746 69.2953 302.796 66.3501 299.15 66.3501V66.3425Z" fill="#D8A830"/>
<path d="M251.209 81.9671H232.148C231.732 81.9671 231.391 81.6273 231.391 81.212C231.391 80.7966 231.732 80.4568 232.148 80.4568H251.209C251.625 80.4568 251.965 80.7966 251.965 81.212C251.965 81.6273 251.625 81.9671 251.209 81.9671Z" fill="white"/>
<path d="M292.002 81.9671H262.82C262.404 81.9671 262.063 81.6273 262.063 81.212C262.063 80.7966 262.404 80.4568 262.82 80.4568H292.002C292.418 80.4568 292.758 80.7966 292.758 81.212C292.758 81.6273 292.418 81.9671 292.002 81.9671Z" fill="white"/>
<path d="M280.164 88.7486H232.148C231.732 88.7486 231.391 88.4088 231.391 87.9935C231.391 87.5781 231.732 87.2383 232.148 87.2383H280.164C280.58 87.2383 280.921 87.5781 280.921 87.9935C280.921 88.4088 280.58 88.7486 280.164 88.7486Z" fill="white"/>
<path d="M263.962 95.5301H232.148C231.732 95.5301 231.391 95.1903 231.391 94.775C231.391 94.3596 231.732 94.0198 232.148 94.0198H263.962C264.378 94.0198 264.718 94.3596 264.718 94.775C264.718 95.1903 264.378 95.5301 263.962 95.5301Z" fill="white"/>
<path d="M198.268 67.9208H220.378C221.082 67.9208 221.762 68.2078 222.246 68.7137L227.745 74.4153C228.388 75.0799 229.508 74.6268 229.508 73.7055V43.3775C229.508 40.319 227.027 37.842 223.963 37.842H197.383C194.895 37.842 192.868 39.8584 192.868 42.3505V62.5439C192.868 65.5193 195.281 67.9283 198.261 67.9283L198.268 67.9208Z" fill="#3A3A3A"/>
<path d="M217.844 53.5498C217.844 54.592 218.691 55.4378 219.735 55.4378C220.779 55.4378 221.626 54.592 221.626 53.5498C221.626 52.5077 220.779 51.6619 219.735 51.6619C218.691 51.6619 217.844 52.5077 217.844 53.5498Z" fill="white"/>
<path d="M208.971 53.5498C208.971 54.592 209.819 55.4378 210.862 55.4378C211.906 55.4378 212.753 54.592 212.753 53.5498C212.753 52.5077 211.906 51.6619 210.862 51.6619C209.819 51.6619 208.971 52.5077 208.971 53.5498Z" fill="white"/>
<path d="M199.895 53.5498C199.895 54.592 200.742 55.4378 201.786 55.4378C202.83 55.4378 203.677 54.592 203.677 53.5498C203.677 52.5077 202.83 51.6619 201.786 51.6619C200.742 51.6619 199.895 52.5077 199.895 53.5498Z" fill="white"/>
<path d="M310.837 80.0353C315.424 75.4553 315.424 68.0296 310.837 63.4495C306.25 58.8695 298.812 58.8695 294.224 63.4495C289.637 68.0296 289.637 75.4553 294.224 80.0353C298.812 84.6154 306.25 84.6154 310.837 80.0353Z" fill="#3A3A3A"/>
<path d="M303.877 77.2245H302.259V67.4751L300.617 68.4795V66.8106L302.259 65.7156H303.877V77.2169V77.2245Z" fill="white"/>
<g opacity="0.61">
<path d="M200.727 242.004H180.932C180.516 242.004 180.175 241.665 180.175 241.249C180.175 240.834 180.516 240.494 180.932 240.494H200.727C201.143 240.494 201.483 240.834 201.483 241.249C201.483 241.665 201.143 242.004 200.727 242.004Z" fill="white"/>
<path d="M243.093 242.004H212.784C212.368 242.004 212.027 241.665 212.027 241.249C212.027 240.834 212.368 240.494 212.784 240.494H243.093C243.509 240.494 243.849 240.834 243.849 241.249C243.849 241.665 243.509 242.004 243.093 242.004Z" fill="white"/>
<path d="M230.794 249.043H180.924C180.508 249.043 180.168 248.703 180.168 248.288C180.168 247.872 180.508 247.532 180.924 247.532H230.794C231.21 247.532 231.55 247.872 231.55 248.288C231.55 248.703 231.21 249.043 230.794 249.043Z" fill="white"/>
<path d="M213.964 256.088H180.924C180.508 256.088 180.168 255.749 180.168 255.333C180.168 254.918 180.508 254.578 180.924 254.578H213.964C214.38 254.578 214.72 254.918 214.72 255.333C214.72 255.749 214.38 256.088 213.964 256.088Z" fill="white"/>
<path d="M73.1141 230.858H21.951C21.535 230.858 21.1946 230.518 21.1946 230.103C21.1946 229.687 21.535 229.348 21.951 229.348H73.1141C73.5301 229.348 73.8705 229.687 73.8705 230.103C73.8705 230.518 73.5301 230.858 73.1141 230.858Z" fill="white"/>
<path d="M73.1141 215.067H21.951C21.535 215.067 21.1946 214.727 21.1946 214.312C21.1946 213.897 21.535 213.557 21.951 213.557H73.1141C73.5301 213.557 73.8705 213.897 73.8705 214.312C73.8705 214.727 73.5301 215.067 73.1141 215.067Z" fill="white"/>
<path d="M73.1141 222.966H45.5281C45.1121 222.966 44.7717 222.627 44.7717 222.211C44.7717 221.796 45.1121 221.456 45.5281 221.456H73.1141C73.5302 221.456 73.8706 221.796 73.8706 222.211C73.8706 222.627 73.5302 222.966 73.1141 222.966Z" fill="white"/>
<path d="M73.1141 206.7H45.5281C45.1121 206.7 44.7717 206.36 44.7717 205.945C44.7717 205.529 45.1121 205.189 45.5281 205.189H73.1141C73.5302 205.189 73.8706 205.529 73.8706 205.945C73.8706 206.36 73.5302 206.7 73.1141 206.7Z" fill="white"/>
<path d="M73.1142 199.171H54.5066C54.0906 199.171 53.7502 198.831 53.7502 198.416C53.7502 198 54.0906 197.66 54.5066 197.66H73.1142C73.5302 197.66 73.8706 198 73.8706 198.416C73.8706 198.831 73.5302 199.171 73.1142 199.171Z" fill="white"/>
</g>
<path d="M186.136 84.9727C186.136 84.9727 186.052 84.9651 186.067 84.9425C195.333 72.6029 183.738 56.2231 173.632 55.2111C170.191 50.9293 165.569 47.463 159.956 45.3862C156.984 44.2912 153.935 43.6871 150.895 43.521C150.842 35.8861 144.624 29.7087 136.962 29.7087C129.299 29.7087 123.029 35.939 123.029 43.6191C123.029 47.1911 124.39 50.4384 126.607 52.9078C124.36 55.1809 122.439 57.8165 120.941 60.7843C120.586 61.4866 120.276 62.1965 119.981 62.9064C108.672 62.5288 98.9601 71.0774 98.0675 82.4504C97.4322 90.493 101.381 97.8409 107.719 101.942C103.877 103.965 101.441 106.752 101.184 109.984C100.889 113.745 103.604 117.37 108.218 120.172C107.265 122.09 106.728 124.212 106.728 126.44C106.728 135.086 114.686 142.094 124.504 142.094C131.137 142.094 136.924 138.892 139.98 134.142C142.098 135.517 144.443 136.785 146.977 137.888C160.062 143.575 173.065 142.668 176.03 135.872C176.832 134.029 176.809 131.952 176.098 129.777C176.885 129.641 177.656 129.468 178.413 129.226C204.849 120.798 208.412 95.0317 186.136 84.9576V84.9727Z" fill="#233863"/>
<path d="M191.113 197.57L189.343 192.593L202.603 185.041L203.019 184.807V183.516C203.019 159.184 187.353 139.459 168.035 139.459H147.529L147.794 139.95L111.622 140.244C102.606 140.32 94.9588 146.784 91.9861 155.823L66.5105 212.598L70.1791 213.043L91.0709 215.596L91.5399 273.307L181.121 273.329L184.078 226.236L187.444 220.746L189.07 218.095C192.754 212.092 193.518 204.374 191.105 197.577L191.113 197.57Z" fill="#FFC727"/>
<path d="M116.191 218.919L94.974 216.449C94.7698 216.427 94.6185 216.238 94.6412 216.034C94.6639 215.822 94.8605 215.687 95.0572 215.702L115.601 218.096L121.433 192.963C121.478 192.759 121.683 192.631 121.887 192.684C122.091 192.729 122.22 192.933 122.167 193.137L116.184 218.926L116.191 218.919Z" fill="#374081"/>
<path d="M138.338 164.848C125.964 164.848 115.904 154.796 115.904 142.449V139.919C115.904 139.617 116.146 139.376 116.448 139.376C116.751 139.376 116.993 139.617 116.993 139.919V142.449C116.993 154.2 126.569 163.753 138.331 163.753C150.093 163.753 159.669 154.192 159.669 142.449V139.919C159.669 139.617 159.911 139.376 160.214 139.376C160.516 139.376 160.758 139.617 160.758 139.919V142.449C160.758 154.804 150.691 164.848 138.323 164.848H138.338Z" fill="#233863"/>
<path d="M123.362 152.659C123.188 152.659 123.014 152.576 122.908 152.418C120.82 149.337 119.716 145.742 119.716 142.011V139.927C119.716 139.625 119.958 139.383 120.26 139.383C120.563 139.383 120.805 139.625 120.805 139.927V142.011C120.805 145.523 121.841 148.914 123.808 151.806C123.974 152.055 123.914 152.395 123.664 152.569C123.573 152.629 123.46 152.659 123.354 152.659H123.362Z" fill="#233863"/>
<path d="M138.338 160.596C134.072 160.596 130.063 159.199 126.735 156.549C126.501 156.36 126.455 156.02 126.652 155.778C126.841 155.544 127.189 155.506 127.424 155.695C130.555 158.187 134.329 159.509 138.346 159.509C142.362 159.509 146.129 158.195 149.253 155.71C149.488 155.522 149.836 155.559 150.025 155.793C150.214 156.028 150.176 156.375 149.942 156.564C146.621 159.207 142.612 160.604 138.346 160.604L138.338 160.596Z" fill="#233863"/>
<path d="M154.064 151.451C153.973 151.451 153.883 151.428 153.792 151.383C153.527 151.232 153.436 150.9 153.588 150.635C155.078 148.015 155.864 145.032 155.864 142.004V139.919C155.864 139.617 156.106 139.376 156.409 139.376C156.711 139.376 156.954 139.617 156.954 139.919V142.004C156.954 145.221 156.114 148.393 154.533 151.172C154.435 151.353 154.246 151.451 154.057 151.451H154.064Z" fill="#233863"/>
<path d="M191.68 288.584L177.55 267.371C174.328 263.248 172.475 258.248 168.716 257.221L166.182 256.579L166.197 256.542L102.818 240.819L108.045 217.665L70.1715 213.036L58.4775 251.558C57.7135 254.88 57.7513 258.196 58.4623 261.307C60.2853 271.034 68.7343 278.721 79.3239 278.903L146.145 278.736C153.088 285.994 174.782 300.848 174.782 300.848C175.803 301.739 177.369 301.626 178.261 300.606C178.844 299.942 178.988 299.043 178.746 298.258C178.859 298.235 178.927 298.22 178.927 298.22C178.995 298.243 179.056 298.25 179.124 298.265L180.047 299.164C181.121 300.206 182.86 300.183 183.904 299.104L183.972 299.036C184.441 298.552 184.683 297.941 184.721 297.314L184.744 297.336C185.795 298.409 187.527 298.424 188.601 297.382L188.67 297.314C189.744 296.264 189.759 294.535 188.715 293.462L188.45 293.198C188.412 293.1 188.375 293.002 188.337 292.911C189.365 293.493 190.697 293.364 191.582 292.503L191.65 292.435C192.724 291.386 192.739 289.656 191.695 288.584H191.68Z" fill="#AD6359"/>
<path d="M188.533 293.319C188.435 293.319 188.337 293.281 188.261 293.206L179.858 284.627C179.714 284.476 179.714 284.242 179.858 284.091C180.009 283.947 180.251 283.947 180.395 284.091L188.798 292.669C188.942 292.82 188.942 293.054 188.798 293.206C188.723 293.273 188.632 293.311 188.533 293.311V293.319Z" fill="#7C4843"/>
<path d="M184.071 296.679C183.972 296.679 183.874 296.642 183.798 296.566L175.395 287.987C175.251 287.836 175.251 287.602 175.395 287.451C175.546 287.308 175.788 287.308 175.932 287.451L184.335 296.03C184.479 296.181 184.479 296.415 184.335 296.566C184.26 296.634 184.169 296.672 184.071 296.672V296.679Z" fill="#7C4843"/>
<path d="M178.768 298.439C178.677 298.439 178.579 298.401 178.504 298.333L169.843 290.011C169.691 289.868 169.691 289.626 169.835 289.475C169.979 289.324 170.221 289.324 170.372 289.468L179.033 297.79C179.184 297.933 179.192 298.175 179.041 298.326C178.965 298.401 178.867 298.439 178.768 298.439Z" fill="#7C4843"/>
<path d="M109.172 242.775C109.134 242.775 109.096 242.775 109.058 242.76L89.5505 236.499C89.3538 236.439 89.2403 236.22 89.3084 236.023C89.3689 235.827 89.5883 235.714 89.785 235.782L109.293 242.042C109.489 242.103 109.603 242.322 109.535 242.518C109.482 242.677 109.338 242.782 109.172 242.782V242.775Z" fill="#7C4843"/>
<path d="M156.515 74.4531C152.793 75.0119 149.261 78.448 146.432 82.2239C145.993 82.8053 145.517 83.3415 145.002 83.8248C141.213 87.3968 135.714 87.7442 131.432 85.4032L130.389 85.2144C125.744 84.3912 121.312 87.4799 120.487 92.1091L120.457 92.2677C119.633 96.9045 122.726 101.33 127.363 102.153L129.466 102.523L128.914 105.619C128.581 107.485 128.49 109.342 128.619 111.147L123.74 138.485C122.325 146.399 127.605 153.958 135.532 155.363C143.459 156.775 151.031 151.504 152.438 143.59L154.389 132.67C165.153 132.715 174.706 125.05 176.658 114.107L177.028 112.016L181.658 86.0602C176.446 85.4183 157.997 82.5712 156.507 74.4304L156.515 74.4531Z" fill="#AD6359"/>
<path opacity="0.46" d="M150.872 130.253L150.456 130.178C139.17 128.169 131.349 118.102 131.886 106.971C131.97 105.151 131.062 103.422 129.466 102.538L128.914 105.634C127.696 112.469 129.708 119.137 133.853 124.068L152.226 144.956L154.382 132.881L153.928 132.685C164.873 132.957 174.676 125.216 176.658 114.123L177.028 112.031C174.842 124.272 163.133 132.428 150.872 130.246V130.253Z" fill="#263238"/>
<path d="M154.374 124.355C154.276 124.355 154.177 124.317 154.102 124.234C153.958 124.083 153.966 123.842 154.117 123.698C154.14 123.676 156.288 121.682 158.807 123.011C158.988 123.109 159.064 123.336 158.965 123.517C158.867 123.706 158.64 123.774 158.459 123.676C156.416 122.603 154.707 124.181 154.639 124.249C154.563 124.317 154.472 124.355 154.382 124.355H154.374Z" fill="#8E524C"/>
<path d="M160.486 99.5024C160.35 100.265 159.616 100.779 158.852 100.643C158.088 100.507 157.574 99.7742 157.71 99.0115C157.846 98.2488 158.58 97.7353 159.344 97.8712C160.108 98.0071 160.622 98.7396 160.486 99.5024Z" fill="#233863"/>
<path d="M177.165 102.47C177.028 103.233 176.295 103.746 175.531 103.61C174.767 103.475 174.252 102.742 174.389 101.979C174.525 101.217 175.258 100.703 176.022 100.839C176.786 100.975 177.301 101.707 177.165 102.47Z" fill="#233863"/>
<path d="M163.617 110.143C162.929 110.143 162.12 110.022 161.174 109.712C160.977 109.644 160.864 109.433 160.932 109.236C161 109.04 161.212 108.934 161.408 108.995C164.585 110.037 165.947 108.738 166.386 108.126C166.469 108.013 166.499 107.877 166.476 107.741L164.85 97.1007C164.82 96.8968 164.964 96.7005 165.168 96.6703C165.372 96.6401 165.569 96.7836 165.599 96.9875L167.225 107.628C167.278 107.96 167.195 108.292 167.006 108.564C166.613 109.116 165.607 110.143 163.617 110.143Z" fill="#8E524C"/>
<path d="M147.429 105.943L158.526 112.339L155.47 117.623C154.952 118.519 153.801 118.833 152.897 118.311L149.976 116.627C146.36 114.543 145.119 109.922 147.207 106.312L147.423 105.939L147.429 105.943Z" fill="white"/>
<path d="M154.646 106.223C149.783 106.223 145.819 102.274 145.812 97.4179C145.812 92.5545 149.768 88.5974 154.639 88.5898H154.646C156.999 88.5898 159.215 89.5036 160.887 91.165C162.558 92.8264 163.481 95.0391 163.481 97.3952C163.481 102.259 159.525 106.216 154.654 106.223H154.646ZM147.324 97.4103C147.324 101.435 150.615 104.713 154.646 104.713H154.654C158.693 104.713 161.968 101.428 161.968 97.3952C161.968 95.4469 161.204 93.6118 159.82 92.2298C158.436 90.8554 156.605 90.0927 154.654 90.0927H154.646C150.607 90.0927 147.332 93.3777 147.332 97.4103H147.324Z" fill="white"/>
<path d="M174.729 110.128C169.865 110.128 165.902 106.178 165.894 101.315C165.894 96.4513 169.85 92.4941 174.721 92.4866H174.729C179.592 92.4866 183.556 96.4362 183.564 101.292C183.564 106.155 179.608 110.112 174.736 110.12H174.729V110.128ZM167.407 101.315C167.407 105.34 170.697 108.617 174.729 108.617C178.768 108.617 182.043 105.332 182.043 101.3C182.043 97.2744 178.753 93.9969 174.721 93.9969H174.714C170.674 93.9969 167.399 97.282 167.399 101.315H167.407Z" fill="white"/>
<path d="M166.424 100.325C166.424 100.325 166.378 100.325 166.348 100.325L163.201 100.023C162.785 99.9856 162.483 99.6155 162.521 99.2002C162.558 98.7848 162.929 98.4752 163.345 98.5205L166.492 98.8226C166.908 98.8603 167.21 99.2304 167.172 99.6457C167.135 100.038 166.802 100.325 166.424 100.325Z" fill="white"/>
<path d="M153.481 85.6523C153.966 85.8335 154.571 85.7353 155.161 85.6825C155.758 85.6145 156.356 85.5617 156.878 85.5315C157.4 85.5012 158.005 85.4937 158.602 85.4937C159.192 85.4861 159.813 85.5088 160.266 85.2822C160.705 85.0708 160.856 84.5195 160.289 83.8776C159.752 83.2584 158.413 82.6165 156.681 82.7071C154.956 82.8053 153.708 83.5755 153.27 84.2552C152.793 84.95 153.028 85.4786 153.489 85.6447L153.481 85.6523Z" fill="#233863"/>
<path d="M179.54 90.0852C179.025 90.0852 178.496 89.7756 177.959 89.5113C177.429 89.2318 176.892 88.9675 176.416 88.7561C175.939 88.5446 175.379 88.3181 174.82 88.1066C174.267 87.8876 173.685 87.6913 173.345 87.3137C173.012 86.9588 173.065 86.3848 173.829 85.9921C174.547 85.5994 176.03 85.4937 177.611 86.196C179.184 86.9059 180.069 88.0764 180.243 88.8618C180.432 89.6774 180.031 90.0927 179.54 90.0776V90.0852Z" fill="#233863"/>
<path d="M125.767 96.1267C125.6 96.1267 125.442 96.0134 125.404 95.8397C125.351 95.6358 125.472 95.4319 125.676 95.3791L128.369 94.6843L127.144 90.1759C127.091 89.972 127.204 89.7681 127.408 89.7152C127.612 89.6548 127.817 89.7832 127.87 89.9795L129.292 95.228L125.85 96.1116C125.85 96.1116 125.79 96.1267 125.759 96.1267H125.767Z" fill="#8E524C"/>
<path d="M221.944 123.91H201.097C199.059 123.91 197.406 125.56 197.406 127.595V167.597C197.406 169.632 199.059 171.282 201.097 171.282H221.944C223.982 171.282 225.635 169.632 225.635 167.597V127.595C225.635 125.56 223.982 123.91 221.944 123.91Z" fill="#233863"/>
<path d="M239.795 206.194L237.48 164.214L238.033 159.124C238.804 151.995 236.701 144.873 232.231 139.262C231.807 138.726 231.384 138.198 230.968 137.692V130.842C230.968 129.347 229.75 128.131 228.252 128.131C226.755 128.131 225.635 129.302 225.635 130.744V133.342C225.635 138.288 221.626 142.298 216.672 142.298H208.843L197.126 141.309C195.606 141.181 194.252 142.321 194.123 143.839C194.017 145.085 194.774 146.21 195.886 146.648C195.78 146.678 195.682 146.716 195.576 146.746L195.25 146.716C193.73 146.588 192.376 147.728 192.24 149.246C192.111 150.764 193.254 152.116 194.774 152.252C194.297 152.69 193.965 153.286 193.889 153.973C193.722 155.491 194.827 156.873 196.34 157.039L197.573 157.175C197.633 157.213 197.678 157.258 197.739 157.296C197.739 157.296 197.769 157.357 197.822 157.455C197.051 157.764 196.453 158.452 196.309 159.328C196.082 160.664 196.998 161.94 198.337 162.167C198.337 162.167 206.952 164.999 210.673 166.049L207.527 182.33L206.854 185.804L202.595 185.034L189.335 192.586L191.105 197.562C193.518 204.359 192.754 212.077 189.071 218.08L187.444 220.731L193.919 223.389C202.096 226.742 213.934 230.231 222.693 228.154C225.537 227.482 227.738 226.667 229.455 225.7C235.763 222.408 240.15 214.901 239.78 206.194H239.795Z" fill="#AD6359"/>
<path d="M207.723 147.917C207.723 147.917 207.701 147.917 207.693 147.917L195.689 146.89C195.485 146.875 195.326 146.686 195.341 146.482C195.356 146.271 195.553 146.119 195.75 146.135L207.754 147.162C207.958 147.177 208.117 147.366 208.102 147.569C208.086 147.766 207.92 147.917 207.723 147.917Z" fill="#7C4843"/>
<path d="M207.958 153.513C207.958 153.513 207.935 153.513 207.928 153.513L195.923 152.486C195.719 152.471 195.56 152.282 195.575 152.078C195.591 151.866 195.78 151.715 195.984 151.731L207.988 152.758C208.192 152.773 208.351 152.961 208.336 153.165C208.321 153.362 208.154 153.513 207.958 153.513Z" fill="#7C4843"/>
<path d="M209.947 159.094C209.947 159.094 209.917 159.094 209.902 159.094L197.935 157.712C197.731 157.689 197.58 157.5 197.603 157.296C197.625 157.092 197.822 156.941 198.019 156.964L209.985 158.346C210.189 158.369 210.34 158.557 210.318 158.761C210.295 158.95 210.129 159.094 209.94 159.094H209.947Z" fill="#7C4843"/>
<path d="M201.96 205.93C201.96 205.93 201.899 205.93 201.869 205.922C201.665 205.877 201.544 205.673 201.589 205.469L207.595 180.057C207.64 179.853 207.837 179.725 208.049 179.778C208.253 179.823 208.374 180.027 208.329 180.231L202.323 205.643C202.285 205.816 202.126 205.93 201.952 205.93H201.96Z" fill="#7C4843"/>
<path d="M189.161 193.129L181.514 175.466C181.431 175.277 181.514 175.05 181.711 174.967C181.9 174.884 182.127 174.967 182.21 175.164L189.517 192.057L202.829 184.475C203.011 184.377 203.245 184.437 203.344 184.619C203.45 184.8 203.382 185.034 203.2 185.132L189.154 193.129H189.161Z" fill="#374081"/>
</g>
<defs>
<clipPath id="clip0_242_3113">
<rect width="342" height="315" fill="white"/>
</clipPath>
</defs>
</svg>
