<svg width="21" height="15" viewBox="0 0 21 15" fill="none" xmlns="http://www.w3.org/2000/svg">
<path d="M12.5393 14.5964C12.2697 14.3274 12.1402 14.0022 12.151 13.6211C12.1627 13.2399 12.3034 12.9148 12.573 12.6457L16.382 8.84529H1.34831C0.966292 8.84529 0.645843 8.71614 0.386966 8.45785C0.128989 8.20045 0 7.88117 0 7.5C0 7.11883 0.128989 6.7991 0.386966 6.54081C0.645843 6.28341 0.966292 6.15471 1.34831 6.15471H16.382L12.5393 2.32063C12.2697 2.05157 12.1348 1.73184 12.1348 1.36143C12.1348 0.991928 12.2697 0.672645 12.5393 0.403587C12.809 0.134529 13.1294 0 13.5007 0C13.871 0 14.191 0.134529 14.4607 0.403587L20.6292 6.5583C20.764 6.69282 20.8598 6.83856 20.9164 6.99551C20.9721 7.15247 21 7.32063 21 7.5C21 7.67937 20.9721 7.84753 20.9164 8.00448C20.8598 8.16143 20.764 8.30717 20.6292 8.4417L14.427 14.63C14.1798 14.8767 13.871 15 13.5007 15C13.1294 15 12.809 14.8655 12.5393 14.5964Z" fill="#252525"/>
</svg>
