<svg width="25" height="24" viewBox="0 0 25 24" fill="none" xmlns="http://www.w3.org/2000/svg">
<g clip-path="url(#clip0_346_695)">
<path fill-rule="evenodd" clip-rule="evenodd" d="M22.9109 1.28799H19.5421V0.812248C19.5421 0.336503 19.2029 0 18.7982 0C18.3279 0 17.9887 0.336503 17.9887 0.812248V1.28799H13.2709V0.812248C13.2709 0.336503 12.9356 0 12.5347 0C12.1338 0 11.7214 0.336503 11.7214 0.812248V1.28799H7.07293V0.812248C7.07293 0.336503 6.66821 0 6.26349 0C5.78939 0 5.45791 0.336503 5.45791 0.812248V1.28799H2.1585C1.01372 1.28799 0 2.23175 0 3.3805V21.9075C0 23.0562 1.01372 24 2.1585 24H22.9109C24.0518 24 25 23.0524 25 21.9075V3.3805C25 2.23175 24.0518 1.28799 22.9109 1.28799Z" fill="#A1A1A1"/>
<path fill-rule="evenodd" clip-rule="evenodd" d="M23.4505 21.9074C23.4505 22.1781 23.2462 22.4489 22.9109 22.4489H2.15847C1.81928 22.4489 1.61499 22.1781 1.61499 21.9074V3.38037C1.61499 3.10962 1.81928 2.83887 2.15847 2.83887H5.45788V3.65112C5.45788 4.05724 5.79322 4.39374 6.26346 4.39374C6.66818 4.39374 7.0729 4.05337 7.0729 3.65112V2.83887H11.7214V3.65112C11.7214 4.05724 12.1299 4.39374 12.5347 4.39374C12.9394 4.39374 13.2709 4.05337 13.2709 3.65112V2.83887H17.9887V3.65112C17.9887 4.05724 18.3279 4.39374 18.7982 4.39374C19.2029 4.39374 19.5421 4.05337 19.5421 3.65112V2.83887H22.9109C23.2462 2.83887 23.4505 3.10962 23.4505 3.38037V21.9074Z" fill="#E9D51C"/>
<path fill-rule="evenodd" clip-rule="evenodd" d="M17.1177 17.7148H20.8218V19.1343H17.1177V17.7148Z" fill="white"/>
<path fill-rule="evenodd" clip-rule="evenodd" d="M10.646 17.7148H14.3501V19.1343H10.646V17.7148Z" fill="white"/>
<path fill-rule="evenodd" clip-rule="evenodd" d="M4.17822 17.7148H7.88235V19.1343H4.17822V17.7148Z" fill="white"/>
<path fill-rule="evenodd" clip-rule="evenodd" d="M17.1177 14.3345H20.8218V15.8197H17.1177V14.3345Z" fill="white"/>
<path fill-rule="evenodd" clip-rule="evenodd" d="M10.646 14.3345H14.3501V15.8197H10.646V14.3345Z" fill="white"/>
<path fill-rule="evenodd" clip-rule="evenodd" d="M4.17822 14.3345H7.88235V15.8197H4.17822V14.3345Z" fill="white"/>
<path fill-rule="evenodd" clip-rule="evenodd" d="M17.1177 10.9497H20.8218V12.4388H17.1177V10.9497Z" fill="white"/>
<path fill-rule="evenodd" clip-rule="evenodd" d="M10.646 10.9497H14.3501V12.4388H10.646V10.9497Z" fill="white"/>
<path fill-rule="evenodd" clip-rule="evenodd" d="M4.17822 10.9497H7.88235V12.4388H4.17822V10.9497Z" fill="white"/>
<path fill-rule="evenodd" clip-rule="evenodd" d="M17.1177 7.63916H20.8218V9.06253H17.1177V7.63916Z" fill="white"/>
<path fill-rule="evenodd" clip-rule="evenodd" d="M10.646 7.63916H14.3501V9.06253H10.646V7.63916Z" fill="white"/>
<path fill-rule="evenodd" clip-rule="evenodd" d="M4.17822 7.63916H7.88235V9.06253H4.17822V7.63916Z" fill="white"/>
</g>
<defs>
<clipPath id="clip0_346_695">
<rect width="25" height="24" fill="white"/>
</clipPath>
</defs>
</svg>
