<svg width="52" height="32" viewBox="0 0 52 32" fill="none" xmlns="http://www.w3.org/2000/svg">
<path d="M0.536377 15.5469C3.48729 20.7955 6.43819 26.044 9.23653 31.4684C12.82 29.2612 16.8575 27.806 21.0216 27.2187C23.392 26.8857 25.9373 26.8633 28.0249 28.0417C28.8472 28.5056 29.6175 29.1602 30.559 29.2313C31.9172 29.3361 33.0187 28.1988 33.9937 27.0877C39.5308 25.1649 45.481 24.8881 51.2563 24.5888C49.5817 22.6547 47.1109 21.5325 45.507 19.6059C46.6234 19.5984 47.7398 19.7144 48.8077 19.8415C47.7174 18.0347 46.2997 16.4298 44.6623 15.1841C45.0642 15.0045 45.4996 14.8923 45.9089 14.8287C43.9255 13.0405 42.0575 11.1214 40.3383 9.03023C38.3251 6.74826 36.4459 4.34658 34.6039 1.77655C33.8932 1.64936 33.1378 1.80648 32.5238 2.20676C31.9805 1.57828 31.5191 0.882465 31.0986 0.134277C28.6389 1.14807 26.4173 2.73423 24.6274 4.75808C23.5036 6.23575 22.5249 7.82939 21.7398 9.53526C21.096 10.8783 20.6829 12.3297 20.4336 13.7812C17.6018 11.8397 14.2825 10.6314 10.8664 10.2797C8.05319 10.2311 5.11345 10.3508 2.62769 11.7499C2.76909 12.0529 2.89189 12.3671 3.04074 12.629C2.70956 12.6964 2.41558 12.9021 2.18859 13.1565C1.9616 13.4109 1.79786 13.7139 1.64529 14.0169C1.77926 14.3498 1.96532 14.6566 2.19603 14.9297C1.65274 15.1167 1.12805 15.3412 0.536377 15.5469Z" fill="white"/>
<path d="M31.5043 27.7091C33.3091 25.9359 34.712 23.6165 36.8815 22.4194C39.6165 20.9305 42.5935 19.711 45.7714 19.6175C47.2338 21.5815 49.474 22.7973 51.2118 24.5218C45.8868 24.6677 40.5803 25.386 35.4079 26.6654C34.5111 26.8861 33.5659 27.1555 32.9407 27.8401C32.9705 27.7166 33.0933 27.6193 33.2198 27.6193C32.39 28.4798 31.2029 28.9773 30.0121 28.9661C29.7591 28.9623 29.5023 28.9361 29.2753 28.8277C29.0558 28.7192 28.8809 28.5359 28.6911 28.3787C28.1627 27.9298 27.5003 27.6455 26.9012 27.3724C23.861 26.7552 20.6868 27.0208 17.695 27.8438C14.7031 28.6668 11.8862 30.036 9.05063 31.4089C9.05435 30.6383 8.65619 29.9312 8.2729 29.2691C5.66806 24.765 3.06323 20.2609 0.603516 15.8092C0.96075 15.2406 1.60824 14.8665 2.27061 14.7729C3.6028 16.7257 4.67078 18.8394 5.73877 20.9492C7.00025 23.4444 8.26174 25.9397 9.49345 28.4012C12.4816 26.7514 15.7413 25.4608 19.1425 25.2551C19.9389 25.2064 20.7352 25.2177 21.5315 25.2663C24.2406 25.4271 27.024 26.0407 29.186 27.6942C29.2939 27.7765 29.4056 27.8662 29.5358 27.9111C29.6735 27.9598 29.8223 27.956 29.9675 27.9448C30.5964 27.8999 31.2922 27.9186 31.5043 27.7091Z" fill="white"/>
<path d="M9.27367 32C9.23646 32 9.20297 31.9962 9.16575 31.9887C9.04295 31.9588 8.94248 31.8765 8.88294 31.768L3.71048 22.195C2.59784 20.1374 1.44799 18.0088 0.082314 16.0785C-0.0590915 15.8765 -0.0144371 15.5959 0.186507 15.4538C0.387452 15.3116 0.666542 15.3603 0.807947 15.5585C2.19967 17.5337 3.36441 19.6848 4.49193 21.7685L9.43368 30.9113C12.9018 28.663 16.6454 27.2452 20.5712 26.6916C24.084 26.1978 26.901 26.6354 28.9476 28.0009C29.8147 28.5994 31.0129 28.6668 31.932 28.1692C32.2483 28.0009 32.5349 27.769 32.84 27.5258C33.0261 27.3762 33.2158 27.2228 33.4205 27.0806C34.6597 26.209 36.1705 25.8424 37.4915 25.5693C41.3802 24.765 45.5442 24.3235 50.1845 24.2338C48.5248 23.0142 46.921 21.7086 45.3953 20.332C45.213 20.1674 45.1981 19.883 45.3618 19.6997C45.5256 19.5164 45.8084 19.5015 45.9907 19.6661C47.8253 21.3196 49.7826 22.8795 51.8069 24.2974C51.967 24.4096 52.0339 24.6116 51.9781 24.7986C51.9223 24.9857 51.7474 25.1129 51.5539 25.1129C46.4186 25.1391 41.8788 25.573 37.6701 26.4484C36.4384 26.7028 35.0318 27.0395 33.9303 27.8176C33.7517 27.9448 33.5768 28.0832 33.3945 28.2291C33.0707 28.4872 32.7395 28.7528 32.3525 28.9623C31.1469 29.6132 29.5765 29.5272 28.449 28.7453C26.5958 27.5108 23.9836 27.118 20.694 27.5819C16.7458 28.1393 12.9874 29.5983 9.51927 31.9289C9.44857 31.9738 9.36298 32 9.27367 32Z" fill="black"/>
<path d="M0.44705 16.1682C0.342857 16.1682 0.238663 16.1307 0.153076 16.0559C-0.0329838 15.8913 -0.0515898 15.6108 0.112143 15.4237C0.283318 15.2292 0.376348 15.1506 0.63311 15.0384C0.997788 14.8813 1.36991 14.7354 1.74575 14.6082C1.98018 14.5296 2.23322 14.6568 2.31137 14.8925C2.38951 15.1282 2.26299 15.3826 2.02856 15.4611C1.67877 15.5771 1.32897 15.7118 0.986624 15.8614C0.871267 15.91 0.871267 15.91 0.781958 16.0148C0.692649 16.1158 0.56985 16.1682 0.44705 16.1682Z" fill="black"/>
<path d="M30.6036 27.8322C30.559 27.8322 30.518 27.8061 30.4994 27.7612C29.8519 26.175 29.8854 24.2185 30.5999 22.2508C31.4446 19.9239 33.0708 17.7691 35.3072 16.0184C37.112 14.6043 39.3261 13.4371 42.0686 12.442C40.9634 11.4394 33.6364 4.7282 31.0576 0.246556C25.7772 2.29285 21.5946 7.7434 20.642 13.8411C20.6345 13.8785 20.6122 13.9122 20.5787 13.9272C20.5452 13.9421 20.5043 13.9384 20.4745 13.9197C17.6129 12.0754 14.6323 10.9307 11.6218 10.5117C8.45507 10.074 5.31438 10.5528 2.76536 11.8584C3.15981 12.7039 3.55053 13.5456 3.94498 14.3873C5.69394 18.1357 7.50617 22.0113 9.15838 25.8683C13.3484 23.6611 18.5358 23.186 24.5716 24.4617C27.262 25.0303 29.1152 26.074 30.2427 27.6602C30.2799 27.7088 30.265 27.7799 30.2166 27.8173C30.1683 27.8547 30.0975 27.8397 30.0603 27.7911C28.97 26.2536 27.1578 25.2398 24.5269 24.6824C18.4911 23.4067 13.3187 23.893 9.15466 26.1226C9.12861 26.1376 9.09512 26.1413 9.06535 26.1301C9.03558 26.1189 9.01325 26.0965 8.99836 26.0703C7.33499 22.1834 5.50788 18.2704 3.74031 14.4846C3.33098 13.6129 2.92537 12.7376 2.51604 11.8584C2.48999 11.8023 2.51232 11.7387 2.56442 11.7125C5.16925 10.3471 8.39553 9.84207 11.6516 10.291C14.6471 10.7062 17.6055 11.8322 20.4522 13.6391C21.4718 7.4965 25.7214 2.03473 31.0688 0.00713578C31.1209 -0.0115689 31.1767 0.00713579 31.2065 0.055768C33.9155 4.85165 42.2733 12.3298 42.3589 12.4046C42.3887 12.4308 42.4035 12.4719 42.3961 12.5094C42.3887 12.5468 42.3626 12.5804 42.3254 12.5917C39.5233 13.5905 37.2757 14.7689 35.4486 16.1979C33.2457 17.9188 31.6456 20.0399 30.8157 22.3293C30.1236 24.2447 30.0864 26.1451 30.7115 27.6789C30.7339 27.735 30.7078 27.8023 30.652 27.8248C30.6334 27.8285 30.6185 27.8322 30.6036 27.8322Z" fill="black"/>
<path d="M31.0465 27.8435H31.0427C30.9832 27.8398 30.9348 27.7874 30.9348 27.7276C30.9348 27.6864 31.1395 23.5714 34.5965 20.096C36.3492 18.3341 38.6042 16.9499 41.3021 15.9773C42.7905 15.4423 44.3348 15.072 45.6894 14.7652C41.6221 10.9046 37.8972 6.5688 34.6114 1.8814C33.9192 1.79162 33.2085 1.93378 32.6056 2.28543C32.5498 2.31535 32.4828 2.29665 32.4531 2.24428C32.4233 2.1919 32.4419 2.12082 32.494 2.0909C33.1564 1.70558 33.9378 1.55594 34.6932 1.66817C34.723 1.67191 34.749 1.69062 34.7676 1.71306C38.0907 6.46406 41.8714 10.8522 45.9982 14.7502C46.028 14.7802 46.0392 14.8213 46.028 14.8625C46.0168 14.9036 45.9833 14.9335 45.9461 14.941C44.5507 15.2515 42.932 15.6331 41.3802 16.1905C38.7121 17.1519 36.4831 18.5174 34.7565 20.2569C31.3665 23.6649 31.1618 27.6976 31.1618 27.7388C31.1544 27.7949 31.106 27.8435 31.0465 27.8435Z" fill="black"/>
<path d="M31.5823 27.8324C31.5599 27.8324 31.5339 27.825 31.5153 27.81C31.4669 27.7726 31.4595 27.7015 31.4967 27.6529C31.5823 27.5406 33.6401 24.9033 34.6783 23.9718C37.8115 21.1623 43.4938 18.6933 48.6774 19.7969C47.5834 18.0237 46.2438 16.5423 44.5953 15.2741C44.5469 15.2367 44.5357 15.1656 44.573 15.117C44.6102 15.0683 44.6809 15.0571 44.7293 15.0945C46.4708 16.4338 47.8699 18.005 49.0012 19.9016C49.0235 19.9391 49.0235 19.9877 48.9937 20.0251C48.9677 20.0625 48.923 20.0775 48.8784 20.0662C43.7059 18.8392 37.9678 21.3157 34.8234 24.1326C33.8001 25.0492 31.6902 27.7576 31.6679 27.7875C31.6455 27.8175 31.6158 27.8324 31.5823 27.8324Z" fill="black"/>
<path d="M30.4251 27.8398C30.3879 27.8398 30.3507 27.821 30.3283 27.7836C29.2306 25.8533 27.891 24.0315 26.596 22.2732L20.3928 13.8225C20.3555 13.7738 20.3667 13.7027 20.4151 13.6653C20.4635 13.6279 20.5342 13.6391 20.5714 13.6878L26.7783 22.1348C28.077 23.9005 29.4167 25.7261 30.5219 27.6677C30.5516 27.72 30.533 27.7911 30.4809 27.8211C30.466 27.8323 30.4474 27.8398 30.4251 27.8398Z" fill="black"/>
<path d="M28.5348 20.2607C28.5236 20.2607 28.5125 20.2607 28.4976 20.2532C28.4381 20.2345 28.4083 20.1709 28.4269 20.111C29.7405 16.2242 32.7993 13.0332 36.6135 11.5705C36.6693 11.548 36.7363 11.578 36.7587 11.6341C36.781 11.6902 36.7512 11.7575 36.6954 11.78C32.9444 13.2165 29.9303 16.3589 28.639 20.1821C28.6241 20.2308 28.5795 20.2607 28.5348 20.2607Z" fill="black"/>
<path d="M26.9645 17.9749C26.9496 17.9749 26.9347 17.9712 26.9198 17.9675C26.864 17.9413 26.8379 17.8777 26.8603 17.8216C26.9533 17.6083 27.0426 17.3951 27.1282 17.1856C28.0883 14.9074 28.9218 12.9359 30.9796 11.4507C31.028 11.4133 31.0987 11.4246 31.1359 11.4769C31.1731 11.5256 31.162 11.5966 31.1099 11.634C29.1004 13.0818 28.2818 15.0271 27.3329 17.2754C27.2436 17.4849 27.1542 17.6981 27.0649 17.9113C27.0463 17.9488 27.0054 17.9749 26.9645 17.9749Z" fill="black"/>
<path d="M32.7024 10.3361C32.669 10.3361 32.6355 10.3211 32.6131 10.2912C32.5759 10.2426 32.5834 10.1715 32.6317 10.1341C33.2346 9.66645 33.8448 9.3784 34.336 9.14646L34.3695 9.13149C34.4254 9.10531 34.4923 9.12775 34.5184 9.18387C34.5444 9.23998 34.5221 9.30732 34.4663 9.3335L34.4328 9.34847C33.949 9.57666 33.3499 9.86098 32.7694 10.3136C32.7471 10.3286 32.7248 10.3361 32.7024 10.3361Z" fill="black"/>
<path d="M24.9066 15.9288C24.8954 15.9288 24.8806 15.9251 24.8694 15.9213C24.8136 15.8989 24.7838 15.8353 24.8024 15.7792C26.4211 11.3948 28.8101 8.73497 32.5537 7.16378C32.6095 7.14133 32.6765 7.16752 32.6988 7.22363C32.7211 7.27975 32.6951 7.34708 32.6393 7.36953C28.959 8.91828 26.6072 11.5332 25.0108 15.8577C24.9922 15.9026 24.9513 15.9288 24.9066 15.9288Z" fill="black"/>
<path d="M23.0981 14.305C23.0869 14.305 23.0758 14.305 23.0683 14.3013C23.0088 14.2826 22.9753 14.2227 22.9939 14.1629C23.0683 13.9048 23.139 13.6466 23.206 13.396C23.5595 12.0867 23.8944 10.8521 24.8247 9.78972C24.8657 9.74483 24.9364 9.73735 24.981 9.7785C25.0257 9.81965 25.0331 9.89073 24.9922 9.93562C24.0954 10.9606 23.7679 12.169 23.4218 13.4521C23.3549 13.7065 23.2842 13.9646 23.2097 14.2227C23.1911 14.2714 23.1465 14.305 23.0981 14.305Z" fill="black"/>
<path d="M26.0006 8.68621C25.9745 8.68621 25.9522 8.67873 25.9299 8.66002C25.8815 8.62262 25.8741 8.55154 25.915 8.5029C26.4322 7.8632 27.0797 7.06264 27.8686 6.60251C27.9207 6.57258 27.9914 6.58754 28.0212 6.64366C28.051 6.69603 28.0324 6.76711 27.9803 6.79704C27.2249 7.23847 26.596 8.02032 26.0862 8.64506C26.0638 8.67125 26.0341 8.68621 26.0006 8.68621Z" fill="black"/>
<path d="M28.9293 6.11989C28.8995 6.11989 28.8697 6.10867 28.8474 6.08622C28.8065 6.04133 28.8065 5.97026 28.8511 5.9291C29.227 5.56997 29.9637 5.04998 30.4624 4.85171C30.5182 4.82927 30.5852 4.85546 30.6075 4.91531C30.6298 4.97142 30.6038 5.03876 30.5443 5.06121C30.0754 5.24825 29.3572 5.75702 29.0037 6.09371C28.9851 6.11241 28.959 6.11989 28.9293 6.11989Z" fill="black"/>
<path d="M29.9376 28.0345C29.2604 28.0345 28.6278 27.9372 28.0398 27.7427C27.9803 27.724 27.9505 27.6604 27.9691 27.6005C27.9877 27.5407 28.051 27.5108 28.1105 27.5295C29.1115 27.8624 30.2577 27.8998 31.5191 27.6417C32.7025 27.3985 33.8375 26.9309 34.8087 26.5082C34.8645 26.482 34.9315 26.5082 34.9538 26.568C34.9799 26.6241 34.9538 26.6915 34.8943 26.7139C33.9119 27.1404 32.762 27.6155 31.5601 27.8624C30.9982 27.9784 30.4549 28.0345 29.9376 28.0345Z" fill="black"/>
<path d="M9.62348 28.5583C9.61604 28.5583 9.60488 28.5583 9.59743 28.5546C9.56766 28.5471 9.54162 28.5284 9.52673 28.5022C8.57783 26.8263 7.70707 25.068 6.86608 23.3696C5.31434 20.231 3.70678 16.9876 1.54477 14.122C1.51872 14.0884 1.515 14.0435 1.5336 14.0061C1.83502 13.3813 2.33738 12.8613 2.94393 12.5359C2.99975 12.5059 3.06673 12.5284 3.0965 12.5808C3.12627 12.6369 3.10395 12.7042 3.05185 12.7304C2.50483 13.0222 2.05085 13.4861 1.76804 14.0397C3.92261 16.909 5.52272 20.1412 7.07074 23.2686C7.89313 24.9333 8.74528 26.6504 9.66814 28.289C13.9215 25.6142 19.0865 24.5555 23.8571 25.386C26.194 25.7938 28.0732 26.6018 29.4389 27.7839C29.4872 27.8251 29.4909 27.8962 29.45 27.9411C29.4091 27.9897 29.3384 27.9934 29.2937 27.9523C27.9578 26.7926 26.1158 26.0033 23.8198 25.603C19.0642 24.7762 13.914 25.8461 9.68674 28.5359C9.66442 28.5508 9.64581 28.5583 9.62348 28.5583Z" fill="black"/>
<path d="M10.6877 22.064C10.6468 22.064 10.6096 22.0416 10.591 22.0079C10.5612 21.9556 10.5798 21.8845 10.6356 21.8546C12.4665 20.837 14.7104 20.3283 17.118 20.3806C19.1088 20.4255 21.2522 20.8445 23.671 21.66C23.7305 21.6787 23.7603 21.7423 23.7417 21.8022C23.7231 21.862 23.6598 21.892 23.6003 21.8733C21.2001 21.0652 19.079 20.65 17.1105 20.6051C14.7364 20.549 12.5372 21.0503 10.7361 22.0491C10.7212 22.0603 10.7026 22.064 10.6877 22.064Z" fill="black"/>
<path d="M21.2002 18.8618C21.1853 18.8618 21.1741 18.8581 21.1593 18.8543C19.961 18.383 18.6995 18.1099 17.412 18.0425C17.3525 18.0388 17.3041 17.9864 17.3078 17.9228C17.3115 17.863 17.3562 17.8143 17.4269 17.8181C18.7368 17.8892 20.0206 18.1697 21.2411 18.6448C21.2969 18.6673 21.3267 18.7309 21.3044 18.7907C21.2858 18.8356 21.2448 18.8618 21.2002 18.8618Z" fill="black"/>
<path d="M9.60878 19.4376C9.57529 19.4376 9.5418 19.4226 9.51947 19.3927C9.48226 19.3441 9.49342 19.273 9.54552 19.2356C11.0787 18.1208 13.0844 17.8701 14.8482 17.7205C14.904 17.713 14.9636 17.7616 14.9673 17.8215C14.971 17.8813 14.9264 17.9375 14.8668 17.9412C13.1365 18.0871 11.1642 18.3303 9.67948 19.4114C9.65715 19.4338 9.63483 19.4376 9.60878 19.4376Z" fill="black"/>
<path d="M7.97869 16.6469C7.93776 16.6469 7.90055 16.6245 7.87822 16.5871C7.84845 16.531 7.87078 16.4636 7.92659 16.4374C11.8636 14.365 17.2147 14.6381 19.7377 16.1943C19.7898 16.228 19.8084 16.2953 19.7749 16.3477C19.7414 16.4 19.6744 16.415 19.6223 16.3851C17.1477 14.8625 11.9008 14.6006 8.03079 16.6357C8.0159 16.6395 7.9973 16.6469 7.97869 16.6469Z" fill="black"/>
<path d="M18.4987 14.3052C18.4839 14.3052 18.4653 14.3014 18.4504 14.294L18.2755 14.2117C17.3787 13.7889 16.6009 13.4223 15.6334 13.1642C15.5739 13.1492 15.5404 13.0856 15.5553 13.0258C15.5702 12.9659 15.6334 12.9285 15.693 12.9472C16.6791 13.2128 17.4643 13.5794 18.3685 14.0097L18.5434 14.092C18.5992 14.1181 18.6215 14.1855 18.5955 14.2416C18.5806 14.2827 18.5434 14.3052 18.4987 14.3052Z" fill="black"/>
<path d="M6.49411 14.0021C6.45318 14.0021 6.41225 13.9796 6.39364 13.9385C6.36759 13.8823 6.38992 13.815 6.44574 13.7888C8.76032 12.6366 11.4619 12.6703 13.8472 12.7002C13.9067 12.7002 13.9588 12.7526 13.9588 12.8124C13.9588 12.8723 13.9067 12.9247 13.8472 12.9247C11.488 12.8947 8.81614 12.8611 6.54993 13.9871C6.52761 13.9983 6.509 14.0021 6.49411 14.0021Z" fill="black"/>
<path d="M18.9898 7.88581C18.9339 7.88581 18.8893 7.84466 18.8781 7.78854C18.6809 6.42684 18.9004 4.9978 19.4996 3.75955C19.5256 3.70344 19.5926 3.68099 19.6484 3.70718C19.7042 3.73336 19.7265 3.8007 19.7005 3.85681C19.1237 5.05391 18.9116 6.43806 19.1014 7.75487C19.1088 7.81473 19.0679 7.87458 19.0084 7.88207C19.0009 7.88581 18.9972 7.88581 18.9898 7.88581Z" fill="black"/>
<path d="M17.4865 7.44039C17.4381 7.44039 17.3935 7.41046 17.3786 7.36183C17.1367 6.53134 16.8539 5.69711 16.5451 4.88533C16.5227 4.82921 16.5525 4.76187 16.6083 4.73943C16.6679 4.71698 16.7311 4.74691 16.7534 4.80303C17.066 5.61855 17.3488 6.45652 17.5944 7.29449C17.613 7.35435 17.5795 7.4142 17.52 7.43291C17.5051 7.43665 17.4977 7.44039 17.4865 7.44039Z" fill="black"/>
<path d="M15.2798 7.97183C15.2537 7.97183 15.2314 7.96435 15.2091 7.94564C14.2825 7.19371 13.114 6.76724 11.927 6.74106C11.8637 6.74106 11.8153 6.68868 11.819 6.62509C11.819 6.56149 11.8674 6.5166 11.9344 6.5166C13.1736 6.54279 14.3867 6.98796 15.3542 7.76982C15.4026 7.80723 15.41 7.8783 15.3728 7.92694C15.3467 7.9606 15.3133 7.97183 15.2798 7.97183Z" fill="black"/>
</svg>
