<svg width="35" height="25" viewBox="0 0 35 25" fill="none" xmlns="http://www.w3.org/2000/svg">
<g clip-path="url(#clip0_319_978)">
<path d="M0.383654 25C0.195192 25 0 24.7457 0 24.6186C0 24.3644 0.195192 24.1704 0.383654 24.1704H34.6096C34.8048 24.1704 34.9933 24.3644 34.9933 24.6186C34.9933 24.7457 34.8048 25 34.6096 25H0.383654Z" fill="#A1A1A1"/>
<path d="M0.383654 25C0.195192 25 0 24.7457 0 24.6186C0 24.3644 0.195192 24.1704 0.383654 24.1704H34.6096C34.8048 24.1704 34.9933 24.3644 34.9933 24.6186C34.9933 24.7457 34.8048 25 34.6096 25H0.383654Z" stroke="black"/>
<path fill-rule="evenodd" clip-rule="evenodd" d="M6.23937 10.8041H13.3807V0.381322C13.3807 0.187316 13.5086 0 13.7644 0H21.2894C21.4173 0 21.673 0.194006 21.673 0.381322V6.45571H28.6865C28.9423 6.45571 29.0701 6.58282 29.0701 6.84372V21.2269C29.0701 21.4209 28.9423 21.6082 28.6865 21.6082H6.23937C6.11148 21.6082 5.85571 21.4142 5.85571 21.2269V11.1854C5.85571 10.9914 6.11148 10.8041 6.23937 10.8041Z" fill="#A1A1A1"/>
<path fill-rule="evenodd" clip-rule="evenodd" d="M14.1548 11.1923V20.8458H20.9125V6.84393V0.702637H14.1548V11.1923Z" fill="#E9D518"/>
<path fill-rule="evenodd" clip-rule="evenodd" d="M13.3808 11.5732H6.62988V20.8454H13.3808V11.5732Z" fill="#E9D518"/>
<path fill-rule="evenodd" clip-rule="evenodd" d="M21.6797 7.2251V20.8456H28.3095V7.2251H21.6797Z" fill="#E9D518"/>
</g>
<defs>
<clipPath id="clip0_319_978">
<rect width="35" height="25" fill="white"/>
</clipPath>
</defs>
</svg>
