<svg width="19" height="19" viewBox="0 0 19 19" fill="none" xmlns="http://www.w3.org/2000/svg">
<path d="M6.42762 15.5664H5.99244C2.51099 15.5664 0.77027 14.6961 0.77027 10.3443V5.99244C0.77027 2.51099 2.51099 0.77027 5.99244 0.77027H12.9553C16.4368 0.77027 18.1775 2.51099 18.1775 5.99244V10.3443C18.1775 13.8257 16.4368 15.5664 12.9553 15.5664H12.5202C12.2503 15.5664 11.9892 15.697 11.8239 15.9146L10.5183 17.6553C9.94389 18.4212 9.00389 18.4212 8.42946 17.6553L7.12391 15.9146C6.98465 15.7231 6.66262 15.5664 6.42762 15.5664Z" stroke="#242424" stroke-width="1.5" stroke-miterlimit="10" stroke-linecap="round" stroke-linejoin="round"/>
<path d="M5.1221 5.99266H13.8257" stroke="#242424" stroke-width="1.5" stroke-linecap="round" stroke-linejoin="round"/>
<path d="M5.1221 10.3445H10.3443" stroke="#242424" stroke-width="1.5" stroke-linecap="round" stroke-linejoin="round"/>
</svg>
